<svg width="131" height="52" viewBox="0 0 131 52" fill="none" xmlns="http://www.w3.org/2000/svg">
<path d="M92.6294 10.5658C93.827 11.2838 94.544 12.1161 95.3211 13.1175C95.621 13.4914 95.9209 13.8653 96.2208 14.2392C96.4551 14.5351 96.4551 14.5351 96.6941 14.837C97.3724 15.6895 98.0658 16.5343 98.7586 17.3795C100.006 18.9012 101.245 20.4263 102.479 21.9547C102.644 22.159 102.809 22.3634 102.979 22.5739C103.287 22.9548 103.594 23.3359 103.9 23.7174C105.784 26.3452 105.784 26.3452 108.634 28.1928C110.06 28.3348 110.96 28.21 112.217 27.6829C113.394 26.7502 113.526 25.558 113.521 24.3084C113.522 24.0815 113.522 24.0815 113.523 23.8499C113.523 23.5241 113.522 23.1982 113.52 22.8723C113.516 22.356 113.518 21.8399 113.521 21.3236C113.529 19.8568 113.528 18.3901 113.523 16.9232C113.52 16.0238 113.523 15.1244 113.531 14.2249C113.532 13.8831 113.531 13.5412 113.527 13.1993C113.522 12.7214 113.525 12.244 113.53 11.7661C113.529 11.3588 113.529 11.3588 113.528 10.9433C113.735 10.0502 114.13 9.74657 115.024 9.18878C116.044 8.91646 116.477 8.93636 117.487 9.24099C118.219 9.60645 118.219 9.60645 118.752 10.233C118.806 10.7717 118.83 11.2881 118.829 11.8271C118.831 11.9891 118.833 12.1512 118.835 12.3182C118.84 12.8549 118.841 13.3916 118.841 13.9284C118.843 14.3022 118.845 14.6761 118.847 15.0499C118.85 15.8347 118.851 16.6194 118.851 17.4041C118.851 18.4062 118.858 19.4081 118.867 20.4101C118.873 21.183 118.874 21.9559 118.874 22.7289C118.874 23.098 118.877 23.4672 118.881 23.8363C118.918 27.5179 118.918 27.5179 117.687 29.0281C117.504 29.2781 117.504 29.2781 117.318 29.5331C115.828 31.1225 113.78 32.1946 111.297 32.5783C108.88 32.7787 106.6 32.5033 104.59 31.3906C102.652 30.1228 101.283 28.5857 99.964 26.9137C99.6357 26.5033 99.3074 26.093 98.979 25.6827C98.8135 25.4747 98.6479 25.2667 98.4773 25.0524C97.7095 24.0901 96.9312 23.133 96.1532 22.1757C96.0034 21.9909 95.8537 21.8061 95.6994 21.6158C94.8319 20.5455 93.9599 19.4777 93.0839 18.4118C92.7888 18.0522 92.4938 17.6926 92.1988 17.333C91.9147 16.9871 91.6296 16.6417 91.3445 16.2963C91.1723 16.0864 91.0001 15.8765 90.8227 15.6602C90.6694 15.474 90.516 15.2878 90.358 15.096C89.9959 14.6185 89.9959 14.6185 89.7296 13.992C88.6005 13.4938 87.285 13.3548 86.002 13.3655C84.5972 13.7189 84.0465 14.2487 83.3394 15.245C83.1821 15.9952 83.1821 15.9952 83.2067 16.8085C83.2052 16.9597 83.2038 17.111 83.2023 17.2669C83.1998 17.5933 83.1997 17.9198 83.2019 18.2462C83.2053 18.7634 83.2022 19.2803 83.1976 19.7975C83.1905 20.7086 83.189 21.6197 83.1894 22.5308C83.19 23.9897 83.1862 25.4486 83.1746 26.9075C83.172 27.4162 83.1743 27.9248 83.1769 28.4335C83.1753 28.7461 83.1734 29.0586 83.1713 29.3712C83.1716 29.6434 83.1719 29.9155 83.1721 30.1959C83.0414 31.1354 82.6333 31.6703 81.7917 32.3303C81.0028 32.6663 80.499 32.6636 79.6117 32.5783C78.8933 32.3222 78.429 32.1224 77.9816 31.6086C77.6586 30.9283 77.6694 30.2757 77.6706 29.5595C77.6688 29.4039 77.667 29.2482 77.6651 29.0879C77.6601 28.5736 77.659 28.0594 77.6585 27.5451C77.6568 27.1861 77.655 26.8271 77.6531 26.468C77.6499 25.7149 77.6489 24.9618 77.6492 24.2087C77.6493 23.2481 77.642 22.2877 77.6329 21.3271C77.6269 20.585 77.6259 19.8429 77.6261 19.1008C77.6255 18.7469 77.6232 18.3931 77.619 18.0393C77.5903 15.3277 77.9606 13.1271 80.4105 11.0683C83.9875 8.50144 88.7171 8.40249 92.6294 10.5658Z" fill="#62358E"/>
<path d="M9.48546 1.70989C10.1178 1.87957 10.1178 1.87957 10.3841 2.29724C10.4159 2.67033 10.4313 3.04432 10.4388 3.4182C10.4441 3.65231 10.4494 3.88641 10.4548 4.12761C10.4593 4.38127 10.4637 4.63492 10.4683 4.89626C10.4739 5.15525 10.4794 5.41423 10.4851 5.68107C10.4996 6.36976 10.513 7.05846 10.5258 7.74717C10.5392 8.44989 10.554 9.15258 10.5687 9.85528C10.5973 11.2342 10.6244 12.6131 10.6503 13.992C10.8085 13.8505 10.9666 13.709 11.1295 13.5632C11.3403 13.3765 11.5512 13.1899 11.7684 12.9976C12.0797 12.7207 12.0797 12.7207 12.3974 12.4382C15.184 10.1441 18.9192 9.10607 22.8983 8.97997C27.3646 9.12151 31.0427 10.4543 34.1478 12.9739C36.5384 15.2186 38.0512 18.2694 37.8838 21.2189C37.3891 24.5221 35.8607 27.4884 32.5981 29.7012C28.7323 32.0119 24.6914 32.7773 19.905 32.2798C16.0306 31.6269 12.5975 29.847 10.4174 27.2531C8.70876 24.9891 7.90494 22.9368 7.91462 20.3016C7.91257 20.0094 7.91257 20.0094 7.91049 19.7113C7.90682 19.0736 7.90704 18.436 7.90766 17.7984C7.90662 17.3531 7.90547 16.9078 7.9042 16.4625C7.90222 15.5325 7.90229 14.6025 7.90369 13.6725C7.90524 12.4794 7.90071 11.2863 7.89455 10.0932C7.89064 9.17522 7.89039 8.25726 7.89122 7.33929C7.89109 6.89915 7.88969 6.45901 7.88701 6.01887C7.88374 5.4055 7.88552 4.79227 7.88861 4.1789C7.88658 3.99664 7.88454 3.81438 7.88245 3.62659C7.89629 2.39002 7.89629 2.39002 8.34968 1.93005C8.78653 1.67073 8.78653 1.67073 9.48546 1.70989ZM13.3129 14.2009C10.8928 16.6242 9.98598 19.2905 10.3841 22.3454C10.837 24.2225 11.7573 25.688 13.3129 27.1486C13.4719 27.2991 13.6308 27.4496 13.7945 27.6047C15.6129 29.1732 18.317 30.3148 21.031 30.5324C21.5937 30.5533 22.152 30.5588 22.7153 30.5553C22.9147 30.5541 23.1142 30.5529 23.3197 30.5517C26.4992 30.4972 29.4374 29.5509 31.7681 27.8274C34.2711 25.7154 35.5178 23.1312 35.4687 20.2628C35.2208 17.4719 33.7047 15.1305 31.1274 13.2187C25.7102 9.86068 18.0575 10.109 13.3129 14.2009Z" fill="#683D93"/>
<path d="M63.9024 12.1124C66.6825 14.101 68.3364 16.9099 68.6951 19.8393C68.5513 21.2051 68.5513 21.2051 67.8963 21.7188C67.2109 21.7719 67.2109 21.7719 66.3331 21.7729C66.0052 21.7742 65.6774 21.7755 65.3395 21.7769C64.9801 21.7761 64.6207 21.7753 64.2612 21.7743C63.8938 21.7746 63.5263 21.775 63.1589 21.7755C62.3882 21.7761 61.6176 21.7752 60.847 21.7733C59.8591 21.7709 58.8713 21.7723 57.8834 21.7748C57.1243 21.7763 56.3653 21.7758 55.6063 21.7747C55.242 21.7745 54.8778 21.7748 54.5136 21.7758C54.0043 21.7768 53.4951 21.7749 52.9858 21.7729C52.6959 21.7726 52.406 21.7722 52.1074 21.7719C51.3882 21.7188 51.3882 21.7188 50.5894 21.3012C50.5062 20.7791 50.5062 20.7791 50.5894 20.257C51.2832 19.7129 51.5842 19.7829 52.5511 19.7727C52.9988 19.7665 52.9988 19.7665 53.4556 19.7602C53.9407 19.7565 53.9407 19.7565 54.4356 19.7529C54.7658 19.7488 55.096 19.7448 55.4362 19.7406C56.3143 19.7302 57.1923 19.7216 58.0705 19.7138C58.9664 19.7055 59.8623 19.6948 60.7582 19.6843C62.5163 19.6642 64.2744 19.6465 66.0325 19.6305C65.9072 19.2269 65.7811 18.8234 65.6545 18.42C65.5844 18.1954 65.5142 17.9707 65.442 17.7392C64.6875 15.5122 62.8371 13.7222 60.3599 12.5211C57.2851 11.1951 54.3333 10.8072 50.8557 11.2771C47.5868 12.0493 44.9877 13.3979 43.1341 15.6626C41.4756 18.2546 40.9514 20.9391 41.9526 23.768C42.5278 25.0628 43.3526 26.0975 44.4654 27.1486C44.6048 27.2837 44.7441 27.4188 44.8877 27.5581C46.7617 29.2 49.6708 30.1664 52.4387 30.3512C56.0927 30.4136 59.2049 29.9208 62.0386 27.9839C62.6997 27.4504 63.3077 26.8925 63.9024 26.3132C64.4682 25.7781 64.4682 25.7781 64.9674 25.4779C65.6997 25.5301 65.6997 25.5301 66.2987 25.6867C66.5317 26.1044 66.5317 26.1044 66.565 26.7309C65.8191 27.7672 64.7425 28.6415 63.6361 29.4457C63.5122 29.544 63.3883 29.6423 63.2607 29.7435C60.5277 31.7817 56.9275 32.4507 53.2737 32.4318C49.2783 32.3472 45.8106 31.0734 42.9261 28.9139C40.0003 26.3767 38.7185 23.4178 38.7918 20.0424C39.1117 16.8125 40.7831 14.1556 43.7717 11.9427C49.8117 7.96536 57.9714 8.1641 63.9024 12.1124Z" fill="#693E93"/>
<path d="M74.0203 9.18876C74.7546 9.61047 75.2694 9.94501 75.4742 10.6625C75.5233 11.2013 75.5284 11.731 75.5196 12.2711C75.5215 12.4753 75.5234 12.6795 75.5254 12.8899C75.5299 13.5641 75.5247 14.238 75.519 14.9122C75.5193 15.3811 75.5199 15.85 75.521 16.3189C75.5218 17.3013 75.5178 18.2836 75.5105 19.266C75.5015 20.5252 75.5031 21.7842 75.508 23.0433C75.5109 24.0115 75.5085 24.9796 75.5045 25.9478C75.5031 26.4121 75.5032 26.8763 75.5049 27.3406C75.5063 27.9895 75.5009 28.6382 75.4936 29.2871C75.4954 29.479 75.4971 29.6708 75.4989 29.8684C75.4822 30.7438 75.4462 31.2065 74.8429 31.9642C74.1041 32.5024 73.6541 32.5564 72.6796 32.6077C71.8896 32.5633 71.4292 32.3419 70.8252 31.9518C70.2805 31.311 70.2255 31.1788 70.2197 30.4562C70.217 30.2794 70.2143 30.1026 70.2116 29.9204C70.2114 29.7271 70.2113 29.5337 70.2111 29.3345C70.2089 29.1304 70.2066 28.9263 70.2044 28.7159C70.1979 28.0396 70.1956 27.3633 70.1938 26.6869C70.1915 26.2174 70.189 25.7479 70.1866 25.2784C70.1822 24.2935 70.1801 23.3086 70.1793 22.3238C70.1779 21.0613 70.1679 19.799 70.1557 18.5365C70.1478 17.5666 70.1459 16.5967 70.1456 15.6267C70.1445 15.1613 70.1412 14.6958 70.1356 14.2304C70.1285 13.5794 70.1297 12.9287 70.1331 12.2777C70.1291 12.0853 70.1252 11.8928 70.1211 11.6944C70.1348 10.7577 70.1684 10.3594 70.9184 9.5961C72.0284 8.95526 72.7089 8.90076 74.0203 9.18876Z" fill="#5F318C"/>
<path d="M81.7752 34.6014C83.6947 35.8124 84.8913 37.0874 85.4196 39C85.6163 40.7338 85.1065 42.2479 83.7929 43.6458C82.2856 45.0369 80.6603 45.8631 78.3138 46.1135C76.0542 46.2397 74.1885 45.8113 72.4228 44.6908C70.5048 43.2974 69.5142 41.971 69.3774 39.9137C69.4545 38.2249 70.2116 36.6264 71.7041 35.3968C74.7505 33.2931 78.2723 33.1178 81.7752 34.6014ZM72.5497 36.7811C71.2687 38.0569 71.1455 39.3686 71.3578 40.9317C71.8713 42.2743 72.8014 43.4299 74.375 44.1328C76.1939 44.7552 77.7278 44.9384 79.6451 44.4428C81.5793 43.8003 82.5666 42.8354 83.3395 41.3494C83.935 39.9482 83.6298 38.7732 82.8943 37.4509C81.9961 36.2139 80.5259 35.4942 78.813 35.0843C76.2541 34.8474 74.2999 35.2767 72.5497 36.7811Z" fill="#6B4194"/>
<path d="M94.0564 34.0532C95.5516 34.6934 96.3737 35.4728 96.9187 36.755C97.1036 38.227 97.0469 39.5238 95.8536 40.7229C94.3957 41.7671 94.3957 41.7671 93.4573 41.7671C93.7214 42.0881 93.7214 42.0881 93.9908 42.4156C94.2181 42.6997 94.4452 42.9838 94.6721 43.2681C94.7886 43.4088 94.9051 43.5494 95.0252 43.6943C95.8599 44.7512 95.8599 44.7512 95.8276 45.5106C95.5874 45.9438 95.5874 45.9438 95.0548 46.1526C94.0001 45.4003 93.4318 44.6973 92.8083 43.6988C92.4473 43.176 92.1185 42.8461 91.5935 42.3936C90.3261 42.1015 89.1756 42.0967 87.8658 42.1848C87.8689 42.4386 87.872 42.6925 87.8752 42.954C87.8777 43.285 87.8801 43.6159 87.8825 43.9468C87.8847 44.1144 87.8869 44.282 87.8892 44.4546C87.8915 44.8814 87.8797 45.3083 87.8658 45.735C87.5996 45.9438 87.5996 45.9438 86.9173 45.9569C86.7031 45.9525 86.4889 45.9482 86.2683 45.9438C85.9435 45.1797 85.9588 44.4734 85.9573 43.6776C85.9564 43.5161 85.9555 43.3546 85.9546 43.1881C85.9532 42.8458 85.9526 42.5035 85.9527 42.1612C85.9521 41.6429 85.9473 41.1246 85.9422 40.6063C85.9219 36.1959 85.9219 36.1959 87.5996 34.6667C89.6658 33.5123 91.7332 33.2225 94.0564 34.0532ZM88.4649 36.1285C87.96 36.7622 87.8328 37.2798 87.8398 38.0105C87.8407 38.1687 87.8415 38.3268 87.8424 38.4898C87.8446 38.6538 87.8469 38.8179 87.8492 38.987C87.8504 39.1535 87.8516 39.32 87.8528 39.4915C87.8559 39.902 87.8607 40.3125 87.8658 40.7229C88.637 40.7399 89.4076 40.7523 90.1789 40.7621C90.3964 40.7673 90.6138 40.7726 90.8378 40.778C92.1193 40.7902 92.9453 40.7446 93.9898 40.0964C94.9906 39.3115 95.2967 38.7018 95.3211 37.5904C94.8977 36.5019 94.3967 35.9236 93.191 35.2932C91.5109 34.6343 89.6518 35.0646 88.4649 36.1285Z" fill="#6D4396"/>
<path d="M115.923 34.0663C117.034 34.5561 117.692 34.9838 118.219 35.9197C118.399 36.5469 118.535 37.1556 118.486 37.7992C118.31 37.937 118.134 38.0749 117.953 38.2169C117.41 38.1948 117.41 38.1948 116.888 38.008C116.666 37.6059 116.666 37.6059 116.522 37.1074C116.247 36.3904 116.106 36.1414 115.407 35.5934C113.825 35.0746 112.467 35.0914 110.881 35.5934C109.975 36.3398 109.971 37.0071 109.965 38.008C111.121 38.6553 112.142 38.7778 113.51 38.9217C115.192 39.1286 116.7 39.325 117.953 40.3052C118.756 41.2103 118.92 41.9298 118.752 43.0201C118.223 44.3136 117.339 45.092 115.823 45.7349C114.012 46.2084 112.094 46.1287 110.365 45.5C109.277 45.011 108.628 44.5622 108.102 43.6466C107.913 43.0631 107.861 42.5878 107.835 41.9759C108.011 41.7691 108.187 41.5624 108.368 41.3494C108.877 41.3975 108.877 41.3975 109.433 41.5582C109.655 41.9604 109.655 41.9604 109.799 42.4588C110.082 43.2138 110.197 43.4138 110.981 43.9598C112.428 44.494 113.544 44.5741 115.068 44.2282C115.881 43.9554 116.21 43.6253 116.622 43.0201C116.8 42.2714 116.8 42.2714 116.622 41.5582C115.906 41.0291 115.304 40.8394 114.344 40.7172C114.115 40.6853 113.885 40.6534 113.648 40.6205C113.17 40.5585 112.692 40.4971 112.213 40.4361C110.765 40.2339 109.772 40.0051 108.634 39.261C107.921 38.3232 107.699 37.5978 107.954 36.5421C108.304 35.5623 108.691 34.9366 109.736 34.3436C111.857 33.4136 113.697 33.2779 115.923 34.0663Z" fill="#6D4396"/>
<path d="M54.8495 34.249C55.9621 34.8242 56.5207 35.3522 56.9796 36.3374C57.0398 36.9061 57.0174 37.4356 56.9796 38.0081C56.5403 38.077 56.101 38.1459 55.6483 38.2169C55.5562 38.0053 55.5562 38.0053 55.4622 37.7895C54.7985 36.2607 54.7985 36.2607 53.252 35.2932C51.9446 35.1618 50.7642 35.1802 49.5077 35.5021C48.7653 36.1031 48.5486 36.7636 48.4593 37.5904C48.5472 37.7972 48.635 38.0039 48.7256 38.2169C50.0132 38.7025 51.189 38.8934 52.603 39.0392C54.4587 39.2464 55.5419 39.5438 56.8299 40.6577C57.5075 41.7844 57.4618 42.7397 56.9463 43.9077C56.0602 44.927 55.0032 45.5584 53.5182 45.9438C51.5646 46.1256 49.797 46.0636 48.193 45.1085C47.4108 44.5072 46.6207 43.876 46.5695 42.9859C46.5726 42.8163 46.5757 42.6467 46.5788 42.4719C46.5812 42.3013 46.5836 42.1306 46.5861 41.9547C46.5892 41.8239 46.5923 41.6931 46.5955 41.5583C47.2545 41.4549 47.2545 41.4549 47.9268 41.3494C47.9721 41.4754 48.0174 41.6014 48.0641 41.7312C48.4408 42.7057 48.7278 43.419 49.7906 44.0643C50.5033 44.3438 51.0751 44.3161 51.8708 44.3253C52.1471 44.3307 52.4234 44.3361 52.708 44.3417C53.6244 44.2642 54.1134 44.0737 54.8495 43.6466C55.1857 43.1194 55.1421 42.7461 55.1324 42.1587C55.13 41.9686 55.1276 41.7786 55.1252 41.5828C55.1221 41.4368 55.119 41.2909 55.1158 41.1406C53.6513 40.7153 52.2019 40.5376 50.6632 40.3722C49.0962 40.1787 48.0183 39.7753 46.9013 38.8548C46.3338 38.0585 46.4669 37.2212 46.5955 36.3374C47.0643 35.2546 47.8091 34.695 48.9918 34.0402C50.9774 33.3134 52.9446 33.4445 54.8495 34.249Z" fill="#6C4195"/>
<path d="M66.8198 34.196C68.226 34.8729 68.9369 35.8741 69.394 37.0821C69.6284 38.275 69.1977 39.3148 68.512 40.3705C67.5171 41.2774 66.4784 41.9406 64.9674 42.1847C64.5838 42.201 64.1992 42.2073 63.815 42.2051C63.6022 42.2045 63.3894 42.2038 63.1702 42.2031C62.9505 42.2013 62.7308 42.1996 62.5045 42.1978C62.2807 42.1969 62.057 42.1959 61.8264 42.1949C61.2758 42.1925 60.7253 42.1887 60.1747 42.1847C60.1747 43.3563 60.1747 44.5279 60.1747 45.7349C59.5158 45.8383 59.5158 45.8383 58.8434 45.9438C58.4359 45.6241 58.5394 45.3332 58.5343 44.8876C58.5317 44.7077 58.5292 44.5278 58.5265 44.3425C58.5254 44.1465 58.5243 43.9505 58.5231 43.7486C58.5216 43.5479 58.5201 43.3472 58.5185 43.1404C58.516 42.7143 58.5142 42.2882 58.5132 41.8622C58.5106 41.2122 58.5024 40.5624 58.494 39.9124C58.4922 39.4987 58.4908 39.085 58.4898 38.6713C58.4865 38.4774 58.4832 38.2835 58.4799 38.0838C58.4859 36.6946 58.819 35.8299 59.9584 34.7319C62.0476 33.3846 64.4256 33.2684 66.8198 34.196ZM60.9735 35.9197C60.066 36.9874 60.143 38.0844 60.1581 39.3394C60.1605 39.5994 60.1629 39.8595 60.1654 40.1274C60.1685 40.3239 60.1716 40.5204 60.1747 40.7229C60.9849 40.7455 61.794 40.7621 62.6044 40.7751C62.9462 40.7856 62.9462 40.7856 63.295 40.7963C64.789 40.8143 65.6601 40.69 66.8313 39.8876C67.531 38.9669 67.7852 38.2164 67.5541 37.1719C67.2042 36.4055 66.5473 35.819 65.7662 35.2932C63.9446 34.8169 62.464 34.9217 60.9735 35.9197Z" fill="#693F93"/>
<path d="M99.1892 34.005C99.3875 34.0043 99.5858 34.0036 99.7901 34.0029C100.21 34.0019 100.629 34.0014 101.049 34.0014C101.691 34.0009 102.333 33.9972 102.976 33.9932C103.383 33.9926 103.791 33.9922 104.198 33.992C104.39 33.9905 104.583 33.989 104.781 33.9874C105.77 33.991 106.191 34.0157 107.037 34.4578C106.949 34.8024 106.861 35.1469 106.77 35.502C105.452 35.502 104.134 35.502 102.776 35.502C102.779 35.943 102.779 35.943 102.781 36.393C102.786 37.4824 102.789 38.5717 102.791 39.6611C102.792 40.1329 102.794 40.6046 102.797 41.0764C102.8 41.7539 102.801 42.4314 102.802 43.1089C102.804 43.3204 102.805 43.5319 102.807 43.7497C102.807 44.0444 102.807 44.0444 102.807 44.3451C102.807 44.5181 102.808 44.691 102.808 44.8692C102.776 45.3172 102.776 45.3172 102.51 45.9437C102.067 45.9526 101.623 45.9522 101.179 45.9437C100.913 45.7349 100.913 45.7349 100.881 45.3213C100.881 45.14 100.882 44.9586 100.882 44.7718C100.882 44.567 100.882 44.3621 100.882 44.1511C100.884 43.9283 100.885 43.7055 100.887 43.476C100.887 43.2492 100.887 43.0224 100.888 42.7887C100.889 42.0609 100.893 41.3331 100.896 40.6054C100.897 40.1133 100.899 39.6213 100.9 39.1292C100.903 37.9201 100.907 36.711 100.913 35.502C100.631 35.5068 100.348 35.5116 100.058 35.5166C99.6881 35.5206 99.3186 35.5244 98.949 35.5281C98.6699 35.5333 98.6699 35.5333 98.3853 35.5387C97.8962 35.5423 97.4071 35.5235 96.9188 35.502C96.743 35.3641 96.5673 35.2263 96.3862 35.0843C96.4528 34.6536 96.4528 34.6536 96.6525 34.2489C97.461 33.9319 98.3023 34.0061 99.1892 34.005Z" fill="#714899"/>
</svg>
