<svg width="368" height="166" viewBox="0 0 368 166" fill="none" xmlns="http://www.w3.org/2000/svg">
<path d="M97.2617 13.0298C97.9225 13.3382 98.5833 13.6466 99.2642 13.9643C111.146 19.5607 122.01 25.9374 132.168 34.3306C134.354 36.1592 134.354 36.1592 137.262 38.0298C142.155 32.1318 143.65 28.2936 143.234 20.6743C143.278 16.4248 144.674 13.3566 147.262 10.0298C151.658 5.93978 155.538 4.23925 161.512 3.77977C166.565 4.11664 171.034 5.0121 174.879 8.49461C178.262 12.403 178.262 12.403 178.262 15.0298C179.252 14.6998 180.242 14.3698 181.262 14.0298C188.257 13.3043 193.865 13.3312 199.645 17.6118C204.151 21.5629 206.176 25.1058 207.262 31.0298C207.357 37.0978 206.237 41.2812 202.262 46.0298C198.47 49.933 194.514 51.0255 189.371 52.3188C187.074 52.817 187.074 52.817 186.262 55.0298C187.064 54.7875 187.064 54.7875 187.883 54.5403C193.037 53.4342 198.451 53.845 203.699 53.8423C204.908 53.83 206.116 53.8178 207.361 53.8052C218.427 53.7874 229.024 54.6135 239.262 59.0298C239.324 58.1429 239.385 57.256 239.449 56.3423C240.452 52.2553 242.102 50.7271 245.262 48.0298C248.489 46.416 250.668 46.6304 254.262 47.0298C258.261 49.066 262.319 51.2551 264.465 55.2954C266.071 57.2281 266.071 57.2281 268.136 57.115C270.541 56.862 272.885 56.4769 275.262 56.0298C276.001 55.9046 276.741 55.7794 277.503 55.6504C278.968 55.3996 280.432 55.1407 281.895 54.8738C302.254 51.1824 302.254 51.1824 311.289 56.3501C313.271 57.2679 313.271 57.2679 315.25 56.2798C315.914 55.8673 316.578 55.4548 317.262 55.0298C325.48 50.6658 334.116 49.5364 343.262 51.0298C351.631 53.712 359.262 58.5181 363.535 66.3696C367.659 75.3916 368.878 84.019 365.762 93.6548C360.727 105.958 350.77 114.911 338.777 120.084C336.262 121.03 336.262 121.03 334.234 121.233C331.995 121.878 331.995 121.878 331.105 124.479C330.804 125.548 330.502 126.616 330.191 127.717C329.852 128.892 329.513 130.066 329.164 131.276C328.825 132.515 328.486 133.753 328.137 135.03C327.79 136.238 327.443 137.445 327.086 138.69C325.623 143.841 324.23 148.985 323.105 154.221C322.147 158.548 321.124 161.581 317.574 164.342C312.891 165.734 309.222 166.007 304.848 163.827C300.947 161.311 297.804 158.975 295.262 155.03C295.262 154.37 295.262 153.71 295.262 153.03C293.85 153.034 293.85 153.034 292.41 153.038C269.508 153.105 246.606 153.154 223.704 153.185C212.629 153.201 201.554 153.222 190.479 153.256C180.825 153.286 171.171 153.305 161.516 153.312C156.405 153.316 151.295 153.325 146.184 153.347C141.371 153.367 136.558 153.374 131.744 153.369C129.98 153.37 128.216 153.376 126.452 153.387C124.038 153.402 121.624 153.399 119.209 153.391C118.516 153.399 117.824 153.408 117.11 153.417C110.571 153.358 105.232 151.869 100.449 147.405C96.3587 141.849 95.0764 135.819 95.2617 129.03C86.5291 128.194 86.5291 128.194 78.5742 131.03C74.0433 133.765 70.4281 133.812 65.2617 133.03C62.3593 132.233 60.3732 131.191 58.2617 129.03C57.5216 127.492 56.8391 125.925 56.1992 124.342C53.7193 118.752 49.8429 116.423 44.7815 113.434C35.2128 107.747 24.2239 99.2273 21.2617 88.0298C20.4077 82.3727 20.354 77.5716 23.6367 72.7173C30.7378 64.6254 41.1863 60.9908 51.2617 58.0298C52.2517 58.0298 53.2417 58.0298 54.2617 58.0298C54.4435 56.4713 54.4435 56.4713 54.6289 54.8813C55.5459 47.1913 56.5527 39.5931 58.2617 32.0298C43.5282 28.6507 43.5282 28.6507 29.3047 31.1157C27.7626 32.5619 27.7626 32.5619 26.2617 35.0298C23.9285 37.363 18.0267 36.4622 14.7832 36.4807C10.5468 36.3845 7.24791 36.2547 3.76172 33.5923C1.04595 30.4979 0.130346 27.4124 0 23.3306C0.650569 17.6114 3.39298 13.5493 7.57422 9.71727C30.317 -8.02496 73.4215 1.85713 97.2617 13.0298ZM152.262 17.0298C150.711 20.1303 150.972 22.6087 151.262 26.0298C153.119 28.9379 153.119 28.9379 155.262 31.0298C154.334 31.731 153.405 32.4323 152.449 33.1548C148.453 36.5085 146.569 39.8815 145.824 45.0923C146.399 48.9499 147.397 50.3799 150.262 53.0298C154.97 55.7822 159.523 56.5878 164.895 55.7329C170.806 53.9769 176.284 50.8102 179.762 45.6548C182.262 43.0298 182.262 43.0298 184.605 42.8306C186.365 42.9211 188.124 43.02 189.883 43.1274C192.556 43.2305 192.556 43.2305 195.324 40.9048C197.498 37.6792 198.262 35.9164 198.262 32.0298C196.731 27.9201 195.187 25.1012 191.262 23.0298C186.907 21.8201 184.998 21.6752 180.887 23.6548C178.064 26.2083 177.469 27.3021 177.262 31.0298C175.282 30.0398 173.302 29.0498 171.262 28.0298C171.331 27.1423 171.331 27.1423 171.402 26.2368C171.595 22.0099 171.684 19.7049 169.387 16.0298C166.113 12.9489 163.8 12.6959 159.301 12.7368C156.13 13.1923 154.442 14.7829 152.262 17.0298ZM11.4492 17.4946C8.93963 20.5283 8.93963 20.5283 8.26172 24.2798C9.28035 26.3652 9.28035 26.3652 12.2617 28.0298C15.3869 28.1968 15.3869 28.1968 18.2617 28.0298C18.5599 24.2534 18.5599 24.2534 17.2617 22.0298C49.4425 17.7895 85.3264 26.2613 111.567 45.8196C113.04 46.9548 114.491 48.1165 115.941 49.2798C118.223 51.194 118.223 51.194 121.262 52.0298C121.262 52.6898 121.262 53.3498 121.262 54.0298C122.417 55.2192 123.578 56.4037 124.766 57.561C132.034 64.6967 136.367 71.7135 136.762 82.1548C136.5 88.5315 135.167 93.0899 130.637 97.6743C118.212 107.899 101.829 109.871 86.2617 109.03C82.9617 108.7 79.6617 108.37 76.2617 108.03C76.2617 97.7998 76.2617 87.5698 76.2617 77.0298C98.1485 77.9732 98.1485 77.9732 106.262 82.0298C105.634 84.9586 104.675 87.3907 103.262 90.0298C104.821 91.5891 106.35 91.3492 108.512 91.4673C112.476 91.4167 113.097 91.168 116.324 88.4673C118.613 84.4073 119.145 82.6086 118.262 78.0298C114.725 71.4786 109.112 69.1101 102.262 67.0298C101.586 66.8158 100.911 66.6018 100.215 66.3813C92.4689 64.3097 84.2302 64.3774 76.2617 64.0298C76.1638 62.9444 76.0658 61.859 75.9648 60.7407C75.8147 59.2953 75.6636 57.85 75.5117 56.4048C75.4498 55.6919 75.388 54.9791 75.3242 54.2446C74.7779 49.2821 73.6538 45.8977 70.2617 42.0298C68.9417 42.0298 67.6217 42.0298 66.2617 42.0298C62.2768 48.9114 61.8979 58.208 62.2617 66.0298C60.5911 66.1845 60.5911 66.1845 58.8867 66.3423C48.8157 67.6366 39.2388 71.2472 31.1367 77.4048C29.0759 79.9549 29.0759 79.9549 28.4492 83.2173C30.5591 93.1175 40.2768 100.524 48.2617 106.03C50.5798 107.226 52.9134 108.394 55.2617 109.53C60.8587 112.358 60.8587 112.358 62.6797 115.393C63.4492 117.842 63.4492 117.842 63.8672 120.112C64.1259 122.261 64.1259 122.261 66.2617 124.03C70.9889 124.538 70.9889 124.538 75.1992 122.717C76.5281 120.939 76.5281 120.939 76.2617 118.03C78.147 118.513 78.147 118.513 80.0703 119.006C98.7854 123.138 120.004 120.285 136.262 110.03C144.363 104.078 150.352 97.1005 152.262 87.0298C153.598 75.0636 149.044 66.1494 141.73 56.936C119.573 30.8522 86.1287 14.6323 52.2617 11.0298C40.1095 10.1262 21.5071 9.36598 11.4492 17.4946ZM160.262 64.0298C155.792 72.9702 156.081 82.4503 156.074 92.2798C156.062 93.2337 156.05 94.1876 156.037 95.1704C156.027 100.164 156.159 104.396 158.262 109.03C160.148 111.336 160.148 111.336 163.262 111.342C164.747 111.188 164.747 111.188 166.262 111.03C168.547 107.602 168.519 106.32 168.527 102.288C168.53 101.138 168.532 99.9879 168.535 98.8032C168.527 97.5992 168.52 96.3952 168.512 95.1548C168.519 93.9895 168.527 92.8241 168.535 91.6235C168.678 77.3445 168.678 77.3445 164.262 64.0298C162.942 64.0298 161.622 64.0298 160.262 64.0298ZM173.699 70.7173C171.481 74.2857 170.793 77.8475 171.262 82.0298C174.682 85.8305 177.793 86.9291 182.852 87.2759C184.301 87.3414 185.75 87.4051 187.199 87.4673C207.054 88.4838 207.054 88.4838 212.262 92.0298C213.012 94.1548 213.012 94.1548 213.262 96.0298C203.344 99.6663 190.678 103.502 180.262 100.03C179.767 98.5448 179.767 98.5448 179.262 97.0298C179.922 96.3698 180.582 95.7098 181.262 95.0298C185.091 95.2809 188.186 95.5608 191.699 97.0923C195.526 98.4924 199.233 98.5484 203.262 98.0298C205.781 96.7121 205.781 96.7121 207.262 95.0298C206.767 93.5448 206.767 93.5448 206.262 92.0298C198.891 88.4808 188.646 86.6133 180.762 89.1548C177.047 91.1448 175.642 92.0741 174.262 96.0298C174.262 99.8749 174.928 101.592 177.262 104.655C185.279 111.002 193.871 112.531 203.969 111.846C210.148 110.925 214.878 108.521 219.262 104.03C222.052 99.6251 221.877 95.0787 221.262 90.0298C219.306 85.7458 216.603 84.5904 212.387 82.9751C206.15 80.7732 200.143 80.1659 193.574 79.7798C192.479 79.7024 191.384 79.6251 190.256 79.5454C187.592 79.3593 184.928 79.1876 182.262 79.0298C182.592 78.3698 182.922 77.7098 183.262 77.0298C190.751 74.6769 198.888 74.4374 206.67 73.9067C212.155 73.4607 216.333 72.5041 221.262 70.0298C221.262 68.7098 221.262 67.3898 221.262 66.0298C208.891 58.3882 184.947 63.3099 173.699 70.7173ZM285.512 63.8423C284.688 63.9125 283.864 63.9828 283.016 64.0552C278.38 64.5217 275.109 65.1757 271.262 68.0298C272.714 71.8592 274.691 73.1503 278.262 75.0298C278.074 77.8423 278.074 77.8423 277.262 81.0298C274.762 82.7173 274.762 82.7173 272.262 84.0298C270.928 87.0298 270.928 87.0298 272.262 90.0298C271.668 92.2641 271.668 92.2641 270.762 94.7798C268.97 100.426 268.991 104.431 271.637 109.842C273.605 112.492 275.234 113.862 278.539 114.401C289.26 114.668 297.972 110.624 306.262 104.03C305.986 102.089 305.986 102.089 305.262 100.03C301.711 97.6626 300.701 97.9037 296.574 98.3423C295.513 98.4506 294.452 98.5588 293.359 98.6704C292.337 98.789 291.315 98.9076 290.262 99.0298C289.415 99.1277 288.568 99.2257 287.695 99.3266C285.882 99.5472 284.072 99.7861 282.262 100.03C283.252 97.0598 284.242 94.0898 285.262 91.0298C286.394 90.9808 287.525 90.9318 288.691 90.8813C290.173 90.8063 291.655 90.7308 293.137 90.6548C293.883 90.6238 294.629 90.5929 295.398 90.561C299.796 90.4733 299.796 90.4733 303.262 88.0298C302.941 85.427 302.941 85.427 302.262 83.0298C299.107 82.0936 296.296 81.9241 293.012 81.9673C292.12 81.9763 291.228 81.9853 290.309 81.9946C289.633 82.0062 288.958 82.0178 288.262 82.0298C288.592 79.7198 288.922 77.4098 289.262 75.0298C289.816 75.0152 290.371 75.0006 290.942 74.9856C293.466 74.9109 295.989 74.8143 298.512 74.7173C299.384 74.6947 300.257 74.6722 301.156 74.6489C307.315 74.4753 307.315 74.4753 312.262 71.0298C311.347 67.6449 310.599 66.2687 307.699 64.2173C300.658 61.7849 292.819 63.1022 285.512 63.8423ZM325.262 62.0298C317.038 69.5063 310.368 79.2531 308.953 90.479C308.848 94.1193 309.094 96.6204 310.492 100.041C312.132 105.552 309.666 110.84 307.949 116.092C307.284 118.207 306.621 120.323 305.961 122.44C305.66 123.369 305.359 124.299 305.05 125.257C302.928 132.724 301.144 142.872 304.168 150.237C306.296 153.04 308.019 153.981 311.441 154.666C312.372 154.786 313.303 154.906 314.262 155.03C314.469 154.237 314.677 153.444 314.891 152.627C317.176 143.972 319.546 135.341 321.949 126.717C322.259 125.602 322.568 124.486 322.887 123.337C323.179 122.29 323.472 121.244 323.773 120.166C324.036 119.225 324.299 118.284 324.569 117.314C325.262 115.03 325.262 115.03 326.262 113.03C328.414 112.608 328.414 112.608 331.199 112.28C342.736 110.322 350.023 103.355 356.645 94.0962C359.992 88.4663 360.272 82.4149 359.262 76.0298C357.408 71.5441 355.299 68.7215 351.262 66.0298C344.865 65.2587 341.881 67.9931 337.008 71.7485C330.999 76.7403 325.971 82.0644 321.488 88.4634C320.262 90.0298 320.262 90.0298 318.262 91.0298C320.012 83.6443 322.992 77.5434 326.836 71.0102C328.273 68.0055 328.582 66.3015 328.262 63.0298C327.272 62.6998 326.282 62.3698 325.262 62.0298ZM250.262 57.0298C249.909 64.2224 251.097 69.9453 253.262 76.7798C253.83 78.606 254.393 80.4341 254.949 82.2641C255.201 83.0605 255.452 83.8568 255.711 84.6772C256.302 87.2018 256.358 89.446 256.262 92.0298C255.602 92.0298 254.942 92.0298 254.262 92.0298C252.617 89.9156 251.085 87.7992 249.574 85.5923C248.672 84.3063 247.768 83.0212 246.863 81.7368C246.42 81.1047 245.977 80.4726 245.521 79.8213C243.857 77.4533 242.175 75.1028 240.449 72.7798C239.948 72.094 239.446 71.4082 238.93 70.7016C236.901 68.668 234.964 67.9291 232.262 67.0298C224.415 74.8762 224.088 88.2007 223.949 98.7173C223.92 99.463 223.891 100.209 223.861 100.977C223.819 104.593 223.946 106.609 226.148 109.541C228.122 111.209 228.122 111.209 230.387 111.155C233.286 109.415 233.397 107.238 234.262 104.03C234.52 101.494 234.704 98.9505 234.824 96.4048C235.214 88.4427 235.214 88.4427 236.262 85.0298C236.77 85.731 237.277 86.4323 237.801 87.1548C239.95 90.1166 242.104 93.0741 244.262 96.0298C244.831 96.8122 245.401 97.5947 245.988 98.4009C250.423 105.064 250.423 105.064 257.137 108.717C261.82 107.687 263.741 104.97 266.262 101.03C270.148 92.5814 268.134 82.7085 265.074 74.2798C262.33 67.7166 259.302 61.0564 253.262 57.0298C252.272 57.0298 251.282 57.0298 250.262 57.0298ZM156.262 120.03C154.679 121.612 154.914 123.41 154.699 125.592C154.615 126.419 154.532 127.245 154.445 128.096C154.385 128.734 154.324 129.372 154.262 130.03C152.282 130.69 150.302 131.35 148.262 132.03C148.311 129.002 148.311 129.002 148.359 125.975C148.388 123.948 148.388 123.948 147.262 122.03C146.272 122.36 145.282 122.69 144.262 123.03C144.224 123.728 144.187 124.427 144.148 125.147C144.083 126.057 144.017 126.967 143.949 127.905C143.891 128.81 143.833 129.715 143.773 130.647C143.262 133.03 143.262 133.03 140.262 135.03C140.262 136.02 140.262 137.01 140.262 138.03C141.252 138.03 142.242 138.03 143.262 138.03C143.592 140.34 143.922 142.65 144.262 145.03C145.582 144.37 146.902 143.71 148.262 143.03C148.262 140.72 148.262 138.41 148.262 136.03C150.253 135.648 152.255 135.317 154.262 135.03C155.844 136.612 155.609 138.41 155.824 140.592C155.908 141.419 155.992 142.245 156.078 143.096C156.139 143.734 156.199 144.372 156.262 145.03C157.582 145.03 158.902 145.03 160.262 145.03C160.239 144.259 160.215 143.488 160.191 142.694C160.173 141.691 160.155 140.688 160.137 139.655C160.114 138.657 160.09 137.659 160.066 136.631C160.262 134.03 160.262 134.03 162.262 132.03C162.262 131.04 162.262 130.05 162.262 129.03C161.602 128.7 160.942 128.37 160.262 128.03C159.854 125.708 159.517 123.373 159.262 121.03C158.272 120.7 157.282 120.37 156.262 120.03ZM173.262 120.03C172.996 120.694 172.731 121.358 172.457 122.041C171.392 124.704 170.327 127.367 169.262 130.03C168.763 131.401 168.763 131.401 168.254 132.799C167.262 135.03 167.262 135.03 165.262 136.03C165.592 139.33 165.922 142.63 166.262 146.03C167.582 145.7 168.902 145.37 170.262 145.03C170.592 142.72 170.922 140.41 171.262 138.03C174.562 137.04 177.862 136.05 181.262 135.03C181.53 135.752 181.798 136.474 182.074 137.217C183.252 140.006 184.653 142.471 186.262 145.03C187.252 144.7 188.242 144.37 189.262 144.03C188.608 138.96 186.407 134.61 184.262 130.03C183.602 130.03 182.942 130.03 182.262 130.03C181.994 129.122 181.725 128.215 181.449 127.28C180.349 124.268 179.518 122.286 177.262 120.03C175.942 120.03 174.622 120.03 173.262 120.03ZM269.262 121.03C267.037 123.255 268.076 128.355 268.074 131.342C268.062 132.21 268.05 133.079 268.037 133.973C268.035 134.813 268.033 135.653 268.031 136.518C268.027 137.287 268.023 138.055 268.019 138.847C268.181 141.443 268.181 141.443 270.262 145.03C277.852 144.7 285.442 144.37 293.262 144.03C292.932 142.71 292.602 141.39 292.262 140.03C289.845 140.003 287.429 139.983 285.012 139.967C284.33 139.959 283.648 139.951 282.945 139.942C279.568 139.925 276.489 139.973 273.262 141.03C273.273 140.173 273.285 139.315 273.297 138.432C273.344 132.521 273.344 126.848 272.262 121.03C271.272 121.03 270.282 121.03 269.262 121.03ZM108.262 133.03C106.95 136.053 106.95 136.053 107.262 139.03C108.974 142.197 109.799 142.876 113.262 144.03C121.813 144.514 129.919 143.937 138.262 142.03C138.262 140.71 138.262 139.39 138.262 138.03C137.618 138.102 136.975 138.174 136.312 138.249C129.023 138.997 121.58 139.666 114.262 139.03C113.602 138.37 112.942 137.71 112.262 137.03C116.03 132.909 120.055 129.221 125.262 127.03C127.889 126.916 129.687 127.332 132.262 128.03C132.922 127.04 133.582 126.05 134.262 125.03C132.543 122.739 131.541 122.084 128.699 121.53C121.118 122.632 113.196 127.105 108.262 133.03ZM210.262 119.03C208.416 123.014 207.901 126.474 207.637 130.842C207.562 132.004 207.487 133.165 207.41 134.362C207.361 135.242 207.312 136.123 207.262 137.03C206.465 136.017 206.465 136.017 205.652 134.983C204.946 134.091 204.24 133.199 203.512 132.28C202.816 131.398 202.12 130.516 201.402 129.608C199.462 127.271 197.447 125.136 195.262 123.03C193.777 124.02 193.777 124.02 192.262 125.03C191.846 127.255 191.846 127.255 191.969 129.819C191.978 130.76 191.988 131.701 191.998 132.67C192.023 133.655 192.048 134.64 192.074 135.655C192.088 136.647 192.101 137.64 192.115 138.663C192.151 141.119 192.2 143.574 192.262 146.03C193.582 146.36 194.902 146.69 196.262 147.03C196.262 142.08 196.262 137.13 196.262 132.03C199.608 135.376 202.068 138.469 204.699 142.323C206.527 144.319 207.574 144.84 210.262 145.03C212.823 142.468 212.558 141.364 212.676 137.803C212.714 136.772 212.753 135.741 212.793 134.678C212.824 133.598 212.855 132.518 212.887 131.405C212.925 130.317 212.964 129.229 213.004 128.108C213.098 125.415 213.184 122.723 213.262 120.03C212.272 119.7 211.282 119.37 210.262 119.03ZM250.012 122.467C248.955 122.548 247.898 122.63 246.809 122.713C244.33 122.756 244.33 122.756 243.262 124.03C242.76 130.674 243.264 136.685 245.262 143.03C247.18 144.948 250.528 144.204 253.074 144.217C254.94 144.239 254.94 144.239 256.844 144.26C259.987 144.048 261.649 143.695 264.262 142.03C264.262 141.04 264.262 140.05 264.262 139.03C258.982 139.36 253.702 139.69 248.262 140.03C248.262 138.38 248.262 136.73 248.262 135.03C249.033 135.065 249.803 135.099 250.598 135.135C252.102 135.176 252.102 135.176 253.637 135.217C254.634 135.252 255.632 135.287 256.66 135.323C257.948 135.178 257.948 135.178 259.262 135.03C259.922 134.04 260.582 133.05 261.262 132.03C260.176 130.717 260.176 130.717 257.539 130.932C256.437 130.944 255.335 130.955 254.199 130.967C253.094 130.976 251.99 130.985 250.852 130.995C249.997 131.006 249.142 131.018 248.262 131.03C247.932 129.71 247.602 128.39 247.262 127.03C248.437 127.05 249.613 127.071 250.824 127.092C254.736 127.099 258.407 126.672 262.262 126.03C261.932 124.71 261.602 123.39 261.262 122.03C257.487 121.981 253.775 122.166 250.012 122.467ZM234.262 121.03C233.409 124.704 233.154 128.075 233.199 131.842C233.208 132.818 233.217 133.794 233.227 134.799C233.238 135.535 233.25 136.271 233.262 137.03C232.442 136.152 231.622 135.274 230.777 134.37C229.689 133.235 228.601 132.101 227.512 130.967C226.973 130.387 226.434 129.806 225.879 129.208C224.114 127.333 224.114 127.333 221.262 125.03C219.103 125.295 219.103 125.295 217.262 126.03C217.158 132.447 217.517 138.657 218.262 145.03C219.582 145.03 220.902 145.03 222.262 145.03C222.289 143.405 222.308 141.78 222.324 140.155C222.336 139.25 222.347 138.345 222.359 137.413C222.424 135.013 222.424 135.013 221.262 133.03C221.781 133.489 222.301 133.948 222.836 134.42C224.275 135.687 225.719 136.947 227.168 138.202C228.787 139.616 230.375 141.066 231.949 142.53C234.182 144.342 234.182 144.342 236.906 143.624C238.072 143.33 238.072 143.33 239.262 143.03C239.147 140.487 239.02 137.946 238.887 135.405C238.856 134.692 238.825 133.979 238.793 133.245C238.552 128.858 237.868 125.17 236.262 121.03C235.602 121.03 234.942 121.03 234.262 121.03Z" fill="#3292BA"/>
</svg>
