<svg width="384" height="325" viewBox="0 0 384 325" fill="none" xmlns="http://www.w3.org/2000/svg">
<g clip-path="url(#clip0_19_65)">
<path d="M211 29C211 29.66 211 30.32 211 31C211.695 31.214 212.39 31.428 213.105 31.6484C216.832 33.3887 219.364 35.8018 222.312 38.625C222.862 39.1406 223.412 39.6562 223.978 40.1875C225.325 41.452 226.663 42.7251 228 44C227.399 48.0074 225.334 50.5547 222.937 53.75C221.837 55.2273 221.837 55.2273 220.715 56.7344C220.149 57.482 219.583 58.2297 219 59C220.33 58.7525 220.33 58.7525 221.687 58.5C222.325 58.433 222.964 58.3659 223.621 58.2969C226.118 58.0326 226.118 58.0326 228.973 57.2656C232.989 56.6338 235.167 56.5376 239 58C243.427 62.8853 250 72.1983 250 79C250.66 79 251.32 79 252 79C251.67 80.32 251.34 81.64 251 83C250.67 82.67 250.34 82.34 250 82C249.763 82.5703 249.526 83.1407 249.281 83.7283C248.211 86.2991 247.137 88.8683 246.062 91.4375C245.503 92.7842 245.503 92.7842 244.932 94.1582C244.395 95.4392 244.395 95.4392 243.848 96.7461C243.518 97.5369 243.188 98.3276 242.848 99.1423C242 101 242 101 241 102C237.558 102.437 234.088 102.563 230.625 102.75C229.653 102.818 228.681 102.887 227.68 102.957C226.746 103.007 225.813 103.058 224.851 103.109C223.994 103.161 223.136 103.212 222.252 103.265C219.467 102.937 218.731 102.143 217 100C216.491 99.4302 215.982 98.8605 215.457 98.2734C214.299 96.9365 213.143 95.5978 211.988 94.2578C210.601 92.6823 209.178 91.1373 207.73 89.6172C206.994 88.836 206.258 88.0548 205.5 87.25C204.809 86.5333 204.118 85.8166 203.406 85.0781C202 83 202 83 202.228 81.127C203.127 78.6494 204.32 76.9679 205.941 74.8906C206.525 74.1365 207.108 73.3824 207.709 72.6055C208.321 71.8282 208.932 71.0509 209.562 70.25C210.178 69.4572 210.793 68.6645 211.428 67.8477C212.946 65.8938 214.47 63.9449 216 62C210.694 62.7791 205.62 64.1455 200.478 65.627C192.846 67.7467 192.846 67.7467 190 67C187.855 64.5517 186.295 61.8204 184.687 59C184.233 58.2369 183.779 57.4737 183.31 56.6875C182.19 54.8007 181.088 52.9055 180 51C178.359 56.0323 177.928 60.1699 177.812 65.5C177.048 72.0419 177.048 72.0419 174.522 74.3506C168.922 77.8798 162.502 79.9184 156 81C156 81.66 156 82.32 156 83C156.664 83.1121 157.328 83.2243 158.012 83.3398C161.704 84.1556 165.239 85.3418 168.812 86.5625C169.852 86.9134 169.852 86.9134 170.912 87.2715C172.609 87.8449 174.305 88.4221 176 89C176.121 89.8617 176.121 89.8617 176.244 90.7407C176.615 93.3697 176.995 95.9973 177.375 98.625C177.501 99.5286 177.628 100.432 177.758 101.363C178.454 106.135 179.455 110.422 181 115C180.625 118.875 180.625 118.875 180 122C179.67 122 179.34 122 179 122C179 120.35 179 118.7 179 117C178.036 117.733 177.071 118.467 176.078 119.223C174.802 120.17 173.526 121.117 172.25 122.062C171.616 122.548 170.981 123.033 170.328 123.533C169.709 123.988 169.091 124.442 168.453 124.91C167.887 125.334 167.322 125.759 166.739 126.196C165 127 165 127 162.982 126.773C159.682 125.486 157.1 123.148 154.375 120.938C150.614 117.426 150.614 117.426 146 116C145.818 115.359 145.636 114.719 145.449 114.059C144.257 109.957 143.078 105.992 141.25 102.125C139.926 98.8164 139.807 98.1783 141 95C142.215 93.4443 142.215 93.4443 143.723 91.9844C144.261 91.4559 144.799 90.9273 145.353 90.3828C145.917 89.844 146.481 89.3052 147.062 88.75C147.63 88.1957 148.198 87.6414 148.783 87.0703C150.182 85.7067 151.59 84.3524 153 83C147.72 83 142.44 83 137 83C132.857 58.9218 132.857 58.9218 138.174 51.3213C141.113 48.123 144.461 45.5148 148 43C145.03 42.505 145.03 42.505 142 42C142.33 41.01 142.66 40.02 143 39C143 39.66 143 40.32 143 41C150.051 40.359 156.297 38.6833 162.75 35.75C165.673 34.7756 167.079 35.0264 170 36C171.949 38.2852 171.949 38.2852 173.687 41.0625C174.747 42.7375 175.841 44.392 177 46C177.66 46 178.32 46 179 46C179.254 45.3361 179.508 44.6723 179.769 43.9883C180.114 43.1053 180.458 42.2223 180.812 41.3125C181.149 40.4424 181.485 39.5723 181.832 38.6758C182.217 37.7928 182.603 36.9098 183 36C183.302 35.0925 183.603 34.185 183.914 33.25C187.515 29.3655 192.493 29.9426 197.562 29.6875C198.629 29.6147 199.696 29.5418 200.795 29.4668C207.815 29 207.815 29 211 29Z" fill="#040404"/>
<path d="M179 50C183.825 54.257 187.059 59.2891 190 65C190 65.66 190 66.32 190 67C190.569 66.8538 191.138 66.7075 191.725 66.5569C194.336 65.8883 196.949 65.2254 199.562 64.5625C200.458 64.3324 201.353 64.1023 202.275 63.8652C207.177 62.6263 211.979 61.5993 217 61C213.198 66.9627 209.099 72.4114 204.441 77.7383C202.773 79.8298 202.773 79.8298 203.228 81.9343C204.111 84.2977 205.139 85.5221 206.906 87.3125C207.485 87.9132 208.064 88.5139 208.66 89.1328C209.267 89.749 209.874 90.3652 210.5 91C211.705 92.2226 212.903 93.4515 214.094 94.6875C214.893 95.4977 214.893 95.4977 215.709 96.3242C217.159 98.2059 217.475 99.7133 218 102C219.319 102.696 220.656 103.355 222 104C223.979 105.841 225.875 107.686 227.75 109.625C228.257 110.141 228.763 110.656 229.285 111.188C230.528 112.454 231.765 113.726 233 115C231.627 118.699 229.936 121.951 227.875 125.312C227.336 126.196 226.797 127.079 226.242 127.988C225.832 128.652 225.422 129.316 225 130C225.66 130.33 226.32 130.66 227 131C226.67 131.33 226.34 131.66 226 132C225.769 133.347 225.588 134.704 225.438 136.062C225.293 137.362 225.149 138.661 225 140C224.67 140 224.34 140 224 140C223.505 136.04 223.505 136.04 223 132C221.351 133.789 219.706 135.581 218.062 137.375C217.594 137.883 217.125 138.391 216.643 138.914C214.023 141.743 214.023 141.743 212 145C200.208 145.896 188.788 145.97 177 145C177 144.67 177 144.34 177 144C183.435 143.505 183.435 143.505 190 143C183.565 139.535 183.565 139.535 177 136C177.473 129.221 178.068 122.831 179.793 116.254C180.061 113.341 179.124 111.691 178 109C177.562 106.51 177.191 104.008 176.875 101.5C176.707 100.211 176.54 98.9219 176.367 97.5938C176.07 94.6867 175.921 91.916 176 89C175.113 88.9381 174.226 88.8762 173.312 88.8125C167.252 87.9861 161.624 85.292 156 83C156 82.34 156 81.68 156 81C162.266 78.1544 168.594 75.5143 175 73C175.121 72.01 175.242 71.02 175.367 70C176.219 63.2241 177.119 56.5824 179 50Z" fill="#050505"/>
<path d="M179 50C183.825 54.257 187.059 59.2891 190 65C190 65.66 190 66.32 190 67C190.569 66.8538 191.138 66.7075 191.725 66.5569C194.336 65.8883 196.949 65.2254 199.562 64.5625C200.458 64.3324 201.353 64.1023 202.275 63.8652C207.177 62.6263 211.979 61.5993 217 61C213.198 66.9627 209.099 72.4114 204.441 77.7383C202.773 79.8295 202.773 79.8295 203.228 81.9321C204.111 84.2985 205.148 85.5446 206.906 87.3477C207.485 87.9529 208.064 88.5581 208.66 89.1816C209.571 90.1127 209.571 90.1127 210.5 91.0625C211.702 92.2992 212.9 93.5399 214.094 94.7852C214.627 95.3305 215.16 95.8759 215.709 96.4377C217 98 217 98 218 101C211.08 99.8421 204.313 98.3884 197.531 96.5859C194.946 95.8872 194.946 95.8872 192 96C190.679 97.576 190.679 97.576 189.59 99.6836C188.941 100.827 188.941 100.827 188.279 101.994C187.837 102.8 187.394 103.607 186.938 104.438C186.055 106.022 185.169 107.604 184.277 109.184C183.888 109.891 183.499 110.598 183.097 111.326C182 113 182 113 180 114C178.111 109.872 177.441 105.993 176.875 101.5C176.707 100.211 176.54 98.9219 176.367 97.5938C176.07 94.6867 175.921 91.916 176 89C175.113 88.9381 174.226 88.8762 173.312 88.8125C167.252 87.9861 161.624 85.292 156 83C156 82.34 156 81.68 156 81C162.266 78.1544 168.594 75.5143 175 73C175.121 72.01 175.242 71.02 175.367 70C176.219 63.2241 177.119 56.5824 179 50Z" fill="#F6F6F6"/>
<path d="M262.074 226.734C267.201 229.047 270.444 231.888 273 237C273.557 242.957 273.522 247.952 270 253C266.21 256.719 263.128 259.14 257.75 259.25C253.453 259.188 250.628 258.447 247 256C242.893 251.665 241.198 248.05 240.625 242.125C240.774 237.74 242.125 234.317 245 231C250.221 226.515 255.242 224.315 262.074 226.734Z" fill="#F1F1F1"/>
<path d="M250 80C253.689 85.5337 253.097 91.5667 253 98C255.97 96.02 258.94 94.04 262 92C260.269 99.3088 257.92 105.352 254.43 111.984C252.292 116.492 251.089 121.146 250 126C247 126 247 126 245.312 124.5C244.879 124.005 244.446 123.51 244 123C239.178 124.907 234.414 126.942 229.645 128.977C227 130 227 130 225 130C226.442 125.807 228.6 122.533 231.172 118.965C232.231 117.028 232.231 117.028 231.43 115.043C229.655 112.506 227.62 110.506 225.375 108.375C223.879 106.955 222.411 105.504 221 104C221 103.34 221 102.68 221 102C230.9 101.505 230.9 101.505 241 101C243.97 94.07 246.94 87.14 250 80Z" fill="#F6F6F6"/>
<path d="M211 29C213.523 29.5966 216.043 30.2021 218.562 30.8125C219.267 30.9781 219.971 31.1438 220.697 31.3145C225.384 32.4592 229.613 33.9882 234 36C234 33.69 234 31.38 234 29C237.291 31.9914 239.811 35.0666 242.312 38.75C245.299 43.1355 248.576 47.0277 252.203 50.8945C254.142 53.1668 255.672 55.3215 257 58C256.505 59.485 256.505 59.485 256 61C254.02 60.34 252.04 59.68 250 59C250.248 60.3613 250.248 60.3613 250.5 61.75C251.289 67.1378 251.08 72.5691 251 78C248.862 75.9841 247.253 74.011 245.738 71.4961C245.342 70.838 244.946 70.18 244.537 69.502C244.133 68.8207 243.729 68.1394 243.312 67.4375C242.897 66.7524 242.481 66.0672 242.053 65.3613C239 60.2534 239 60.2534 239 58C228.605 58.99 228.605 58.99 218 60C223.809 51.2218 223.809 51.2218 225.762 48.9531C227.178 47.1088 227.178 47.1088 226.984 45.0352C225.594 42.1603 223.647 40.5334 221.25 38.4375C220.389 37.6731 219.528 36.9087 218.641 36.1211C216.062 33.9429 216.062 33.9429 213.172 32.3477C212.455 31.9029 211.738 31.4582 211 31C211 30.34 211 29.68 211 29Z" fill="#F3F3F3"/>
<path d="M147 115C151.577 117.934 155.709 121.183 159.852 124.707C161.857 126.175 161.857 126.175 163.922 125.953C166.794 124.636 169.116 122.855 171.625 120.938C176.787 117 176.787 117 179 117C178.67 123.27 178.34 129.54 178 136C182.62 138.31 187.24 140.62 192 143C192 143.33 192 143.66 192 144C187.05 144 182.1 144 177 144C177.66 147.63 178.32 151.26 179 155C174.269 153.736 171.838 152.163 168.5 148.625C163.481 143.879 158.924 142.472 152.297 140.902C147.81 139.674 144.721 137.753 141 135C141 134.67 141 134.34 141 134C141.603 133.939 142.207 133.879 142.828 133.816C144.027 133.691 144.027 133.691 145.25 133.562C146.039 133.481 146.828 133.4 147.641 133.316C149.824 133.024 151.877 132.579 154 132C153.242 130.411 153.242 130.411 152.469 128.789C151.812 127.401 151.156 126.013 150.5 124.625C150.166 123.926 149.832 123.228 149.488 122.508C147 117.227 147 117.227 147 115Z" fill="#F6F6F6"/>
<path d="M146 228C149.3 228 152.6 228 156 228C161.371 239.522 161.371 239.522 163 245C165.17 241.746 166.361 238.475 167.625 234.812C167.854 234.158 168.084 233.504 168.32 232.83C168.884 231.221 169.442 229.611 170 228C173.63 228 177.26 228 181 228C180.988 229.051 180.977 230.101 180.965 231.184C180.894 240.352 181.192 248.96 183 258C179.37 258 175.74 258 172 258C172.33 257.34 172.66 256.68 173 256C172.911 253.111 172.766 250.256 172.562 247.375C172.484 246.172 172.484 246.172 172.404 244.945C172.275 242.963 172.138 240.982 172 239C171.578 240.204 171.157 241.408 170.723 242.648C170.169 244.224 169.616 245.8 169.062 247.375C168.785 248.169 168.507 248.963 168.221 249.781C167.953 250.542 167.686 251.302 167.41 252.086C167.164 252.788 166.918 253.489 166.664 254.212C166 256 166 256 165 258C163.35 258 161.7 258 160 258C156.526 251.549 154.189 244.985 152 238C151.973 240.771 151.953 243.542 151.938 246.312C151.929 247.098 151.921 247.884 151.912 248.693C151.909 249.451 151.906 250.208 151.902 250.988C151.897 251.685 151.892 252.381 151.886 253.099C151.931 255.225 151.931 255.225 153 258C149.7 258 146.4 258 143 258C143.99 256.515 143.99 256.515 145 255C145.369 252.094 145.369 252.094 145.414 248.801C145.453 247.592 145.491 246.384 145.531 245.139C145.562 243.876 145.593 242.613 145.625 241.312C145.664 240.038 145.702 238.764 145.742 237.451C145.837 234.301 145.922 231.151 146 228Z" fill="#F0F0F0"/>
<path d="M204 16C202.358 19.283 199.171 20.2704 196 22C196.871 24.2997 196.871 24.2997 199.723 25.0703C200.825 25.4183 201.927 25.7664 203.062 26.125C204.167 26.4782 205.272 26.8314 206.41 27.1953C207.265 27.4608 208.119 27.7264 209 28C209 28.66 209 29.32 209 30C208.329 30.0082 207.659 30.0164 206.968 30.0249C203.913 30.0909 200.865 30.2322 197.812 30.375C196.757 30.3866 195.702 30.3982 194.615 30.4101C191.455 30.5896 188.954 30.8494 186 32C183.485 35.0684 182.217 38.252 181 42C180.35 43.7944 180.35 43.7944 179.688 45.625C179.461 46.4087 179.234 47.1925 179 48C174.259 44.749 171.791 40.8937 169 36C163.473 36.7272 158.3 38.3345 153 40C154.439 36.6128 156.221 34.6406 159 32.25C160.052 31.3296 160.052 31.3296 161.125 30.3906C163 29 163 29 165 29C164.505 28.2369 164.01 27.4737 163.5 26.6875C162 24 162 24 162 21C163.241 20.951 164.483 20.902 165.762 20.8516C167.404 20.7765 169.046 20.7009 170.688 20.625C171.504 20.5941 172.321 20.5631 173.162 20.5312C177.531 20.319 181 19.9233 185 18C191.452 15.9975 197.265 15.7771 204 16Z" fill="#F5F5F5"/>
<path d="M135 70C135.33 70 135.66 70 136 70C136.33 74.29 136.66 78.58 137 83C145.415 82.505 145.415 82.505 154 82C150.292 86.4315 146.542 90.4816 142.223 94.3242C140.784 95.9069 140.784 95.9069 141.18 97.8555C141.45 98.5632 141.721 99.2709 142 100C142.321 100.9 142.642 101.8 142.973 102.727C143.701 104.664 144.43 106.602 145.16 108.539C146 111 146 111 146 113C141.983 111.623 139.273 109.67 136 107C135.01 106.67 134.02 106.34 133 106C132.01 109.3 131.02 112.6 130 116C129.34 116 128.68 116 128 116C126.485 111.556 125.865 107.637 125.625 102.938C125.275 97.6642 124.305 95.0509 121 91C121 90.34 121 89.68 121 89C125.385 86 125.385 86 128 86C128.17 85.4315 128.34 84.863 128.516 84.2773C130.151 79.0678 132.133 74.6464 135 70Z" fill="#F3F3F3"/>
<path d="M74 228C77.63 228 81.26 228 85 228C84.67 231.63 84.34 235.26 84 239C87.3 239 90.6 239 94 239C93.67 235.37 93.34 231.74 93 228C96.3 228 99.6 228 103 228C102.995 228.802 102.99 229.604 102.984 230.431C102.963 234.058 102.95 237.685 102.938 241.312C102.929 242.575 102.921 243.838 102.912 245.139C102.909 246.347 102.906 247.556 102.902 248.801C102.897 249.916 102.892 251.032 102.886 252.181C102.873 255.081 102.873 255.081 104 258C100.37 258 96.74 258 93 258C93.33 253.71 93.66 249.42 94 245C90.7 245 87.4 245 84 245C84.33 249.29 84.66 253.58 85 258C81.37 258 77.74 258 74 258C74.33 257.01 74.66 256.02 75 255C75.0942 253.105 75.1307 251.206 75.1328 249.309C75.1341 248.199 75.1354 247.09 75.1367 245.947C75.1329 244.789 75.129 243.631 75.125 242.438C75.1289 241.275 75.1327 240.113 75.1367 238.916C75.1348 237.254 75.1348 237.254 75.1328 235.559C75.1317 234.541 75.1306 233.523 75.1294 232.474C75.1652 229.997 75.1652 229.997 74 228Z" fill="#F1F1F1"/>
<path d="M191 228C194.208 227.854 197.415 227.766 200.625 227.688C201.98 227.625 201.98 227.625 203.363 227.561C207.787 227.48 211.021 227.487 214.605 230.273C217 233 217 233 217.688 236.938C217.344 241.587 215.268 243.809 212 247C209.475 248.262 207.688 248.099 204.875 248.063C203.965 248.053 203.055 248.044 202.117 248.035C201.069 248.018 201.069 248.018 200 248C200.458 251.469 200.891 254.674 202 258C198.04 258 194.08 258 190 258C190.33 257.01 190.66 256.02 191 255C191.083 252.935 191.107 250.867 191.098 248.801C191.094 247.592 191.091 246.384 191.088 245.139C191.08 243.876 191.071 242.613 191.062 241.313C191.058 240.038 191.053 238.764 191.049 237.451C191.037 234.301 191.021 231.15 191 228Z" fill="#F2F2F2"/>
<path d="M280 227C283.48 226.433 286.536 226.266 290 227C293.039 229.557 294.951 232.625 297 236C297.508 236.785 298.016 237.57 298.539 238.379C299.727 240.234 300.879 242.103 302 244C302.027 241.708 302.046 239.417 302.062 237.125C302.074 235.849 302.086 234.573 302.098 233.258C302.232 230.113 302.232 230.113 301 228C303.64 228 306.28 228 309 228C308.67 237.9 308.34 247.8 308 258C302 258 302 258 299.875 255.91C299.256 254.97 298.637 254.031 298 253.062C297.33 252.067 296.659 251.072 295.969 250.047C295.319 249.041 294.669 248.036 294 247C292.834 245.27 291.667 243.541 290.5 241.812C289.664 240.543 288.83 239.273 288 238C287.973 240.958 287.953 243.917 287.938 246.875C287.929 247.717 287.921 248.558 287.912 249.426C287.907 250.634 287.907 250.634 287.902 251.867C287.894 252.983 287.894 252.983 287.886 254.121C287.882 256.091 287.882 256.091 289 258C286.03 258 283.06 258 280 258C280.33 257.01 280.66 256.02 281 255C281.094 253.116 281.131 251.23 281.133 249.344C281.134 248.239 281.135 247.134 281.137 245.996C281.133 244.842 281.129 243.689 281.125 242.5C281.129 241.346 281.133 240.193 281.137 239.004C281.135 237.899 281.134 236.794 281.133 235.656C281.132 234.644 281.131 233.631 281.129 232.588C281.11 229.883 281.11 229.883 280 227Z" fill="#F1F1F1"/>
<path d="M165 272C168.3 272 171.6 272 175 272C178.413 279.888 181.376 287.818 184 296C184.665 298.001 185.331 300.001 186 302C182.04 302 178.08 302 174 302C174.33 300.02 174.66 298.04 175 296C171.37 296 167.74 296 164 296C164 297.98 164 299.96 164 302C161.36 302 158.72 302 156 302C157.406 297.626 158.87 293.298 160.535 289.016C160.806 288.314 161.078 287.612 161.357 286.889C161.904 285.481 162.457 284.076 163.018 282.674C164.538 278.746 165 276.326 165 272Z" fill="#F1F1F1"/>
<path d="M338.125 227C338.744 227.33 339.362 227.66 340 228C340 230.64 340 233.28 340 236C338.762 235.01 338.762 235.01 337.5 234C333.655 231.388 330.543 231.687 326 232C325.67 233.32 325.34 234.64 325 236C325.58 236.254 326.16 236.508 326.758 236.77C341.042 243.063 341.042 243.063 343 246C343.5 248.875 343.5 248.875 343 252C340.014 255.551 337.075 258.796 332.293 259.266C321.981 259.214 321.981 259.214 317 257C317 254.36 317 251.72 317 249C317.66 249 318.32 249 319 249C319.409 249.655 319.817 250.31 320.238 250.984C321.881 253.31 321.881 253.31 324.918 253.391C326.536 253.321 326.536 253.321 328.187 253.25C329.274 253.214 330.361 253.178 331.48 253.141C332.312 253.094 333.143 253.048 334 253C334 251.35 334 249.7 334 248C332.923 247.81 332.923 247.81 331.824 247.617C329.016 247.003 326.488 246.169 323.812 245.125C322.953 244.798 322.093 244.47 321.207 244.133C319 243 319 243 317 240C316.283 236.86 316.21 234.13 317 231C322.321 224.71 330.804 224.657 338.125 227Z" fill="#EBEBEB"/>
<path d="M205.812 270.812C206.85 270.798 207.888 270.784 208.957 270.77C212.038 271.003 214.218 271.699 217 273C217 275.31 217 277.62 217 280C214.506 278.796 212.319 277.546 210 276C206.078 275.403 204.475 275.69 201.125 277.875C198.138 282.268 198.119 285.836 199 291C200.386 294.668 200.386 294.668 203 297C206.128 297.584 206.128 297.584 209 297C210.336 295.889 210.336 295.889 210.125 293.062C210.213 290.085 210.213 290.085 209 288C212.63 288 216.26 288 220 288C219.34 292.95 218.68 297.9 218 303C215.69 302.67 213.38 302.34 211 302C210.34 302.33 209.68 302.66 209 303C204.501 303.414 200.361 303.532 196.125 301.875C191.102 297.443 189.252 293.102 188.836 286.531C189.194 281.002 191.642 277.261 195.625 273.562C199.32 271.132 201.387 270.84 205.812 270.812Z" fill="#EEEEEE"/>
<path d="M119 228C122.3 228 125.6 228 129 228C130.295 231.686 131.585 235.374 132.875 239.062C133.24 240.101 133.605 241.139 133.98 242.209C135.807 247.44 137.558 252.65 139 258C135.37 258 131.74 258 128 258C128 255.69 128 253.38 128 251C126.542 250.973 125.083 250.954 123.625 250.938C122.407 250.92 122.407 250.92 121.164 250.902C118.951 250.855 118.951 250.855 117 252C117.33 253.98 117.66 255.96 118 258C115.03 258 112.06 258 109 258C111.099 251.471 113.451 245.066 115.93 238.674C117.281 235.139 118.405 231.742 119 228Z" fill="#F0F0F0"/>
<path d="M239.812 186.188C242.27 188.105 242.27 188.105 244 190C244 191.32 244 192.64 244 194C240.675 193.382 239.888 192.896 237.25 190.438C231.392 185.22 224.097 182.173 217 179C215.993 178.539 214.986 178.077 213.949 177.602C197.402 171.287 177.265 173.791 161.367 180.543C153.874 183.934 147.764 188.129 142 194C141.01 193.67 140.02 193.34 139 193C139.299 189.927 140.001 188.999 142.301 186.852C172.353 164.634 209.564 163.427 239.812 186.188Z" fill="#E5E5E5"/>
<path d="M228 272C231.3 272 234.6 272 238 272C237.67 272.66 237.34 273.32 237 274C236.761 277.495 236.815 280.998 236.812 284.5C236.8 285.476 236.788 286.452 236.775 287.457C236.773 288.389 236.772 289.321 236.77 290.281C236.763 291.566 236.763 291.566 236.757 292.877C236.802 295.217 236.802 295.217 239 297C243.652 297.342 243.652 297.342 248 296C248 288.08 248 280.16 248 272C250.64 272 253.28 272 256 272C255.67 272.66 255.34 273.32 255 274C254.883 275.608 254.821 277.22 254.789 278.832C254.747 280.277 254.747 280.277 254.703 281.752C254.651 283.78 254.607 285.809 254.57 287.838C254.272 297.178 254.272 297.178 251 301C247.44 303.373 245.78 303.269 241.562 303.25C240.429 303.255 239.296 303.26 238.129 303.266C233.442 302.868 233.442 302.868 231 301C227.003 295.522 227.657 289.601 227.812 283.125C227.826 282.055 227.84 280.985 227.854 279.883C227.889 277.255 227.942 274.627 228 272Z" fill="#F4F4F4"/>
<path d="M126 272C133.92 272 141.84 272 150 272C150 274.31 150 276.62 150 279C149.459 278.683 148.917 278.366 148.359 278.039C145.584 276.817 143.268 276.591 140.25 276.375C139.265 276.3 138.28 276.225 137.266 276.148C136.518 276.099 135.77 276.05 135 276C135 278.64 135 281.28 135 284C140.169 283.594 140.169 283.594 145 282C145 284.97 145 287.94 145 291C143.68 290.34 142.36 289.68 141 289C139.009 288.617 137.009 288.274 135 288C135 291.3 135 294.6 135 298C136.918 297.913 138.834 297.804 140.75 297.688C141.817 297.629 142.885 297.571 143.984 297.512C147.182 296.969 148.626 296.149 151 294C151 296.64 151 299.28 151 302C142.75 302 134.5 302 126 302C126 292.1 126 282.2 126 272Z" fill="#F5F5F5"/>
<path d="M263 272C270.92 272 278.84 272 287 272C287 273.98 287 275.96 287 278C286.01 277.67 285.02 277.34 284 277C282.108 276.778 280.211 276.594 278.312 276.438C277.319 276.354 276.325 276.27 275.301 276.184C274.162 276.093 274.162 276.093 273 276C273 278.64 273 281.28 273 284C277.455 283.505 277.455 283.505 282 283C282 285.31 282 287.62 282 290C278.7 289.67 275.4 289.34 272 289C272 291.97 272 294.94 272 298C273.938 297.913 275.876 297.805 277.812 297.688C278.891 297.629 279.97 297.571 281.082 297.512C284.246 296.957 284.988 296.367 287 294C287.66 294 288.32 294 289 294C289 296.64 289 299.28 289 302C280.42 302 271.84 302 263 302C263.33 301.01 263.66 300.02 264 299C264.094 297.189 264.131 295.376 264.133 293.562C264.134 292.503 264.135 291.443 264.137 290.352C264.133 289.246 264.129 288.14 264.125 287C264.129 285.894 264.133 284.788 264.137 283.648C264.135 282.059 264.135 282.059 264.133 280.438C264.132 279.467 264.131 278.496 264.129 277.496C264.104 274.869 264.104 274.869 263 272Z" fill="#F2F2F2"/>
<path d="M58.125 226.875C60.016 226.871 60.016 226.871 61.9453 226.867C65 227 65 227 66 228C66.1411 230.671 66.0424 233.324 66 236C65.1543 235.319 64.3087 234.639 63.4375 233.937C60.1222 231.698 60.1222 231.698 56.3125 232C52.5823 233.126 51.9189 233.735 50 237C49.1233 241.857 49.2857 245.833 51.875 250.062C55.5679 253.43 58.071 253.167 63 253C64.6755 252.715 66.3481 252.4 68 252C67.8125 254.375 67.8125 254.375 67 257C61.8482 259.644 56.6588 259.786 51 259C46.9674 257.304 44.6325 254.857 42.0625 251.375C40.1117 245.178 39.7909 239.335 42.8125 233.5C43.5343 232.675 44.2562 231.85 45 231C45.5156 230.402 46.0312 229.804 46.5625 229.187C49.982 226.363 53.9174 226.866 58.125 226.875Z" fill="#EFEFEF"/>
<path d="M223 131C223.33 131 223.66 131 224 131C224 134.96 224 138.92 224 143C225.774 142.319 227.548 141.639 229.375 140.938C232.398 139.777 232.398 139.777 235 139C235.66 139.33 236.32 139.66 237 140C224.713 150.731 210.263 156.285 194 156C196.297 154.257 198.599 152.601 201 151C200.01 150.196 199.02 149.391 198 148.562C197.01 147.717 196.02 146.871 195 146C195 145.67 195 145.34 195 145C200.61 145 206.22 145 212 145C212.66 143.68 213.32 142.36 214 141C215.476 139.212 217.001 137.464 218.562 135.75C219.368 134.858 220.174 133.966 221.004 133.047C221.663 132.371 222.321 131.696 223 131Z" fill="#F1F1F1"/>
<path d="M97 272C100.3 272 103.6 272 107 272C106.67 272.66 106.34 273.32 106 274C105.847 275.812 105.751 277.628 105.684 279.445C105.642 280.522 105.6 281.598 105.557 282.707C105.498 284.399 105.498 284.399 105.438 286.125C105.394 287.261 105.351 288.396 105.307 289.566C105.2 292.377 105.098 295.189 105 298C106.751 297.912 108.501 297.804 110.25 297.688C111.225 297.629 112.199 297.571 113.203 297.512C116.253 296.954 117.707 296.036 120 294C120 296.64 120 299.28 120 302C111.75 302 103.5 302 95 302C95.33 301.34 95.66 300.68 96 300C96.1544 297.896 96.2499 295.788 96.3164 293.68C96.3583 292.423 96.4002 291.166 96.4434 289.871C96.4827 288.552 96.522 287.234 96.5625 285.875C96.6057 284.535 96.6493 283.195 96.6934 281.855C96.7997 278.57 96.9017 275.285 97 272Z" fill="#F6F6F6"/>
<path d="M256.937 231.125C260.444 232.127 261.789 233.134 264 236C265.582 239.691 265.462 244.05 265 248C263.844 250.363 262.85 252.15 261 254C257.443 254.395 255.661 254.496 252.75 252.312C249.213 247.638 248.583 243.837 249 238C250.318 233.437 251.759 230.905 256.937 231.125Z" fill="#0A0A0A"/>
<path d="M145 32C145 35.867 143.581 38.5088 142 42C144.31 42 146.62 42 149 42C146.405 45.2823 144.357 47.7477 140.906 50.1875C137.695 52.8127 137.167 55.0894 136.762 59.127C136.717 59.8482 136.671 60.5694 136.625 61.3125C136.557 62.0531 136.488 62.7936 136.418 63.5566C136.254 65.3691 136.124 67.1844 136 69C131.536 64.75 131.536 64.75 131 61C130.34 61 129.68 61 129 61C128.752 61.7425 128.505 62.485 128.25 63.25C126.909 66.2012 125.391 67.8481 123 70C124.61 54.7039 134.522 42.4776 145 32Z" fill="#F0F0F0"/>
<path d="M212.559 206.395C214.792 207.843 216.903 209.361 219 211C220.011 211.784 221.021 212.567 222.062 213.375C223.022 214.179 223.022 214.179 224 215C223.67 216.32 223.34 217.64 223 219C220.118 217.667 217.823 216.136 215.375 214.125C205.066 206.464 194.517 205.67 182 207C175.619 208.4 170.794 211.523 165.789 215.633C163.945 217.042 162.103 218.027 160 219C160 215 160 215 161.547 213.035C175.375 200.653 195.727 197.221 212.559 206.395Z" fill="#DEDEDE"/>
<path d="M224 228C227.3 228 230.6 228 234 228C234 237.9 234 247.8 234 258C230.37 258 226.74 258 223 258C223.33 257.01 223.66 256.02 224 255C224.083 252.935 224.107 250.867 224.098 248.801C224.094 247.592 224.091 246.384 224.088 245.139C224.08 243.876 224.071 242.613 224.062 241.312C224.058 240.038 224.053 238.764 224.049 237.451C224.037 234.301 224.021 231.15 224 228Z" fill="#F0F0F0"/>
<path d="M156 187C160.848 189.076 163.447 192.469 166 197C166.688 200.688 166.688 200.688 166 204C163.938 206.938 163.938 206.938 161 209C157.656 209.473 157.656 209.473 154 209C151.815 207.168 150.299 205.678 148.562 203.5C148.117 202.975 147.672 202.451 147.213 201.91C146.124 200.622 145.059 199.313 144 198C144.66 197.01 145.32 196.02 146 195C149.219 196.192 150.256 197.328 152.438 200.125C154.678 203.268 154.678 203.268 157.812 203.375C158.534 203.251 159.256 203.127 160 203C160.508 200.798 160.508 200.798 160 198C158.208 195.464 156.158 193.228 154 191C154.66 189.68 155.32 188.36 156 187Z" fill="#E8E8E8"/>
<path d="M185 178C185 179.65 185 181.3 185 183C182.36 183.33 179.72 183.66 177 184C177 184.99 177 185.98 177 187C181.455 186.505 181.455 186.505 186 186C186 187.32 186 188.64 186 190C183.36 190.33 180.72 190.66 178 191C178 191.99 178 192.98 178 194C181.3 193.67 184.6 193.34 188 193C188 194.32 188 195.64 188 197C185.198 197.934 183.345 198.164 180.437 198.188C179.26 198.209 179.26 198.209 178.058 198.23C176 198 176 198 174 196C172.123 190.786 171.808 186.455 172 181C176.155 178.603 180.241 178 185 178Z" fill="#E8E8E8"/>
<path d="M233 192C232.455 199.087 230.391 205.328 228 212C226.078 211.227 226.078 211.227 224 210C222.75 206.375 222.75 206.375 222 203C223.32 203 224.64 203 226 203C226.33 201.35 226.66 199.7 227 198C226.408 198.456 225.817 198.913 225.207 199.383C224.417 199.958 223.627 200.533 222.812 201.125C222.035 201.705 221.258 202.285 220.457 202.883C218 204 218 204 215.199 203.18C214.473 202.79 213.748 202.401 213 202C215.902 198.92 218.905 196.515 222.438 194.188C223.364 193.562 224.291 192.937 225.246 192.293C228.405 190.81 229.738 190.94 233 192Z" fill="#EAEAEA"/>
<path d="M208.625 180.437C209.628 180.539 210.631 180.641 211.664 180.746C212.435 180.83 213.206 180.914 214 181C214.33 181.99 214.66 182.98 215 184C214.67 184.66 214.34 185.32 214 186C210.877 185.514 208.004 185.001 205 184C205.33 184.99 205.66 185.98 206 187C209.008 188.225 209.008 188.225 212 189C211.34 190.32 210.68 191.64 210 193C207.69 193 205.38 193 203 193C202.67 194.65 202.34 196.3 202 198C200.35 197.67 198.7 197.34 197 197C197.59 191.457 198.706 186.114 201 181C203.728 179.636 205.61 180.122 208.625 180.437Z" fill="#E5E5E5"/>
<path d="M200 232C205.35 231.643 205.35 231.643 207.938 233.062C209.632 236.152 208.74 238.672 208 242C207 243 207 243 203.438 243.062C202.303 243.042 201.169 243.021 200 243C200 239.37 200 235.74 200 232Z" fill="#090909"/>
<path d="M179 205C178.67 205.99 178.34 206.98 178 208C176.098 208.934 174.192 209.863 172.266 210.746C168.962 212.575 166.441 215.071 163.762 217.707C163.18 218.134 162.599 218.56 162 219C161.01 218.67 160.02 218.34 159 218C160.424 214.669 162.134 212.723 164.875 210.375C165.553 209.785 166.231 209.194 166.93 208.586C171.056 205.425 173.783 204.763 179 205Z" fill="#E3E3E3"/>
<path d="M169 279C169.66 279 170.32 279 171 279C172.193 282.877 173 285.916 173 290C170.69 290 168.38 290 166 290C166.99 286.37 167.98 282.74 169 279Z" fill="#1D1D1D"/>
<path d="M123 235C125.448 238.673 127 241.546 127 246C124.36 246 121.72 246 119 246C119.477 244.541 119.957 243.083 120.438 241.625C120.704 240.813 120.971 240.001 121.246 239.164C122 237 122 237 123 235Z" fill="#272727"/>
<path d="M179 205C178 208 178 208 176.258 209.133C175.554 209.46 174.85 209.788 174.125 210.125C173.426 210.458 172.728 210.79 172.008 211.133C170 212 170 212 167 213C169.592 206.952 172.256 204.387 179 205Z" fill="#E9E9E9"/>
<path d="M205 184C209.455 184.99 209.455 184.99 214 186C213.67 187.65 213.34 189.3 213 191C212.67 190.34 212.34 189.68 212 189C209.686 188.269 207.352 187.599 205 187C205 186.01 205 185.02 205 184Z" fill="#222222"/>
<path d="M186 191C186.66 191.66 187.32 192.32 188 193C184.7 193.33 181.4 193.66 178 194C178 193.01 178 192.02 178 191C181.039 190.023 182.984 189.894 186 191Z" fill="#272727"/>
<path d="M227 198C226.67 199.65 226.34 201.3 226 203C224.68 203 223.36 203 222 203C221.67 203.66 221.34 204.32 221 205C221 204.34 221 203.68 221 203C220.34 202.67 219.68 202.34 219 202C224.75 198 224.75 198 227 198Z" fill="#363636"/>
<path d="M185 183C185 183.99 185 184.98 185 186C182.36 186.33 179.72 186.66 177 187C177 186.01 177 185.02 177 184C179.928 183.024 181.956 182.918 185 183Z" fill="#181818"/>
<path d="M125 60C125.33 60.66 125.66 61.32 126 62C126.99 62.33 127.98 62.66 129 63C127.35 65.31 125.7 67.62 124 70C122.898 65.5923 123.413 64.1077 125 60Z" fill="#D1D1D1"/>
<path d="M145 32C145 35.1737 144.691 36.3795 143 39C140.379 40.6907 139.174 41 136 41C138.97 38.03 141.94 35.06 145 32Z" fill="#D0D0D0"/>
<path d="M254 55C254.99 55.99 255.98 56.98 257 58C256.67 58.99 256.34 59.98 256 61C254.02 60.34 252.04 59.68 250 59C249.67 60.32 249.34 61.64 249 63C249 61.35 249 59.7 249 58C250.65 58 252.3 58 254 58C254 57.01 254 56.02 254 55Z" fill="#B4B4B4"/>
<path d="M123.625 249.938C124.851 249.951 124.851 249.951 126.102 249.965C127.041 249.982 127.041 249.982 128 250C128 250.33 128 250.66 128 251C126.763 251.083 125.525 251.165 124.25 251.25C121.011 251.635 120.121 251.9 117.5 254.063C116.757 255.022 116.757 255.022 116 256C116.375 253.563 116.375 253.563 117 251C119.405 249.797 120.95 249.899 123.625 249.938Z" fill="#515151"/>
<path d="M204 27C205.65 27.33 207.3 27.66 209 28C209 28.66 209 29.32 209 30C205.37 30 201.74 30 198 30C198 29.67 198 29.34 198 29C199.98 29 201.96 29 204 29C204 28.34 204 27.68 204 27Z" fill="#C0C0C0"/>
<path d="M211 29C215.455 29.99 215.455 29.99 220 31C219.01 31.33 218.02 31.66 217 32C216.67 32.66 216.34 33.32 216 34C213.5 32.625 213.5 32.625 211 31C211 30.34 211 29.68 211 29Z" fill="#C7C7C7"/>
</g>
<defs>
<clipPath id="clip0_19_65">
<rect width="384" height="325" fill="white"/>
</clipPath>
</defs>
</svg>
