<svg width="152" height="145" viewBox="0 0 152 145" fill="none" xmlns="http://www.w3.org/2000/svg">
<rect width="152" height="145" fill="#0F0E0E"/>
<path d="M19.6692 7.873C20.6788 7.87018 21.6884 7.86736 22.7287 7.86445C23.8456 7.86648 24.9625 7.8685 26.1133 7.87059C27.8667 7.86796 27.8667 7.86796 29.6556 7.86528C32.8704 7.86162 36.0851 7.86249 39.2999 7.86565C42.6574 7.86818 46.0148 7.86584 49.3723 7.86427C55.0115 7.86245 60.6508 7.86485 66.29 7.86961C72.8185 7.87505 79.3469 7.87329 85.8754 7.86778C91.4711 7.86325 97.0669 7.8626 102.663 7.86522C106.009 7.86678 109.355 7.86698 112.701 7.86368C116.43 7.86116 120.158 7.865 123.887 7.87059C125.004 7.86856 126.121 7.86654 127.271 7.86445C128.786 7.86868 128.786 7.86868 130.331 7.873C131.655 7.87356 131.655 7.87356 133.006 7.87414C135 7.99998 135 7.99998 136 8.99998C136.125 10.6192 136.181 12.2438 136.209 13.8677C136.228 14.9061 136.247 15.9445 136.267 17.0144C136.325 21.7879 136.374 26.5612 136.405 31.3349C136.427 33.851 136.461 36.367 136.508 38.8828C136.575 42.5081 136.602 46.1319 136.621 49.7578C136.649 50.8778 136.677 51.9979 136.705 53.1519C136.691 58.5444 136.543 62.0587 132.961 66.2651C132.001 67.2047 131.022 68.128 130 69C130.977 69.735 131.954 70.47 132.961 71.2273C136.782 75.0787 136.692 78.6498 136.705 83.8873C136.664 85.6079 136.664 85.6079 136.621 87.3633C136.612 89.1448 136.612 89.1448 136.603 90.9624C136.576 94.7466 136.506 98.5288 136.437 102.312C136.416 104.878 136.397 107.444 136.381 110.01C136.339 114.682 136.294 119.353 136.209 124.025C136.185 125.433 136.185 125.433 136.161 126.87C136 129 136 129 135 130C133.446 130.098 131.888 130.126 130.331 130.127C128.816 130.131 128.816 130.131 127.271 130.136C125.596 130.132 125.596 130.132 123.887 130.129C122.133 130.132 122.133 130.132 120.344 130.135C117.13 130.138 113.915 130.137 110.7 130.134C107.343 130.132 103.985 130.134 100.628 130.136C94.9884 130.138 89.3492 130.135 83.7099 130.13C77.1815 130.125 70.6531 130.127 64.1246 130.132C58.5288 130.137 52.9331 130.137 47.3374 130.135C43.9911 130.133 40.6449 130.133 37.2987 130.136C33.5702 130.139 29.8417 130.135 26.1133 130.129C24.9963 130.131 23.8794 130.133 22.7287 130.136C21.719 130.133 20.7094 130.13 19.6692 130.127C18.7865 130.127 17.9038 130.126 16.9943 130.126C15 130 15 130 14 129C13.8752 127.35 13.8193 125.695 13.7912 124.041C13.772 122.982 13.7527 121.924 13.7328 120.833C13.6752 115.968 13.6257 111.103 13.595 106.238C13.5734 103.673 13.5393 101.109 13.4924 98.5444C13.4254 94.8496 13.3979 91.1563 13.3789 87.4609C13.3511 86.319 13.3232 85.1771 13.2946 84.0006C13.3086 78.5613 13.4239 74.9674 17.0388 70.7212C17.9988 69.7856 18.9771 68.8664 20 68C18.5342 66.8907 18.5342 66.8907 17.0388 65.759C13.2525 61.9431 13.3082 58.4602 13.2946 53.2652C13.3224 52.14 13.3502 51.0148 13.3789 49.8554C13.385 48.6899 13.3911 47.5244 13.3974 46.3235C13.4243 42.6106 13.4935 38.8998 13.5625 35.1875C13.584 32.6699 13.6029 30.1523 13.6191 27.6347C13.6613 23.0507 13.7064 18.467 13.7912 13.8835C13.8071 12.9623 13.823 12.0411 13.8394 11.0919C14.142 7.15061 16.2062 7.87448 19.6692 7.873ZM23 17C18.6254 54.0522 18.6254 54.0522 28 64C28.99 64.66 29.98 65.32 31 66C31 67.65 31 69.3 31 71C28.36 73.64 25.72 76.28 23 79C23 92.53 23 106.06 23 120C57.32 120 91.64 120 127 120C127 106.47 127 92.94 127 79C124.36 76.36 121.72 73.72 119 71C119 66 119 66 120.496 64.2695C121.137 63.7887 121.777 63.3079 122.437 62.8125C125.173 60.79 125.173 60.79 127 58C127 44.47 127 30.94 127 17C92.68 17 58.36 17 23 17Z" fill="#DDDEDF"/>
<path d="M80 73C83.1875 72.5625 83.1875 72.5625 87 73C91.2837 76.8065 93.5931 82.9188 96 88C96.0909 86.6271 96.0909 86.6271 96.1836 85.2266C96.2674 84.038 96.3512 82.8495 96.4375 81.625C96.5187 80.4416 96.5999 79.2583 96.6836 78.0391C97 75 97 75 98 73C100.333 72.9576 102.667 72.9591 105 73C106.733 74.7329 106.128 76.9621 106.139 79.2715C106.137 80.0069 106.135 80.7423 106.133 81.5C106.134 82.6263 106.134 82.6263 106.136 83.7754C106.136 85.3659 106.135 86.9564 106.13 88.5469C106.125 90.9896 106.13 93.4322 106.137 95.875C106.136 97.4167 106.135 98.9583 106.133 100.5C106.135 101.235 106.137 101.971 106.139 102.729C106.115 107.885 106.115 107.885 105 109C101.812 109.688 101.812 109.688 98 109C95.4455 105.95 93.7448 102.56 92 99C91.4483 97.8991 90.8966 96.7983 90.3281 95.6641C89.8898 94.7849 89.4516 93.9058 89 93C88.9394 94.0712 88.8788 95.1424 88.8164 96.2461C88.732 97.6432 88.6474 99.0404 88.5625 100.438C88.5232 101.145 88.4839 101.852 88.4433 102.58C88.1133 107.887 88.1133 107.887 87 109C84.667 109.041 82.3329 109.042 80 109C78.497 105.994 78.87 103.223 78.8672 99.875C78.8662 99.1723 78.8653 98.4696 78.8643 97.7456C78.8636 96.2594 78.8654 94.7733 78.8696 93.2871C78.875 91.009 78.8697 88.7312 78.8633 86.4531C78.8639 85.0104 78.8652 83.5677 78.8672 82.125C78.8683 80.8076 78.8694 79.4902 78.8706 78.1328C79 75 79 75 80 73Z" fill="#D7D9DA"/>
<path d="M53.6875 28.6249C54.4913 28.5876 55.295 28.5502 56.1231 28.5117C60.2899 28.4503 63.1227 28.629 66.4571 31.2734C70.861 35.9953 71.3898 39.3671 71.375 45.75C71.3734 46.4643 71.3718 47.1786 71.3701 47.9145C71.235 53.7224 70.3773 57.3094 67 62C64.1711 63.7842 62.0257 64.2492 58.7071 64.2304C57.515 64.2275 57.515 64.2275 56.2989 64.2246C55.0681 64.2062 55.0681 64.2062 53.8125 64.1875C52.5644 64.1865 52.5644 64.1865 51.291 64.1855C45.1405 64.1404 45.1405 64.1404 44 63C43.8992 60.5633 43.8603 58.1557 43.8672 55.7187C43.8663 54.99 43.8653 54.2613 43.8643 53.5106C43.8636 51.9672 43.8655 50.4237 43.8697 48.8803C43.875 46.51 43.8697 44.1398 43.8633 41.7695C43.864 40.2734 43.8653 38.7773 43.8672 37.2812C43.8652 36.5677 43.8632 35.8541 43.8611 35.119C43.8976 27.4978 46.9034 28.7418 53.6875 28.6249ZM53 36.9999C53 43.2699 53 49.54 53 56C55.31 56 57.62 56 60 56C61.9378 52.7396 62.2708 50.2713 62.25 46.5C62.2552 45.5615 62.2603 44.6231 62.2657 43.6562C61.996 40.9595 61.3733 39.3105 60 36.9999C57.69 36.9999 55.38 36.9999 53 36.9999Z" fill="#DFE0E1"/>
<path d="M45 73C48.9792 72.9711 52.9583 72.9532 56.9375 72.9375C58.0738 72.9291 59.2101 72.9207 60.3809 72.9121C61.4605 72.9089 62.5401 72.9057 63.6524 72.9023C65.1527 72.8945 65.1527 72.8945 66.6834 72.8865C69 73 69 73 70 74C70.8807 80.7346 68.4691 84.0989 64.625 89.25C64.1171 89.9564 63.6092 90.6628 63.086 91.3906C62.1438 92.6998 61.1948 94.0041 60.2368 95.3018C59.1172 96.839 58.0549 98.4176 57 100C57.8431 99.9884 58.6861 99.9768 59.5547 99.9648C60.6504 99.9558 61.7461 99.9468 62.875 99.9375C64.5108 99.9201 64.5108 99.9201 66.1797 99.9023C69 100 69 100 71 101C71.0424 103.333 71.041 105.667 71 108C70 109 70 109 67.5916 109.114C66.5494 109.108 65.5073 109.103 64.4336 109.098C63.3089 109.094 62.1842 109.091 61.0254 109.088C59.8414 109.08 58.6574 109.071 57.4375 109.062C56.2496 109.058 55.0618 109.053 53.8379 109.049C50.8919 109.037 47.946 109.021 45 109C43.4117 103.303 43.4117 103.303 44.9165 99.9707C46.3011 97.8245 47.7692 95.785 49.3125 93.75C49.8249 93.0436 50.3373 92.3372 50.8653 91.6094C51.817 90.2991 52.7768 88.9946 53.7473 87.6982C54.878 86.1654 55.9434 84.5849 57 83C53.04 82.67 49.08 82.34 45 82C45 79.03 45 76.06 45 73Z" fill="#DDDEDF"/>
<path d="M90.2852 28.9023C91.6599 28.9197 91.6599 28.9197 93.0625 28.9375C93.9816 28.9465 94.9007 28.9555 95.8477 28.9648C96.5579 28.9764 97.2682 28.988 98 29C100.573 35.7133 102.904 42.4956 105.188 49.3125C105.556 50.396 105.924 51.4794 106.303 52.5957C106.65 53.6328 106.998 54.6698 107.355 55.7383C107.672 56.6771 107.988 57.616 108.313 58.5833C109 61 109 61 109 64C106.03 64 103.06 64 100 64C99.34 61.69 98.68 59.38 98 57C94.37 57 90.74 57 87 57C86.8556 57.9694 86.7113 58.9388 86.5625 59.9375C86 63 86 63 85 64C82.3294 64.1412 79.6757 64.0425 77 64C78.3139 56.2155 80.5171 48.9007 83.0625 41.4375C83.4267 40.3463 83.7908 39.2551 84.166 38.1309C87.2327 29.0328 87.2327 29.0328 90.2852 28.9023ZM92 39C91.34 42.63 90.68 46.26 90 50C91.98 50 93.96 50 96 50C94.515 44.555 94.515 44.555 93 39C92.67 39 92.34 39 92 39Z" fill="#DDDEDF"/>
</svg>
