<svg width="162" height="127" viewBox="0 0 162 127" fill="none" xmlns="http://www.w3.org/2000/svg">
<g clip-path="url(#clip0_17_159)">
<path d="M55 22C58.216 21.278 60.8087 21.0904 64 22C68.9687 27.3442 71.7812 34.5624 75 41C75.99 34.73 76.98 28.46 78 22C80.64 22 83.28 22 86 22C85.6926 26.2295 85.3782 30.4586 85.0625 34.6875C84.9755 35.8857 84.8885 37.0839 84.7988 38.3184C84.7118 39.4753 84.6248 40.6322 84.5352 41.8242C84.4566 42.8873 84.3781 43.9504 84.2971 45.0457C84.0247 47.7544 83.5863 50.3435 83 53C79.2776 54.2118 76.6794 54.437 73 53C68.6933 48.0617 65.8498 41.8573 63 36C62.795 36.892 62.5901 37.7841 62.3789 38.7031C62.1095 39.8736 61.8401 41.0441 61.5625 42.25C61.2957 43.4102 61.0288 44.5703 60.7539 45.7656C60.1903 48.1835 59.6133 50.5944 59 53C56.69 53 54.38 53 52 53C52.4464 42.5337 53.1215 32.3228 55 22Z" fill="#F1F1F1"/>
<path d="M128 21C130.97 21 133.94 21 137 21C137 24.3 137 27.6 137 31C140.96 31 144.92 31 149 31C149 34.3 149 37.6 149 41C145.04 41 141.08 41 137 41C137 44.96 137 48.92 137 53C134.03 53 131.06 53 128 53C128 49.04 128 45.08 128 41C124.04 41 120.08 41 116 41C116 38.03 116 35.06 116 32C119.96 32 123.92 32 128 32C128 28.37 128 24.74 128 21Z" fill="#FBFBFB"/>
<path d="M99 20.875C100.052 20.8724 101.104 20.8698 102.188 20.8672C105 21 105 21 108 22C108 24.31 108 26.62 108 29C105.03 29 102.06 29 99 29C99 30.65 99 32.3 99 34C101.64 34 104.28 34 107 34C107 36.31 107 38.62 107 41C104.36 41 101.72 41 99 41C99 42.65 99 44.3 99 46C101.97 46 104.94 46 108 46C108 48.31 108 50.62 108 53C102.06 53 96.12 53 90 53C90 42.77 90 32.54 90 22C93.2228 20.9257 95.6151 20.8667 99 20.875Z" fill="#F1F1F1"/>
<path d="M30 21C33.0625 22.5 33.0625 22.5 35 24C34.67 26.31 34.34 28.62 34 31C33.505 30.835 33.01 30.67 32.5 30.5C27.8432 29.5686 23.6809 28.9915 19.5 31.5C17.4162 34.973 17.3347 38.0389 18 42C18.66 43.32 19.32 44.64 20 46C23.96 45.67 27.92 45.34 32 45C32 47.31 32 49.62 32 52C26.8306 54.5064 22.4122 54.7877 16.9375 53C12.2539 49.8111 8.64473 46.1698 7.4844 40.4648C7.24728 34.8502 8.19706 31.3169 12 27C17.7407 21.8334 22.3282 20.0581 30 21Z" fill="#ECECEC"/>
<path d="M40.3125 73.9375C42.1378 73.9684 42.1378 73.9684 44 74C46.542 74 49.0845 73.9626 51.625 73.875C55 74 55 74 57 76C57.145 78.5806 57.1868 81.0494 57.125 83.625C57.116 84.3314 57.107 85.0378 57.0977 85.7656C57.0741 87.5106 57.0382 89.2553 57 91C55.02 91 53.04 91 51 91C50.67 87.37 50.34 83.74 50 80C49.01 80 48.02 80 47 80C46.34 83.96 45.68 87.92 45 92C43.02 92 41.04 92 39 92C39 88.04 39 84.08 39 80C37.68 80.33 36.36 80.66 35 81C34.67 84.63 34.34 88.26 34 92C32.02 92 30.04 92 28 92C28 86.39 28 80.78 28 75C30.64 75 33.28 75 36 75C37 74 37 74 40.3125 73.9375Z" fill="#E80873"/>
<path d="M76 73C79.125 75.0625 79.125 75.0625 81 78C81.6858 82.2671 81.5002 84.2065 79.1875 87.875C76.193 90.784 74.2769 90.9732 70.125 91.375C66.7593 91.3129 65.9691 90.9794 63 89C60.7815 85.6723 60.2341 83.8602 60.5313 79.9375C62.3951 72.2338 69.3755 71.6642 76 73Z" fill="#ED0876"/>
<path d="M123 71C126.125 73.0625 126.125 73.0625 128 76C128.692 80.3027 128.516 82.2095 126.125 85.875C123.281 88.7194 121.611 89.2035 117.688 89.375C114.088 89.3169 113.084 89.0548 109.938 87C107.793 83.6789 107.237 81.8212 107.531 77.9375C109.395 70.2338 116.376 69.6642 123 71Z" fill="#ED0876"/>
<path d="M38 22C40.64 22 43.28 22 46 22C46 32.23 46 42.46 46 53C43.36 53 40.72 53 38 53C38 42.77 38 32.54 38 22Z" fill="#F3F3F3"/>
<path d="M19 75C21.9375 77.1875 21.9375 77.1875 24 80C24 81.65 24 83.3 24 85C20.04 85 16.08 85 12 85C12.33 85.99 12.66 86.98 13 88C13.5156 87.835 14.0313 87.67 14.5625 87.5C17.7337 86.8495 20.7722 86.9379 24 87C21.25 91.875 21.25 91.875 19 93C15.941 93.4134 13.0547 93.4666 10 93C7.28508 90.881 6.32209 89.4137 5.55861 86.0625C5.36055 83.8374 5.42907 82.1618 6.00002 80C9.90483 75.4285 13.034 73.9153 19 75Z" fill="#E60872"/>
<path d="M143.938 69.875C147 70 147 70 149 71C149 76.28 149 81.56 149 87C147.02 87 145.04 87 143 87C143 83.37 143 79.74 143 76C141.68 76.33 140.36 76.66 139 77C138.34 80.63 137.68 84.26 137 88C135.02 88 133.04 88 131 88C131.33 82.39 131.66 76.78 132 71C134.64 71 137.28 71 140 71C141 70 141 70 143.938 69.875Z" fill="#F10878"/>
<path d="M86 67C87.98 67 89.96 67 92 67C92 68.65 92 70.3 92 72C93.32 72 94.64 72 96 72C96 73.65 96 75.3 96 77C94.68 77.33 93.36 77.66 92 78C91.67 81.96 91.34 85.92 91 90C89.02 90 87.04 90 85 90C85 86.04 85 82.08 85 78C84.34 78 83.68 78 83 78C83 76.35 83 74.7 83 73C83.99 73 84.98 73 86 73C86 71.02 86 69.04 86 67Z" fill="#EB0875"/>
<path d="M52.5625 73.6875C55 74 55 74 57 76C57.145 78.5806 57.1868 81.0494 57.125 83.625C57.116 84.3314 57.107 85.0378 57.0977 85.7656C57.0741 87.5106 57.0382 89.2553 57 91C55.02 91 53.04 91 51 91C50.67 86.71 50.34 82.42 50 78C49.01 77.67 48.02 77.34 47 77C48.8111 74.7123 49.6072 74.0479 52.5625 73.6875Z" fill="#F30878"/>
<path d="M98 72C100.31 72 102.62 72 105 72C104.67 77.61 104.34 83.22 104 89C102.02 89 100.04 89 98 89C98 83.39 98 77.78 98 72Z" fill="#E60872"/>
<path d="M100 63C102.625 63.375 102.625 63.375 105 64C105.625 66.375 105.625 66.375 106 69C105.34 69.66 104.68 70.32 104 71C101.375 70.625 101.375 70.625 99 70C98.375 67.625 98.375 67.625 98 65C98.66 64.34 99.32 63.68 100 63Z" fill="#D6086B"/>
<path d="M137 31C140.96 31 144.92 31 149 31C149 34.3 149 37.6 149 41C145.04 41 141.08 41 137 41C137 40.67 137 40.34 137 40C140.3 40 143.6 40 147 40C147 37.69 147 35.38 147 33C144.03 33 141.06 33 138 33C137.67 32.34 137.34 31.68 137 31Z" fill="#C5C5C5"/>
<path d="M69 78C71.625 78.375 71.625 78.375 74 79C74.125 81.375 74.125 81.375 74 84C73.34 84.66 72.68 85.32 72 86C69.875 85.625 69.875 85.625 68 85C67.375 82.625 67.375 82.625 67 80C67.66 79.34 68.32 78.68 69 78Z" fill="#1E0812"/>
<path d="M116 76C117.675 76.286 119.344 76.6178 121 77C121 79.31 121 81.62 121 84C119.02 84 117.04 84 115 84C114.958 81.6671 114.959 79.333 115 77C115.33 76.67 115.66 76.34 116 76Z" fill="#250816"/>
<path d="M23 78C23.66 78.33 24.32 78.66 25 79C25 81.97 25 84.94 25 88C23.1437 87.9691 23.1437 87.9691 21.25 87.9375C18.3359 87.9323 15.7905 88.0698 13 89C12.67 87.68 12.34 86.36 12 85C15.96 85 19.92 85 24 85C23.67 82.69 23.34 80.38 23 78Z" fill="#4E0829"/>
<path d="M16 66C17.98 66 19.96 66 22 66C21.3125 68.4375 21.3125 68.4375 20 71C17.375 71.8125 17.375 71.8125 15 72C15.33 70.02 15.66 68.04 16 66Z" fill="#E40872"/>
<path d="M12.9736 78C15.5639 78.1875 15.5639 78.1875 17.9075 78.5C18.0308 79.6875 18.0308 79.6875 17.9075 81C17.2562 81.33 16.6049 81.66 15.9339 82C13.837 81.8125 13.837 81.8125 11.9868 81.5C11.37 80.3125 11.37 80.3125 11 79C11.6513 78.67 12.3026 78.34 12.9736 78Z" fill="#1E0812"/>
</g>
<defs>
<clipPath id="clip0_17_159">
<rect width="162" height="127" fill="white"/>
</clipPath>
</defs>
</svg>
