<svg width="145" height="66" viewBox="0 0 145 66" fill="none" xmlns="http://www.w3.org/2000/svg">
<g clip-path="url(#clip0_20_115)">
<path d="M0 0C47.85 0 95.7 0 145 0C145 21.78 145 43.56 145 66C97.15 66 49.3 66 0 66C0 44.22 0 22.44 0 0Z" fill="#0A0A0A"/>
<path d="M70 38C75.94 38.33 81.88 38.66 88 39C86 43 86 43 84 46C83.615 47.6555 83.2721 49.3222 83 51C83.66 51 84.32 51 85 51C85.99 52.485 85.99 52.485 87 54C88.9636 54.5775 88.9636 54.5775 91.125 54.6875C92.4037 54.7906 93.6825 54.8937 95 55C95.33 54.01 95.66 53.02 96 52C96.66 52 97.32 52 98 52C98 51.34 98 50.68 98 50C98.66 50 99.32 50 100 50C100.66 51.65 101.32 53.3 102 55C105.3 54.34 108.6 53.68 112 53C112.66 50.36 113.32 47.72 114 45C115.32 45 116.64 45 118 45C118 47.97 118 50.94 118 54C118.99 54 119.98 54 121 54C121 50.7 121 47.4 121 44C121.66 44 122.32 44 123 44C123 43.01 123 42.02 123 41C121.02 41 119.04 41 117 41C117 40.34 117 39.68 117 39C120.63 39 124.26 39 128 39C128 45.6 128 52.2 128 59C108.86 59 89.72 59 70 59C70 52.07 70 45.14 70 38Z" fill="#4CDD5A"/>
<path d="M71 38C89.81 38 108.62 38 128 38C128 38.33 128 38.66 128 39C124.37 39 120.74 39 117 39C117 39.66 117 40.32 117 41C118.98 41 120.96 41 123 41C123 41.99 123 42.98 123 44C122.34 44 121.68 44 121 44C121 47.3 121 50.6 121 54C120.01 54 119.02 54 118 54C118 51.03 118 48.06 118 45C116.68 45 115.36 45 114 45C114.083 45.9075 114.165 46.815 114.25 47.75C114 51 114 51 112.5 53.375C108.867 55.7361 106.282 55.2854 102 55C101.34 53.35 100.68 51.7 100 50C99.34 50 98.68 50 98 50C98 50.66 98 51.32 98 52C97 53.625 97 53.625 95 55C92.2814 55.2627 89.7424 55.1349 87 55C86.34 53.68 85.68 52.36 85 51C84.34 51 83.68 51 83 51C83.4575 45.1665 84.0963 43.8796 88 39C82.39 39 76.78 39 71 39C71 38.67 71 38.34 71 38Z" fill="#42C84F"/>
<path d="M53 9C55.64 9 58.28 9 61 9C61.8385 10.4554 62.6706 11.9144 63.5 13.375C63.9641 14.1871 64.4281 14.9992 64.9062 15.8359C66 18 66 18 66 20C66.66 20 67.32 20 68 20C67.9884 19.3735 67.9768 18.747 67.9648 18.1016C67.9558 17.2843 67.9468 16.467 67.9375 15.625C67.9259 14.8129 67.9143 14.0008 67.9023 13.1641C68 11 68 11 69 9C70.98 9 72.96 9 75 9C74.6931 12.1047 74.3785 15.2087 74.0625 18.3125C73.9755 19.1936 73.8885 20.0746 73.7988 20.9824C73.7118 21.83 73.6248 22.6775 73.5352 23.5508C73.4566 24.3311 73.3781 25.1114 73.2971 25.9153C73 28 73 28 72 31C69.69 31 67.38 31 65 31C65 29.68 65 28.36 65 27C64.34 27 63.68 27 63 27C62.5462 25.8656 62.0925 24.7313 61.625 23.5625C60.429 19.9528 60.429 19.9528 58 19C57.9394 19.7825 57.8788 20.5649 57.8164 21.3711C57.7326 22.383 57.6488 23.3949 57.5625 24.4375C57.4813 25.4468 57.4001 26.4562 57.3164 27.4961C57 30 57 30 56 31C54.3338 31.0406 52.6661 31.0427 51 31C51.5929 23.6584 52.2382 16.3261 53 9Z" fill="#E5E5E5"/>
<path d="M85 9C87.64 9 90.28 9 93 9C93.4751 11.1378 93.9497 13.2756 94.4219 15.4141C94.7984 17.0984 95.1834 18.7808 95.5781 20.4609C95.8488 21.625 95.8488 21.625 96.125 22.8125C96.2926 23.5202 96.4602 24.2279 96.6328 24.957C97 27 97 27 97 31C94.69 31 92.38 31 90 31C90 30.01 90 29.02 90 28C87.69 28 85.38 28 83 28C82.67 28.99 82.34 29.98 82 31C79.69 31 77.38 31 75 31C75.6305 28.2184 76.4732 25.7151 77.6289 23.1094C77.9415 22.4004 78.2541 21.6914 78.5762 20.9609C78.9017 20.2313 79.2271 19.5017 79.5625 18.75C79.8919 18.0049 80.2212 17.2598 80.5605 16.4922C81.3709 14.6602 82.185 12.8299 83 11C83.66 11 84.32 11 85 11C85 10.34 85 9.68 85 9Z" fill="#D3D3D3"/>
<path d="M36 9C38.64 9 41.28 9 44 9C46.1555 13.5193 46.6225 17.8987 47.125 22.8125C47.2114 23.6008 47.2977 24.389 47.3867 25.2012C47.5975 27.1334 47.7996 29.0666 48 31C46.02 31 44.04 31 42 31C42 29.68 42 28.36 42 27C39.03 27 36.06 27 33 27C33 28.32 33 29.64 33 31C30.69 31 28.38 31 26 31C28.293 23.042 31.949 16.1808 36 9Z" fill="#DADADA"/>
<path d="M121 8C123.31 8 125.62 8 128 8C128 10.64 128 13.28 128 16C130.64 16 133.28 16 136 16C136 17.98 136 19.96 136 22C133.36 22 130.72 22 128 22C128 24.97 128 27.94 128 31C125.69 31 123.38 31 121 31C121 28.03 121 25.06 121 22C118.36 22 115.72 22 113 22C113 19.69 113 17.38 113 15C115.64 15 118.28 15 121 15C121 12.69 121 10.38 121 8Z" fill="#E4E4E4"/>
<path d="M26 8.99999C26.33 10.65 26.66 12.3 27 14C26.3851 13.9652 25.7702 13.9304 25.1367 13.8945C24.3285 13.8674 23.5202 13.8404 22.6875 13.8125C21.887 13.7777 21.0865 13.7429 20.2617 13.707C17.9397 13.82 17.9397 13.82 16.2305 15.3203C14.34 17.9009 14.6049 19.9052 15 23C18.1876 25.1251 20.2651 25.502 24 26C23.67 27.65 23.34 29.3 23 31C18.1422 31.4858 14.8625 31.4388 10.4375 29.1875C7.74635 26.5713 7.52878 24.1758 7.375 20.5C7.58519 16.9506 7.93656 15.1195 9.625 11.9375C15.0349 7.52417 19.48 7.87585 26 8.99999Z" fill="#EBEBEB"/>
<path d="M110 41C110.99 41.66 111.98 42.32 113 43C113.33 42.67 113.66 42.34 114 42C115.519 41.9282 117.042 41.9161 118.562 41.9375C119.389 41.9465 120.215 41.9555 121.066 41.9648C121.704 41.9764 122.343 41.988 123 42C123 42.66 123 43.32 123 44C122.34 44 121.68 44 121 44C121 47.3 121 50.6 121 54C120.01 54 119.02 54 118 54C118 51.03 118 48.06 118 45C116.68 45 115.36 45 114 45C114.124 46.3612 114.124 46.3612 114.25 47.75C114 51 114 51 112.5 53.375C108.772 55.7982 106.402 55.497 102 55C99.5265 51.2898 99.6149 49.3894 100 45C102.119 40.1393 105.083 40.4731 110 41Z" fill="#154019"/>
<path d="M102 9C103.98 9 105.96 9 108 9C107.67 14.28 107.34 19.56 107 25C108.98 25 110.96 25 113 25C113 26.98 113 28.96 113 31C108.71 31 104.42 31 100 31C100.142 28.6456 100.289 26.2915 100.438 23.9375C100.519 22.6265 100.6 21.3155 100.684 19.9648C100.979 16.2634 101.433 12.6663 102 9Z" fill="#E0E0E0"/>
<path d="M94 41C95.9375 42 95.9375 42 97 44C97.5774 48.47 97.5439 51.1841 95 55C93.0547 55.293 93.0547 55.293 90.875 55.1875C89.5963 55.1256 88.3175 55.0637 87 55C86.34 53.68 85.68 52.36 85 51C84.34 51 83.68 51 83 51C83.5945 44.6984 83.5945 44.6984 85.125 42.0625C88.1391 40.3545 90.6209 40.638 94 41Z" fill="#0C250E"/>
<path d="M74 41C76.64 41 79.28 41 82 41C82 42.32 82 43.64 82 45C80.68 45 79.36 45 78 45C78 45.66 78 46.32 78 47C79.32 47 80.64 47 82 47C82 47.99 82 48.98 82 50C80.68 50 79.36 50 78 50C78 51.65 78 53.3 78 55C76.68 55 75.36 55 74 55C74 50.38 74 45.76 74 41Z" fill="#133C17"/>
<path d="M109 42C107.745 44.5108 106.499 44.8713 104 46C104 47.65 104 49.3 104 51C106.31 51.33 108.62 51.66 111 52C110.67 52.99 110.34 53.98 110 55C108.721 55.0619 107.442 55.1238 106.125 55.1875C105.406 55.2223 104.686 55.2571 103.945 55.293C103.303 55.1963 102.661 55.0996 102 55C99.5305 51.2959 99.5308 49.3786 100 45C102.708 41.8902 104.998 41.6665 109 42Z" fill="#071708"/>
<path d="M89 44C90.6754 44.286 92.3439 44.6178 94 45C94 46.98 94 48.96 94 51C91.625 51.625 91.625 51.625 89 52C88.34 51.34 87.68 50.68 87 50C87.5556 45.4444 87.5556 45.4444 89 44Z" fill="#42CA4F"/>
<path d="M115 42C117.64 42 120.28 42 123 42C123 42.66 123 43.32 123 44C122.34 44 121.68 44 121 44C121 47.3 121 50.6 121 54C120.01 54 119.02 54 118 54C117.927 53.0429 117.927 53.0429 117.852 52.0664C117.777 51.2401 117.702 50.4138 117.625 49.5625C117.555 48.7388 117.486 47.9151 117.414 47.0664C117.277 46.3845 117.141 45.7026 117 45C116.34 44.67 115.68 44.34 115 44C115 43.34 115 42.68 115 42Z" fill="#040D05"/>
<path d="M106.5 44.875C109 45 109 45 110 46C110.125 48.5 110.125 48.5 110 51C109 52 109 52 106.5 52.125C104 52 104 52 103 51C102.875 48.5 102.875 48.5 103 46C104 45 104 45 106.5 44.875Z" fill="#44CE51"/>
<path d="M96 46C96.33 46 96.66 46 97 46C97.25 51.625 97.25 51.625 95 55C93.0547 55.293 93.0547 55.293 90.875 55.1875C89.5963 55.1256 88.3175 55.0637 87 55C86.34 53.68 85.68 52.36 85 51C88.3463 49.8846 89.6391 50.3278 93 51C93.99 50.67 94.98 50.34 96 50C96 48.68 96 47.36 96 46Z" fill="#0D2A10"/>
<path d="M121 22C121.66 22 122.32 22 123 22C123 24.31 123 26.62 123 29C124.32 29 125.64 29 127 29C127 26.69 127 24.38 127 22C127.33 22 127.66 22 128 22C128 24.97 128 27.94 128 31C125.69 31 123.38 31 121 31C121 28.03 121 25.06 121 22Z" fill="#C1C1C1"/>
<path d="M52 15C53.2682 18.6539 52.7572 21.4907 52.0625 25.25C51.8679 26.3277 51.6732 27.4053 51.4727 28.5156C51.2387 29.7454 51.2387 29.7454 51 31C50.01 31 49.02 31 48 31C47.67 28.36 47.34 25.72 47 23C47.33 23.99 47.66 24.98 48 26C48.66 25.67 49.32 25.34 50 25C50.6893 22.6509 50.6893 22.6509 51.125 19.9375C51.2926 19.0184 51.4602 18.0993 51.6328 17.1523C51.754 16.4421 51.8752 15.7318 52 15Z" fill="#383838"/>
<path d="M87 41C93.36 40.64 93.36 40.64 96 42.125C97.4967 44.9314 96.7329 47.0016 96 50C95.34 50 94.68 50 94 50C93.67 47.36 93.34 44.72 93 42C90.69 42.33 88.38 42.66 86 43C86.33 42.34 86.66 41.68 87 41Z" fill="#113515"/>
<path d="M22.9999 13C20.9999 14.3333 18.9999 15.6667 16.9999 17C16.637 18.9775 16.637 18.9775 16.8124 21.125C16.8743 22.4037 16.9362 23.6825 16.9999 25C16.0099 24.34 15.0199 23.68 13.9999 23C13.4453 19.3553 13.5327 17.6576 15.6874 14.625C18.3878 12.7274 19.7705 12.6412 22.9999 13Z" fill="#434343"/>
<path d="M18 25C24.0547 24.8047 24.0547 24.8047 26 25C26.66 25.66 27.32 26.32 28 27C27.34 28.32 26.68 29.64 26 31C25.01 30.67 24.02 30.34 23 30C23.33 28.68 23.66 27.36 24 26C22.02 26 20.04 26 18 26C18 25.67 18 25.34 18 25Z" fill="#4F4F4F"/>
<path d="M96 46C96.33 46 96.66 46 97 46C97.125 48.875 97.125 48.875 97 52C95 54 95 54 91.875 54.125C90.4519 54.0631 90.4519 54.0631 89 54C89 53.67 89 53.34 89 53C90.65 53 92.3 53 94 53C94 52.01 94 51.02 94 50C94.66 50 95.32 50 96 50C96 48.68 96 47.36 96 46Z" fill="#010602"/>
<path d="M77 45C77.33 45.66 77.66 46.32 78 47C79.32 47 80.64 47 82 47C82 47.99 82 48.98 82 50C80.35 50 78.7 50 77 50C76.67 49.34 76.34 48.68 76 48C76.33 47.01 76.66 46.02 77 45Z" fill="#113414"/>
<path d="M82 42C83.125 43.75 83.125 43.75 84 46C83.125 48.25 83.125 48.25 82 50C82 49.01 82 48.02 82 47C80.68 47 79.36 47 78 47C78 46.34 78 45.68 78 45C79.32 45 80.64 45 82 45C82 44.01 82 43.02 82 42Z" fill="#3FC04B"/>
</g>
<defs>
<clipPath id="clip0_20_115">
<rect width="145" height="66" fill="white"/>
</clipPath>
</defs>
</svg>
