<svg width="257" height="151" viewBox="0 0 257 151" fill="none" xmlns="http://www.w3.org/2000/svg">
<g clip-path="url(#clip0_7_3)">
<path d="M86 81C92.807 85.9148 97.9173 91.4851 99.6836 99.8711C100.987 108.639 99.4613 116.351 95.3125 124.188C88.8064 132.1 81.8768 136.316 71.9375 138.75C60.2875 139.741 49.7732 138.348 40.1992 131.102C34.6738 125.822 31.2841 119.436 30.7969 111.828C30.6419 100.001 32.2082 93.974 40.3867 85.2734C51.7554 75.3832 73.036 72.8135 86 81ZM55.3789 99.832C52.5776 104.236 52.5379 109.875 53.625 114.875C55.5052 117.781 56.9709 119.26 60 121C63.8355 121.764 67.334 121.893 70.8437 120.012C73.7431 117.716 75.6499 115.406 77 112C77.5617 107.105 77.6226 102.525 75.75 97.9375C72.829 94.7035 70.9694 94.1077 66.625 93.625C61.6336 94.1414 58.6828 96.0982 55.3789 99.832Z" fill="#F08824"/>
<path d="M212 76C213.561 79.1227 212.199 81.3052 211.188 84.5625C210.83 85.7394 210.473 86.9163 210.105 88.1289C209 91 209 91 207 92C206.072 91.5256 205.144 91.0513 204.188 90.5625C198.776 88.0296 192.833 88.7632 187 89C187.33 89.99 187.66 90.98 188 92C190.574 92.947 193.048 93.7292 195.688 94.4375C202.097 96.1696 207.596 97.9116 211.852 103.379C214.313 108.997 213.743 115.538 212 121.313C206.345 128.912 200.392 132.59 191 134C179.405 135.243 169.644 132.429 160 126C162.31 121.05 164.62 116.1 167 111C168.753 111.825 170.506 112.65 172.312 113.5C178.34 116.031 183.513 116.814 190 116C190.99 115.505 190.99 115.505 192 115C192 114.01 192 113.02 192 112C190.987 111.758 189.974 111.515 188.93 111.266C187.578 110.928 186.226 110.589 184.875 110.25C183.877 110.014 183.877 110.014 182.859 109.773C177.058 108.295 171.89 105.709 168 101C166.215 95.646 165.955 89.2036 167.719 83.7969C171.177 77.3831 176.336 74.413 183 72C192.7 69.7176 203.284 71.158 212 76Z" fill="#EE8724"/>
<path d="M91.7104 2.28345C95.5314 2.50961 97.4064 3.34245 99.9995 6.21484C104.081 12.1588 107.343 18.5437 110.517 25.0073C112.538 29.0851 114.748 33.046 117 37C117.174 35.6071 117.174 35.6071 117.351 34.186C117.783 30.7454 118.217 27.3052 118.654 23.8652C118.843 22.3755 119.03 20.8856 119.216 19.3955C119.483 17.2554 119.755 15.116 120.027 12.9766C120.19 11.6883 120.352 10.4 120.519 9.07275C121 6 121 6 122 4C126.62 4 131.24 4 136 4C134.5 17.6922 132.982 31.3823 131.375 45.0625C131.191 46.6663 131.191 46.6663 131.003 48.3025C130.886 49.2868 130.769 50.271 130.648 51.2852C130.547 52.1502 130.446 53.0152 130.341 53.9065C130 56 130 56 129 58C126.619 58.2454 124.263 58.4216 121.875 58.5625C120.877 58.6756 120.877 58.6756 119.859 58.791C117.867 58.8789 117.867 58.8789 114 58C111.432 55.3219 109.771 52.2417 108 49C107.028 47.3675 106.054 45.7359 105.078 44.1055C104.132 42.4679 103.19 40.8286 102.25 39.1875C101.769 38.3554 101.288 37.5233 100.793 36.666C98.7682 33.1494 96.7863 29.6449 95 26C94.8794 26.8678 94.8794 26.8678 94.7563 27.7532C91.9113 48.1495 91.9113 48.1495 90 58C85.38 58 80.76 58 76 58C76.6866 47.6071 77.856 37.3158 79.1567 26.9844C79.5045 24.2142 79.8443 21.4431 80.1836 18.6719C80.4032 16.9114 80.6232 15.151 80.8438 13.3906C80.9448 12.5616 81.0459 11.7326 81.15 10.8785C82.11 3.35381 84.0593 2.8661 91.7104 2.28345Z" fill="#F4F4F4"/>
<path d="M156 77C156.027 79.2291 156.046 81.4583 156.062 83.6875C156.074 84.9289 156.086 86.1702 156.098 87.4492C156.015 90.4624 155.708 93.0828 155 96C154.504 95.7113 154.007 95.4225 153.496 95.125C147.575 91.8892 143.396 91.2952 136.688 92.6875C133.822 93.7636 133.822 93.7636 132.688 96.4375C132.461 97.2831 132.234 98.1288 132 99C131.67 99.99 131.34 100.98 131 102C130.499 108.118 130.932 111.095 135 116C138.443 117.721 142.228 117.387 146 117C149.334 115.543 149.334 115.543 152 114C152.99 114.495 152.99 114.495 154 115C153.34 120.61 152.68 126.22 152 132C142.463 136.087 134.189 137.869 124.168 134.109C117.162 130.524 111.812 124.566 108.918 117.273C106.51 108.687 106.721 97.9822 111 90C120.599 74.6119 139.302 68.8215 156 77Z" fill="#EF8824"/>
<path d="M207 2C212.61 2 218.22 2 224 2C224 7.94 224 13.88 224 20C230.27 20 236.54 20 243 20C243 25.61 243 31.22 243 37C236.73 37 230.46 37 224 37C224 43.93 224 50.86 224 58C218.39 58 212.78 58 207 58C207 51.07 207 44.14 207 37C200.07 37 193.14 37 186 37C185.979 34.3806 185.959 31.7613 185.937 29.0625C185.928 28.2363 185.919 27.4101 185.91 26.5588C185.903 24.7057 185.95 22.8525 186 21C187 20 187 20 188.949 19.8865C189.782 19.8917 190.615 19.8969 191.473 19.9023C192.372 19.9056 193.271 19.9088 194.197 19.9121C195.143 19.9205 196.088 19.9289 197.062 19.9375C198.012 19.942 198.961 19.9465 199.939 19.9512C202.293 19.963 204.646 19.9809 207 20C207 14.06 207 8.12 207 2Z" fill="#F4F4F4"/>
<path d="M153.18 1.70704C154.108 1.71671 155.036 1.72637 155.992 1.73633C156.944 1.76147 157.895 1.78661 158.875 1.81251C159.85 1.82604 160.824 1.83958 161.828 1.85352C164.219 1.88869 166.609 1.9379 169 2.00001C169 2.66001 169 3.32001 169 4.00001C170.32 4.00001 171.64 4.00001 173 4.00001C173 8.29001 173 12.58 173 17C167.72 17 162.44 17 157 17C157 19.64 157 22.28 157 25C162.28 25 167.56 25 173 25C173 28.96 173 32.92 173 37C167.72 37 162.44 37 157 37C157 39.97 157 42.94 157 46C162.28 46 167.56 46 173 46C173 49.96 173 53.92 173 58C162.77 58 152.54 58 142 58C142 40.51 142 23.02 142 5.00001C148.75 1.62501 148.75 1.62501 153.18 1.70704Z" fill="#F1F1F1"/>
<path d="M46 6C46.66 6.66 47.32 7.32 48 8C47.9766 11.0391 47.9766 11.0391 47.625 14.625C47.5141 15.8135 47.4033 17.002 47.2891 18.2266C47.1937 19.1418 47.0983 20.057 47 21C46.2369 20.6906 45.4737 20.3812 44.6875 20.0625C38.7078 17.6985 33.3952 17.3909 27 18C22.5459 20.1098 19.8071 22.3819 18 27C17.4571 31.5695 17.49 35.5901 19.0625 39.9375C22.5477 43.6476 26.3829 44.8503 31.375 45.3125C35.7379 44.9364 39.7482 44.0466 44 43C43.67 47.29 43.34 51.58 43 56C36.3246 59.8145 29.5418 59.8734 22 59C14.6187 56.8396 9.16525 52.4214 5 46C1.11152 38.1814 0.92778 30.671 3.5625 22.4375C7.07452 13.688 12.185 8.85105 20.668 4.91015C29.2041 1.57861 37.6073 2.54138 46 6Z" fill="#F3F3F3"/>
<path d="M53 4C57.62 4 62.24 4 67 4C67 21.82 67 39.64 67 58C62.38 58 57.76 58 53 58C53 40.18 53 22.36 53 4Z" fill="#FAFAFA"/>
<path d="M256 148C256 148.99 256 149.98 256 151C241.15 151 226.3 151 211 151C211 150.67 211 150.34 211 150C214.997 149.708 218.995 149.424 222.993 149.146C225.002 149.004 227.01 148.858 229.018 148.711C238.04 148.087 246.958 147.883 256 148Z" fill="#DBDBDB"/>
</g>
<defs>
<clipPath id="clip0_7_3">
<rect width="257" height="151" fill="white"/>
</clipPath>
</defs>
</svg>
