<svg width="356" height="133" viewBox="0 0 356 133" fill="none" xmlns="http://www.w3.org/2000/svg">
<g clip-path="url(#clip0_18_3)">
<path d="M100 67C105.75 68.875 105.75 68.875 108 70C108 70.66 108 71.32 108 72C108.949 72.3094 109.897 72.6188 110.875 72.9375C114 74 114 74 116 75C116 75.66 116 76.32 116 77C116.846 77.2681 117.691 77.5362 118.562 77.8125C122.129 79.0446 125.535 80.5066 129 82C130.996 82.7696 132.999 83.5164 135.008 84.2539C136.44 84.7901 137.854 85.3743 139.254 85.9883C142.705 87.2599 146.209 87.9491 149.812 88.625C150.505 88.7591 151.198 88.8931 151.912 89.0312C153.607 89.3586 155.304 89.6799 157 90C157 90.66 157 91.32 157 92C188.687 94.074 188.687 94.074 220 90C220.646 89.8501 221.292 89.7003 221.958 89.5459C231.985 87.188 241.988 84.183 251.121 79.3477C254 78 254 78 258 78C258.414 80.6797 258.414 80.6797 258 84C255.787 86.0429 253.876 87.5299 251.375 89.125C250.758 89.5414 250.14 89.9577 249.504 90.3867C247.681 91.6107 245.842 92.8051 244 94C242.382 95.0944 242.382 95.0944 240.73 96.2109C234.837 100.073 228.307 101.993 221.586 103.949C219.282 104.624 216.993 105.352 214.727 106.145C205.115 109.147 195.678 109.377 185.688 109.375C184.996 109.377 184.305 109.379 183.593 109.38C171.919 109.377 161.195 108.065 150.125 104.312C149.355 104.052 148.584 103.791 147.791 103.523C136.358 99.5146 126.538 93.44 117 86C116.037 85.2536 115.074 84.5073 114.082 83.7383C108.802 79.5417 104.022 75.4356 100 70C100 69.01 100 68.02 100 67Z" fill="#0BA5D8"/>
<path d="M272 3C274.97 3 277.94 3 281 3C281 20.16 281 37.32 281 55C273 55 273 55 270 54C269.01 54.495 269.01 54.495 268 55C262.765 55.5142 258.42 55.8351 253.813 53.125C252 51 252 51 252 49C251.34 49 250.68 49 250 49C247.602 42.1066 246.962 35.0934 249 28C249.66 28 250.32 28 251 28C251.093 26.8863 251.093 26.8863 251.188 25.75C252.251 22.1511 253.952 21.0814 257 19C260.03 17.4848 262.651 17.8297 266 18C267.683 18.6237 269.354 19.2833 271 20C270.988 18.8566 270.977 17.7132 270.965 16.5352C270.955 15.0443 270.946 13.5534 270.938 12.0625C270.929 11.3078 270.921 10.553 270.912 9.77539C270.903 7.85006 270.948 5.92464 271 4C271.33 3.67 271.66 3.34 272 3Z" fill="#F2F2F2"/>
<path d="M38 18C41.259 19.4561 43.7126 21.2552 46 24C47.276 27.8279 47.1842 31.4497 47.1875 35.4375C47.1997 36.2013 47.212 36.965 47.2246 37.752C47.2396 43.5087 46.5088 46.3365 42.5625 50.6875C39.3823 53.5575 37.1467 54.1407 33 54.125C31.9791 54.1289 31.9791 54.1289 30.9375 54.1328C29 54 29 54 26 53C26 52.34 26 51.68 26 51C25.34 51 24.68 51 24 51C24 56.28 24 61.56 24 67C21.03 67 18.06 67 15 67C15 51.16 15 35.32 15 19C18.63 19 22.26 19 26 19C29.6839 17.1581 33.9701 17.6377 38 18Z" fill="#0BA6D8"/>
<path d="M98 18C100.31 18 102.62 18 105 18C105.33 18.99 105.66 19.98 106 21C106.763 20.505 107.526 20.01 108.312 19.5C113.206 17.5093 117.769 17.3677 123 18C123.99 18.66 124.98 19.32 126 20C128.029 19.7428 128.029 19.7428 130 19C132.982 18.0061 135.25 17.7363 138.375 17.625C139.311 17.576 140.247 17.527 141.211 17.4766C145.166 18.2188 146.491 19.904 149 23C149.568 26.3215 149.568 26.3215 149.488 30.0508C149.481 30.7096 149.474 31.3684 149.467 32.0472C149.439 34.1368 149.376 36.2237 149.312 38.3125C149.287 39.735 149.265 41.1575 149.244 42.5801C149.189 46.0543 149.103 49.5269 149 53C145.7 53 142.4 53 139 53C138.67 43.76 138.34 34.52 138 25C135.36 25 132.72 25 130 25C129.67 34.24 129.34 43.48 129 53C125.37 53 121.74 53 118 53C117.67 44.09 117.34 35.18 117 26C114.36 26 111.72 26 109 26C107.225 27.7749 107.765 30.3778 107.684 32.7852C107.642 33.955 107.6 35.1248 107.557 36.3301C107.517 37.5618 107.478 38.7935 107.438 40.0625C107.394 41.2981 107.351 42.5336 107.307 43.8066C107.2 46.871 107.098 49.9354 107 53C104.03 53 101.06 53 98 53C98 41.45 98 29.9 98 18Z" fill="#0BA2D4"/>
<path d="M342.545 18.9507C345.179 20.6273 346.143 22.544 347.607 25.2632C348.267 25.5932 348.927 25.9232 349.607 26.2632C350.919 29.7777 350.809 33.4258 350.857 37.1382C350.883 38.3319 350.909 39.5256 350.935 40.7554C350.448 45.961 348.165 50.4322 344.607 54.2632C340.059 57.0198 334.753 56.8984 329.607 56.2632C325.516 54.9691 322.98 52.6934 320.17 49.4507C317.278 43.7174 317.865 36.4652 318.607 30.2632C320.543 25.619 322.813 22.5836 326.607 19.2632C331.759 17.5459 337.276 17.7177 342.545 18.9507Z" fill="white"/>
<path d="M311.883 20.1133C314.034 21.8744 315.749 23.4974 317 26C317.134 28.6724 317.043 31.3225 317 34C316.34 34 315.68 34 315 34C314.752 34.6187 314.505 35.2375 314.25 35.875C312.716 38.4827 311.811 38.9364 309 40C305.984 40.1953 305.984 40.1953 302.75 40.125C301.672 40.107 300.595 40.0889 299.484 40.0703C298.665 40.0471 297.845 40.0239 297 40C297.99 42.31 298.98 44.62 300 47C304.95 47 309.9 47 315 47C315 48.98 315 50.96 315 53C309.739 56.3227 305.054 56.869 299 56C296.116 54.9849 294.486 53.9043 292 52C291.062 49.75 291.062 49.75 291 48C290.34 48 289.68 48 289 48C287.788 44.3645 287.739 40.9759 287.687 37.1875C287.644 36.1385 287.644 36.1385 287.6 35.0684C287.537 29.9156 288.663 27.1123 292 23C297.59 17.8297 304.94 16.0083 311.883 20.1133Z" fill="#EEEFEF"/>
<path d="M170.875 17.75C172.418 17.7113 172.418 17.7113 173.992 17.6719C177.409 18.0446 179.236 19.0016 182 21C184.274 23.9236 184.622 27.2896 184.484 30.9609C183.699 34.2688 182.084 35.9103 179.422 37.9453C174.533 40.0744 169.212 39.4232 164 39C164.33 40.65 164.66 42.3 165 44C168.561 45.187 171.973 45.351 175.688 45.5625C176.389 45.6057 177.091 45.6489 177.814 45.6934C179.543 45.7992 181.271 45.9001 183 46C183 47.98 183 49.96 183 52C177.296 54.5349 171.134 54.7678 165 54C159.662 51.2327 156.9 48.739 155 43C154.699 39.6602 154.699 39.6602 154.688 36.0625C154.671 34.8779 154.654 33.6932 154.637 32.4727C155.236 26.7405 157.622 22.6943 162 19C165.16 17.9466 167.555 17.7997 170.875 17.75Z" fill="#0CA2D4"/>
<path d="M195 19C198.3 19 201.6 19 205 19C206.628 22.7784 207.667 26.487 208.562 30.5C208.811 31.6034 209.06 32.7069 209.316 33.8438C209.904 36.558 210.466 39.2747 211 42C211.66 42 212.32 42 213 42C213.124 41.3555 213.248 40.7109 213.375 40.0469C214.185 36.0988 215.087 32.1752 216 28.25C216.178 27.4701 216.356 26.6902 216.539 25.8867C217.884 20.1161 217.884 20.1161 219 19C220.519 18.9282 222.042 18.9161 223.562 18.9375C224.389 18.9465 225.215 18.9555 226.066 18.9648C226.704 18.9764 227.343 18.988 228 19C227.606 25.1003 226.465 29.823 224.055 35.4258C222.378 39.5179 221.195 43.7466 220 48C219.34 48 218.68 48 218 48C217.856 48.9694 217.711 49.9388 217.562 50.9375C217 54 217 54 216 55C214.481 55.0718 212.958 55.0839 211.438 55.0625C210.611 55.0535 209.785 55.0445 208.934 55.0352C208.296 55.0236 207.657 55.012 207 55C204.429 49.5963 202.365 44.2411 200.719 38.4883C199.313 33.621 197.747 28.8082 195.812 24.125C195 22 195 22 195 19Z" fill="#ECECED"/>
<path d="M75 18C76 19 76 19 76.1328 20.8125C76.1302 21.5344 76.1277 22.2563 76.125 23C76.1289 24.0828 76.1289 24.0828 76.1328 25.1875C76 27 76 27 75 28C71.04 28 67.08 28 63 28C63 36.25 63 44.5 63 53C60.36 53 57.72 53 55 53C54 52 54 52 53.8865 48.8572C53.8866 47.466 53.8923 46.0748 53.9023 44.6836C53.9038 43.9525 53.9052 43.2215 53.9066 42.4683C53.9122 40.1246 53.9248 37.7811 53.9375 35.4375C53.9425 33.8522 53.9471 32.2669 53.9512 30.6816C53.9622 26.7877 53.9795 22.8939 54 19C56.64 19 59.28 19 62 19C62 20.32 62 21.64 62 23C62.99 23 63.98 23 65 23C65.2887 22.3606 65.5775 21.7212 65.875 21.0625C67.9968 17.1726 70.9292 17.8268 75 18Z" fill="#0AA9DD"/>
<path d="M266.91 68.0312C267.6 68.3509 268.289 68.6706 269 69C269.495 81.4396 268.341 92.1804 260 102C257.773 103.305 257.773 103.305 256 104C256.929 96.7212 258.236 89.8171 261 83C261.376 81.0076 261.72 79.0081 262 77C259.059 76.0196 257.175 75.8838 254.113 75.9023C253.175 75.9056 252.238 75.9088 251.271 75.9121C249.807 75.9247 249.807 75.9247 248.312 75.9375C247.324 75.942 246.336 75.9465 245.318 75.9512C242.879 75.963 240.439 75.9794 238 76C238 75.01 238 74.02 238 73C247.067 67.4201 256.425 64.3157 266.91 68.0312Z" fill="#0CA3D4"/>
<path d="M233 19C235.97 19 238.94 19 242 19C243.733 20.7329 243.128 22.9621 243.139 25.2715C243.137 26.0069 243.135 26.7423 243.133 27.5C243.134 28.2509 243.135 29.0018 243.136 29.7754C243.136 31.3659 243.135 32.9564 243.13 34.5469C243.125 36.9896 243.13 39.4322 243.137 41.875C243.136 43.4167 243.135 44.9583 243.133 46.5C243.135 47.2354 243.137 47.9708 243.139 48.7285C243.115 53.885 243.115 53.885 242 55C239.03 55 236.06 55 233 55C233 43.12 233 31.24 233 19Z" fill="#EDEDEE"/>
<path d="M80 19C83.3 19 86.6 19 90 19C90 30.22 90 41.44 90 53C86.7 53 83.4 53 80 53C80 41.78 80 30.56 80 19Z" fill="#0AA2D4"/>
<path d="M241 3C243 5 243 5 243.312 7.9375C243 11 243 11 241.812 12.875C239.32 14.4223 237.88 14.5041 235 14C233.125 12.375 233.125 12.375 232 10C232.188 6.8125 232.188 6.8125 233 4C235.763 2.61875 237.947 2.80921 241 3Z" fill="#E9EAEA"/>
<path d="M82 3C85 2.6875 85 2.6875 88 3C90 5 90 5 90.25 8C90 11 90 11 88 13C84.375 13.125 84.375 13.125 81 13C79.75 6.375 79.75 6.375 82 3Z" fill="#0CA5D7"/>
<path d="M72.1875 17.6875C75 18 75 18 76 19C76.1328 20.8125 76.1328 20.8125 76.125 23C76.1276 23.7219 76.1302 24.4438 76.1328 25.1875C76 27 76 27 75 28C72.3294 28.1412 69.6757 28.0425 67 28C67 27.34 67 26.68 67 26C69.31 26 71.62 26 74 26C74 24.02 74 22.04 74 20C71.03 20.66 68.06 21.32 65 22C67.3728 19.0796 68.3601 18.0627 72.1875 17.6875Z" fill="#1681A8"/>
<path d="M100 67C105.75 68.875 105.75 68.875 108 70C108 70.66 108 71.32 108 72C108.66 72.33 109.32 72.66 110 73C109.01 73.33 108.02 73.66 107 74C107.33 75.32 107.66 76.64 108 78C102.25 73.375 102.25 73.375 100 70C100 69.01 100 68.02 100 67Z" fill="#129BC9"/>
<path d="M78 19C78.33 19 78.66 19 79 19C79 29.89 79 40.78 79 52C78.67 52 78.34 52 78 52C78 43.75 78 35.5 78 27C77.34 27 76.68 27 76 27C75.875 24.125 75.875 24.125 76 21C76.66 20.34 77.32 19.68 78 19Z" fill="#1F222C"/>
<path d="M266 18C266.99 18.66 267.98 19.32 269 20C268.287 20.0026 267.574 20.0052 266.84 20.0078C260.386 20.2684 256.767 21.1214 252.145 25.7227C251.767 26.1442 251.389 26.5657 251 27C251.963 23.5337 252.923 22.0658 255.688 19.6875C259.501 17.7449 261.776 17.5218 266 18Z" fill="#D5D7D8"/>
<path d="M92 1C92 1.66 92 2.32 92 3C91.34 3 90.68 3 90 3C89.67 3.66 89.34 4.32 89 5C86.69 4.34 84.38 3.68 82 3C85.1364 -0.136411 87.8559 -0.381368 92 1Z" fill="#1B3544"/>
<path d="M331.383 32C335.824 32.5625 335.824 32.5625 339.841 33.5C340.053 37.0625 340.053 37.0625 339.841 41C338.725 41.99 337.608 42.98 336.458 44C332.863 43.4375 332.863 43.4375 329.692 42.5C328.634 38.9375 328.634 38.9375 328 35C329.116 34.01 330.233 33.02 331.383 32Z" fill="#1E0812"/>
<path d="M299.383 27C303.824 27.3281 303.824 27.3281 307.841 27.875C308.053 29.9531 308.053 29.9531 307.841 32.25C306.725 32.8275 305.608 33.405 304.458 34C300.863 33.6719 300.863 33.6719 297.692 33.125C296.634 31.0469 296.634 31.0469 296 28.75C297.116 28.1725 298.233 27.595 299.383 27Z" fill="#1E0812"/>
<path d="M260.383 29C264.824 29.7969 264.824 29.7969 268.841 31.125C269.053 36.1719 269.053 36.1719 268.841 41.75C267.725 43.1525 266.608 44.555 265.458 46C261.863 45.2031 261.863 45.2031 258.692 43.875C257.634 38.8281 257.634 38.8281 257 33.25C258.116 31.8475 259.233 30.445 260.383 29Z" fill="#1E0812"/>
<path d="M165.383 25C169.824 25.3281 169.824 25.3281 173.841 25.875C174.053 27.9531 174.053 27.9531 173.841 30.25C172.725 30.8275 171.608 31.405 170.458 32C166.863 31.6719 166.863 31.6719 163.692 31.125C162.634 29.0469 162.634 29.0469 162 26.75C163.116 26.1725 164.233 25.595 165.383 25Z" fill="#1E0812"/>
<path d="M30.3833 26C34.8238 26.8906 34.8238 26.8906 38.8414 28.375C39.0529 34.0156 39.0529 34.0156 38.8414 40.25C37.7249 41.8175 36.6085 43.385 35.4582 45C31.8634 44.1094 31.8634 44.1094 28.6916 42.625C27.6344 36.9844 27.6344 36.9844 27 30.75C28.1165 29.1825 29.233 27.615 30.3833 26Z" fill="#1E0812"/>
</g>
<defs>
<clipPath id="clip0_18_3">
<rect width="356" height="133" fill="white"/>
</clipPath>
</defs>
</svg>
