<svg width="211" height="129" viewBox="0 0 211 129" fill="none" xmlns="http://www.w3.org/2000/svg">
<path d="M40.1472 78.7477C40.9868 78.7549 41.8264 78.7621 42.6915 78.7695C43.9821 78.7702 43.9821 78.7702 45.2989 78.7709C47.1188 78.7739 48.9387 78.7818 50.7586 78.7942C53.5547 78.8124 56.3504 78.8147 59.1465 78.8144C60.9115 78.8194 62.6765 78.8252 64.4415 78.832C65.2831 78.8331 66.1248 78.8342 66.9919 78.8354C72.884 78.8839 72.884 78.8839 74.0001 80C74.1012 83.0181 74.1398 86.0128 74.1329 89.0312C74.1338 89.9375 74.1348 90.8437 74.1358 91.7775C74.1365 93.6975 74.1346 95.6175 74.1304 97.5376C74.1251 100.487 74.1304 103.437 74.1368 106.387C74.1361 108.247 74.1348 110.108 74.1329 111.969C74.1349 112.857 74.1369 113.746 74.139 114.661C74.115 120.885 74.115 120.885 73.0001 122C70.1391 122.113 67.3032 122.164 64.4415 122.168C63.582 122.171 62.7225 122.175 61.837 122.178C60.0153 122.183 58.1936 122.185 56.3719 122.185C53.5779 122.187 50.7842 122.206 47.9903 122.225C46.224 122.228 44.4577 122.23 42.6915 122.23C41.8518 122.238 41.0122 122.245 40.1472 122.252C34.2289 122.229 34.2289 122.229 32.0001 120C31.8001 117.082 31.7203 114.262 31.7344 111.344C31.7325 110.486 31.7306 109.628 31.7286 108.744C31.7273 106.928 31.731 105.112 31.7393 103.296C31.75 100.511 31.7394 97.7266 31.7266 94.9414C31.7279 93.1797 31.7305 91.418 31.7344 89.6562C31.7304 88.8198 31.7263 87.9833 31.7222 87.1214C31.7811 79.8823 32.9115 78.7764 40.1472 78.7477ZM54.0001 84C53.2266 86.9833 52.5902 89.9754 52.0001 93C51.7938 93.825 51.5876 94.65 51.3751 95.5C50.8539 97.9974 50.8539 97.9974 51.5001 100.437C52.0001 103 52.0001 103 51.4376 106C50.9404 109.409 51.6292 110.916 53.0001 114C52.6701 114.66 52.3401 115.32 52.0001 116C53.9801 116 55.9601 116 58.0001 116C58.0199 115.374 58.0397 114.749 58.0601 114.104C58.1552 111.277 58.2649 108.451 58.3751 105.625C58.4215 104.148 58.4215 104.148 58.4688 102.641C58.5268 101.229 58.5268 101.229 58.586 99.789C58.6174 98.9197 58.6488 98.0504 58.6812 97.1548C59.0001 95 59.0001 95 61.0001 93C60.3813 92.4431 59.7626 91.8862 59.1251 91.3125C56.939 88.9335 56.0122 87.0364 55.0001 84C54.6701 84 54.3401 84 54.0001 84Z" fill="#EE6F0F"/>
<path d="M131.147 78.7477C131.987 78.7549 132.826 78.7621 133.691 78.7695C134.982 78.7702 134.982 78.7702 136.299 78.7709C138.119 78.7739 139.939 78.7818 141.759 78.7942C144.555 78.8124 147.35 78.8147 150.146 78.8144C151.911 78.8194 153.676 78.8252 155.441 78.832C156.283 78.8331 157.125 78.8342 157.992 78.8354C163.884 78.8839 163.884 78.8839 165 80C165.089 83.0298 165.115 86.0367 165.098 89.0664C165.096 89.975 165.095 90.8836 165.093 91.8198C165.088 94.7341 165.075 97.6482 165.062 100.562C165.057 102.533 165.053 104.504 165.049 106.475C165.038 111.316 165.021 116.158 165 121C161.74 122.63 158.146 122.184 154.562 122.203C153.727 122.209 152.891 122.215 152.03 122.22C150.261 122.23 148.492 122.236 146.724 122.24C144.011 122.25 141.299 122.281 138.586 122.312C136.87 122.319 135.154 122.324 133.437 122.328C132.623 122.34 131.808 122.353 130.969 122.366C128.684 122.356 128.684 122.356 125 122C122.427 118.14 122.712 114.939 122.734 110.465C122.732 109.63 122.731 108.796 122.729 107.936C122.727 106.173 122.731 104.411 122.739 102.648C122.75 99.9443 122.739 97.241 122.727 94.5371C122.728 92.8255 122.73 91.1139 122.734 89.4023C122.73 88.5909 122.726 87.7794 122.722 86.9433C122.782 79.7884 124.032 78.7759 131.147 78.7477ZM135 89C132.287 93.7266 131.584 96.7206 133 102C132.34 102 131.68 102 131 102C130.67 102.99 130.34 103.98 130 105C130.99 105 131.98 105 133 105C135 108 135 108 135 111C135.66 111 136.32 111 137 111C137 110.01 137 109.02 137 108C137.66 108 138.32 108 139 108C139.66 110.31 140.32 112.62 141 115C141.33 115 141.66 115 142 115C142.33 111.37 142.66 107.74 143 104C141.68 104 140.36 104 139 104C138.67 103.67 138.34 103.34 138 103C138.687 99.625 138.688 99.625 140 96C142.625 94.5625 142.625 94.5625 145 94C145 94.99 145 95.98 145 97C145.66 97 146.32 97 147 97C147.66 96.34 148.32 95.68 149 95C149.66 95.33 150.32 95.66 151 96C151 95.01 151 94.02 151 93C151.784 92.8762 152.567 92.7525 153.375 92.625C156.141 92.2088 156.141 92.2088 158 90C157.34 89.67 156.68 89.34 156 89C156 88.01 156 87.02 156 86C148.926 83.6421 140.481 83.5187 135 89ZM148 104C146.842 107.473 146.931 110.361 147 114C147.99 114.495 147.99 114.495 149 115C149.66 114.34 150.32 113.68 151 113C150.01 113 149.02 113 148 113C148.33 110.03 148.66 107.06 149 104C148.67 104 148.34 104 148 104ZM153 109C154 111 154 111 154 111L153 109Z" fill="#599DDC"/>
<path d="M82.7854 78.8865C84.4728 78.8866 86.1602 78.8923 87.8476 78.9023C89.1773 78.9045 89.1773 78.9045 90.5338 78.9066C93.3767 78.9122 96.2196 78.9248 99.0625 78.9375C100.985 78.9425 102.908 78.9471 104.83 78.9512C109.553 78.9622 114.277 78.9795 119 79C120.631 82.2611 120.142 85.8548 120.133 89.4375C120.134 90.2734 120.135 91.1093 120.136 91.9705C120.136 93.7391 120.135 95.5077 120.13 97.2764C120.125 99.989 120.13 102.701 120.137 105.414C120.136 107.13 120.135 108.846 120.133 110.562C120.135 111.377 120.137 112.192 120.139 113.031C120.115 118.77 120.115 118.77 119 121C113.322 121.025 107.643 121.043 101.965 121.055C100.032 121.06 98.0985 121.067 96.1653 121.075C93.3927 121.088 90.6202 121.093 87.8476 121.098C86.543 121.105 86.543 121.105 85.2119 121.113C83.1409 121.113 81.07 121.062 79 121C77.1038 119.104 77.871 116.336 77.861 113.814C77.8631 112.947 77.8651 112.08 77.8672 111.188C77.8662 110.303 77.8653 109.419 77.8643 108.509C77.8636 106.636 77.8654 104.763 77.8696 102.89C77.875 100.012 77.8697 97.1351 77.8633 94.2578C77.8639 92.4427 77.8652 90.6276 77.8672 88.8125C77.8652 87.9458 77.8631 87.0792 77.861 86.1863C77.8893 79.0333 77.8893 79.0333 82.7854 78.8865ZM99 85C98.34 86.32 97.68 87.64 97 89C95.02 89 93.04 89 91 89C90.67 89.66 90.34 90.32 90 91C88.0211 91.7269 86.0204 92.3982 84 93C84.4331 93.3661 84.8662 93.7322 85.3125 94.1094C88.2855 96.9998 89.8643 98.9314 90.3984 103.137C90.3773 106.111 90.2627 109.037 90 112C95.7739 114.905 95.7739 114.905 102 114C104.989 113.253 107.975 112.588 111 112C111.934 108.99 112.044 108.133 111 105C110.831 100.521 111.142 96.3964 112 92C110.584 91.2072 109.167 90.4158 107.75 89.625C106.961 89.1841 106.172 88.7433 105.359 88.2891C103.261 87.1425 101.146 86.0535 99 85ZM112 112C113 115 113 115 113 115L112 112Z" fill="#5FC88E"/>
<path d="M150 14C150.686 16.1331 150.686 16.1331 151.289 18.9102C151.618 20.3942 151.618 20.3942 151.953 21.9082C152.175 22.9491 152.397 23.99 152.625 25.0625C152.854 26.1073 153.084 27.1521 153.32 28.2285C153.888 30.8174 154.445 33.4085 155 36C155 29.07 155 22.14 155 15C158.63 14.67 162.26 14.34 166 14C165.67 32.15 165.34 50.3 165 69C162.03 69.66 159.06 70.32 156 71C155.353 67.9587 154.707 64.9169 154.062 61.875C153.88 61.0191 153.698 60.1631 153.51 59.2812C152.576 54.8661 151.695 50.4607 151 46C150.34 46 149.68 46 149 46C149.33 53.92 149.66 61.84 150 70C144.869 71.0262 142.812 70.6041 138 69C138.061 68.0695 138.121 67.1391 138.184 66.1804C139.829 41.1125 139.829 41.1125 140 16C141.288 15.4699 142.58 14.9512 143.875 14.4375C144.594 14.1475 145.314 13.8574 146.055 13.5586C148 13 148 13 150 14Z" fill="#9B9893"/>
<path d="M128 14C133.8 18.1243 135.395 23.8668 136.687 30.5625C137.84 42.7566 138.868 57.7923 131 68C127.198 70.2955 124.746 70.9874 120.312 71.0625C117 70 117 70 114.687 67.3125C108.21 54.597 108.535 38.6244 112 25C113.396 21.1699 115.065 18.0681 117.75 15C121.181 13.4753 124.37 13.2479 128 14ZM123 30C119.449 36.1557 118.997 44.236 120.449 51.1328C120.917 52.7702 121.451 54.3881 122 56C122.99 56 123.98 56 125 56C126.766 46.8149 127.174 39.1311 125 30C124.34 30 123.68 30 123 30Z" fill="#989590"/>
<path d="M189 5.00001C189.99 8.96001 190.98 12.92 192 17C189.721 17.2279 187.443 17.4557 185.164 17.6836C182.957 17.8909 182.957 17.8909 181 19C180.187 23.7002 180.296 25.9098 182.934 29.9922C184.534 32.0453 186.167 34.0729 187.836 36.0703C191.615 41.1864 192.292 45.7283 192.313 52C192.329 53.1756 192.346 54.3513 192.363 55.5625C191.805 60.8418 190.018 64.0056 186.25 67.6875C180.603 71.7054 177.002 73 170 73C169.34 68.38 168.68 63.76 168 59C169.258 58.5875 170.516 58.175 171.813 57.75C174.397 56.7646 175.963 56.0324 178.063 54.1875C179.398 51.0725 178.808 49.2772 178 46C176.241 42.7543 176.241 42.7543 174.063 39.5625C169.366 32.4789 166.801 25.5233 168 17C169.543 12.4255 171.546 8.22689 176 6.00001C180.965 4.26496 183.671 3.93423 189 5.00001Z" fill="#989590"/>
<path d="M105.106 8.79768C105.612 10.2332 106.11 11.6712 106.606 13.1102C106.885 13.9107 107.163 14.7112 107.45 15.536C108.106 17.7977 108.106 17.7977 108.106 20.7977C107.48 20.8467 106.853 20.8957 106.208 20.9461C105.39 21.0209 104.573 21.0957 103.731 21.1727C102.919 21.2423 102.107 21.3119 101.27 21.3836C98.9028 21.6266 98.9028 21.6266 97.1062 23.7977C96.3763 29.15 97.9538 31.5669 101.106 35.7977C102.178 37.3536 103.24 38.9165 104.294 40.4852C104.803 41.2316 105.312 41.9779 105.837 42.7469C109.595 48.8189 108.675 56.9234 108.106 63.7977C106.789 68.3687 104.666 70.7464 100.759 73.3797C96.2042 75.8732 92.4009 77.4944 87.1062 76.7977C86.768 75.2154 86.4358 73.6318 86.1062 72.0477C85.9206 71.166 85.7349 70.2842 85.5437 69.3758C85.1062 66.7977 85.1062 66.7977 85.1062 62.7977C85.7443 62.5901 86.3823 62.3826 87.0398 62.1688C89.5771 61.2227 91.8153 60.245 94.1062 58.7977C95.7907 55.5997 95.7907 55.5997 95.1062 51.7977C93.7319 48.6108 91.9183 45.7507 90.1062 42.7977C89.1692 41.0375 88.2521 39.2666 87.3562 37.4852C86.9488 36.6847 86.5415 35.8842 86.1218 35.0594C83.5603 29.3551 83.3341 24.0754 85.3562 18.1102C88.0086 13.0894 90.2531 10.9417 95.5437 8.98518C99.061 7.90561 101.542 7.53304 105.106 8.79768Z" fill="#98958F"/>
<path d="M27 4.99999C28.5913 9.17737 29.2127 12.5316 29 17C25.7 17.66 22.4 18.32 19 19C17.8692 24.654 18.1407 25.296 21 30C21.9908 31.2987 22.9915 32.5899 24 33.875C29.5229 41.1428 30.9545 47.9057 30 57C28.7497 63.147 26.2875 66.4411 21 70C16.0184 72.5798 13.8094 73 7.99996 73C7.33996 68.38 6.67996 63.76 5.99996 59C7.88715 58.4122 7.88715 58.4122 9.81246 57.8125C12.697 56.7109 13.9565 56.046 16.125 53.75C17.3403 49.9303 16.6882 47.4942 15 44C13.8595 42.1502 12.6904 40.318 11.5 38.5C6.7935 31.3082 4.86923 24.5908 5.99996 16C7.54979 11.726 9.92915 8.14848 14 5.99999C18.5444 4.40227 22.2758 3.52369 27 4.99999Z" fill="#98958F"/>
<path d="M64 14C67.96 14 71.92 14 76 14C77.1342 16.2684 77.348 18.0218 77.6643 20.5381C77.7844 21.4796 77.9044 22.421 78.0281 23.3911C78.1542 24.4118 78.2803 25.4326 78.4102 26.4844C78.5419 27.5327 78.6737 28.5811 78.8094 29.6612C79.0877 31.8836 79.3642 34.1062 79.6389 36.3291C80.0591 39.7227 80.4871 43.1153 80.916 46.5078C81.1854 48.6666 81.4543 50.8255 81.7227 52.9844C81.8508 53.9971 81.9789 55.0098 82.1109 56.0532C82.6841 60.7321 83.1632 65.2748 83 70C80.03 70 77.06 70 74 70C73.67 68.68 73.34 67.36 73 66C70.525 66.495 70.525 66.495 68 67C67.67 68.32 67.34 69.64 67 71C63.1301 71.0744 59.7264 71.047 56 70C58.6667 51.3333 61.3333 32.6667 64 14ZM70 39C69.34 44.94 68.68 50.88 68 57C69.32 57 70.64 57 72 57C71.67 51.06 71.34 45.12 71 39C70.67 39 70.34 39 70 39Z" fill="#9A9792"/>
<path d="M43.625 13.9375C44.4268 13.942 45.2286 13.9465 46.0547 13.9512C48.0365 13.963 50.0183 13.9809 52 14C52.1949 15.4574 52.3807 16.916 52.5625 18.375C52.6669 19.1871 52.7713 19.9992 52.8789 20.8359C53 23 53 23 52 25C46.25 25.125 46.25 25.125 44 24C44 26.97 44 29.94 44 33C45.4644 32.8144 46.9288 32.6288 48.4375 32.4375C49.9532 32.2454 51.4748 32.0894 53 32C54 33 54 33 54.0977 35.5039C54.0861 36.5132 54.0745 37.5226 54.0625 38.5625C54.0535 39.5744 54.0445 40.5863 54.0352 41.6289C54.0236 42.4114 54.012 43.1938 54 44C50.7 44 47.4 44 44 44C44 48.95 44 53.9 44 59C44.99 58.505 44.99 58.505 46 58C47.5402 57.9305 49.0833 57.9155 50.625 57.9375C51.8509 57.951 51.8509 57.951 53.1016 57.9649C53.728 57.9765 54.3545 57.9881 55 58C54.859 59.6254 54.7121 61.2503 54.5625 62.875C54.4813 63.7799 54.4001 64.6849 54.3164 65.6172C54 68 54 68 53 70C49.8546 70.196 46.7087 70.3803 43.5625 70.5625C42.2158 70.6466 42.2158 70.6466 40.8418 70.7324C39.9878 70.7808 39.1338 70.8291 38.2539 70.8789C37.4631 70.926 36.6724 70.9732 35.8577 71.0217C34 71 34 71 33 70C32.9832 68.0713 33.0373 66.1418 33.1211 64.2149C33.1694 63.045 33.2178 61.8752 33.2676 60.6699C33.3237 59.4382 33.3797 58.2065 33.4375 56.9375C33.4897 55.7019 33.5419 54.4664 33.5957 53.1934C33.7259 50.1287 33.8608 47.0643 34 44C33.34 44 32.68 44 32 44C32.1637 43.0809 32.3274 42.1618 32.4961 41.2149C33.2394 36.0119 33.1069 30.8069 33.0625 25.5625C33.058 24.5448 33.0535 23.5271 33.0488 22.4785C33.0371 19.9856 33.0207 17.4928 33 15C36.3099 13.345 39.9912 13.8992 43.625 13.9375Z" fill="#989690"/>
<path d="M34.8577 79.8865C36.0438 79.8943 36.0438 79.8943 37.2539 79.9023C38.5349 79.9072 38.5349 79.9072 39.8418 79.9121C40.7397 79.9205 41.6375 79.9289 42.5625 79.9375C43.4642 79.942 44.3659 79.9465 45.295 79.9512C47.53 79.963 49.765 79.9795 52 80C51.6687 80.6819 51.3375 81.3638 50.9961 82.0664C49.472 86.5551 50.0136 90.8398 50.2227 95.5273C49.9759 99.3765 48.9312 101.697 47 105C47.99 105 48.98 105 50 105C51.32 107.97 52.64 110.94 54 114C53.67 114.33 53.34 114.66 53 115C54.485 115.495 54.485 115.495 56 116C55.01 118.475 55.01 118.475 54 121C50.5209 121.029 47.0418 121.047 43.5625 121.062C42.0727 121.075 42.0727 121.075 40.5528 121.088C39.6085 121.091 38.6643 121.094 37.6914 121.098C36.8169 121.103 35.9423 121.108 35.0413 121.114C33 121 33 121 32 120C31.899 117.127 31.8603 114.279 31.8672 111.406C31.8663 110.544 31.8653 109.683 31.8643 108.795C31.8636 106.969 31.8655 105.143 31.8697 103.317C31.875 100.512 31.8697 97.7072 31.8633 94.9023C31.864 93.1328 31.8653 91.3633 31.8672 89.5938C31.8652 88.749 31.8632 87.9042 31.8611 87.0338C31.8893 80.0679 31.8893 80.0679 34.8577 79.8865Z" fill="#904919"/>
<path d="M78 80C89.88 80 101.76 80 114 80C112.68 80.99 111.36 81.98 110 83C109.031 83.7425 108.061 84.485 107.062 85.25C103.472 87.3016 102.821 86.8044 99 86C96.8959 87.8541 96.8959 87.8541 95 90C93.125 90.5625 93.125 90.5625 91 91C88.9847 91.9689 86.9817 92.9641 85 94C85.8044 94.6187 86.6087 95.2375 87.4375 95.875C90 98 90 98 91 100C91.0953 101.477 91.1299 102.958 91.125 104.438C91.1276 105.22 91.1302 106.002 91.1328 106.809C91 109 91 109 90 112C90.66 112 91.32 112 92 112C92 112.99 92 113.98 92 115C90.4219 115.843 88.8373 116.674 87.25 117.5C86.3683 117.964 85.4866 118.428 84.5781 118.906C82 120 82 120 78 120C78 106.8 78 93.6 78 80Z" fill="#32AD74"/>
<path d="M131.147 78.7478C131.987 78.7549 132.826 78.7621 133.691 78.7695C134.982 78.7702 134.982 78.7702 136.299 78.7709C138.119 78.7739 139.939 78.7818 141.759 78.7942C144.555 78.8124 147.35 78.8147 150.146 78.8145C151.911 78.8194 153.676 78.8252 155.441 78.832C156.283 78.8331 157.125 78.8343 157.992 78.8354C163.884 78.884 163.884 78.884 165 80C165.087 81.4157 165.107 82.8356 165.098 84.2539C165.094 85.1079 165.091 85.9619 165.088 86.8418C165.075 88.1885 165.075 88.1885 165.062 89.5625C165.058 90.4642 165.053 91.3659 165.049 92.2949C165.037 94.53 165.021 96.765 165 99C164.09 98.6829 163.18 98.3658 162.242 98.0391C158.827 96.9445 155.555 96.4266 152 96C153.75 92.125 153.75 92.125 156 91C155.34 90.34 154.68 89.68 154 89C154.66 88.34 155.32 87.68 156 87C149.911 84.9703 143.222 85.0041 137.375 87.625C133.738 91.2622 133.062 94.3162 132.875 99.375C132.916 100.241 132.957 101.108 133 102C132.34 102 131.68 102 131 102C131 102.66 131 103.32 131 104C125.25 102.125 125.25 102.125 123 101C122.942 97.7084 122.906 94.4169 122.875 91.125C122.858 90.1879 122.841 89.2507 122.824 88.2852C122.815 86.9413 122.815 86.9413 122.805 85.5703C122.794 84.7429 122.784 83.9155 122.773 83.063C123.321 78.0828 127.033 78.764 131.147 78.7478Z" fill="#3F6FAB"/>
<path d="M151 93C151.66 93.33 152.32 93.66 153 94C152.67 94.66 152.34 95.32 152 96C153.98 96 155.96 96 158 96C157.34 98.64 156.68 101.28 156 104C155.34 104 154.68 104 154 104C153.876 105.114 153.753 106.227 153.625 107.375C153 111 153 111 151 113C150.01 113 149.02 113 148 113C148 111.35 148 109.7 148 108C148.66 108 149.32 108 150 108C150 106.35 150 104.7 150 103C146.722 103.752 146.722 103.752 145 107C145 105.35 145 103.7 145 102C142.69 102.33 140.38 102.66 138 103C137.636 97.5455 137.636 97.5455 139.25 95.125C141 94 141 94 145 94C145 94.99 145 95.98 145 97C145.66 97 146.32 97 147 97C147.33 96.01 147.66 95.02 148 94C148.66 94.33 149.32 94.66 150 95C150.33 94.34 150.66 93.68 151 93Z" fill="#4893D9"/>
<path d="M34 79C46.87 79 59.74 79 73 79C73 79.33 73 79.66 73 80C66.4 80 59.8 80 53 80C53 80.66 53 81.32 53 82C53.99 82 54.98 82 56 82C56.33 84.31 56.66 86.62 57 89C56.01 87.68 55.02 86.36 54 85C54.0413 86.0931 54.0825 87.1862 54.125 88.3125C54 92 54 92 52 95C52.2581 97.0003 52.5202 99.0008 52.8398 100.992C53.0575 103.721 52.268 105.613 51 108C50.01 107.01 49.02 106.02 48 105C47.34 105.33 46.68 105.66 46 106C47.875 101.25 47.875 101.25 49 99C49.0311 95.4569 48.9323 91.9247 48.8398 88.3828C49 85 49 85 51 81C45.39 80.67 39.78 80.34 34 80C34 79.67 34 79.34 34 79Z" fill="#E48844"/>
<path d="M144 94C144 95.32 144 96.64 144 98C144.99 98.33 145.98 98.66 147 99C140.25 103 140.25 103 138 103C137.635 97.5217 137.635 97.5217 139.312 95.125C141 94 141 94 144 94Z" fill="#396BA7"/>
<path d="M145 102C145.33 102.66 145.66 103.32 146 104C147.32 103.67 148.64 103.34 150 103C150 104.65 150 106.3 150 108C149.34 107.67 148.68 107.34 148 107C147.67 108.98 147.34 110.96 147 113C144.989 110.44 143.372 107.954 142 105C141.01 105.33 140.02 105.66 139 106C139 105.34 139 104.68 139 104C138.34 103.67 137.68 103.34 137 103C139.928 102.024 141.956 101.918 145 102Z" fill="#6DA8DB"/>
<path d="M50 96C52.4252 98.4252 52.6856 99.6207 53 103C52.0625 105.812 52.0625 105.812 51 108C50.01 107.01 49.02 106.02 48 105C47.01 105.495 47.01 105.495 46 106C47.3333 102.667 48.6667 99.3333 50 96Z" fill="#AD7953"/>
<path d="M127 33C129 36 129 36 128.758 38.4805C128.549 39.3738 128.34 40.2671 128.125 41.1875C127.921 42.0886 127.718 42.9896 127.508 43.918C127.34 44.605 127.173 45.2921 127 46C127.66 46.33 128.32 46.66 129 47C128.67 48.98 128.34 50.96 128 53C125.797 49.4555 125.761 46.56 125.812 42.4375C125.819 41.3018 125.825 40.1662 125.832 38.9961C126 36 126 36 127 33Z" fill="#B4B3AF"/>
<path d="M151 93C151.66 93.33 152.32 93.66 153 94C152.67 94.66 152.34 95.32 152 96C152.66 96.33 153.32 96.66 154 97C150.527 98.1578 147.639 98.0687 144 98C144.33 96.68 144.66 95.36 145 94C145 94.99 145 95.98 145 97C145.66 97 146.32 97 147 97C147.33 96.01 147.66 95.02 148 94C148.66 94.33 149.32 94.66 150 95C150.33 94.34 150.66 93.68 151 93Z" fill="#5886B8"/>
<path d="M143 108C143.99 108 144.98 108 146 108C146 109.98 146 111.96 146 114C145.01 114.33 144.02 114.66 143 115C143 112.69 143 110.38 143 108Z" fill="#408ED9"/>
<path d="M54 107C54.66 107.66 55.32 108.32 56 109C55.625 111.125 55.625 111.125 55 113C54.67 111.02 54.34 109.04 54 107Z" fill="#DFCAAE"/>
</svg>
