<svg width="182" height="93" viewBox="0 0 182 93" fill="none" xmlns="http://www.w3.org/2000/svg">
<g clip-path="url(#clip0_10_14)">
<path d="M0 0C60.06 0 120.12 0 182 0C182 30.69 182 61.38 182 93C121.94 93 61.88 93 0 93C0 62.31 0 31.62 0 0Z" fill="#020202"/>
<path d="M15 17C24.57 17 34.14 17 44 17C44 32.84 44 48.68 44 65C34.43 65 24.86 65 15 65C15 49.16 15 33.32 15 17Z" fill="#050400"/>
<path d="M8 10C22.19 10 36.38 10 51 10C51 30.46 51 50.92 51 72C36.81 72 22.62 72 8 72C8 51.54 8 31.08 8 10ZM15 17C15 32.84 15 48.68 15 65C24.57 65 34.14 65 44 65C44 49.16 44 33.32 44 17C34.43 17 24.86 17 15 17Z" fill="#E3AC02"/>
<path d="M55 33C58.3 33 61.6 33 65 33C66.32 38.28 67.64 43.56 69 49C70.6038 44.1096 70.6038 44.1096 72.2009 39.217C73.8889 34.1111 73.8889 34.1111 75 33C77.31 33 79.62 33 82 33C83.65 38.94 85.3 44.88 87 51C88.32 45.06 89.64 39.12 91 33C94.63 33 98.26 33 102 33C101.414 40.4315 99.2596 47.1711 97 54.25C96.2701 56.5675 95.5409 58.8852 94.8125 61.2031C94.4889 62.2205 94.1654 63.2379 93.832 64.2861C93.1487 66.5148 92.5355 68.7322 92 71C90.68 71 89.36 71 88 71C87.505 68.03 87.505 68.03 87 65C87 65.99 87 66.98 87 68C87 68.99 87 69.98 87 71C85.1719 70.9727 85.1719 70.9727 83 70C81.8733 67.4354 81.0233 65.1052 80.25 62.4375C80.0296 61.7266 79.8091 61.0157 79.582 60.2832C79.0397 58.5267 78.5179 56.7639 78 55C75.5962 63.4093 75.5962 63.4093 74 72C71.03 72 68.06 72 65 72C65.5827 67.5768 67.2677 64.4844 69.5625 60.6875C70.2032 59.6189 70.8438 58.5502 71.5039 57.4492C71.9976 56.641 72.4913 55.8327 73 55C72.0376 56.2469 71.0803 57.4976 70.125 58.75C69.5913 59.4461 69.0577 60.1422 68.5078 60.8594C67.1076 62.8472 66.0214 64.7984 65 67C64.34 67 63.68 67 63 67C60.8993 61.2231 59.2944 55.4113 57.875 49.4375C57.7045 48.7299 57.534 48.0223 57.3584 47.2932C56.2524 42.5433 55.5344 37.8479 55 33Z" fill="white"/>
<path d="M117 33C120.3 33 123.6 33 127 33C127 42.9 127 52.8 127 63C130.63 63 134.26 63 138 63C138 65.97 138 68.94 138 72C130.74 72 123.48 72 116 72C115.865 67.9364 115.766 63.8773 115.688 59.8125C115.646 58.662 115.604 57.5115 115.561 56.3262C115.439 47.9469 115.439 47.9469 117.135 45.0835C118.52 43.6992 118.52 43.6992 121 42C120.022 43.021 119.02 44.0206 118 45C117.67 45 117.34 45 117 45C117 41.04 117 37.08 117 33Z" fill="#E1E1E1"/>
<path d="M161 36C164.089 36.3432 165.771 36.8219 168.25 38.75C171.578 43.0291 171.212 48.1777 171.312 53.4375C171.35 54.715 171.387 55.9924 171.426 57.3086C170.863 62.1911 169.072 65.308 165.254 68.4258C159.371 71.5098 154.78 72.1291 148.187 72.0625C147.026 72.0535 145.865 72.0445 144.668 72.0352C143.788 72.0236 142.907 72.012 142 72C140.687 68.3598 140.96 67.0886 142.582 63.4844C143.311 62.2308 144.055 60.9861 144.812 59.75C145.182 59.1132 145.551 58.4764 145.932 57.8203C148.699 53.1507 148.699 53.1507 151 52C151 55.63 151 59.26 151 63C152.279 62.7525 153.557 62.505 154.875 62.25C155.594 62.1108 156.314 61.9716 157.055 61.8281C159.136 61.1477 159.136 61.1477 160.238 59.1953C161.53 55.4722 161.48 51.8881 161 48C160.015 45.9925 159.018 43.9907 158 42C158.75 39.75 158.75 39.75 160 38C160.33 37.34 160.66 36.68 161 36Z" fill="#E6E6E6"/>
<path d="M69 10C69.99 10.33 70.98 10.66 72 11C72.33 15.62 72.66 20.24 73 25C74.32 20.38 75.64 15.76 77 11C78.32 10.67 79.64 10.34 81 10C83.5062 12.5062 83.7477 14.3202 84.5625 17.75C84.8113 18.7761 85.0601 19.8022 85.3164 20.8594C85.9774 23.896 86.5175 26.9304 87 30C85.35 29.67 83.7 29.34 82 29C82 27.68 82 26.36 82 25C79.5552 25.1883 79.5552 25.1883 77 26C75.6398 27.9676 75.6398 27.9676 75 30C72.4375 30.5625 72.4375 30.5625 69 30C66.308 27.2435 64.1427 24.1951 62 21C61.67 23.97 61.34 26.94 61 30C59.68 30 58.36 30 57 30C57 23.73 57 17.46 57 11C62 12 62 12 63.582 13.8477C63.9881 14.5786 64.3941 15.3095 64.8125 16.0625C65.2314 16.796 65.6504 17.5295 66.082 18.2852C66.385 18.8511 66.6879 19.417 67 20C67.0606 19.3619 67.1212 18.7238 67.1836 18.0664C67.2674 17.2401 67.3512 16.4138 67.4375 15.5625C67.5187 14.7388 67.5999 13.9151 67.6836 13.0664C68 11 68 11 69 10Z" fill="white"/>
<path d="M141 33C144.836 32.9691 144.836 32.9691 148.75 32.9375C149.948 32.9238 149.948 32.9238 151.171 32.9099C154.629 32.8964 157.678 33.0662 161 34C159.718 36.861 158.547 39.1137 156 41C153.312 41.1875 153.312 41.1875 151 41C151.124 42.5024 151.124 42.5024 151.25 44.0352C150.948 48.8234 149.495 51.4555 147 55.4375C146.618 56.0737 146.237 56.7098 145.844 57.3652C144.909 58.9185 143.957 60.4605 143 62C142.34 62 141.68 62 141 62C141 52.43 141 42.86 141 33Z" fill="#E8E8E8"/>
<path d="M105 33C107.64 33 110.28 33 113 33C113.855 43.7961 114.322 51.4439 106.945 60.1289C105 62 105 62 103 63C102.942 58.7501 102.906 54.5002 102.875 50.25C102.858 49.0434 102.841 47.8369 102.824 46.5938C102.818 45.4336 102.811 44.2734 102.805 43.0781C102.794 42.0098 102.784 40.9415 102.773 39.8408C102.998 37.0202 103.542 35.3921 105 33Z" fill="#E7E7E7"/>
<path d="M140.116 11C143.491 12.0625 143.491 12.0625 145.429 13.5625C147.064 17.4111 147.135 20.9509 146.491 25.0625C144.929 28.125 144.929 28.125 142.491 30.0625C138.991 30.6875 138.991 30.6875 135.491 30.0625C132.791 27.9159 131.729 26.3013 131.077 22.9023C130.807 18.6418 131.159 16.5661 133.554 12.9375C136.491 11.0625 136.491 11.0625 140.116 11Z" fill="white"/>
<path d="M78 10C80.0625 10.4375 80.0625 10.4375 82 11C82.2681 11.9694 82.5362 12.9388 82.8125 13.9375C83.8697 17.672 85.1219 21.3253 86.4141 24.9844C87 27 87 27 87 30C85.35 29.67 83.7 29.34 82 29C82 27.68 82 26.36 82 25C79.5552 25.1883 79.5552 25.1883 77 26C75.6398 27.9676 75.6398 27.9676 75 30C73.68 30 72.36 30 71 30C71 23.73 71 17.46 71 11C71.33 11 71.66 11 72 11C72.33 15.62 72.66 20.24 73 25C73.2771 24.001 73.5543 23.002 73.8398 21.9727C74.2056 20.6692 74.5715 19.3658 74.9375 18.0625C75.1199 17.4031 75.3023 16.7438 75.4902 16.0645C76.8867 11.1133 76.8867 11.1133 78 10Z" fill="#FAFAFB"/>
<path d="M112.188 10.5625C115 11 115 11 117 12C116.67 12.99 116.34 13.98 116 15C115.216 14.9587 114.433 14.9175 113.625 14.875C110.839 14.7127 110.839 14.7127 109 17C108.799 20.6935 108.826 23.4794 110 27C111.32 27 112.64 27 114 27C114 25.02 114 23.04 114 21C115.32 21 116.64 21 118 21C118 23.64 118 26.28 118 29C114.779 30.6103 111.483 30.592 108 30C104.525 27.2198 104.066 25.4654 103.438 21.0625C103.608 17.9659 104.295 16.0057 106.125 13.5C109 11 109 11 112.188 10.5625Z" fill="white"/>
<path d="M120 11C122.97 11 125.94 11 129 11C128.67 12.32 128.34 13.64 128 15C126.68 15 125.36 15 124 15C124 15.99 124 16.98 124 18C125.32 18 126.64 18 128 18C128 18.99 128 19.98 128 21C126.68 21 125.36 21 124 21C124 22.98 124 24.96 124 27C125.98 27 127.96 27 130 27C130 27.99 130 28.98 130 30C126.7 30 123.4 30 120 30C120 23.73 120 17.46 120 11Z" fill="white"/>
<path d="M76 49C76 49.99 76 50.98 76 52C76.99 52 77.98 52 79 52C78.8066 52.5221 78.6133 53.0441 78.4141 53.582C76.2712 59.6393 75.0071 65.6611 74 72C71.03 72 68.06 72 65 72C65.5809 67.6709 67.165 64.7041 69.4375 61C71.6432 57.3899 73.4846 53.9471 75 50C75.33 49.67 75.66 49.34 76 49Z" fill="white"/>
<path d="M112 54C112.33 54 112.66 54 113 54C113 59.94 113 65.88 113 72C109.7 72 106.4 72 103 72C103 64.5138 107.328 59.5679 112 54Z" fill="#E4E4E4"/>
<path d="M85 10C89.29 10 93.58 10 98 10C98 11.32 98 12.64 98 14C96.35 14 94.7 14 93 14C93 19.28 93 24.56 93 30C91.68 30 90.36 30 89 30C89 24.72 89 19.44 89 14C87.68 14 86.36 14 85 14C85 12.68 85 11.36 85 10Z" fill="white"/>
<path d="M136 14C139.536 14.5357 139.536 14.5357 141 16C141.361 23.4586 141.361 23.4586 139 27C137.062 26.625 137.062 26.625 135 26C133.886 23.7711 133.835 22.4694 133.812 20C133.798 19.2987 133.784 18.5975 133.77 17.875C134 16 134 16 136 14Z" fill="#0B0B0B"/>
<path d="M78 10C81.6923 10.6923 81.6923 10.6923 83 12C83.0406 13.6662 83.0427 15.3339 83 17C82.01 17 81.02 17 80 17C80.33 18.65 80.66 20.3 81 22C78.03 21.505 78.03 21.505 75 21C75.3078 19.3533 75.6214 17.7076 75.9375 16.0625C76.1115 15.146 76.2855 14.2295 76.4648 13.2852C77 11 77 11 78 10Z" fill="white"/>
<path d="M79 16C81.3125 16.4375 81.3125 16.4375 84 18C85.9061 21.8718 87 25.6856 87 30C85.35 29.67 83.7 29.34 82 29C81.8144 28.0719 81.8144 28.0719 81.625 27.125C81.128 24.8088 81.128 24.8088 79 23C79.66 23 80.32 23 81 23C80.34 20.69 79.68 18.38 79 16Z" fill="white"/>
<path d="M128 19C128.66 19 129.32 19 130 19C130.381 21.3261 130.713 23.6606 131 26C130 27 130 27 126.938 27.0625C125.968 27.0419 124.999 27.0213 124 27C124 25.02 124 23.04 124 21C125.32 21 126.64 21 128 21C128 20.34 128 19.68 128 19Z" fill="#1F1F1F"/>
<path d="M73 53C73.33 53.66 73.66 54.32 74 55C72.7852 57.6016 72.7852 57.6016 71.0625 60.625C70.4966 61.6279 69.9307 62.6308 69.3477 63.6641C68.9029 64.4349 68.4582 65.2058 68 66C67.34 65.01 66.68 64.02 66 63C68.31 59.7 70.62 56.4 73 53Z" fill="#100F0F"/>
<path d="M109 11C114.75 10.875 114.75 10.875 117 12C116.67 12.99 116.34 13.98 116 15C114.02 15 112.04 15 110 15C109.67 13.68 109.34 12.36 109 11Z" fill="white"/>
<path d="M76 49C76 49.99 76 50.98 76 52C76.99 52 77.98 52 79 52C78.34 53.65 77.68 55.3 77 57C76.01 57 75.02 57 74 57C73.67 56.34 73.34 55.68 73 55C74.5556 50.4444 74.5556 50.4444 76 49Z" fill="#FAFAFB"/>
<path d="M80 17C80.33 18.65 80.66 20.3 81 22C78.03 21.505 78.03 21.505 75 21C75 20.34 75 19.68 75 19C78 17 78 17 80 17Z" fill="#0F0E0E"/>
</g>
<defs>
<clipPath id="clip0_10_14">
<rect width="182" height="93" fill="white"/>
</clipPath>
</defs>
</svg>
