<svg width="199" height="43" viewBox="0 0 199 43" fill="none" xmlns="http://www.w3.org/2000/svg">
<g clip-path="url(#clip0_16_3)">
<path d="M130 3C133.536 3.53571 133.536 3.53571 135 5C135.181 7.91056 135.278 10.7747 135.312 13.6875C135.341 14.4912 135.371 15.295 135.4 16.123C135.458 21.5427 134.753 24.7919 131 29C128.325 30.3592 125.955 30.4189 123 30C120.005 28.7237 119.178 27.6681 117 25C116.201 22.1432 116.233 19.8616 117 17C119.125 14 119.125 14 122 12C125.312 11.6875 125.312 11.6875 128 12C127.959 10.8863 127.917 9.7725 127.875 8.625C128 5 128 5 130 3Z" fill="#F5801C"/>
<path d="M162.437 11.375C167.256 12.2203 168.778 13.3063 172 17C172.772 21.3206 172.527 23.1912 170.125 26.875C167.613 29.3867 166.706 29.9215 163.187 30.3125C159.269 29.9284 157.787 28.7074 155 26C153.431 22.8613 153.648 20.4614 154 17C156.569 13.3417 158.022 12.1777 162.437 11.375Z" fill="#F5811D"/>
<path d="M106.437 11.375C111.256 12.2203 112.778 13.3063 116 17C116.772 21.3206 116.527 23.1912 114.125 26.875C111.613 29.3867 110.706 29.9215 107.187 30.3125C103.269 29.9284 101.787 28.7074 99 26C97.4306 22.8613 97.648 20.4614 98 17C100.569 13.3417 102.022 12.1777 106.437 11.375Z" fill="#F5811D"/>
<path d="M148 12C150.937 14.1875 150.937 14.1875 153 17C153 18.65 153 20.3 153 22C149.7 22 146.4 22 143 22C143.66 22.66 144.32 23.32 145 24C145.33 23.67 145.66 23.34 146 23C148.333 22.9591 150.667 22.9576 153 23C151.552 27.5862 151.552 27.5862 149.25 29.3125C146.23 30.2354 144.147 30.4495 141 30C138.142 28.0118 136.381 26.524 135.516 23.0625C135.245 19.0996 135.769 17.3365 138.062 14C141.778 11.4702 143.588 11.2122 148 12Z" fill="#F5811E"/>
<path d="M81.0625 11C85.1189 11.7244 86.8614 12.5147 89.5625 15.625C89.875 18.875 89.875 18.875 89.5625 21.625C86.2625 21.625 82.9625 21.625 79.5625 21.625C79.8925 22.285 80.2225 22.945 80.5625 23.625C85.0175 23.13 85.0175 23.13 89.5625 22.625C88.7063 25.3362 88.11 27.1789 85.875 29C82.4124 29.9358 80.0123 29.5491 76.5625 28.625C73.7069 26.0622 72.7208 24.4516 72 20.6875C73.0103 15.1871 75.4925 11.9946 81.0625 11Z" fill="#F6892C"/>
<path d="M185 12C187.753 13.7956 189.526 15.0526 191 18C191.07 19.8738 191.084 21.75 191.062 23.625C191.053 24.6279 191.044 25.6308 191.035 26.6641C191.024 27.4349 191.012 28.2058 191 29C188.69 29 186.38 29 184 29C183.67 25.7 183.34 22.4 183 19C182.01 18.67 181.02 18.34 180 18C180 21.63 180 25.26 180 29C177.69 29 175.38 29 173 29C172.226 18.2192 172.226 18.2192 175.062 13.75C178.772 11.5403 180.747 11.3164 185 12Z" fill="#F5801B"/>
<path d="M57 12C59.4375 12.25 59.4375 12.25 62 13C62.66 13.99 63.32 14.98 64 16C64.99 14.68 65.98 13.36 67 12C68.65 12.33 70.3 12.66 72 13C71.0827 18.7655 71.0827 18.7655 70.25 21.125C69.7668 23.1627 69.7668 23.1627 71.4375 25.125C72.2109 26.0531 72.2109 26.0531 73 27C73 27.66 73 28.32 73 29C69.6875 29.25 69.6875 29.25 66 29C64.0625 27 64.0625 27 63 25C62.67 26.32 62.34 27.64 62 29C60.02 29 58.04 29 56 29C55.9731 26.3541 55.9532 23.7085 55.9375 21.0625C55.9291 20.3078 55.9207 19.553 55.9121 18.7754C55.9035 16.8501 55.9477 14.9246 56 13C56.33 12.67 56.66 12.34 57 12Z" fill="#F57E18"/>
<path d="M49 12C51.9375 13.75 51.9375 13.75 54 16C54 17.32 54 18.64 54 20C52.02 20 50.04 20 48 20C47.67 19.34 47.34 18.68 47 18C46.34 18 45.68 18 45 18C45 19.98 45 21.96 45 24C45.66 24.33 46.32 24.66 47 25C47.33 24.01 47.66 23.02 48 22C49.98 22 51.96 22 54 22C53.8125 24.3125 53.8125 24.3125 53 27C50.3338 29.2092 48.4114 29.9314 45 30.5C42 30 42 30 39.125 28C36.7579 24.6581 36.2391 22.9396 36.5195 18.9375C38.1272 12.4545 43.019 11.0388 49 12Z" fill="#F5801B"/>
<path d="M22 12C24.6992 13.6133 24.6992 13.6133 27 16C27.4883 19.2344 27.4883 19.2344 27.3125 22.75C27.2448 24.5057 27.2448 24.5057 27.1758 26.2969C27.1178 27.1889 27.0598 28.0809 27 29C25.02 29 23.04 29 21 29C20.67 25.7 20.34 22.4 20 19C19.01 19 18.02 19 17 19C16.67 22.3 16.34 25.6 16 29C14.02 29 12.04 29 10 29C9.22627 18.2192 9.22627 18.2192 12.0625 13.75C15.7717 11.5403 17.7466 11.3164 22 12Z" fill="#F47C15"/>
<path d="M92 3C95.5357 3.53571 95.5357 3.53571 97 5C97.0873 6.78071 97.107 8.56483 97.0977 10.3477C97.0928 11.967 97.0928 11.967 97.0879 13.6191C97.0795 14.7554 97.0711 15.8918 97.0625 17.0625C97.058 18.2027 97.0535 19.3429 97.0488 20.5176C97.037 23.3451 97.0205 26.1725 97 29C94.69 29 92.38 29 90 29C89.9421 25.0417 89.9065 21.0836 89.875 17.125C89.8582 15.9971 89.8415 14.8691 89.8242 13.707C89.8178 12.6307 89.8113 11.5543 89.8047 10.4453C89.7942 9.45032 89.7837 8.45532 89.7729 7.43018C90 5 90 5 92 3Z" fill="#F5811D"/>
<path d="M31 3C33.125 3.375 33.125 3.375 35 4C35.8097 6.91483 36.2185 8.46113 35.0625 11.3125C34.7119 11.8694 34.3613 12.4262 34 13C34.66 13.66 35.32 14.32 36 15C36.1953 18.2578 36.1953 18.2578 36.125 22.125C36.107 23.4063 36.0889 24.6877 36.0703 26.0078C36.0471 26.9952 36.0239 27.9827 36 29C33.69 29 31.38 29 29 29C28.9729 26.7501 28.9536 24.5 28.9375 22.25C28.9259 20.997 28.9143 19.7441 28.9023 18.4531C28.9809 15.676 29.3031 13.6341 30 11C29.8144 9.96875 29.6287 8.9375 29.4375 7.875C29.2931 6.92625 29.1488 5.9775 29 5C29.66 4.34 30.32 3.68 31 3Z" fill="#F5801C"/>
<path d="M84 12C86.9375 13.6875 86.9375 13.6875 89 16C89 17.65 89 19.3 89 21C85.7 21 82.4 21 79 21C80.32 20.67 81.64 20.34 83 20C82.67 18.68 82.34 17.36 82 16C80.2642 15.1256 80.2642 15.1256 78 15C75.2474 16.8516 75.2474 16.8516 73 19C73.385 16.7671 73.8949 15.1634 75.125 13.25C78.1449 11.2367 80.4684 11.5738 84 12Z" fill="#F57F1A"/>
<path d="M73 23C73.8353 24.0209 73.8353 24.0209 74.6875 25.0625C75.8322 26.0216 75.8322 26.0216 77 27C79.7071 26.8597 79.7071 26.8597 82 26C82.33 25.01 82.66 24.02 83 23C84.98 23 86.96 23 89 23C88.1438 25.7112 87.5475 27.5539 85.3125 29.375C81.9326 30.2885 79.3796 29.7988 76 29C74.0625 27.625 74.0625 27.625 73 26C73 25.01 73 24.02 73 23Z" fill="#F57F1A"/>
<path d="M162 17C162.99 17.33 163.98 17.66 165 18C165 19.98 165 21.96 165 24C163.68 24 162.36 24 161 24C160.957 22.0005 160.959 19.9996 161 18C161.33 17.67 161.66 17.34 162 17Z" fill="#10100F"/>
<path d="M106 17C106.99 17.33 107.98 17.66 109 18C109 19.98 109 21.96 109 24C107.68 24 106.36 24 105 24C104.957 22.0005 104.959 19.9996 105 18C105.33 17.67 105.66 17.34 106 17Z" fill="#0D0D0C"/>
<path d="M125 17C125.99 17.33 126.98 17.66 128 18C127.67 20.31 127.34 22.62 127 25C126.01 24.67 125.02 24.34 124 24C123.957 22.0005 123.959 19.9996 124 18C124.33 17.67 124.66 17.34 125 17Z" fill="#0F0F0E"/>
<path d="M79.625 12.875C81.2956 12.9369 81.2956 12.9369 83 13C83 13.33 83 13.66 83 14C81.6387 14.4022 81.6387 14.4022 80.25 14.8125C77.2853 15.8958 75.383 16.9836 73 19C73.9092 14.4539 74.6732 13.0458 79.625 12.875Z" fill="#F4780D"/>
<path d="M158 13C158.66 13.66 159.32 14.32 160 15C159.526 15.3919 159.051 15.7837 158.563 16.1875C156.648 18.4081 156.387 20.1338 156 23C155.67 23 155.34 23 155 23C154.631 16.4769 154.631 16.4769 156.5 14.0625C156.995 13.7119 157.49 13.3613 158 13Z" fill="#F47A11"/>
<path d="M102 13C102.66 13.66 103.32 14.32 104 15C103.526 15.3919 103.051 15.7837 102.563 16.1875C100.648 18.4081 100.387 20.1338 100 23C99.67 23 99.34 23 99 23C98.6308 16.4769 98.6308 16.4769 100.5 14.0625C100.995 13.7119 101.49 13.3613 102 13Z" fill="#F47910"/>
<path d="M149 15.905C148.67 17.555 148.34 19.205 148 20.905C145.03 20.905 142.06 20.905 139 20.905C139.75 17.9675 139.75 17.9675 141 14.905C144.189 13.2042 146.04 14.1076 149 15.905Z" fill="#131313"/>
<path d="M85 15.905C84.67 17.555 84.34 19.205 84 20.905C81.03 20.905 78.06 20.905 75 20.905C75.75 17.9675 75.75 17.9675 77 14.905C80.189 13.2042 82.0396 14.1076 85 15.905Z" fill="#0D0D0D"/>
</g>
<defs>
<clipPath id="clip0_16_3">
<rect width="199" height="43" fill="white"/>
</clipPath>
</defs>
</svg>
