<?xml version="1.0" encoding="UTF-8"?>
<svg xmlns="http://www.w3.org/2000/svg" version="1.1" width="250" height="250" viewBox="0 0 250 250">
    <rect style="fill:#ffffff;" width="250" height="250"/>
    <path style="fill:#000000;" d="M 10,10 h 10 v 10 h -10 z M 20,10 h 10 v 10 h -10 z M 30,10 h 10 v 10 h -10 z M 40,10 h 10 v 10 h -10 z M 50,10 h 10 v 10 h -10 z M 60,10 h 10 v 10 h -10 z M 70,10 h 10 v 10 h -10 z M 90,10 h 10 v 10 h -10 z M 110,10 h 10 v 10 h -10 z M 130,10 h 10 v 10 h -10 z M 140,10 h 10 v 10 h -10 z M 150,10 h 10 v 10 h -10 z M 160,10 h 10 v 10 h -10 z M 170,10 h 10 v 10 h -10 z M 180,10 h 10 v 10 h -10 z M 190,10 h 10 v 10 h -10 z M 200,10 h 10 v 10 h -10 z M 210,10 h 10 v 10 h -10 z M 220,10 h 10 v 10 h -10 z M 230,10 h 10 v 10 h -10 z M 10,20 h 10 v 10 h -10 z M 70,20 h 10 v 10 h -10 z M 100,20 h 10 v 10 h -10 z M 110,20 h 10 v 10 h -10 z M 120,20 h 10 v 10 h -10 z M 130,20 h 10 v 10 h -10 z M 170,20 h 10 v 10 h -10 z M 230,20 h 10 v 10 h -10 z M 10,30 h 10 v 10 h -10 z M 30,30 h 10 v 10 h -10 z M 40,30 h 10 v 10 h -10 z M 50,30 h 10 v 10 h -10 z M 70,30 h 10 v 10 h -10 z M 90,30 h 10 v 10 h -10 z M 120,30 h 10 v 10 h -10 z M 150,30 h 10 v 10 h -10 z M 160,30 h 10 v 10 h -10 z M 170,30 h 10 v 10 h -10 z M 190,30 h 10 v 10 h -10 z M 200,30 h 10 v 10 h -10 z M 210,30 h 10 v 10 h -10 z M 230,30 h 10 v 10 h -10 z M 10,40 h 10 v 10 h -10 z M 30,40 h 10 v 10 h -10 z M 40,40 h 10 v 10 h -10 z M 50,40 h 10 v 10 h -10 z M 70,40 h 10 v 10 h -10 z M 90,40 h 10 v 10 h -10 z M 120,40 h 10 v 10 h -10 z M 170,40 h 10 v 10 h -10 z M 230,40 h 10 v 10 h -10 z M 10,50 h 10 v 10 h -10 z M 30,50 h 10 v 10 h -10 z M 40,50 h 10 v 10 h -10 z M 50,50 h 10 v 10 h -10 z M 70,50 h 10 v 10 h -10 z M 90,50 h 10 v 10 h -10 z M 110,50 h 10 v 10 h -10 z M 120,50 h 10 v 10 h -10 z M 140,50 h 10 v 10 h -10 z M 150,50 h 10 v 10 h -10 z M 170,50 h 10 v 10 h -10 z M 190,50 h 10 v 10 h -10 z M 210,50 h 10 v 10 h -10 z M 230,50 h 10 v 10 h -10 z M 10,60 h 10 v 10 h -10 z M 70,60 h 10 v 10 h -10 z M 90,60 h 10 v 10 h -10 z M 100,60 h 10 v 10 h -10 z M 110,60 h 10 v 10 h -10 z M 130,60 h 10 v 10 h -10 z M 150,60 h 10 v 10 h -10 z M 170,60 h 10 v 10 h -10 z M 230,60 h 10 v 10 h -10 z M 10,70 h 10 v 10 h -10 z M 20,70 h 10 v 10 h -10 z M 30,70 h 10 v 10 h -10 z M 40,70 h 10 v 10 h -10 z M 50,70 h 10 v 10 h -10 z M 60,70 h 10 v 10 h -10 z M 70,70 h 10 v 10 h -10 z M 90,70 h 10 v 10 h -10 z M 110,70 h 10 v 10 h -10 z M 130,70 h 10 v 10 h -10 z M 150,70 h 10 v 10 h -10 z M 170,70 h 10 v 10 h -10 z M 180,70 h 10 v 10 h -10 z M 190,70 h 10 v 10 h -10 z M 200,70 h 10 v 10 h -10 z M 210,70 h 10 v 10 h -10 z M 220,70 h 10 v 10 h -10 z M 230,70 h 10 v 10 h -10 z M 90,80 h 10 v 10 h -10 z M 100,80 h 10 v 10 h -10 z M 110,80 h 10 v 10 h -10 z M 140,80 h 10 v 10 h -10 z M 150,80 h 10 v 10 h -10 z M 10,90 h 10 v 10 h -10 z M 20,90 h 10 v 10 h -10 z M 40,90 h 10 v 10 h -10 z M 60,90 h 10 v 10 h -10 z M 90,90 h 10 v 10 h -10 z M 100,90 h 10 v 10 h -10 z M 110,90 h 10 v 10 h -10 z M 120,90 h 10 v 10 h -10 z M 140,90 h 10 v 10 h -10 z M 160,90 h 10 v 10 h -10 z M 170,90 h 10 v 10 h -10 z M 180,90 h 10 v 10 h -10 z M 190,90 h 10 v 10 h -10 z M 200,90 h 10 v 10 h -10 z M 210,90 h 10 v 10 h -10 z M 220,90 h 10 v 10 h -10 z M 10,100 h 10 v 10 h -10 z M 20,100 h 10 v 10 h -10 z M 30,100 h 10 v 10 h -10 z M 40,100 h 10 v 10 h -10 z M 60,100 h 10 v 10 h -10 z M 80,100 h 10 v 10 h -10 z M 110,100 h 10 v 10 h -10 z M 120,100 h 10 v 10 h -10 z M 130,100 h 10 v 10 h -10 z M 150,100 h 10 v 10 h -10 z M 180,100 h 10 v 10 h -10 z M 190,100 h 10 v 10 h -10 z M 200,100 h 10 v 10 h -10 z M 210,100 h 10 v 10 h -10 z M 220,100 h 10 v 10 h -10 z M 230,100 h 10 v 10 h -10 z M 10,110 h 10 v 10 h -10 z M 40,110 h 10 v 10 h -10 z M 80,110 h 10 v 10 h -10 z M 100,110 h 10 v 10 h -10 z M 120,110 h 10 v 10 h -10 z M 140,110 h 10 v 10 h -10 z M 150,110 h 10 v 10 h -10 z M 160,110 h 10 v 10 h -10 z M 180,110 h 10 v 10 h -10 z M 50,120 h 10 v 10 h -10 z M 60,120 h 10 v 10 h -10 z M 70,120 h 10 v 10 h -10 z M 90,120 h 10 v 10 h -10 z M 100,120 h 10 v 10 h -10 z M 120,120 h 10 v 10 h -10 z M 130,120 h 10 v 10 h -10 z M 140,120 h 10 v 10 h -10 z M 160,120 h 10 v 10 h -10 z M 170,120 h 10 v 10 h -10 z M 180,120 h 10 v 10 h -10 z M 190,120 h 10 v 10 h -10 z M 200,120 h 10 v 10 h -10 z M 210,120 h 10 v 10 h -10 z M 220,120 h 10 v 10 h -10 z M 230,120 h 10 v 10 h -10 z M 10,130 h 10 v 10 h -10 z M 20,130 h 10 v 10 h -10 z M 40,130 h 10 v 10 h -10 z M 70,130 h 10 v 10 h -10 z M 80,130 h 10 v 10 h -10 z M 90,130 h 10 v 10 h -10 z M 100,130 h 10 v 10 h -10 z M 150,130 h 10 v 10 h -10 z M 170,130 h 10 v 10 h -10 z M 200,130 h 10 v 10 h -10 z M 230,130 h 10 v 10 h -10 z M 20,140 h 10 v 10 h -10 z M 30,140 h 10 v 10 h -10 z M 40,140 h 10 v 10 h -10 z M 50,140 h 10 v 10 h -10 z M 60,140 h 10 v 10 h -10 z M 80,140 h 10 v 10 h -10 z M 100,140 h 10 v 10 h -10 z M 120,140 h 10 v 10 h -10 z M 150,140 h 10 v 10 h -10 z M 160,140 h 10 v 10 h -10 z M 170,140 h 10 v 10 h -10 z M 180,140 h 10 v 10 h -10 z M 190,140 h 10 v 10 h -10 z M 220,140 h 10 v 10 h -10 z M 40,150 h 10 v 10 h -10 z M 50,150 h 10 v 10 h -10 z M 90,150 h 10 v 10 h -10 z M 100,150 h 10 v 10 h -10 z M 110,150 h 10 v 10 h -10 z M 120,150 h 10 v 10 h -10 z M 130,150 h 10 v 10 h -10 z M 150,150 h 10 v 10 h -10 z M 160,150 h 10 v 10 h -10 z M 170,150 h 10 v 10 h -10 z M 180,150 h 10 v 10 h -10 z M 190,150 h 10 v 10 h -10 z M 200,150 h 10 v 10 h -10 z M 220,150 h 10 v 10 h -10 z M 230,150 h 10 v 10 h -10 z M 10,160 h 10 v 10 h -10 z M 20,160 h 10 v 10 h -10 z M 30,160 h 10 v 10 h -10 z M 40,160 h 10 v 10 h -10 z M 70,160 h 10 v 10 h -10 z M 90,160 h 10 v 10 h -10 z M 120,160 h 10 v 10 h -10 z M 140,160 h 10 v 10 h -10 z M 150,160 h 10 v 10 h -10 z M 170,160 h 10 v 10 h -10 z M 190,160 h 10 v 10 h -10 z M 200,160 h 10 v 10 h -10 z M 230,160 h 10 v 10 h -10 z M 10,170 h 10 v 10 h -10 z M 40,170 h 10 v 10 h -10 z M 80,170 h 10 v 10 h -10 z M 90,170 h 10 v 10 h -10 z M 100,170 h 10 v 10 h -10 z M 110,170 h 10 v 10 h -10 z M 120,170 h 10 v 10 h -10 z M 130,170 h 10 v 10 h -10 z M 140,170 h 10 v 10 h -10 z M 160,170 h 10 v 10 h -10 z M 170,170 h 10 v 10 h -10 z M 180,170 h 10 v 10 h -10 z M 190,170 h 10 v 10 h -10 z M 200,170 h 10 v 10 h -10 z M 210,170 h 10 v 10 h -10 z M 90,180 h 10 v 10 h -10 z M 110,180 h 10 v 10 h -10 z M 120,180 h 10 v 10 h -10 z M 130,180 h 10 v 10 h -10 z M 140,180 h 10 v 10 h -10 z M 150,180 h 10 v 10 h -10 z M 10,190 h 10 v 10 h -10 z M 20,190 h 10 v 10 h -10 z M 30,190 h 10 v 10 h -10 z M 40,190 h 10 v 10 h -10 z M 50,190 h 10 v 10 h -10 z M 60,190 h 10 v 10 h -10 z M 70,190 h 10 v 10 h -10 z M 90,190 h 10 v 10 h -10 z M 110,190 h 10 v 10 h -10 z M 130,190 h 10 v 10 h -10 z M 150,190 h 10 v 10 h -10 z M 170,190 h 10 v 10 h -10 z M 190,190 h 10 v 10 h -10 z M 210,190 h 10 v 10 h -10 z M 230,190 h 10 v 10 h -10 z M 10,200 h 10 v 10 h -10 z M 70,200 h 10 v 10 h -10 z M 90,200 h 10 v 10 h -10 z M 110,200 h 10 v 10 h -10 z M 130,200 h 10 v 10 h -10 z M 150,200 h 10 v 10 h -10 z M 170,200 h 10 v 10 h -10 z M 190,200 h 10 v 10 h -10 z M 210,200 h 10 v 10 h -10 z M 230,200 h 10 v 10 h -10 z M 10,210 h 10 v 10 h -10 z M 30,210 h 10 v 10 h -10 z M 40,210 h 10 v 10 h -10 z M 50,210 h 10 v 10 h -10 z M 70,210 h 10 v 10 h -10 z M 90,210 h 10 v 10 h -10 z M 130,210 h 10 v 10 h -10 z M 190,210 h 10 v 10 h -10 z M 230,210 h 10 v 10 h -10 z M 10,220 h 10 v 10 h -10 z M 30,220 h 10 v 10 h -10 z M 40,220 h 10 v 10 h -10 z M 50,220 h 10 v 10 h -10 z M 70,220 h 10 v 10 h -10 z M 100,220 h 10 v 10 h -10 z M 110,220 h 10 v 10 h -10 z M 120,220 h 10 v 10 h -10 z M 140,220 h 10 v 10 h -10 z M 150,220 h 10 v 10 h -10 z M 160,220 h 10 v 10 h -10 z M 180,220 h 10 v 10 h -10 z M 210,220 h 10 v 10 h -10 z M 220,220 h 10 v 10 h -10 z M 10,230 h 10 v 10 h -10 z M 30,230 h 10 v 10 h -10 z M 40,230 h 10 v 10 h -10 z M 50,230 h 10 v 10 h -10 z M 70,230 h 10 v 10 h -10 z M 90,230 h 10 v 10 h -10 z M 110,230 h 10 v 10 h -10 z M 140,230 h 10 v 10 h -10 z M 150,230 h 10 v 10 h -10 z M 170,230 h 10 v 10 h -10 z M 200,230 h 10 v 10 h -10 z M 230,230 h 10 v 10 h -10 z" />
</svg> 