<svg width="640" height="456" viewBox="0 0 640 456" fill="none" xmlns="http://www.w3.org/2000/svg">
<path d="M63.9279 37.8686C64.8202 37.8665 65.7125 37.8645 66.6319 37.8624C69.6312 37.8567 72.6306 37.8581 75.63 37.8596C77.7984 37.857 79.9668 37.854 82.1352 37.8506C88.1015 37.8425 94.0678 37.8407 100.034 37.84C106.466 37.8381 112.897 37.8306 119.329 37.8238C134.128 37.8093 148.928 37.8037 163.727 37.7991C171.04 37.7968 178.354 37.7932 185.667 37.7894C210.702 37.7766 235.737 37.7659 260.772 37.7624C262.343 37.7622 263.915 37.762 265.486 37.7618C267.061 37.7615 268.636 37.7613 270.211 37.7611C273.37 37.7607 276.53 37.7602 279.69 37.7598C280.865 37.7596 280.865 37.7596 282.064 37.7594C307.473 37.7558 332.882 37.7399 358.291 37.7166C385.156 37.692 412.021 37.6783 438.886 37.6771C441.835 37.6769 444.783 37.6767 447.732 37.6764C448.458 37.6764 449.184 37.6763 449.932 37.6763C461.618 37.6751 473.304 37.6641 484.99 37.6495C496.734 37.6352 508.477 37.6322 520.221 37.64C526.583 37.6439 532.946 37.6429 539.308 37.6289C545.132 37.6162 550.955 37.6174 556.779 37.6295C558.887 37.6315 560.994 37.6284 563.102 37.6197C565.966 37.6086 568.83 37.616 571.695 37.6281C572.513 37.6205 573.332 37.6129 574.175 37.605C579.768 37.6557 584.918 38.5502 590 41C590.33 41.66 590.66 42.32 591 43C591.99 43.33 592.98 43.66 594 44C595.352 45.707 595.352 45.707 596.625 47.8125C597.263 48.8431 597.263 48.8431 597.914 49.8945C599.914 53.772 600.128 57.2686 600.147 61.597C600.158 63.3066 600.158 63.3066 600.169 65.0507C600.173 66.9201 600.173 66.9201 600.177 68.8274C600.187 70.8011 600.187 70.8011 600.197 72.8147C600.218 77.1747 600.228 81.5346 600.238 85.8945C600.242 87.3976 600.246 88.9006 600.251 90.4037C600.27 97.465 600.284 104.526 600.292 111.588C600.302 119.73 600.328 127.873 600.369 136.016C600.399 142.316 600.414 148.616 600.417 154.916C600.419 158.676 600.428 162.435 600.453 166.196C600.477 169.734 600.481 173.272 600.471 176.811C600.47 178.721 600.489 180.632 600.509 182.543C600.458 190.987 599.111 195.066 593.875 201.687C583.802 209.79 571.979 208.552 559.73 208.477C557.541 208.478 555.352 208.481 553.163 208.485C547.158 208.493 541.154 208.475 535.149 208.453C528.669 208.434 522.189 208.437 515.709 208.438C503.753 208.437 491.796 208.415 479.84 208.385C468.796 208.357 457.751 208.336 446.706 208.322C445.224 208.32 443.742 208.318 442.26 208.316C440.027 208.313 437.793 208.311 435.56 208.308C414.801 208.282 394.042 208.247 373.283 208.196C372.501 208.195 371.718 208.193 370.912 208.191C364.56 208.175 358.208 208.159 351.856 208.143C327.069 208.081 302.282 208.043 277.495 208.024C249.641 208.003 221.787 207.965 193.933 207.902C190.964 207.895 187.995 207.889 185.026 207.882C183.929 207.88 183.929 207.88 182.811 207.877C171.772 207.853 160.733 207.841 149.694 207.836C137.144 207.83 124.593 207.806 112.043 207.759C105.638 207.736 99.2331 207.721 92.828 207.727C86.9669 207.733 81.1063 207.715 75.2453 207.68C73.123 207.671 71.0006 207.67 68.8783 207.679C65.9961 207.69 63.1157 207.67 60.2337 207.642C59.4072 207.652 58.5808 207.663 57.7293 207.674C51.0633 207.556 46.1233 205.234 41.4701 200.416C40.2669 198.982 39.1285 197.494 38 196C37.34 195.34 36.68 194.68 36 194C35.34 194.33 34.68 194.66 34 195C34.3506 194.237 34.7012 193.474 35.0625 192.687C36.3236 189.952 36.3236 189.952 35 187C35.495 186.01 35.495 186.01 36 185C35.01 184.67 34.02 184.34 33 184C33.99 184 34.98 184 36 184C35.9921 183.352 35.9842 182.704 35.976 182.036C35.7842 166.253 35.6094 150.47 35.4534 134.686C35.3776 127.054 35.296 119.421 35.2009 111.788C35.118 105.134 35.046 98.4801 34.9868 91.8258C34.9551 88.3037 34.918 84.7819 34.868 81.26C34.8123 77.3244 34.7808 73.3888 34.7512 69.4529C34.7311 68.2905 34.7109 67.1281 34.6902 65.9305C34.6658 59.7873 35.0527 55.4234 38 50C38.6806 48.6697 38.6806 48.6697 39.375 47.3125C41.2855 44.5937 43.25 42.8563 46 41C46.99 41 47.98 41 49 41C49 40.34 49 39.68 49 39C54.0296 37.9871 58.8242 37.8576 63.9279 37.8686Z" fill="#010101"/>
<path d="M59.7936 247.748C60.6836 247.745 61.5736 247.743 62.4905 247.74C65.488 247.732 68.4853 247.739 71.4828 247.746C73.6475 247.744 75.8122 247.741 77.9768 247.737C83.9377 247.728 89.8985 247.732 95.8594 247.739C102.284 247.743 108.708 247.736 115.132 247.731C126.996 247.722 138.86 247.723 150.723 247.728C161.688 247.733 172.652 247.735 183.616 247.732C184.343 247.732 185.07 247.732 185.819 247.732C188.77 247.731 191.721 247.731 194.672 247.73C222.371 247.724 250.069 247.729 277.768 247.74C302.366 247.75 326.964 247.749 351.562 247.739C379.198 247.729 406.833 247.724 434.469 247.731C437.417 247.731 440.365 247.732 443.314 247.732C444.039 247.733 444.765 247.733 445.513 247.733C456.464 247.735 467.415 247.732 478.365 247.727C490.826 247.722 503.287 247.723 515.747 247.734C522.104 247.739 528.461 247.741 534.818 247.735C540.641 247.729 546.464 247.732 552.288 247.743C554.391 247.745 556.494 247.744 558.597 247.739C586.75 247.679 586.75 247.679 593.062 252.188C594.022 253.58 594.022 253.58 595 255C595.563 255.81 595.563 255.81 596.137 256.637C600.88 264.043 600.145 272.49 600.129 281.003C600.131 282.196 600.133 283.389 600.135 284.617C600.138 287.874 600.137 291.13 600.134 294.387C600.132 297.809 600.134 301.231 600.136 304.653C600.137 310.403 600.135 316.153 600.13 321.902C600.125 328.525 600.127 335.148 600.132 341.77C600.137 347.477 600.137 353.183 600.135 358.89C600.133 362.289 600.133 365.688 600.136 369.087C600.139 372.884 600.135 376.682 600.129 380.48C600.131 381.588 600.133 382.697 600.135 383.84C600.08 404.555 600.08 404.555 593 412C592.49 412.686 591.979 413.372 591.453 414.078C587.881 416.876 584.425 416.55 580.076 416.501C579.159 416.506 578.243 416.512 577.299 416.517C574.206 416.531 571.114 416.516 568.021 416.501C565.79 416.505 563.559 416.511 561.329 416.518C555.181 416.533 549.034 416.523 542.886 416.508C536.942 416.498 530.999 416.507 525.055 416.515C512.144 416.533 499.234 416.527 486.323 416.512C475.023 416.499 463.723 416.494 452.424 416.496C451.3 416.497 451.3 416.497 450.154 416.497C447.115 416.497 444.075 416.498 441.035 416.499C412.504 416.506 383.974 416.49 355.443 416.464C330.086 416.441 304.73 416.436 279.373 416.446C272.881 416.449 266.39 416.451 259.898 416.454C259.099 416.454 258.3 416.454 257.477 416.455C236.301 416.462 215.125 416.456 193.949 416.445C191.67 416.444 189.392 416.443 187.114 416.442C185.602 416.441 184.091 416.44 182.579 416.439C171.287 416.434 159.995 416.435 148.703 416.439C135.864 416.445 123.024 416.439 110.185 416.419C103.631 416.409 97.076 416.404 90.5215 416.411C84.5259 416.419 78.5305 416.412 72.5349 416.394C70.3613 416.39 68.1877 416.391 66.0141 416.397C63.0679 416.405 60.1223 416.395 57.1761 416.38C56.325 416.387 55.474 416.394 54.5972 416.401C49.6564 416.352 46.2944 415.709 42 413C40.1367 410.949 40.1367 410.949 38.6875 408.688C38.1963 407.949 37.7052 407.21 37.1992 406.449C34.9713 401.899 34.8752 397.114 34.8908 392.118C34.892 390.965 34.8933 389.813 34.8946 388.626C34.9012 387.376 34.9079 386.126 34.9148 384.838C34.9184 383.497 34.9216 382.156 34.9244 380.815C34.9338 377.185 34.9501 373.555 34.9688 369.925C34.9805 367.655 34.9911 365.385 35.0015 363.115C35.0347 356.008 35.0727 348.9 35.1169 341.792C35.1677 333.597 35.2019 325.403 35.2221 317.208C35.2388 310.864 35.2706 304.521 35.3139 298.178C35.3394 294.393 35.3583 290.608 35.3613 286.823C35.3645 283.264 35.3865 279.705 35.4229 276.146C35.4377 274.222 35.4331 272.298 35.4277 270.374C35.5299 262.705 36.2322 258.97 41.5273 253.391C47.5337 248.532 52.1927 247.705 59.7936 247.748Z" fill="#020202"/>
<path d="M63.9279 37.8686C64.8202 37.8665 65.7125 37.8645 66.6319 37.8624C69.6312 37.8567 72.6306 37.8581 75.63 37.8596C77.7984 37.857 79.9668 37.854 82.1352 37.8506C88.1015 37.8425 94.0678 37.8407 100.034 37.84C106.466 37.8381 112.897 37.8306 119.329 37.8238C134.128 37.8093 148.928 37.8037 163.727 37.7991C171.04 37.7968 178.354 37.7932 185.667 37.7894C210.702 37.7766 235.737 37.7659 260.772 37.7624C262.343 37.7622 263.915 37.762 265.486 37.7618C267.061 37.7615 268.636 37.7613 270.211 37.7611C273.37 37.7607 276.53 37.7602 279.69 37.7598C280.865 37.7596 280.865 37.7596 282.064 37.7594C307.473 37.7558 332.882 37.7399 358.291 37.7166C385.156 37.692 412.021 37.6783 438.886 37.6771C441.835 37.6769 444.783 37.6767 447.732 37.6764C448.458 37.6764 449.184 37.6763 449.932 37.6763C461.618 37.6751 473.304 37.6641 484.99 37.6495C496.734 37.6352 508.477 37.6322 520.221 37.64C526.583 37.6439 532.946 37.6429 539.308 37.6289C545.132 37.6162 550.955 37.6174 556.779 37.6295C558.887 37.6315 560.994 37.6284 563.102 37.6197C565.966 37.6086 568.83 37.616 571.695 37.6281C572.513 37.6205 573.332 37.6129 574.175 37.605C579.768 37.6557 584.918 38.5502 590 41C590.33 41.66 590.66 42.32 591 43C591.99 43.33 592.98 43.66 594 44C595.352 45.707 595.352 45.707 596.625 47.8125C597.263 48.8431 597.263 48.8431 597.914 49.8945C599.914 53.772 600.128 57.2686 600.147 61.597C600.158 63.3066 600.158 63.3066 600.169 65.0507C600.173 66.9201 600.173 66.9201 600.177 68.8274C600.187 70.8011 600.187 70.8011 600.197 72.8147C600.218 77.1747 600.228 81.5346 600.238 85.8945C600.242 87.3976 600.246 88.9006 600.251 90.4037C600.27 97.465 600.284 104.526 600.292 111.588C600.302 119.73 600.328 127.873 600.369 136.016C600.399 142.316 600.414 148.616 600.417 154.916C600.419 158.676 600.428 162.435 600.453 166.196C600.477 169.734 600.481 173.272 600.471 176.811C600.47 178.721 600.489 180.632 600.509 182.543C600.458 190.987 599.111 195.066 593.875 201.687C583.802 209.79 571.979 208.552 559.73 208.477C557.541 208.478 555.352 208.481 553.163 208.485C547.158 208.493 541.154 208.475 535.149 208.453C528.669 208.434 522.189 208.437 515.709 208.438C503.753 208.437 491.796 208.415 479.84 208.385C468.796 208.357 457.751 208.336 446.706 208.322C445.224 208.32 443.742 208.318 442.26 208.316C440.027 208.313 437.793 208.311 435.56 208.308C414.801 208.282 394.042 208.247 373.283 208.196C372.501 208.195 371.718 208.193 370.912 208.191C364.56 208.175 358.208 208.159 351.856 208.143C327.069 208.081 302.282 208.043 277.495 208.024C249.641 208.003 221.787 207.965 193.933 207.902C190.964 207.895 187.995 207.889 185.026 207.882C183.929 207.88 183.929 207.88 182.811 207.877C171.772 207.853 160.733 207.841 149.694 207.836C137.144 207.83 124.593 207.806 112.043 207.759C105.638 207.736 99.2331 207.721 92.828 207.727C86.9669 207.733 81.1063 207.715 75.2453 207.68C73.123 207.671 71.0006 207.67 68.8783 207.679C65.9961 207.69 63.1157 207.67 60.2337 207.642C59.4072 207.652 58.5808 207.663 57.7293 207.674C51.0633 207.556 46.1233 205.234 41.4701 200.416C40.2669 198.982 39.1285 197.494 38 196C37.34 195.34 36.68 194.68 36 194C35.34 194.33 34.68 194.66 34 195C34.3506 194.237 34.7012 193.474 35.0625 192.687C36.3236 189.952 36.3236 189.952 35 187C35.495 186.01 35.495 186.01 36 185C35.01 184.67 34.02 184.34 33 184C33.99 184 34.98 184 36 184C35.9921 183.352 35.9842 182.704 35.976 182.036C35.7842 166.253 35.6094 150.47 35.4534 134.686C35.3776 127.054 35.296 119.421 35.2009 111.788C35.118 105.134 35.046 98.4801 34.9868 91.8258C34.9551 88.3037 34.918 84.7819 34.868 81.26C34.8123 77.3244 34.7808 73.3888 34.7512 69.4529C34.7311 68.2905 34.7109 67.1281 34.6902 65.9305C34.6658 59.7873 35.0527 55.4234 38 50C38.6806 48.6697 38.6806 48.6697 39.375 47.3125C41.2855 44.5937 43.25 42.8563 46 41C46.99 41 47.98 41 49 41C49 40.34 49 39.68 49 39C54.0296 37.9871 58.8242 37.8576 63.9279 37.8686ZM42.0394 51.4939C38.9524 57.0463 39.3091 62.8981 39.3689 69.0979C39.3617 70.3948 39.3546 71.6917 39.3472 73.0279C39.3288 76.5652 39.3416 80.1018 39.3613 83.6391C39.3778 87.3514 39.3689 91.0637 39.3638 94.776C39.3593 101.007 39.3751 107.239 39.4031 113.47C39.4351 120.663 39.4351 127.855 39.4179 135.048C39.402 141.983 39.4087 148.919 39.4258 155.855C39.4326 158.799 39.4317 161.744 39.4243 164.688C39.4151 168.803 39.4392 172.917 39.4666 177.031C39.46 178.247 39.4535 179.462 39.4468 180.714C39.5219 187.364 39.971 191.621 44 197C46.3986 199.336 46.3986 199.336 49 201C49.5315 201.359 50.063 201.719 50.6105 202.089C54.249 203.476 57.8908 203.276 61.7314 203.257C63.0745 203.263 63.0745 203.263 64.4447 203.268C67.4665 203.277 70.4882 203.272 73.5101 203.267C75.6898 203.271 77.8696 203.276 80.0494 203.281C86.0563 203.293 92.0633 203.293 98.0702 203.291C104.542 203.29 111.014 203.301 117.486 203.311C130.172 203.328 142.858 203.333 155.545 203.334C165.854 203.335 176.163 203.339 186.472 203.345C189.438 203.347 192.404 203.349 195.369 203.351C196.107 203.351 196.844 203.352 197.604 203.352C218.347 203.365 239.09 203.372 259.833 203.372C260.615 203.371 261.398 203.371 262.204 203.371C266.169 203.371 270.135 203.371 274.1 203.371C275.282 203.371 275.282 203.371 276.487 203.371C278.08 203.371 279.672 203.371 281.265 203.37C306.044 203.369 330.824 203.384 355.603 203.412C383.433 203.442 411.262 203.46 439.092 203.458C442.059 203.458 445.025 203.457 447.992 203.457C448.723 203.457 449.454 203.457 450.206 203.457C461.969 203.457 473.731 203.47 485.494 203.487C497.314 203.504 509.134 203.506 520.954 203.493C527.359 203.486 533.764 203.486 540.169 203.504C546.03 203.519 551.891 203.517 557.752 203.499C559.875 203.496 561.997 203.5 564.12 203.511C567.002 203.525 569.883 203.514 572.765 203.498C573.592 203.508 574.418 203.518 575.27 203.528C581.681 203.449 587.191 201.773 591.84 197.184C592.202 196.607 592.564 196.031 592.938 195.437C593.508 194.569 593.508 194.569 594.09 193.684C595.923 190.293 596.129 187.496 596.14 183.72C596.146 182.625 596.152 181.53 596.158 180.402C596.159 179.201 596.16 177.999 596.161 176.761C596.166 175.496 596.171 174.23 596.176 172.927C596.189 169.453 596.196 165.98 596.2 162.507C596.203 160.335 596.207 158.163 596.212 155.991C596.225 149.191 596.235 142.391 596.239 135.59C596.243 127.75 596.261 119.911 596.29 112.071C596.312 106.005 596.322 99.9396 596.323 93.874C596.324 90.2542 596.33 86.6346 596.348 83.0148C596.367 78.9718 596.363 74.9291 596.356 70.886C596.366 69.6945 596.375 68.503 596.384 67.2755C596.349 60.1617 596.203 53.4036 591.062 47.9414C590.382 47.4864 589.701 47.0313 589 46.5625C588.319 46.0894 587.639 45.6163 586.938 45.1289C582.561 42.579 578.294 42.856 573.392 42.863C572.05 42.859 572.05 42.859 570.682 42.855C567.658 42.8472 564.634 42.8467 561.61 42.8461C559.431 42.8421 557.252 42.8377 555.073 42.8328C549.064 42.8208 543.055 42.8152 537.046 42.8106C530.573 42.8047 524.101 42.7931 517.628 42.7824C502.726 42.7587 487.824 42.7444 472.922 42.7321C467.767 42.7279 462.612 42.7233 457.457 42.7185C430.054 42.6933 402.652 42.6712 375.249 42.6588C368.899 42.6559 362.55 42.6529 356.2 42.6499C355.017 42.6493 355.017 42.6493 353.809 42.6488C328.228 42.6366 302.646 42.6057 277.065 42.564C250.772 42.5212 224.478 42.4946 198.185 42.4893C194.472 42.4886 190.759 42.4877 187.046 42.4867C185.95 42.4864 185.95 42.4864 184.832 42.4861C173.067 42.4826 161.302 42.4623 149.536 42.4359C137.713 42.4098 125.889 42.4024 114.066 42.413C107.659 42.4182 101.252 42.4152 94.8449 42.3905C88.9816 42.3681 83.1189 42.3687 77.2557 42.3877C75.1325 42.3905 73.0093 42.3849 70.8861 42.3699C68.0027 42.3508 65.121 42.3626 62.2376 42.382C61.4108 42.3691 60.5839 42.3563 59.7321 42.343C52.179 42.455 46.6697 45.5284 42.0394 51.4939Z" fill="#A1A1A1"/>
<path d="M59.7936 247.748C60.6836 247.745 61.5736 247.743 62.4905 247.74C65.488 247.732 68.4853 247.739 71.4828 247.746C73.6475 247.744 75.8122 247.741 77.9768 247.737C83.9377 247.728 89.8985 247.732 95.8594 247.739C102.284 247.743 108.708 247.736 115.132 247.731C126.996 247.722 138.86 247.723 150.723 247.728C161.688 247.733 172.652 247.735 183.616 247.732C184.343 247.732 185.07 247.732 185.819 247.732C188.77 247.731 191.721 247.731 194.672 247.73C222.371 247.724 250.069 247.729 277.768 247.74C302.366 247.75 326.964 247.749 351.562 247.739C379.198 247.729 406.833 247.724 434.469 247.731C437.417 247.731 440.365 247.732 443.314 247.732C444.039 247.733 444.765 247.733 445.513 247.733C456.464 247.735 467.415 247.732 478.365 247.727C490.826 247.722 503.287 247.723 515.747 247.734C522.104 247.739 528.461 247.741 534.818 247.735C540.641 247.729 546.464 247.732 552.288 247.743C554.391 247.745 556.494 247.744 558.597 247.739C586.75 247.679 586.75 247.679 593.062 252.188C594.022 253.58 594.022 253.58 595 255C595.563 255.81 595.563 255.81 596.137 256.637C600.88 264.043 600.145 272.49 600.129 281.003C600.131 282.196 600.133 283.389 600.135 284.617C600.138 287.874 600.137 291.13 600.134 294.387C600.132 297.809 600.134 301.231 600.136 304.653C600.137 310.403 600.135 316.153 600.13 321.902C600.125 328.525 600.127 335.148 600.132 341.77C600.137 347.477 600.137 353.183 600.135 358.89C600.133 362.289 600.133 365.688 600.136 369.087C600.139 372.884 600.135 376.682 600.129 380.48C600.131 381.588 600.133 382.697 600.135 383.84C600.08 404.555 600.08 404.555 593 412C592.49 412.686 591.979 413.372 591.453 414.078C587.881 416.876 584.425 416.55 580.076 416.501C579.159 416.506 578.243 416.512 577.299 416.517C574.206 416.531 571.114 416.516 568.021 416.501C565.79 416.505 563.559 416.511 561.329 416.518C555.181 416.533 549.034 416.523 542.886 416.508C536.942 416.498 530.999 416.507 525.055 416.515C512.144 416.533 499.234 416.527 486.323 416.512C475.023 416.499 463.723 416.494 452.424 416.496C451.3 416.497 451.3 416.497 450.154 416.497C447.115 416.497 444.075 416.498 441.035 416.499C412.504 416.506 383.974 416.49 355.443 416.464C330.086 416.441 304.73 416.436 279.373 416.446C272.881 416.449 266.39 416.451 259.898 416.454C259.099 416.454 258.3 416.454 257.477 416.455C236.301 416.462 215.125 416.456 193.949 416.445C191.67 416.444 189.392 416.443 187.114 416.442C185.602 416.441 184.091 416.44 182.579 416.439C171.287 416.434 159.995 416.435 148.703 416.439C135.864 416.445 123.024 416.439 110.185 416.419C103.631 416.409 97.076 416.404 90.5215 416.411C84.5259 416.419 78.5305 416.412 72.5349 416.394C70.3613 416.39 68.1877 416.391 66.0141 416.397C63.0679 416.405 60.1223 416.395 57.1761 416.38C56.325 416.387 55.474 416.394 54.5972 416.401C49.6564 416.352 46.2944 415.709 42 413C40.1367 410.949 40.1367 410.949 38.6875 408.688C38.1963 407.949 37.7052 407.21 37.1992 406.449C34.9713 401.899 34.8752 397.114 34.8908 392.118C34.892 390.965 34.8933 389.813 34.8946 388.626C34.9012 387.376 34.9079 386.126 34.9148 384.838C34.9184 383.497 34.9216 382.156 34.9244 380.815C34.9338 377.185 34.9501 373.555 34.9688 369.925C34.9805 367.655 34.9911 365.385 35.0015 363.115C35.0347 356.008 35.0727 348.9 35.1169 341.792C35.1677 333.597 35.2019 325.403 35.2221 317.208C35.2388 310.864 35.2706 304.521 35.3139 298.178C35.3394 294.393 35.3583 290.608 35.3613 286.823C35.3645 283.264 35.3865 279.705 35.4229 276.146C35.4377 274.222 35.4331 272.298 35.4277 270.374C35.5299 262.705 36.2322 258.97 41.5273 253.391C47.5337 248.532 52.1927 247.705 59.7936 247.748ZM42.625 258.438C39.8474 262.817 38.7507 266.366 38.7326 271.552C38.724 272.656 38.7155 273.761 38.7067 274.899C38.7076 276.101 38.7085 277.303 38.7094 278.542C38.7027 279.816 38.696 281.09 38.6891 282.402C38.6715 285.89 38.6667 289.377 38.6655 292.865C38.664 295.048 38.6598 297.23 38.6545 299.412C38.636 307.034 38.6278 314.657 38.6294 322.279C38.6306 329.369 38.6095 336.458 38.5779 343.548C38.5517 349.647 38.541 355.745 38.5423 361.844C38.5428 365.481 38.5372 369.118 38.5159 372.755C38.4928 376.817 38.5021 380.879 38.5141 384.94C38.5029 386.135 38.4917 387.329 38.4801 388.559C38.5319 395.448 39.247 401.093 43 407C48.119 411.875 51.7268 412.146 58.5662 412.134C59.468 412.137 60.3698 412.139 61.2989 412.141C64.3547 412.148 67.4103 412.148 70.4661 412.147C72.6655 412.15 74.8648 412.154 77.0642 412.158C83.1346 412.168 89.205 412.172 95.2755 412.175C101.142 412.178 107.008 412.186 112.874 412.194C128.596 412.215 144.319 412.226 160.042 412.234C167.477 412.239 174.912 412.244 182.348 412.249C207.791 412.267 233.234 412.282 258.676 412.289C260.274 412.29 261.872 412.29 263.47 412.291C264.659 412.291 264.659 412.291 265.871 412.292C269.886 412.293 273.901 412.294 277.916 412.295C278.713 412.295 279.509 412.296 280.33 412.296C306.168 412.304 332.006 412.327 357.843 412.36C385.149 412.394 412.454 412.414 439.759 412.417C442.756 412.417 445.752 412.418 448.749 412.418C449.855 412.419 449.855 412.419 450.984 412.419C462.868 412.421 474.752 412.437 486.635 412.457C498.577 412.478 510.518 412.483 522.459 412.474C528.931 412.469 535.402 412.471 541.874 412.49C547.795 412.508 553.716 412.507 559.637 412.491C561.782 412.489 563.928 412.493 566.073 412.505C568.984 412.52 571.894 412.511 574.805 412.495C575.642 412.505 576.48 412.515 577.343 412.526C583.025 412.459 586.324 411.271 591 408C596.08 401.83 595.568 395.471 595.518 387.74C595.523 386.401 595.53 385.061 595.539 383.722C595.557 380.1 595.55 376.478 595.537 372.856C595.527 369.057 595.537 365.258 595.543 361.459C595.55 355.081 595.541 348.702 595.521 342.324C595.5 334.96 595.507 327.597 595.529 320.233C595.547 313.899 595.549 307.565 595.539 301.231C595.533 297.454 595.532 293.676 595.545 289.898C595.557 286.345 595.549 282.793 595.526 279.241C595.518 277.323 595.53 275.405 595.542 273.487C595.476 266.781 595.079 262.423 591 257C585.436 252.333 579.369 251.853 572.407 251.866C571.515 251.863 570.622 251.861 569.703 251.859C566.684 251.852 563.666 251.852 560.648 251.853C558.473 251.85 556.299 251.846 554.124 251.842C548.126 251.832 542.128 251.828 536.13 251.825C529.67 251.821 523.21 251.812 516.75 251.803C501.876 251.784 487.002 251.774 472.128 251.766C464.78 251.761 457.432 251.756 450.084 251.751C424.936 251.733 399.788 251.718 374.64 251.711C373.061 251.71 371.482 251.71 369.903 251.709C368.728 251.709 368.728 251.709 367.53 251.708C363.562 251.707 359.595 251.706 355.627 251.705C354.446 251.704 354.446 251.704 353.241 251.704C327.708 251.696 302.175 251.673 276.642 251.64C249.655 251.606 222.667 251.586 195.68 251.583C192.718 251.583 189.756 251.582 186.794 251.582C186.065 251.581 185.336 251.581 184.584 251.581C172.841 251.579 161.098 251.563 149.355 251.543C137.554 251.522 125.753 251.517 113.952 251.527C107.557 251.531 101.162 251.529 94.7675 251.51C88.9154 251.492 83.0637 251.493 77.2116 251.509C75.0925 251.511 72.9733 251.507 70.8542 251.495C67.9764 251.48 65.0997 251.489 62.222 251.505C61.3967 251.495 60.5715 251.485 59.7213 251.474C52.8615 251.556 47.4642 253.471 42.625 258.438Z" fill="#C3C3C5"/>
<path d="M125.687 303.063C129.97 304.74 132.499 305.5 137 304C138.176 303.484 139.351 302.969 140.562 302.438C147.298 299.813 155.519 299.884 162.375 302.125C166.446 303.935 170.037 306.676 173 310C173 310.66 173 311.32 173 312C172.092 312.701 171.185 313.403 170.25 314.125C165.643 317.891 163.407 321.95 162.617 327.867C162.36 334.617 163.187 340.322 167 346C168.889 347.968 170.768 349.386 173 351C174.015 351.985 175.019 352.981 176 354C172.12 363.759 167.023 373.071 159 380C153.354 381.882 148 381.544 142.437 379.5C136.692 377.405 131.887 377.075 126.125 379.5C121.397 381.41 117.031 382.083 112 381C100.545 374.746 94.6274 359.621 91.0273 347.809C87.7797 335.256 87.5749 324.531 94 313C97.7021 307.366 102.388 303.372 108.957 301.418C115.021 300.177 119.939 300.791 125.687 303.063Z" fill="#FDFDFD"/>
<path d="M84.9314 69.0925C87.9195 69.9762 90.3727 71.0182 93.0977 72.5195C94.0534 73.0412 95.0092 73.5629 95.9939 74.1003C97.0065 74.6654 98.0192 75.2304 99.0625 75.8125C100.121 76.3949 101.179 76.9773 102.27 77.5774C118.335 86.4494 134.211 95.6465 150 105C146.36 109.334 142.636 113.501 138.625 117.5C138.152 117.971 137.68 118.443 137.193 118.928C133.821 122.264 130.307 125.379 126.699 128.453C124.193 130.735 122.162 133.395 120 136C118.272 137.572 116.494 139.067 114.699 140.562C111.511 143.26 108.67 146.129 106.125 149.438C103.868 152.159 101.438 154.269 98.7344 156.527C95.5383 159.241 92.6809 162.115 90.125 165.438C87.4318 168.685 84.435 171.538 81 174C80.34 174 79.68 174 79 174C78.0992 171.298 77.8694 169.721 77.8528 166.946C77.8457 166.123 77.8385 165.3 77.8311 164.452C77.8285 163.553 77.8258 162.653 77.823 161.727C77.8164 160.777 77.8099 159.827 77.8031 158.848C77.7834 155.702 77.7717 152.556 77.7617 149.41C77.7576 148.337 77.7536 147.263 77.7494 146.157C77.7285 140.479 77.7142 134.801 77.7048 129.123C77.6938 123.251 77.6593 117.378 77.6197 111.506C77.5936 106.996 77.5851 102.486 77.5816 97.9765C77.5767 95.8111 77.565 93.6457 77.5465 91.4804C77.5223 88.4542 77.5231 85.4289 77.53 82.4026C77.5172 81.5053 77.5044 80.608 77.4912 79.6836C77.542 73.6434 77.542 73.6434 79.8462 70.4066C82 69 82 69 84.9314 69.0925Z" fill="#00D2FD"/>
<path d="M46.3125 253.813C46.8694 254.204 47.4263 254.596 48 255C46.8553 255.773 46.8553 255.773 45.6875 256.563C41.7709 260.115 40.2517 263.535 39.7224 268.719C39.6023 272.073 39.5833 275.414 39.596 278.769C39.5891 280.043 39.5822 281.317 39.5752 282.63C39.5573 286.109 39.5584 289.589 39.5641 293.068C39.5672 295.98 39.5611 298.893 39.5551 301.805C39.541 308.68 39.5426 315.555 39.554 322.43C39.5655 329.505 39.5514 336.58 39.5246 343.655C39.5024 349.745 39.4958 355.835 39.5017 361.926C39.505 365.556 39.5027 369.186 39.4854 372.817C39.467 376.869 39.4812 380.92 39.4983 384.972C39.4886 386.163 39.479 387.354 39.469 388.581C39.5275 395.204 39.8607 401.547 44 407C49.0753 411.198 52.7682 411.573 59.064 411.501C59.971 411.506 60.8781 411.512 61.8126 411.517C64.8622 411.531 67.911 411.516 70.9606 411.501C73.1649 411.505 75.3691 411.511 77.5734 411.518C83.6387 411.533 89.7038 411.523 95.7691 411.508C101.636 411.498 107.502 411.507 113.369 411.515C126.11 411.533 138.851 411.527 151.592 411.512C162.741 411.499 173.891 411.494 185.04 411.496C185.779 411.496 186.518 411.497 187.28 411.497C190.28 411.497 193.281 411.498 196.281 411.499C224.434 411.506 252.586 411.49 280.739 411.464C305.76 411.441 330.782 411.436 355.803 411.446C362.21 411.449 368.618 411.451 375.025 411.454C375.814 411.454 376.603 411.454 377.416 411.455C398.314 411.462 419.212 411.456 440.11 411.445C442.358 411.444 444.606 411.443 446.854 411.442C448.346 411.441 449.837 411.44 451.329 411.439C462.472 411.434 473.616 411.435 484.76 411.439C497.428 411.445 510.096 411.439 522.764 411.419C529.232 411.409 535.699 411.404 542.166 411.411C548.081 411.418 553.995 411.412 559.91 411.394C562.055 411.39 564.201 411.391 566.346 411.397C569.251 411.405 572.156 411.395 575.062 411.38C576.325 411.39 576.325 411.39 577.613 411.401C582.32 411.354 585.057 410.817 589 408C589.66 408 590.32 408 591 408C591.289 407.196 591.577 406.391 591.875 405.563C593 403 593 403 595 402C595.33 402.33 595.66 402.66 596 403C596 402.34 596 401.68 596 401C596.99 401 597.98 401 599 401C598.564 405.941 596.284 408.411 593 412C592.469 412.71 591.937 413.421 591.39 414.152C587.855 416.886 584.362 416.549 580.076 416.501C579.159 416.506 578.243 416.512 577.299 416.517C574.206 416.531 571.114 416.516 568.021 416.501C565.79 416.505 563.559 416.511 561.329 416.518C555.181 416.533 549.034 416.523 542.886 416.508C536.942 416.498 530.999 416.507 525.055 416.515C512.144 416.533 499.234 416.527 486.323 416.512C475.023 416.499 463.723 416.494 452.424 416.496C451.3 416.497 451.3 416.497 450.154 416.497C447.115 416.497 444.075 416.498 441.035 416.499C412.504 416.506 383.974 416.49 355.443 416.464C330.086 416.441 304.73 416.436 279.373 416.446C272.882 416.449 266.39 416.451 259.898 416.454C259.099 416.454 258.3 416.454 257.477 416.455C236.301 416.462 215.125 416.456 193.949 416.445C191.67 416.444 189.392 416.443 187.114 416.442C185.602 416.441 184.091 416.44 182.579 416.439C171.287 416.434 159.995 416.435 148.703 416.439C135.864 416.445 123.024 416.439 110.185 416.419C103.631 416.409 97.0761 416.404 90.5215 416.411C84.5259 416.419 78.5305 416.412 72.5349 416.394C70.3614 416.39 68.1877 416.391 66.0142 416.397C63.0679 416.405 60.1223 416.395 57.1761 416.38C56.3251 416.387 55.474 416.394 54.5972 416.401C49.6564 416.352 46.2944 415.709 42 413C40.1367 410.949 40.1367 410.949 38.6875 408.688C38.1964 407.949 37.7053 407.21 37.1992 406.449C34.9695 401.895 34.8755 397.111 34.8975 392.111C34.9002 390.957 34.903 389.804 34.9057 388.615C34.914 387.363 34.9222 386.112 34.9307 384.822C34.9359 383.48 34.9407 382.137 34.9452 380.795C34.9588 377.16 34.9792 373.526 35.0018 369.892C35.0157 367.62 35.0283 365.348 35.0405 363.077C35.0791 355.964 35.1217 348.851 35.1703 341.739C35.2264 333.536 35.2694 325.332 35.301 317.129C35.3262 310.781 35.3628 304.432 35.4081 298.084C35.4348 294.295 35.4568 290.506 35.4671 286.717C35.477 283.156 35.5011 279.594 35.536 276.033C35.5513 274.105 35.552 272.177 35.5522 270.25C35.5662 269.099 35.5802 267.948 35.5946 266.762C35.6005 265.764 35.6064 264.766 35.6125 263.738C36.2312 259.367 38.0194 256.78 41.4375 254.063C44 253 44 253 46.3125 253.813Z" fill="#A7A7AA"/>
<path d="M151.223 105.953C155.295 107.488 158.905 109.634 162.625 111.875C163.388 112.322 164.151 112.77 164.938 113.23C171.596 117.19 171.596 117.19 174 120C174.688 122.812 174.688 122.812 174 126C166.664 134.129 153.545 139.191 143.984 144.367C140.264 146.403 136.569 148.481 132.875 150.562C132.188 150.949 131.501 151.336 130.793 151.734C127.873 153.377 124.956 155.025 122.047 156.688C120.848 157.368 120.848 157.368 119.625 158.062C118.957 158.445 118.29 158.828 117.602 159.223C116 160 116 160 114 160C114 160.66 114 161.32 114 162C113.063 162.366 112.126 162.732 111.16 163.109C107.926 164.493 104.952 166.148 101.934 167.953C101.036 168.489 100.138 169.026 99.2129 169.578C97.3528 170.699 95.4987 171.829 93.6504 172.969C86.7936 177.031 86.7936 177.031 82.3477 176.859C81.5729 176.576 80.7982 176.292 80 176C81.4408 172.638 83.2475 170.408 86 168C86.66 168 87.32 168 88 168C88.2475 167.423 88.495 166.845 88.75 166.25C90.183 163.671 91.7842 161.939 94 160C94.66 160 95.32 160 96 160C96.2475 159.423 96.495 158.845 96.75 158.25C98.183 155.671 99.7842 153.939 102 152C102.66 152 103.32 152 104 152C104.248 151.423 104.495 150.845 104.75 150.25C106.183 147.671 107.784 145.939 110 144C110.66 144 111.32 144 112 144C112.248 143.423 112.495 142.845 112.75 142.25C114.183 139.671 115.784 137.939 118 136C118.66 136 119.32 136 120 136C120.248 135.423 120.495 134.845 120.75 134.25C122.183 131.671 123.784 129.939 126 128C126.66 128 127.32 128 128 128C128.236 127.426 128.472 126.853 128.715 126.262C130.288 123.493 132.148 121.887 134.562 119.812C138.985 115.972 142.984 111.913 146.895 107.555C149 106 149 106 151.223 105.953Z" fill="#F33749"/>
<path d="M313 340C315.64 340 318.28 340 321 340C321 341.98 321 343.96 321 346C321.66 346 322.32 346 323 346C323.227 345.381 323.454 344.763 323.688 344.125C325.502 341.187 326.639 340.84 330 340C335.525 339.382 340.726 339.283 345.461 342.492C350.359 347.291 352.304 353.268 352.625 360C352.29 367.426 349.692 373.372 344.375 378.563C340.746 380.759 337.797 381.204 333.625 381.313C332.221 381.369 332.221 381.369 330.789 381.426C328 381 328 381 323 377C322.67 383.6 322.34 390.2 322 397C319.03 397 316.06 397 313 397C313 378.19 313 359.38 313 340Z" fill="#F4F4F4"/>
<path d="M267 340C269.64 340 272.28 340 275 340C275 341.98 275 343.96 275 346C275.66 346 276.32 346 277 346C277.371 345.072 277.371 345.072 277.75 344.125C279.272 341.537 280.23 341.086 283 340C287.773 339.452 292.374 339.364 296.875 341.125C302.295 345.907 305.444 350.241 306.289 357.473C306.675 364.702 305.082 370.017 301 376C296.804 380.096 293.399 381.162 287.625 381.313C286.221 381.369 286.221 381.369 284.789 381.426C282 381 282 381 277 377C276.67 383.6 276.34 390.2 276 397C273.03 397 270.06 397 267 397C267 378.19 267 359.38 267 340Z" fill="#F4F4F4"/>
<path d="M362 130C364.938 131.5 364.938 131.5 367 133C367.33 132.34 367.66 131.68 368 131C370.64 131 373.28 131 376 131C376.075 136.141 376.129 141.282 376.165 146.424C376.18 148.17 376.2 149.917 376.226 151.664C376.263 154.184 376.28 156.703 376.293 159.223C376.308 159.996 376.324 160.769 376.34 161.566C376.342 168.121 374.957 172.742 370.563 177.812C366.047 181.667 362.55 182.562 356.676 182.449C352.028 181.669 348.32 179.299 345 176C343.75 173.293 343.75 173.293 343 171C345.31 170.01 347.62 169.02 350 168C350.474 168.825 350.949 169.65 351.438 170.5C354.284 173.277 354.793 173.382 358.563 173.438C362.042 173.338 362.964 173.024 366 171C366.578 169.036 366.578 169.036 366.688 166.875C366.791 165.596 366.894 164.317 367 163C366.34 163.495 365.68 163.99 365 164.5C361.241 166.38 358.085 166.699 354 166C349.185 164.187 345.846 161.269 343 157C341.21 151.63 340.995 145.238 342.684 139.797C346.749 132.037 353.683 129.426 362 130Z" fill="#F2F2F2"/>
<path d="M467.5 341.688C471.817 344.24 474.213 347.229 476.25 351.813C478.011 359.295 477.026 365.981 474 373C470.889 376.952 467.763 379.384 463 381C455.354 381.809 449.114 381.943 443 377C437.349 369.713 437.294 362.967 438 354C439.622 348.013 443.015 344.5 448 341C454.185 338.938 461.537 338.903 467.5 341.688Z" fill="#F6F6F6"/>
<path d="M230 325C233.96 325 237.92 325 242 325C244.402 332.207 246.805 339.414 249.207 346.621C249.468 347.403 249.729 348.186 249.997 348.992C250.526 350.578 251.054 352.164 251.582 353.751C252.958 357.884 254.341 362.015 255.737 366.142C256.016 366.969 256.295 367.796 256.582 368.648C257.116 370.232 257.652 371.815 258.191 373.397C260 378.775 260 378.775 260 381C256.7 381 253.4 381 250 381C249.163 378.543 248.33 376.084 247.5 373.625C247.262 372.926 247.023 372.228 246.777 371.508C245 366.227 245 366.227 245 364C239.06 364 233.12 364 227 364C225.68 369.61 224.36 375.22 223 381C219.7 381 216.4 381 213 381C214.696 372.182 217.571 363.762 220.375 355.25C221.343 352.297 222.308 349.344 223.273 346.391C223.623 345.324 223.623 345.324 223.979 344.235C226.064 337.847 228.045 331.43 230 325Z" fill="#F4F4F4"/>
<path d="M250 114C252.5 115.688 252.5 115.688 254 117C253.028 119.43 252.348 120.764 250.156 122.25C248 123 248 123 246.141 122.32C245.517 121.926 244.893 121.531 244.25 121.125C240.137 118.902 236.636 118.031 232 119C225.544 121.292 221.096 123.808 218 130C216.249 135.252 215.943 141.061 217.836 146.324C220.697 151.364 224.501 155.041 230 157C235.735 157.852 240.352 157.838 245.562 155.188C246.367 154.466 247.171 153.744 248 153C248.866 152.319 248.866 152.319 249.75 151.625C251.528 149.313 252.122 146.759 253 144C251.784 144.012 250.569 144.023 249.316 144.035C247.732 144.045 246.147 144.054 244.562 144.063C243.359 144.075 243.359 144.075 242.131 144.088C240.087 144.097 238.043 144.052 236 144C235.505 143.505 235.505 143.505 235 143C235 140.36 235 137.72 235 135C243.58 135 252.16 135 261 135C261 150.038 261 150.038 256.375 157.688C249.502 164.38 241.793 166.434 232.426 166.34C224.765 165.58 218.587 161.564 213.473 155.93C207.81 148.51 207.069 141.165 208 132C209.411 124.493 214.139 118.848 220.187 114.387C229.402 109.006 240.572 109.286 250 114Z" fill="#F3F3F3"/>
<path d="M442 113C467 113 467 113 473 117C477.133 121.692 478.378 124.461 478.27 130.621C477.738 135.31 475.73 138.201 472.516 141.543C465.927 146.747 457.931 145.33 450 145C450 151.6 450 158.2 450 165C447.36 165 444.72 165 442 165C442 147.84 442 130.68 442 113Z" fill="#FBFBFB"/>
<path d="M88 70C90.551 71.1165 90.551 71.1165 93.0977 72.5195C94.0534 73.0412 95.0092 73.5629 95.9939 74.1003C97.0065 74.6654 98.0192 75.2304 99.0625 75.8125C100.121 76.3949 101.179 76.9773 102.27 77.5774C118.335 86.4494 134.211 95.6465 150 105C146.224 109.516 142.324 113.813 138.125 117.938C137.627 118.431 137.13 118.924 136.617 119.432C135.414 120.623 134.207 121.812 133 123C129.271 121.441 126.893 119.147 124.048 116.307C123.569 115.832 123.091 115.357 122.598 114.867C121.024 113.302 119.457 111.729 117.891 110.156C116.798 109.065 115.705 107.974 114.612 106.883C112.326 104.6 110.043 102.313 107.763 100.024C104.835 97.0847 101.899 94.1546 98.9592 91.2271C96.7028 88.9779 94.4513 86.7241 92.2012 84.4688C91.1197 83.386 90.0368 82.3047 88.9523 81.2249C87.4415 79.7192 85.9373 78.2072 84.4346 76.6934C83.5762 75.8334 82.7177 74.9733 81.8333 74.0873C80 72 80 72 80 70C82.9324 68.5338 84.8448 69.2887 88 70Z" fill="#03EE78"/>
<path d="M292.277 132.797C296.309 135.613 298.692 139.314 300 144C300.625 150.35 299.624 154.705 296 160C291.648 164.241 287.595 166.08 281.562 166.312C276.49 166.161 272.984 165.011 269.336 161.312C264.447 155.751 263.652 152.446 263.715 144.984C264.093 141.027 265.359 138.934 268 136C268.639 135.258 269.279 134.515 269.937 133.75C276.552 128.137 285.021 128.7 292.277 132.797Z" fill="#F2F2F2"/>
<path d="M327.687 131.187C332.467 133.803 335.962 136.896 338 142C338.301 144.84 338.301 144.84 338.312 147.937C338.329 148.957 338.346 149.977 338.363 151.027C337.667 156.725 334.193 160.306 330 164C325.616 166.558 320.941 166.543 316 166C310.558 164.186 307.222 160.617 304 156C302.077 150.232 301.979 144.12 304.625 138.625C311.352 131.189 317.731 127.981 327.687 131.187Z" fill="#F3F3F3"/>
<path d="M538.562 341.5C544.702 347.797 546 354.329 546 363C537.09 363 528.18 363 519 363C520.345 369.461 520.345 369.461 522.578 371.926C526.273 373.565 529.761 373.317 533.75 373.188C534.543 373.174 535.336 373.16 536.152 373.146C538.102 373.111 540.051 373.057 542 373C542.495 375.97 542.495 375.97 543 379C539.243 381.443 535.456 381.332 531.125 381.313C530.43 381.329 529.735 381.345 529.02 381.361C524.251 381.366 521.04 380.511 517 378C511.68 372.559 509.933 368.052 509.688 360.563C509.857 352.751 512.721 347.536 518 342C523.835 338.209 532.408 338.909 538.562 341.5Z" fill="#F1F1F1"/>
<path d="M401 326C400.477 328.763 399.891 331.326 399 334C398.198 333.76 398.198 333.76 397.379 333.516C394.527 332.897 391.855 332.793 388.938 332.75C387.895 332.724 386.852 332.698 385.777 332.672C383.015 332.783 383.015 332.783 381.141 334.254C379.732 336.41 379.687 337.635 379.812 340.187C379.874 341.446 379.936 342.704 380 344C380.69 344.262 381.379 344.523 382.09 344.793C385.346 346.143 388.439 347.68 391.562 349.312C392.678 349.886 393.793 350.46 394.941 351.051C398.684 353.436 401.019 356.038 403 360C403.553 365.042 403.581 368.898 401.188 373.438C400.105 374.706 400.105 374.706 399 376C398.546 376.577 398.093 377.155 397.625 377.75C393.051 381.268 387.479 381.338 381.938 381.312C381.243 381.329 380.549 381.345 379.834 381.361C375.363 381.366 372.599 380.659 369 378C369.33 375.69 369.66 373.38 370 371C372.763 371.523 375.326 372.109 378 373C379.643 373.118 381.291 373.175 382.938 373.188C384.219 373.209 384.219 373.209 385.527 373.23C388.176 372.984 389.766 372.424 392 371C393.564 367.871 393.356 365.444 393 362C389.68 358.843 386.136 356.967 382 355.062C377.441 352.842 374.13 350.993 371 347C369.529 342.588 369.165 338.596 370 334C372.371 329.959 375.398 327.039 379.312 324.5C386.763 323.114 393.748 324.038 401 326Z" fill="#F6F6F6"/>
<path d="M517.375 131.187C521.254 133.866 523.508 136.524 525 141C525.082 142.846 525.107 144.695 525.098 146.543C525.094 147.616 525.091 148.689 525.088 149.795C525.08 150.914 525.071 152.034 525.063 153.187C525.058 154.319 525.054 155.45 525.049 156.615C525.037 159.41 525.021 162.205 525 165C522.36 165 519.72 165 517 165C516.67 164.34 516.34 163.68 516 163C515.154 163.495 514.309 163.99 513.438 164.5C509.519 166.21 507.232 166.529 503 166C498.656 163.744 495.942 161.532 494 157C493.58 153.636 493.795 151.54 495 148.375C497.813 145.035 500.884 143.392 505 142C508.902 141.675 512.265 141.805 516 143C515.513 140.936 515.513 140.936 514 139C510.084 138.057 506.836 137.619 503 139C503 139.66 503 140.32 503 141C500.237 140.477 497.674 139.891 495 139C495.924 135.305 496.938 134.048 500 131.687C505.625 128.798 511.53 129.131 517.375 131.187Z" fill="#F3F3F3"/>
<path d="M151.41 105.777C155.282 107.605 158.958 109.666 162.625 111.875C163.388 112.322 164.151 112.77 164.938 113.23C171.596 117.19 171.596 117.19 174 120C174.688 122.812 174.688 122.812 174 126C171.701 128.548 168.907 130.21 166 132C165.443 132.349 164.886 132.699 164.312 133.059C162.469 134.206 160.614 135.326 158.75 136.438C158.148 136.804 157.546 137.171 156.925 137.548C152.605 140.037 152.605 140.037 149.723 139.859C146.944 138.473 145.134 136.234 143 134C141.801 132.968 140.592 131.947 139.375 130.938C136.867 128.823 134.809 126.767 133 124C135.094 119.377 138.289 116.269 141.812 112.688C142.429 112.029 143.046 111.371 143.682 110.693C148.226 106.071 148.226 106.071 151.41 105.777Z" fill="#FBC903"/>
<path d="M414.937 130.719C418.873 132.822 421.62 135.248 424 139C424.375 140.658 424.715 142.324 425 144C421.544 145.506 418.085 147.004 414.625 148.5C413.64 148.929 412.655 149.359 411.641 149.801C410.229 150.41 410.229 150.41 408.789 151.031C407.92 151.408 407.05 151.785 406.155 152.174C404 153 404 153 402 153C403.165 155.075 403.165 155.075 405 157C407.399 157.595 407.399 157.595 410 157.438C410.866 157.436 411.732 157.435 412.625 157.434C415.376 156.931 416.272 156.142 418 154C422.75 155.875 422.75 155.875 425 157C423.494 161.218 420.76 162.775 417 165C412.228 166.591 407.519 167.025 402.773 165.094C398.308 162.484 395.042 159.849 393 155C392.289 148.772 392.012 143.123 394.687 137.375C400.406 131.502 406.601 127.626 414.937 130.719Z" fill="#F3F3F3"/>
<path d="M591 43C594.458 44.1526 594.806 44.8053 596.625 47.8125C597.05 48.4996 597.476 49.1866 597.914 49.8945C599.914 53.772 600.128 57.2686 600.147 61.597C600.154 62.7367 600.161 63.8764 600.169 65.0507C600.173 66.9201 600.173 66.9201 600.177 68.8274C600.184 70.1432 600.19 71.459 600.197 72.8147C600.218 77.1747 600.228 81.5346 600.238 85.8945C600.242 87.3976 600.246 88.9006 600.251 90.4037C600.27 97.465 600.284 104.526 600.292 111.588C600.302 119.73 600.328 127.873 600.369 136.016C600.399 142.316 600.414 148.616 600.417 154.916C600.419 158.676 600.428 162.435 600.453 166.196C600.477 169.734 600.481 173.272 600.471 176.811C600.47 178.722 600.489 180.632 600.509 182.543C600.458 190.987 599.111 195.066 593.875 201.688C590.007 204.799 585.825 206.792 581 208C578.691 207.602 578.691 207.602 577 207C577.987 204.462 578.561 203.241 580.988 201.91C581.755 201.63 582.522 201.351 583.312 201.062C588.263 199.025 591.728 196.646 594.113 191.684C595.07 188.787 595.252 186.532 595.254 183.486C595.26 182.39 595.265 181.294 595.271 180.164C595.267 178.972 595.263 177.779 595.259 176.55C595.262 175.286 595.266 174.022 595.269 172.72C595.279 169.259 595.275 165.798 595.269 162.337C595.264 158.707 595.268 155.077 595.271 151.447C595.275 145.347 595.27 139.248 595.261 133.148C595.25 126.113 595.253 119.078 595.264 112.043C595.273 105.991 595.275 99.9388 595.27 93.8868C595.266 90.2776 595.266 86.6685 595.273 83.0594C595.279 79.0288 595.27 74.9984 595.259 70.9678C595.263 69.783 595.267 68.5983 595.271 67.3777C595.227 58.6733 593.94 51.1906 591 43Z" fill="#ABABAB"/>
<path d="M526 131C528.64 131 531.28 131 534 131C534.753 132.624 535.502 134.249 536.25 135.875C536.668 136.78 537.085 137.685 537.516 138.617C539.453 143.032 541.21 147.524 543 152C545.97 145.07 548.94 138.14 552 131C554.97 131 557.94 131 561 131C559.318 136.406 557.135 141.544 554.902 146.738C554.508 147.66 554.114 148.581 553.707 149.53C552.877 151.468 552.046 153.405 551.214 155.342C549.935 158.318 548.662 161.297 547.389 164.275C546.581 166.159 545.773 168.042 544.965 169.926C544.583 170.82 544.2 171.715 543.806 172.637C543.453 173.458 543.099 174.28 542.734 175.126C542.423 175.852 542.111 176.578 541.79 177.326C541 179 541 179 540 180C537.329 180.141 534.676 180.042 532 180C532.771 175.054 534.788 171.146 537.039 166.719C538.794 161.754 536.587 157.748 534.496 153.148C533.756 151.501 533.756 151.501 533.002 149.82C531.955 147.515 530.908 145.211 529.861 142.906C529.37 141.811 528.878 140.715 528.371 139.586C527.917 138.586 527.462 137.586 526.994 136.556C526 134 526 134 526 131Z" fill="#F4F4F4"/>
<path d="M423 331C423 333.97 423 336.94 423 340C426.3 340 429.6 340 433 340C433 342.31 433 344.62 433 347C429.7 347 426.4 347 423 347C423.141 350.771 423.287 354.542 423.438 358.312C423.477 359.384 423.516 360.456 423.557 361.561C423.619 363.103 423.619 363.103 423.684 364.676C423.72 365.624 423.757 366.572 423.795 367.548C423.914 370.136 423.914 370.136 425 373C428.465 373.495 428.465 373.495 432 374C432 376.31 432 378.62 432 381C421.08 381.784 421.08 381.784 416.812 378.688C414.093 374.656 413.879 371.776 413.902 367.02C413.906 365.856 413.909 364.693 413.912 363.494C413.92 362.279 413.929 361.064 413.938 359.812C413.942 358.586 413.947 357.359 413.951 356.096C413.963 353.064 413.979 350.032 414 347C412.02 347 410.04 347 408 347C408 344.69 408 342.38 408 340C409.98 340 411.96 340 414 340C414 337.69 414 335.38 414 333C417.371 331.502 419.204 331 423 331Z" fill="#F8F8F8"/>
<path d="M338 68C342.124 69.7808 344.796 72.0826 347 76C347.844 80.6583 348.11 85.0096 345.754 89.2344C343.296 92.2004 341.702 93.7658 338 95C333.27 95.3877 330.944 95.4812 326.687 93.3125C323.33 90.4236 321.356 88.3721 320.684 83.8906C320.4 78.4473 321.294 75.2064 325 71C329.043 67.6309 332.932 67.2481 338 68Z" fill="#EBEBEB"/>
<path d="M218 278C232.762 277.582 232.762 277.582 238 281C240.327 284.118 240.298 287.123 240.312 290.938C240.329 291.957 240.346 292.977 240.363 294.027C239.949 297.418 239 299.256 237 302C230.887 306.665 226.494 305 218 305C218 296.09 218 287.18 218 278Z" fill="#F2F2F2"/>
<path d="M460 346C463.49 348.221 465.489 350.172 467 354C467.687 360.41 467.884 366.59 464 372C461.657 374.424 460.413 374.939 457.062 375.438C453.219 374.888 451.692 373.767 449 371C446.298 365.501 446.326 360.005 447 354C449.349 347.948 453.569 345.228 460 346Z" fill="#070707"/>
<path d="M336 347C339.031 348.779 340.55 350.229 342.312 353.25C344 360.002 343.29 365.008 340 371C337.444 373.934 335.999 374 332.062 374.5C328.584 374.377 327.988 373.991 325.062 371.688C321.157 366.598 321.484 361.179 322 355C323.312 352 323.312 352 325 350C325.392 349.402 325.784 348.804 326.187 348.188C329.252 346.18 332.52 346.388 336 347Z" fill="#0A0A0A"/>
<path d="M290 347C293.73 349.901 295.572 352.546 297 357C297.224 362.202 296.826 366.668 294.063 371.125C290.835 374.059 288.417 374.395 284.039 374.355C280.587 373.754 279.058 371.682 277 369C275.184 363.551 275.032 357.324 277.25 352C281.221 347.462 283.785 346.128 290 347Z" fill="#090909"/>
<path d="M107 147C107.66 147.66 108.32 148.32 109 149C109.66 148.67 110.32 148.34 111 148C111.33 149.65 111.66 151.3 112 153C113.217 152.794 114.434 152.588 115.688 152.375C119.348 151.9 121.676 152.234 125 154C123.731 156.538 122.584 156.894 120.062 158.125C119.352 158.478 118.642 158.831 117.91 159.195C116 160 116 160 114 160C114 160.66 114 161.32 114 162C113.063 162.366 112.126 162.732 111.16 163.109C107.926 164.493 104.952 166.148 101.934 167.953C101.036 168.489 100.138 169.026 99.2129 169.578C97.3528 170.699 95.4987 171.829 93.6504 172.969C86.7936 177.031 86.7936 177.031 82.3477 176.859C81.5729 176.576 80.7982 176.292 80 176C81.4408 172.638 83.2475 170.408 86 168C86.66 168 87.32 168 88 168C88.2475 167.423 88.495 166.845 88.75 166.25C90.183 163.671 91.7842 161.939 94 160C94.66 160 95.32 160 96 160C96.2475 159.423 96.495 158.845 96.75 158.25C98.183 155.671 99.7842 153.939 102 152C102.66 152 103.32 152 104 152C104.309 151.361 104.619 150.721 104.938 150.062C106 148 106 148 107 147Z" fill="#E12A51"/>
<path d="M482 112C484.64 112 487.28 112 490 112C490 129.49 490 146.98 490 165C487.36 165 484.72 165 482 165C482 147.51 482 130.02 482 112Z" fill="#FAFAFA"/>
<path d="M381 112C383.64 112 386.28 112 389 112C389 129.49 389 146.98 389 165C386.36 165 383.72 165 381 165C381 147.51 381 130.02 381 112Z" fill="#F3F3F3"/>
<path d="M506 339C506 341.97 506 344.94 506 348C504.742 348.268 503.484 348.536 502.188 348.813C499.01 349.61 496.914 350.185 495 353C493.984 356.048 493.802 358.347 493.684 361.543C493.642 362.616 493.6 363.689 493.557 364.795C493.498 366.474 493.498 366.474 493.438 368.188C493.394 369.319 493.351 370.45 493.307 371.615C493.201 374.41 493.098 377.205 493 380C490.36 380 487.72 380 485 380C485 367.13 485 354.26 485 341C487.31 341 489.62 341 492 341C492.33 342.65 492.66 344.3 493 346C493.866 344.824 493.866 344.824 494.75 343.625C498.253 339.538 500.667 338.704 506 339Z" fill="#F8F8F8"/>
<path d="M400 277C401.32 277 402.64 277 404 277C404 286.24 404 295.48 404 305C402.35 304.67 400.7 304.34 399 304C398.01 304.66 397.02 305.32 396 306C392.339 305.844 390.518 305.434 387.687 303.062C385.215 300.041 384.829 298.518 385.125 294.688C385.575 291.153 386.031 289.956 388.187 286.938C391.5 284.656 393.059 284.4 397 285C397.99 285.66 398.98 286.32 400 287C400 283.7 400 280.4 400 277Z" fill="#F3F3F3"/>
<path d="M286 138C289.61 140.535 290.769 142.205 292 146.437C292 150.531 291.22 152.591 289 156C284.994 158.671 281.71 158.707 277 158C273.968 155.802 273.183 154.55 272 151C271.611 146.8 271.541 144.704 273.875 141.125C277.462 137.538 281.081 137.18 286 138Z" fill="#070707"/>
<path d="M435 285C438.203 286.352 439.595 287.286 441.313 290.313C442.115 293.45 442.403 295.774 442 299C440.2 301.7 438.916 303.542 436 305C431.621 305.516 428.15 305.833 424.5 303.188C421.762 299.194 421.591 295.745 422 291C425.724 285.29 428.279 284.544 435 285Z" fill="#EDEDED"/>
<path d="M450 120C464.196 119.33 464.196 119.33 467.875 122.125C470 125 470 125 470.562 128C469.934 131.351 469.091 133.312 467 136C463.494 138.354 460.392 138.208 456.25 138.125C453.156 138.063 453.156 138.063 450 138C450 132.06 450 126.12 450 120Z" fill="#0B0B0B"/>
<path d="M260 285C263.551 288.033 264.838 289.864 265.5 294.5C264.963 298.26 263.993 300.78 262 304C258.274 305.863 254.058 305.55 250 305C246.944 302.817 246.233 301.272 245.562 297.617C245.314 294.147 245.224 291.275 247.07 288.242C251.14 284.35 254.764 284.086 260 285Z" fill="#F0F0F0"/>
<path d="M322.84 137.492C326.577 138.371 327.97 139.791 330 143C330.825 147.43 330.502 150.905 328.625 155C326.802 157.244 325.846 157.869 323.012 158.309C318.429 158.563 316.617 158.503 312.938 155.5C310.847 152.411 310.25 149.672 310.527 145.969C312.089 139.462 316.361 136.995 322.84 137.492Z" fill="#040404"/>
<path d="M352 285C354.753 286.796 356.526 288.053 358 291C358.351 296.347 358.444 299.629 355 304C351.553 305.724 347.77 305.503 344 305C341.498 303.124 340.381 301.761 339 299C338.419 291.91 338.419 291.91 340.875 288.062C344.479 284.564 347.032 284.579 352 285Z" fill="#F4F4F4"/>
<path d="M154 275C153.837 282.23 152.649 287.355 148 293C144.064 296.734 139.651 299.827 134.125 300.188C133.073 300.095 133.073 300.095 132 300C131.279 293.364 133.251 288.483 137 283C141.729 278.271 147.169 275 154 275Z" fill="#F3F3F3"/>
<path d="M361.063 137.531C364.713 138.414 366.003 139.88 368 143C368.695 146.477 368.708 149.524 368 153C365.589 156.475 363.989 157.67 360 159C356.374 159 354.839 158.208 352 156C349.166 151.749 349.245 147.988 350 143C352.924 138.431 355.805 137.133 361.063 137.531Z" fill="#060606"/>
<path d="M351 68C356 68 356 68 357.486 69.4688C358.075 70.4742 358.075 70.4742 358.676 71.5C359.111 72.2219 359.546 72.9438 359.994 73.6875C360.429 74.4506 360.864 75.2138 361.312 76C361.767 76.7631 362.221 77.5263 362.689 78.3125C363.809 80.1987 364.907 82.0982 366 84C366.33 78.72 366.66 73.44 367 68C368.32 68 369.64 68 371 68C371 76.58 371 85.16 371 94C366 93 366 93 364.514 91.4177C364.122 90.7526 363.729 90.0876 363.324 89.4023C362.889 88.6837 362.454 87.965 362.006 87.2246C361.571 86.4699 361.136 85.7151 360.688 84.9375C360.233 84.1789 359.779 83.4203 359.311 82.6387C358.193 80.7676 357.094 78.8849 356 77C355.67 82.61 355.34 88.22 355 94C353.68 94 352.36 94 351 94C351 85.42 351 76.84 351 68Z" fill="#E8E8E8"/>
<path d="M226 68C229 69.3125 229 69.3125 231 71C231 71.99 231 72.98 231 74C229.68 74 228.36 74 227 74C226.67 73.67 226.34 73.34 226 73C221.686 72.5022 219.665 72.5328 216.062 75.0625C213.765 77.8961 213.765 77.8961 213.375 81.5C214.171 85.9585 215.308 87.4078 219 90C222.543 90.7501 222.543 90.7501 226 90C228.365 88.1329 229.66 86.6794 231 84C228.03 84 225.06 84 222 84C222 82.68 222 81.36 222 80C226.29 80 230.58 80 235 80C235.418 83.4179 235.626 85.9881 233.769 88.9883C231.266 91.9743 229.762 93.7459 226 95C221.27 95.3877 218.944 95.4812 214.687 93.3125C211.33 90.4236 209.356 88.3721 208.684 83.8906C208.4 78.4473 209.294 75.2064 213 71C217.035 67.6378 220.94 67.2349 226 68Z" fill="#EEEEEE"/>
<path d="M337 72C340.56 74.0435 342.502 75.1657 343.586 79.1602C343.817 82.4502 343.738 84.9136 341.852 87.6914C339.391 89.9761 337.212 90.961 333.937 91.5625C330.095 90.8267 328.555 89.9929 326 87C325.02 83.9459 324.692 81.1947 325 78C328.178 72.7402 330.909 71.2972 337 72Z" fill="#050505"/>
<path d="M269 285C270.65 285 272.3 285 274 285C274.99 289.29 275.98 293.58 277 298C277.33 298 277.66 298 278 298C278.99 294.04 279.98 290.08 281 286C282.65 285.67 284.3 285.34 286 285C286.205 285.71 286.41 286.421 286.621 287.152C286.891 288.071 287.16 288.991 287.438 289.938C287.704 290.854 287.971 291.771 288.246 292.715C288.79 294.94 288.79 294.94 290 296C290.99 292.37 291.98 288.74 293 285C294.65 285 296.3 285 298 285C296.221 291.751 294.296 298.406 292 305C290.35 304.67 288.7 304.34 287 304C285.515 299.05 285.515 299.05 284 294C282.332 296.502 281.376 298.411 280.375 301.188C280.115 301.903 279.854 302.618 279.586 303.355C279.393 303.898 279.199 304.441 279 305C277.68 305 276.36 305 275 305C274.186 302.417 273.374 299.834 272.562 297.25C272.332 296.52 272.102 295.791 271.865 295.039C271.643 294.33 271.421 293.621 271.191 292.891C270.987 292.241 270.783 291.592 270.573 290.923C269.988 288.961 269.482 286.99 269 285Z" fill="#EAEAEA"/>
<path d="M88 70C90.8367 71.2593 90.8367 71.2593 93.7305 72.8359C94.7804 73.4057 95.8304 73.9755 96.9121 74.5625C97.993 75.1606 99.0739 75.7587 100.188 76.375C101.826 77.2606 101.826 77.2606 103.498 78.1641C112.304 82.9823 112.304 82.9823 115 86C113.02 85.67 111.04 85.34 109 85C109 84.34 109 83.68 109 83C108.01 83 107.02 83 106 83C106 83.66 106 84.32 106 85C106.66 85.66 107.32 86.32 108 87C106.886 87.2887 105.773 87.5775 104.625 87.875C100.997 88.6924 100.997 88.6924 99 91C95.8253 87.8831 92.6616 84.7552 89.5 81.625C88.5938 80.7355 87.6876 79.8461 86.7539 78.9297C85.4681 77.6535 85.4681 77.6535 84.1562 76.3516C83.3603 75.566 82.5643 74.7805 81.7441 73.9712C80 72 80 72 80 70C82.9443 68.5279 84.8288 69.2744 88 70Z" fill="#0BE67A"/>
<path d="M374 285C376.761 286.017 377.681 286.362 379 289C379.072 291.718 379.093 294.409 379.062 297.125C379.058 297.879 379.053 298.633 379.049 299.41C379.037 301.273 379.019 303.137 379 305C378.064 304.987 377.128 304.974 376.164 304.961C373.063 304.883 373.063 304.883 370.375 305.625C368 306 368 306 365.75 305.5C364 304 364 304 362.875 300.688C363 297 363 297 365.625 294.063C368.931 292.042 370.252 291.449 374 292C373.67 291.01 373.34 290.02 373 289C370.36 289 367.72 289 365 289C365 288.01 365 287.02 365 286C368.024 284.488 370.662 284.827 374 285Z" fill="#F6F6F6"/>
<path d="M238 68C243.28 68 248.56 68 254 68C254 69.65 254 71.3 254 73C250.04 73 246.08 73 242 73C242 74.98 242 76.96 242 79C245.3 79 248.6 79 252 79C252 80.32 252 81.64 252 83C248.7 83 245.4 83 242 83C242 85.64 242 88.28 242 91C245.63 91 249.26 91 253 91C253 91.99 253 92.98 253 94C248.05 94 243.1 94 238 94C238 85.42 238 76.84 238 68Z" fill="#E2E2E2"/>
<path d="M223 281C230 281 230 281 232.875 282.875C235.587 285.587 235.953 286.391 236.25 290.25C235.976 294.357 235.294 296.598 233 300C229.33 302.125 227.418 302 223 302C223 295.07 223 288.14 223 281Z" fill="#080808"/>
<path d="M501 277C502.32 277 503.64 277 505 277C505.33 279.97 505.66 282.94 506 286C507.052 285.732 508.104 285.464 509.188 285.188C513 285 513 285 515.719 287C518.524 290.689 518.588 293.379 518.312 297.812C518.29 298.505 518.267 299.198 518.244 299.912C518.186 301.609 518.096 303.305 518 305C516.35 305 514.7 305 513 305C512.67 300.05 512.34 295.1 512 290C510.35 290 508.7 290 507 290C505.059 291.941 505.601 295.473 505.438 298.062C505.354 299.353 505.27 300.643 505.184 301.973C505.123 302.972 505.062 303.971 505 305C503.68 305 502.36 305 501 305C501 295.76 501 286.52 501 277Z" fill="#FBFBFB"/>
<path d="M536 285C538.875 286.563 538.875 286.563 541 289C541.313 292.75 541.313 292.75 541 296C536.71 296 532.42 296 528 296C528.99 297.65 529.98 299.3 531 301C533.273 301.602 533.273 301.602 535.688 301.313C536.496 301.267 537.304 301.222 538.137 301.176C538.752 301.118 539.367 301.06 540 301C539.67 302.32 539.34 303.64 539 305C529.858 305.628 529.858 305.628 526.438 303.125C523.774 299.188 523.326 295.691 524 291C527.346 285.758 529.81 284.393 536 285Z" fill="#F6F6F6"/>
<path d="M107 147C107.66 147.66 108.32 148.32 109 149C109.66 148.67 110.32 148.34 111 148C111.33 149.65 111.66 151.3 112 153C113.217 152.794 114.434 152.588 115.688 152.375C119.348 151.9 121.676 152.234 125 154C123.731 156.538 122.584 156.894 120.062 158.125C119.352 158.478 118.642 158.831 117.91 159.195C116 160 116 160 114 160C114 160.66 114 161.32 114 162C108.375 164.125 108.375 164.125 105 163C103.812 160.938 103.812 160.938 103 159C102.103 159.278 102.103 159.278 101.188 159.562C99 160 99 160 96 159C96.9512 157.827 97.9112 156.662 98.875 155.5C99.6755 154.525 99.6755 154.525 100.492 153.531C100.99 153.026 101.487 152.521 102 152C102.66 152 103.32 152 104 152C104.309 151.361 104.619 150.721 104.938 150.062C106 148 106 148 107 147Z" fill="#E53151"/>
<path d="M303 285C304.32 285 305.64 285 307 285C307.33 285.66 307.66 286.32 308 287C308.66 286.34 309.32 285.68 310 285C313.133 284.659 315.287 284.681 318.18 285.977C321.071 289.19 320.427 292.53 320.25 296.688C320.232 297.485 320.214 298.282 320.195 299.104C320.148 301.07 320.076 303.035 320 305C318.68 305 317.36 305 316 305C315.67 300.05 315.34 295.1 315 290C312.03 289.505 312.03 289.505 309 289C308.67 294.28 308.34 299.56 308 305C306.35 305 304.7 305 303 305C303 298.4 303 291.8 303 285Z" fill="#DEDEDE"/>
<path d="M256 68C262.27 68 268.54 68 275 68C275 69.65 275 71.3 275 73C272.69 73 270.38 73 268 73C268 79.93 268 86.86 268 94C266.35 94 264.7 94 263 94C263 87.07 263 80.14 263 73C260.69 73 258.38 73 256 73C256 71.35 256 69.7 256 68Z" fill="#CDCDCD"/>
<path d="M293 68C299.27 68 305.54 68 312 68C312 69.65 312 71.3 312 73C309.69 73 307.38 73 305 73C305 79.93 305 86.86 305 94C303.35 94 301.7 94 300 94C300 87.07 300 80.14 300 73C298.02 73 296.04 73 294 73C293.67 71.35 293.34 69.7 293 68Z" fill="#CDCDCD"/>
<path d="M448 285C450.475 285.495 450.475 285.495 453 286C453.66 285.67 454.32 285.34 455 285C458.432 284.627 460.297 284.515 463.18 286.504C465.717 289.983 465.439 293.125 465.25 297.25C465.232 297.995 465.214 298.74 465.195 299.508C465.148 301.339 465.077 303.17 465 305C463.68 305 462.36 305 461 305C460.939 304.001 460.879 303.002 460.816 301.973C460.691 300.037 460.691 300.037 460.562 298.063C460.481 296.775 460.4 295.487 460.316 294.16C460.351 291.14 460.351 291.14 459 290C457.334 289.959 455.666 289.957 454 290C452.584 292.833 452.654 295.475 452.438 298.625C452.354 299.814 452.27 301.002 452.184 302.227C452.123 303.142 452.062 304.057 452 305C450.68 305 449.36 305 448 305C448 298.4 448 291.8 448 285Z" fill="#F5F5F5"/>
<path d="M235 334C235.66 334 236.32 334 237 334C239.235 341.626 241.389 349.214 243 357C238.38 357 233.76 357 229 357C230.611 349.214 232.765 341.626 235 334Z" fill="#0F0F0F"/>
<path d="M486 281C487.32 281 488.64 281 490 281C490 282.32 490 283.64 490 285C491.65 285 493.3 285 495 285C495 286.32 495 287.64 495 289C493.35 289 491.7 289 490 289C490.33 292.96 490.66 296.92 491 301C491.99 301.33 492.98 301.66 494 302C494 302.99 494 303.98 494 305C491.69 305 489.38 305 487 305C484.857 301.523 484.787 298.788 484.875 294.75C484.893 293.672 484.911 292.595 484.93 291.484C484.953 290.665 484.976 289.845 485 289C484.01 289 483.02 289 482 289C482 287.68 482 286.36 482 285C482.99 285 483.98 285 485 285C485.33 283.68 485.66 282.36 486 281Z" fill="#DCDCDC"/>
<path d="M531 346C533.716 346.881 534.669 347.503 536.25 349.875C537 352 537 352 537 356C531.06 356 525.12 356 519 356C520 350 520 350 521.625 347.625C524.91 345.377 527.096 345.582 531 346Z" fill="#090909"/>
<path d="M34 271C34.33 271 34.66 271 35 271C35 312.25 35 353.5 35 396C34.34 395.67 33.68 395.34 33 395C33.33 354.08 33.66 313.16 34 271Z" fill="#FDFDFE"/>
<path d="M349.562 288.063C352 289 352 289 353.375 290.625C354.263 293.998 353.75 296.625 353 300C351 302 351 302 348.562 302.375C346 302 346 302 344.125 300.438C342.511 296.942 343.064 294.677 344 291C345.709 288.265 346.324 287.984 349.562 288.063Z" fill="#141414"/>
<path d="M374 290C374.33 290.99 374.66 291.98 375 293C373.02 293.99 373.02 293.99 371 295C372.32 295 373.64 295 375 295C375.566 299.814 373.826 302.203 371 306C368.125 305.75 368.125 305.75 365 305C363.127 302.719 362.989 301.435 363.063 298.5C364.336 295.103 365.932 293.883 369 292C371.813 291.75 371.813 291.75 374 292C374 291.34 374 290.68 374 290Z" fill="#DEDEDE"/>
<path d="M432.563 288.125C435 289 435 289 437 292C437.546 298.11 437.546 298.11 435.813 300.938C433.355 302.378 431.798 302.431 429 302C426.463 298.195 426.407 295.461 427 291C428.633 288.164 429.299 287.966 432.563 288.125Z" fill="#0F0F0F"/>
<path d="M253 288C257.75 288.75 257.75 288.75 260 291C260.464 298.304 260.464 298.304 258 302C255.562 302.438 255.562 302.438 253 302C250.491 299.75 250.043 298.347 249.625 295C250.034 291.732 250.796 290.388 253 288Z" fill="#101010"/>
<path d="M396.687 288.688C399 290 399 290 400 292C400.303 295.49 400.395 297.375 398.5 300.375C398.005 300.911 397.51 301.448 397 302C392.25 301.25 392.25 301.25 390 299C389.32 291.857 389.32 291.857 391.687 288.875C394 288 394 288 396.687 288.688Z" fill="#121212"/>
<path d="M508 285C514.434 285.486 514.434 285.486 516.719 287.562C518.491 290.934 518.324 294.044 518.188 297.75C518.174 298.447 518.16 299.145 518.146 299.863C518.111 301.576 518.057 303.288 518 305C516.35 305 514.7 305 513 305C512.67 300.05 512.34 295.1 512 290C509.03 289.505 509.03 289.505 506 289C506.66 287.68 507.32 286.36 508 285Z" fill="#EDEDED"/>
<path d="M328 277C329.32 277 330.64 277 332 277C332 286.24 332 295.48 332 305C330.68 305 329.36 305 328 305C328 295.76 328 286.52 328 277Z" fill="#FEFEFE"/>
<path d="M510 148.812C510.681 148.819 511.361 148.825 512.062 148.832C514 149 514 149 517 150C516.5 153.701 515.985 155.684 513 158C510.809 158.363 510.809 158.363 508.438 158.312C507.652 158.309 506.867 158.305 506.059 158.301C504 158 504 158 502 156C502.188 153.5 502.188 153.5 503 151C506.025 148.983 506.611 148.742 510 148.812Z" fill="#0C0C0C"/>
<path d="M286 68C287.32 68 288.64 68 290 68C290 76.58 290 85.16 290 94C288.68 94 287.36 94 286 94C286 85.42 286 76.84 286 68Z" fill="#ECECEC"/>
<path d="M55 38C55.66 39.32 56.32 40.64 57 42C56.4212 42.281 55.8424 42.562 55.2461 42.8516C48.9426 46.0746 43.0174 49.9826 38 55C37.34 55 36.68 55 36 55C38.2362 48.9793 40.574 44.6625 46 41C46.99 41 47.98 41 49 41C49 40.34 49 39.68 49 39C50.98 38.67 52.96 38.34 55 38Z" fill="#ADADAD"/>
<path d="M226 68C229 69.3125 229 69.3125 231 71C231 71.99 231 72.98 231 74C229.68 74 228.36 74 227 74C226.67 73.67 226.34 73.34 226 73C220.846 72.6036 218.296 73.2555 214 76C213.01 75.67 212.02 75.34 211 75C211.996 72.3755 212.94 71.0497 215.125 69.25C218.88 67.6176 221.965 67.3898 226 68Z" fill="#E7E7E7"/>
<path d="M410.75 137C414 138 414 138 416 141C413.71 142.004 411.418 143.004 409.125 144C408.474 144.286 407.823 144.572 407.152 144.867C402.227 147 402.227 147 400 147C400.216 143.224 401.022 141.976 403.625 139.125C407 137 407 137 410.75 137Z" fill="#151515"/>
<path d="M316 286C317.32 286.66 318.64 287.32 320 288C320 293.61 320 299.22 320 305C318.68 305 317.36 305 316 305C315.951 303.94 315.902 302.881 315.852 301.789C315.777 300.401 315.701 299.013 315.625 297.625C315.594 296.926 315.563 296.228 315.531 295.508C315.405 291.298 315.405 291.298 313 288C313.99 287.34 314.98 286.68 316 286Z" fill="#FAFAFA"/>
<path d="M596 199C591.932 203.882 587.185 206.451 581 208C578.691 207.602 578.691 207.602 577 207C578.007 204.389 578.645 203.209 581.094 201.77C581.888 201.454 582.682 201.138 583.5 200.812C584.294 200.489 585.088 200.165 585.906 199.832C586.597 199.557 587.288 199.283 588 199C590.862 197.569 592.934 198.4 596 199Z" fill="#AFAFAF"/>
<path d="M514 138C515.938 139.563 515.938 139.563 517 141C516.67 141.99 516.34 142.98 516 144C515.172 143.754 515.172 143.754 514.328 143.504C511.734 142.942 509.402 142.903 506.75 142.938C505.412 142.951 505.412 142.951 504.047 142.965C503.371 142.976 502.696 142.988 502 143C502.797 139.164 502.797 139.164 504.625 137.688C508.041 136.699 510.568 137.189 514 138Z" fill="#151515"/>
<path d="M96 152C97.98 152 99.96 152 102 152C98.0571 157.885 93.8845 162.057 88 166C88 164.02 88 162.04 88 160C88.99 160 89.98 160 91 160C91.33 158.35 91.66 156.7 92 155C92.99 155 93.98 155 95 155C95.33 154.01 95.66 153.02 96 152Z" fill="#03E0F9"/>
<path d="M88 70C90.3315 71.1073 92.6242 72.2993 94.875 73.5625C96.0274 74.2032 97.1798 74.8438 98.3672 75.5039C99.6704 76.2445 99.6704 76.2445 101 77C100.01 77.33 99.02 77.66 98 78C97.34 77.5463 96.68 77.0925 96 76.625C92.1106 74.5182 88.7957 74.5926 84.4258 74.5039C83.6253 74.3376 82.8248 74.1713 82 74C80.668 71.9648 80.668 71.9648 80 70C82.9725 68.5137 84.7934 69.2381 88 70Z" fill="#10D67B"/>
<path d="M352 73C352.99 73.495 352.99 73.495 354 74C355.491 80.5602 355.091 87.3098 355 94C354.01 94 353.02 94 352 94C352 87.07 352 80.14 352 73Z" fill="#F9F9F9"/>
<path d="M168 116C170.468 117.152 172.048 118.048 174 120C174.557 125.24 174.557 125.24 172.625 127.875C171 129 171 129 169 129C168.772 127.014 168.544 125.029 168.316 123.043C168.028 120.806 168.028 120.806 167 118C167.33 117.34 167.66 116.68 168 116Z" fill="#F4D50D"/>
<path d="M84 73C86.0072 73.2867 88.0086 73.6187 90 74C90 74.99 90 75.98 90 77C90.66 77.33 91.32 77.66 92 78C91.67 78.66 91.34 79.32 91 80C92.65 80.33 94.3 80.66 96 81C95.67 82.65 95.34 84.3 95 86C90.4738 82.3217 86.6058 78.5891 83 74C83.33 73.67 83.66 73.34 84 73Z" fill="#07E081"/>
<path d="M596 401C596.99 401 597.98 401 599 401C598.555 406.04 596.287 408.376 593 412C591.68 411.34 590.36 410.68 589 410C590.65 407.36 592.3 404.72 594 402C594.66 402.33 595.32 402.66 596 403C596 402.34 596 401.68 596 401Z" fill="#B3B4B5"/>
<path d="M117 131C117.66 131 118.32 131 119 131C119.33 132.65 119.66 134.3 120 136C119.506 136.41 119.013 136.82 118.504 137.242C117.863 137.781 117.223 138.32 116.562 138.875C115.924 139.409 115.286 139.942 114.629 140.492C112.892 141.922 112.892 141.922 112 144C111.34 144 110.68 144 110 144C110 143.01 110 142.02 110 141C110.66 141 111.32 141 112 141C112.124 140.423 112.248 139.845 112.375 139.25C113.006 136.977 113.889 135.075 115 133C115.66 133 116.32 133 117 133C117 132.34 117 131.68 117 131Z" fill="#0ECBF4"/>
<path d="M375 295C375.125 297.375 375.125 297.375 375 300C373 302 373 302 370.375 302.125C369.591 302.084 368.808 302.043 368 302C367.812 299.625 367.812 299.625 368 297C371 295 371 295 375 295Z" fill="#1C1C1C"/>
<path d="M55 249C54.01 249.495 54.01 249.495 53 250C52.67 250.99 52.34 251.98 52 253C51.1338 253.124 50.2675 253.247 49.375 253.375C46.1049 253.981 43.1274 254.883 40 256C43.3608 251.026 48.7012 246.229 55 249Z" fill="#CACACC"/>
<path d="M84 163C84.99 163 85.98 163 87 163C87 163.66 87 164.32 87 165C86.34 165 85.68 165 85 165C85.2681 165.557 85.5362 166.114 85.8125 166.688C86 169 86 169 83.6875 171.75C81 174 81 174 79 174C78.67 172.02 78.34 170.04 78 168C80.97 168.495 80.97 168.495 84 169C83.7216 167.793 83.7216 167.793 83.4375 166.562C83.2931 165.717 83.1488 164.871 83 164C83.33 163.67 83.66 163.34 84 163Z" fill="#03E2FA"/>
<path d="M44.0001 253C45.3201 253.66 46.6401 254.32 48.0001 255C46.8554 255.773 46.8554 255.773 45.6876 256.562C42.3843 259.558 41.5138 261.857 40.0001 266C38.0001 263 38.0001 263 38.6251 259.5C40.0091 255.977 40.782 254.824 44.0001 253Z" fill="#ACABAC"/>
<path d="M531 288C532.675 288.286 534.344 288.618 536 289C536.33 290.32 536.66 291.64 537 293C534.03 293 531.06 293 528 293C530 289 530 289 531 288Z" fill="#151515"/>
<path d="M90 74C93.356 74.5993 95.378 75.8462 98 78C97.67 78.99 97.34 79.98 97 81C94.0625 80.625 94.0625 80.625 91 80C90.67 79.34 90.34 78.68 90 78C89.34 77.34 88.68 76.68 88 76C88.66 76 89.32 76 90 76C90 75.34 90 74.68 90 74Z" fill="#06E272"/>
<path d="M83 171C83.66 171.66 84.32 172.32 85 173C88.0835 173.167 88.0835 173.167 91 173C89.084 175.448 88.0276 175.993 84.9375 176.75C82 177 82 177 80 176C81.875 172.125 81.875 172.125 83 171Z" fill="#BD2954"/>
<path d="M592 253C597.571 258.143 597.571 258.143 598 262C595.625 261.75 595.625 261.75 593 261C591.688 258.938 591.688 258.938 591 257C591.66 257 592.32 257 593 257C592.67 255.68 592.34 254.36 592 253Z" fill="#C0C1C2"/>
<path d="M138 99C142.308 100.566 146.062 102.683 150 105C148.68 106.32 147.36 107.64 146 109C145.794 108.423 145.588 107.845 145.375 107.25C143.515 104.207 140.955 102.927 138 101C138 100.34 138 99.68 138 99Z" fill="#22DE76"/>
<path d="M141 114C143 117 143 117 143 119C142.443 119.062 141.886 119.124 141.312 119.188C138.05 120.334 136.313 122.494 134 125C134 121 134 121 135.531 119.078C136.181 118.475 136.831 117.872 137.5 117.25C138.15 116.636 138.799 116.023 139.469 115.391C140.227 114.702 140.227 114.702 141 114Z" fill="#F5BC07"/>
<path d="M595 189C595.33 189 595.66 189 596 189C596.33 191.64 596.66 194.28 597 197C595.68 197.99 594.36 198.98 593 200C593 199.34 593 198.68 593 198C592.34 197.67 591.68 197.34 591 197C592.32 194.36 593.64 191.72 595 189Z" fill="#9D9D9D"/>
<path d="M137 128C139.31 129.98 141.62 131.96 144 134C142.02 134.99 142.02 134.99 140 136C137.938 133.688 137.938 133.688 136 131C136.33 130.01 136.66 129.02 137 128Z" fill="#FB433A"/>
<path d="M39 189C39.66 189.33 40.32 189.66 41 190C40.67 191.65 40.34 193.3 40 195C40.66 195.33 41.32 195.66 42 196C41.34 196 40.68 196 40 196C39.67 196.66 39.34 197.32 39 198C38.01 196.68 37.02 195.36 36 194C35.01 194.495 35.01 194.495 34 195C34.66 193.68 35.32 192.36 36 191C36.66 191 37.32 191 38 191C38.33 190.34 38.66 189.68 39 189Z" fill="#BEBEBE"/>
<path d="M96 152C97.98 152 99.96 152 102 152C101.05 153.339 100.089 154.671 99.125 156C98.5913 156.743 98.0577 157.485 97.5078 158.25C97.0102 158.827 96.5127 159.405 96 160C95.34 160 94.68 160 94 160C94.6667 157.333 95.3333 154.667 96 152Z" fill="#0BD9F2"/>
<path d="M592 253C592.33 254.32 592.66 255.64 593 257C589.179 256.469 586.938 255.503 584 253C587.29 251.903 588.713 252.2 592 253Z" fill="#A6A7A8"/>
<path d="M582 249C584.64 249.33 587.28 249.66 590 250C590 250.66 590 251.32 590 252C587.69 252.33 585.38 252.66 583 253C582.67 251.68 582.34 250.36 582 249Z" fill="#C9CACC"/>
<path d="M591 198C592.65 198.33 594.3 198.66 596 199C594.35 200.65 592.7 202.3 591 204C590.01 203.67 589.02 203.34 588 203C588.33 202.01 588.66 201.02 589 200C589.66 200 590.32 200 591 200C591 199.34 591 198.68 591 198Z" fill="#BCBCBC"/>
<path d="M118 152C120.31 152.66 122.62 153.32 125 154C123.481 157.039 121.02 157.644 118 159C117.34 159 116.68 159 116 159C116 158.34 116 157.68 116 157C116.99 157 117.98 157 119 157C118.67 155.35 118.34 153.7 118 152Z" fill="#DC2E48"/>
<path d="M149 106C152.688 106.498 154.605 107.101 157 110C155.333 110 153.667 110 152 110C152 109.34 152 108.68 152 108C151.01 108.33 150.02 108.66 149 109C149 108.01 149 107.02 149 106ZM152 110C152 110.66 152 111.32 152 112C150.68 111.67 149.36 111.34 148 111C150 110 150 110 152 110Z" fill="#EDC318"/>
<path d="M591 43C594.424 44.1415 595.336 44.8469 597 48C596.188 50.75 596.188 50.75 595 53C594.34 52.67 593.68 52.34 593 52C592.619 49.6739 592.287 47.3394 592 45C591.67 44.34 591.34 43.68 591 43Z" fill="#BCBCBC"/>
<path d="M596 401C596.99 401 597.98 401 599 401C598.502 404.688 597.899 406.605 595 409C594.67 406.69 594.34 404.38 594 402C594.99 402.495 594.99 402.495 596 403C596 402.34 596 401.68 596 401Z" fill="#C9CBCC"/>
<path d="M590 198C590.33 198.66 590.66 199.32 591 200C590.01 200.495 590.01 200.495 589 201C589 202.32 589 203.64 589 205C584.25 204.25 584.25 204.25 582 202C584.64 200.68 587.28 199.36 590 198Z" fill="#9D9D9D"/>
<path d="M104 144C105.65 144.33 107.3 144.66 109 145C108.217 146.172 107.423 147.338 106.625 148.5C106.184 149.15 105.743 149.799 105.289 150.469C104.864 150.974 104.438 151.479 104 152C103.34 152 102.68 152 102 152C102 151.01 102 150.02 102 149C102.66 149 103.32 149 104 149C104 147.35 104 145.7 104 144Z" fill="#0DD4F2"/>
<path d="M39 48C40.32 48.66 41.64 49.32 43 50C41.3766 51.7088 39.7068 53.3745 38 55C37.34 55 36.68 55 36 55C37.875 50.25 37.875 50.25 39 48Z" fill="#BCBCBC"/>
<path d="M53 202C52.01 203.485 52.01 203.485 51 205C48.0625 204.625 48.0625 204.625 45 204C44.67 203.34 44.34 202.68 44 202C47.0689 200.466 49.7009 201.45 53 202Z" fill="#ACACAC"/>
<path d="M135 93C135.33 93.99 135.66 94.98 136 96C137.65 96 139.3 96 141 96C140.67 97.32 140.34 98.64 140 100C137.69 98.68 135.38 97.36 133 96C133.66 95.01 134.32 94.02 135 93Z" fill="#040C08"/>
<path d="M90 72C94.508 73.2581 97.4913 74.9041 101 78C95.25 77.25 95.25 77.25 93 75C91.6825 74.3025 90.3509 73.6304 89 73C89.33 72.67 89.66 72.34 90 72Z" fill="#2AD683"/>
<path d="M84 73C86.0072 73.2867 88.0086 73.6187 90 74C90 74.66 90 75.32 90 76C89.34 76 88.68 76 88 76C87.67 76.99 87.34 77.98 87 79C85.68 77.35 84.36 75.7 83 74C83.33 73.67 83.66 73.34 84 73Z" fill="#0BD685"/>
<path d="M590 43C591.32 44.32 592.64 45.64 594 47C593.67 47.99 593.34 48.98 593 50C591.02 48.68 589.04 47.36 587 46C587.99 45.67 588.98 45.34 590 45C590 44.34 590 43.68 590 43Z" fill="#9A9A9A"/>
<path d="M45 41C45.99 41 46.98 41 48 41C48.33 42.65 48.66 44.3 49 46C48.01 46.33 47.02 46.66 46 47C45.34 46.67 44.68 46.34 44 46C44.33 44.35 44.66 42.7 45 41Z" fill="#B4B4B4"/>
<path d="M310 285C311.98 285 313.96 285 316 285C316 285.66 316 286.32 316 287C313 289 313 289 310 289C310 287.68 310 286.36 310 285Z" fill="#E6E6E6"/>
<path d="M39 256C40 258 40 258 39.1875 261.562C38 265 38 265 36 266C36.75 259.375 36.75 259.375 39 256Z" fill="#D4D3D5"/>
<path d="M596 189C597.32 189.33 598.64 189.66 600 190C599.34 191.98 598.68 193.96 598 196C596 194 596 194 595.875 191.375C595.916 190.591 595.957 189.808 596 189Z" fill="#B4B4B4"/>
<path d="M90 164C90.66 165.32 91.32 166.64 92 168C90.0353 169.068 88.0314 170.066 86 171C85.34 170.67 84.68 170.34 84 170C84.6187 169.752 85.2375 169.505 85.875 169.25C88.3507 167.794 88.9513 166.622 90 164Z" fill="#C7406C"/>
<path d="M78 168C79.32 168.33 80.64 168.66 82 169C81.67 170.65 81.34 172.3 81 174C80.34 174 79.68 174 79 174C78.67 172.02 78.34 170.04 78 168Z" fill="#06DCEF"/>
<path d="M153 138C153.66 138.33 154.32 138.66 155 139C155 139.99 155 140.98 155 142C153.02 142.33 151.04 142.66 149 143C149 142.01 149 141.02 149 140C150.875 138.938 150.875 138.938 153 138Z" fill="#29170A"/>
<path d="M82 69C87.4545 69.4545 87.4545 69.4545 90 72C86.7 71.67 83.4 71.34 80 71C80.66 70.34 81.32 69.68 82 69Z" fill="#30C37E"/>
<path d="M34 198C36.0625 198.438 36.0625 198.438 38 199C37.01 199.33 36.02 199.66 35 200C34.34 199.67 33.68 199.34 33 199C33.33 198.67 33.66 198.34 34 198Z" fill="#FBFBFB"/>
<path d="M52 33C53.98 33.99 53.98 33.99 56 35C54.68 34.67 53.36 34.34 52 34C52 33.67 52 33.34 52 33Z" fill="#FCFCFC"/>
<path d="M32 189C33 193 33 193 33 193L32 189Z" fill="#FCFCFC"/>
<path d="M52 36C56 37 56 37 56 37L52 36Z" fill="#FBFBFB"/>
<path d="M596 201C596.33 201.66 596.66 202.32 597 203C596.34 202.67 595.68 202.34 595 202C595.33 201.67 595.66 201.34 596 201Z" fill="#FCFCFC"/>
<path d="M44 205C46 206 46 206 46 206L44 205Z" fill="#FBFBFB"/>
<path d="M592 203C594 204 594 204 594 204L592 203Z" fill="#FBFBFB"/>
<path d="M32 63C34 64 34 64 34 64L32 63Z" fill="#FCFCFC"/>
</svg>
