<svg width="285" height="311" viewBox="0 0 285 311" fill="none" xmlns="http://www.w3.org/2000/svg">
<path d="M91 44C93.0753 45.5756 93.8874 46.5531 94.5283 49.0959C94.6273 49.8905 94.7262 50.6852 94.8281 51.5039C95.9201 57.6975 98.6324 62.5349 101.75 67.9375C103.305 70.7011 103.305 70.7011 104.859 73.4648C105.628 74.8142 105.628 74.8142 106.412 76.1909C108.997 80.7635 111.498 85.3815 114 90C115.98 90 117.96 90 120 90C122.473 83.7184 124.409 77.3845 126.188 70.875C126.46 69.912 126.733 68.9491 127.014 67.957C129.298 59.9766 129.298 59.9766 128.312 51.875C128 50 128 50 129.062 47.75C131 46 131 46 134.062 45.625C137 46 137 46 139 48C139.125 51.125 139.125 51.125 139 54C138.37 54.2088 137.739 54.4176 137.09 54.6328C134.758 55.8523 134.758 55.8523 134.129 58.5546C133.942 59.6503 133.755 60.746 133.562 61.875C132.362 68.2753 130.917 74.5634 129.312 80.875C128.972 82.2224 128.972 82.2224 128.625 83.5971C128.086 85.7319 127.544 87.8662 127 90C127.584 89.9143 128.168 89.8287 128.769 89.7404C131.471 89.3454 134.173 88.9539 136.875 88.5625C137.793 88.4277 138.711 88.293 139.656 88.1542C150.305 86.6169 160.733 85.7773 171.5 85.6875C173.238 85.6439 173.238 85.6439 175.012 85.5996C185.048 85.5258 194.588 87.8059 202 95C205.923 99.9733 210 105.468 210 112C207.03 112.99 204.06 113.98 201 115C200.648 114.192 200.296 113.383 199.934 112.551C196.312 104.711 193.669 100.321 185.672 97.0468C171.968 92.5337 155.729 95.1726 141.562 96.25C140.233 96.3493 140.233 96.3493 138.876 96.4507C116.514 98.1369 94.2989 100.565 72.1875 104.375C71.1268 104.548 70.066 104.72 68.9731 104.898C59.6888 106.609 49.9815 109.529 44.375 117.562C42.5895 120.598 41.259 123.714 40 127C39.67 127 39.34 127 39 127C39.3032 119.465 40.0963 113.741 45.6914 108.379C53.2019 102.295 62.3414 99.6321 71.625 97.5C72.5044 97.2935 73.3838 97.087 74.2898 96.8742C85.1002 94.4119 96.0462 92.6861 107 91C102.445 81.5462 97.6128 72.3762 92.1509 63.4104C89 58.1982 89 58.1982 89 56C88.2163 55.8762 87.4325 55.7525 86.625 55.625C84 55 84 55 82 53C81.6698 49.8965 81.4947 47.8421 83.125 45.125C85.8809 43.4714 87.8508 43.6063 91 44Z" fill="white"/>
<path d="M102.875 122.687C103.576 122.658 104.276 122.628 104.998 122.598C110.558 122.534 113.54 123.934 118 127C121.824 132.058 121.816 137.905 121 144C118.787 148.591 116.51 150.757 112 153C109.312 153.52 106.772 153.913 104.063 154.187C103.372 154.269 102.682 154.351 101.971 154.436C97.9636 154.888 94.0306 155.082 90 155C90.33 155.99 90.66 156.98 91 158C91.2546 160.879 91.4632 163.74 91.625 166.625C91.6766 167.414 91.7282 168.203 91.7813 169.016C91.8977 171.008 91.9538 173.004 92 175C91 176 91 176 87.4375 176.062C86.3032 176.042 85.1688 176.021 84 176C83.5661 170.684 83.1392 165.368 82.7183 160.051C82.5746 158.249 82.4292 156.446 82.2818 154.643C81.4459 144.405 80.7455 134.28 81 124C88.2852 123.318 95.5596 122.842 102.875 122.687ZM89 131C88.9728 132.896 88.9536 134.792 88.9375 136.687C88.9259 137.743 88.9143 138.799 88.9024 139.887C88.9914 142.724 89.3506 145.244 90 148C100.853 148.475 100.853 148.475 111 145.375C113.672 142.202 114 140.122 114 136C112.654 133.052 111.914 131.457 109 130C106.364 129.901 103.76 129.861 101.125 129.875C100.404 129.871 99.6839 129.867 98.9415 129.863C95.4919 129.87 92.2956 129.913 89 131Z" fill="white"/>
<path d="M215 115C214.44 121.254 212.96 126.656 210.875 132.563C207.778 141.545 204.958 150.586 202.31 159.711C202.036 160.635 201.763 161.56 201.48 162.512C201.242 163.331 201.004 164.151 200.759 164.995C200 167 200 167 198 169C194.375 169.125 194.375 169.125 191 169C184.814 156.227 178.674 143.431 172.688 130.563C171.959 129.019 171.959 129.019 171.216 127.443C170.777 126.494 170.339 125.545 169.887 124.566C169.497 123.731 169.107 122.895 168.706 122.033C168.473 121.362 168.24 120.691 168 120C168.33 119.34 168.66 118.68 169 118C171.31 118 173.62 118 176 118C182.503 131.45 188.237 145.221 194 159C196.064 153.668 197.842 148.357 199.375 142.852C199.807 141.337 200.239 139.823 200.672 138.309C201.342 135.953 202.008 133.597 202.666 131.238C203.309 128.939 203.966 126.645 204.625 124.352C204.819 123.643 205.013 122.935 205.212 122.205C206.923 116.321 208.879 114.669 215 115Z" fill="white"/>
<path d="M211 172C211.27 179.67 210.479 186.936 209.25 194.5C209.014 196.095 209.014 196.095 208.773 197.723C207.087 208.298 204.337 217.813 196 225C186.259 231.581 171.427 232.654 160 232C160.33 231.34 160.66 230.68 161 230C163.089 229.511 165.198 229.11 167.312 228.75C176.332 226.911 186.132 223.863 191.836 216.125C197.878 205.096 198.953 191.227 201 179C201.202 177.792 201.405 176.584 201.613 175.34C201.805 174.182 201.805 174.182 202 173C205.196 171.934 207.657 171.926 211 172Z" fill="white"/>
<path d="M166 119C167 120 167 120 167.125 122.5C167 125 167 125 166 126C163.308 126.237 160.635 126.422 157.938 126.562C156.8 126.627 156.8 126.627 155.639 126.693C153.759 126.8 151.88 126.9 150 127C150.055 127.551 150.111 128.102 150.168 128.67C151.244 139.54 152.168 150.401 152.688 161.312C152.736 162.267 152.784 163.221 152.834 164.204C152.891 165.52 152.891 165.52 152.949 166.863C152.984 167.64 153.018 168.416 153.053 169.216C153 171 153 171 152 172C149 172.125 149 172.125 146 172C143.894 169.894 144.458 165.463 144.246 162.547C144.148 161.268 144.148 161.268 144.049 159.964C143.911 158.155 143.776 156.346 143.643 154.537C143.439 151.775 143.229 149.015 143.018 146.254C142.885 144.497 142.753 142.741 142.621 140.984C142.559 140.16 142.496 139.336 142.432 138.487C142.151 134.648 141.923 130.852 142 127C141.479 127.164 140.958 127.327 140.422 127.496C137.324 128.141 134.412 128.094 131.25 128.062C130.08 128.053 128.909 128.044 127.703 128.035C126.811 128.024 125.919 128.012 125 128C124.957 126 124.959 124 125 122C126.775 120.225 129.388 120.638 131.801 120.465C133.007 120.378 134.213 120.291 135.455 120.201C136.728 120.114 138.001 120.027 139.313 119.937C140.543 119.847 141.773 119.756 143.041 119.662C158.654 118.565 158.654 118.565 166 119Z" fill="white"/>
<path d="M65.0001 124.875C68.0001 125 68.0001 125 69.0001 126C69.2167 127.589 69.3716 129.187 69.5001 130.785C69.5821 131.783 69.6641 132.781 69.7486 133.81C69.8316 134.883 69.9146 135.957 70.0001 137.062C70.0869 138.152 70.1738 139.241 70.2633 140.364C70.5159 143.576 70.7603 146.788 71.0001 150C71.0623 150.833 71.1245 151.667 71.1885 152.525C71.7828 160.688 72.1562 168.813 72.0001 177C68.5351 177.495 68.5351 177.495 65.0001 178C64.2707 175.317 63.8201 172.772 63.6112 170.001C63.5212 168.839 63.5212 168.839 63.4294 167.653C63.3689 166.824 63.3085 165.995 63.2462 165.141C63.1484 163.846 63.1484 163.846 63.0487 162.525C62.9117 160.699 62.7765 158.874 62.6429 157.048C62.4393 154.274 62.2289 151.5 62.0176 148.727C61.8851 146.948 61.7529 145.169 61.6212 143.391C61.5587 142.57 61.4962 141.748 61.4318 140.902C61.0722 135.921 60.8545 130.995 61.0001 126C62.0001 125 62.0001 125 65.0001 124.875Z" fill="white"/>
<path d="M127 203C128.32 203 129.64 203 131 203C132.172 205.289 133.337 207.581 134.5 209.875C134.834 210.526 135.168 211.177 135.512 211.848C138 216.773 138 216.773 138 219C135.525 218.505 135.525 218.505 133 218C133 217.34 133 216.68 133 216C130.066 216.267 130.066 216.267 127 217C126.01 218.485 126.01 218.485 125 220C122.407 220.412 120.042 220.648 117.438 220.75C116.739 220.793 116.041 220.835 115.322 220.879C113.55 220.972 111.775 220.992 110 221C109 220 109 220 108.902 216.402C108.909 214.914 108.921 213.426 108.938 211.938C108.942 211.179 108.947 210.42 108.951 209.639C108.963 207.759 108.981 205.88 109 204C110.32 204 111.64 204 113 204C113 208.29 113 212.58 113 217C115.64 217 118.28 217 121 217C121.266 216.325 121.531 215.649 121.805 214.953C122.158 214.061 122.511 213.169 122.875 212.25C123.397 210.927 123.397 210.927 123.93 209.578C124.865 207.326 125.878 205.164 127 203ZM129 209C128.67 209.99 128.34 210.98 128 212C128.99 211.67 129.98 211.34 131 211C130.34 210.34 129.68 209.68 129 209Z" fill="white"/>
<path d="M98 182C99.65 182 101.3 182 103 182C103.904 185.837 104.106 189.375 104.062 193.312C104.053 194.381 104.044 195.45 104.035 196.551C104.024 197.359 104.012 198.167 104 199C102.68 199 101.36 199 100 199C99.67 198.01 99.34 197.02 99 196C98.67 196.99 98.34 197.98 98 199C96.68 199 95.36 199 94 199C93.67 198.34 93.34 197.68 93 197C92.01 197.99 91.02 198.98 90 200C89.34 199.67 88.68 199.34 88 199C87.6876 196.286 87.4866 193.661 87.375 190.938C87.3363 190.179 87.2977 189.42 87.2578 188.639C87.1633 186.76 87.0805 184.88 87 183C88.98 183 90.96 183 93 183C93.66 184.98 94.32 186.96 95 189C95.33 189 95.66 189 96 189C96.66 186.69 97.32 184.38 98 182Z" fill="white"/>
<path d="M171.875 177.75C172.759 177.724 173.644 177.698 174.555 177.672C177 178 177 178 178.84 179.359C180 181 180 181 179.688 183.5C179.461 184.325 179.234 185.15 179 186C179 189.576 180.088 191.053 182 194C180.68 194.33 179.36 194.66 178 195C177.381 194.196 176.762 193.391 176.125 192.562C174.258 189.961 174.258 189.961 172 189C171.67 190.98 171.34 192.96 171 195C169.68 195 168.36 195 167 195C166.806 192.354 166.62 189.709 166.438 187.062C166.381 186.308 166.325 185.553 166.268 184.775C166.138 182.853 166.065 180.926 166 179C167.658 177.342 169.603 177.79 171.875 177.75ZM171 182C171 182.99 171 183.98 171 185C172.65 184.67 174.3 184.34 176 184C176 183.34 176 182.68 176 182C174.35 182 172.7 182 171 182Z" fill="white"/>
<path d="M122 181C123.958 180.919 125.916 180.861 127.875 180.812C129.511 180.76 129.511 180.76 131.18 180.707C132.11 180.804 133.041 180.9 134 181C136 184 136 184 135.625 186.5C135.419 187.325 135.212 188.15 135 189C135 192.204 135.743 194.094 137 197C132.409 196.504 132.409 196.504 130.375 194C129.921 193.34 129.467 192.68 129 192C128.01 191.67 127.02 191.34 126 191C126.33 192.98 126.66 194.96 127 197C125.68 197.33 124.36 197.66 123 198C121.467 194.935 121.897 191.732 121.937 188.375C121.942 187.669 121.946 186.962 121.951 186.234C121.963 184.49 121.981 182.745 122 181ZM126 184C126.33 185.32 126.66 186.64 127 188C128.65 187.34 130.3 186.68 132 186C131.67 185.34 131.34 184.68 131 184C129.35 184 127.7 184 126 184Z" fill="white"/>
<path d="M166 201C167.958 200.919 169.916 200.861 171.875 200.812C173.511 200.76 173.511 200.76 175.18 200.707C176.11 200.804 177.041 200.9 178 201C180 204 180 204 179.687 206.062C179 208 179 208 178 210C178.516 210.598 179.031 211.196 179.562 211.812C180.274 212.895 180.274 212.895 181 214C180.67 214.99 180.34 215.98 180 217C175.752 216.528 173.8 214.033 171 211C171 212.98 171 214.96 171 217C169.68 217 168.36 217 167 217C165.933 213.538 165.898 210.36 165.937 206.75C165.951 205.134 165.951 205.134 165.965 203.484C165.976 202.665 165.988 201.845 166 201ZM170 204C170 204.99 170 205.98 170 207C171.65 207 173.3 207 175 207C175 206.01 175 205.02 175 204C173.35 204 171.7 204 170 204Z" fill="white"/>
<path d="M154.723 178.902C156.376 178.92 156.376 178.92 158.062 178.938C159.72 178.951 159.72 178.951 161.41 178.965C162.265 178.976 163.119 178.988 164 179C164 179.99 164 180.98 164 182C161.36 182.33 158.72 182.66 156 183C156 183.66 156 184.32 156 185C158.31 185 160.62 185 163 185C163.33 185.99 163.66 186.98 164 188C163 189 163 189 159.438 189.062C158.303 189.042 157.169 189.021 156 189C156 189.99 156 190.98 156 192C158.97 192 161.94 192 165 192C165 192.99 165 193.98 165 195C162.355 196.322 160.322 196.097 157.375 196.062C156.372 196.053 155.369 196.044 154.336 196.035C153.565 196.024 152.794 196.012 152 196C151.806 193.354 151.62 190.709 151.438 188.062C151.381 187.308 151.325 186.553 151.268 185.775C151.138 183.853 151.065 181.926 151 180C152 179 152 179 154.723 178.902Z" fill="white"/>
<path d="M159.25 200.937C161.106 200.968 161.106 200.968 163 201C163 202.32 163 203.64 163 205C160.36 205 157.72 205 155 205C155 205.66 155 206.32 155 207C157.64 207 160.28 207 163 207C163 208.32 163 209.64 163 211C160.69 211 158.38 211 156 211C156 211.99 156 212.98 156 214C158.64 214 161.28 214 164 214C164.33 214.99 164.66 215.98 165 217C162.005 217.872 159.364 218.108 156.25 218.062C155.451 218.053 154.651 218.044 153.828 218.035C153.225 218.024 152.621 218.012 152 218C150.871 212.639 150.903 207.447 151 202C153.829 201.191 156.311 200.888 159.25 200.937Z" fill="#F6F6F6"/>
<path d="M192 177C193.875 179.5 193.875 179.5 195 182C193.68 182.33 192.36 182.66 191 183C191 182.34 191 181.68 191 181C189.68 181.33 188.36 181.66 187 182C188.671 182.588 188.671 182.588 190.375 183.187C193.135 184.377 193.896 184.844 195.625 187.437C196 190 196 190 195.125 192.312C192.32 194.54 190.379 194.508 186.875 194.328C185 194 185 194 183 192.687C182 191 182 191 182 188C184.763 188.523 187.326 189.109 190 190C190 189.34 190 188.68 190 188C188.298 187.412 188.298 187.412 186.562 186.812C183 185 183 185 182.062 182.312C182.042 181.549 182.021 180.786 182 180C185.266 176.985 187.584 176.248 192 177Z" fill="white"/>
<path d="M83 184C84.375 186.062 84.375 186.062 85 188C82.2118 189.033 81.1323 189.045 78.25 188.062C77.5075 187.712 76.765 187.361 76 187C76 187.66 76 188.32 76 189C77.0931 189.103 78.1862 189.206 79.3125 189.312C83 190 83 190 85 191.25C86 193 86 193 85.8125 195.562C85 198 85 198 83 200C75.8279 200.569 75.8279 200.569 73 198.625C72 197 72 197 72 195C73.32 194.67 74.64 194.34 76 194C76.33 194.66 76.66 195.32 77 196C78.32 196 79.64 196 81 196C81.33 195.34 81.66 194.68 82 194C80.9069 193.897 79.8138 193.794 78.6875 193.687C75 193 75 193 73 191.75C72 190 72 190 72.0625 187.437C73 185 73 185 74.6875 183.625C77.8331 182.775 79.8937 183.055 83 184Z" fill="white"/>
<path d="M110 182C111.65 182 113.3 182 115 182C116.007 184.101 117.005 186.206 118 188.312C118.557 189.484 119.114 190.656 119.688 191.863C121 195 121 195 121 198C119.68 198 118.36 198 117 198C116.67 197.34 116.34 196.68 116 196C112.971 195.342 112.971 195.342 110 195C109.67 195.99 109.34 196.98 109 198C108.01 198.33 107.02 198.66 106 199C104.673 195.018 106.001 192.552 107.438 188.812C107.802 187.831 107.802 187.831 108.174 186.83C108.774 185.217 109.386 183.608 110 182ZM112 187C111.67 188.32 111.34 189.64 111 191C111.99 191 112.98 191 114 191C113.34 189.68 112.68 188.36 112 187Z" fill="white"/>
<path d="M94 205C95.7909 204.919 97.5829 204.861 99.375 204.812C100.872 204.76 100.872 204.76 102.398 204.707C103.257 204.804 104.115 204.9 105 205C107 208 107 208 106.75 211.125C106.502 212.074 106.255 213.022 106 214C103.291 215.354 100.991 215.065 98 215C98 216.98 98 218.96 98 221C97.01 221.33 96.02 221.66 95 222C94 221 94 221 93.9023 217.402C93.909 215.914 93.921 214.426 93.9375 212.938C93.942 212.179 93.9465 211.42 93.9512 210.639C93.963 208.759 93.9809 206.88 94 205ZM98 208C98 209.32 98 210.64 98 212C99.65 211.67 101.3 211.34 103 211C102.67 210.01 102.34 209.02 102 208C100.68 208 99.36 208 98 208Z" fill="white"/>
<path d="M137 202C139.993 202.998 140.948 203.752 143 206C143.99 204.68 144.98 203.36 146 202C147.32 202.33 148.64 202.66 150 203C149.361 203.99 148.721 204.98 148.062 206C145.746 210.003 145.321 213.419 145 218C143.68 218 142.36 218 141 218C140.629 216.175 140.629 216.175 140.25 214.312C139.293 210.393 137.684 208.042 135 205C135 204.34 135 203.68 135 203C135.66 202.67 136.32 202.34 137 202Z" fill="white"/>
<path d="M87 183C88.98 183 90.96 183 93 183C93.99 186.63 94.98 190.26 96 194C95.34 194 94.68 194 94 194C93.67 194.99 93.34 195.98 93 197C91.4375 198.688 91.4375 198.688 90 200C89.34 199.67 88.68 199.34 88 199C87.6876 196.286 87.4866 193.661 87.375 190.938C87.3363 190.179 87.2977 189.42 87.2578 188.639C87.1633 186.76 87.0805 184.88 87 183Z" fill="white"/>
<path d="M137 180C141.29 180 145.58 180 150 180C150 180.99 150 181.98 150 183C148.35 183 146.7 183 145 183C145.164 183.562 145.327 184.124 145.496 184.703C146.029 187.131 146.099 189.269 146.062 191.75C146.053 192.549 146.044 193.348 146.035 194.172C146.024 194.775 146.012 195.378 146 196C144.68 196 143.36 196 142 196C141.67 192.37 141.34 188.74 141 185C139.68 184.67 138.36 184.34 137 184C137 182.68 137 181.36 137 180Z" fill="white"/>
<path d="M166 201C169.96 201 173.92 201 178 201C176 203 176 203 172.875 203.125C171.926 203.084 170.978 203.043 170 203C170 204.65 170 206.3 170 208C170.99 208.33 171.98 208.66 173 209C172.01 209.33 171.02 209.66 170 210C170 212.31 170 214.62 170 217C169.01 217 168.02 217 167 217C165.393 211.785 165.941 206.401 166 201Z" fill="white"/>
<path d="M166 179C168.97 179 171.94 179 175 179C175 179.66 175 180.32 175 181C173.35 181 171.7 181 170 181C170 182.65 170 184.3 170 186C170.99 186.33 171.98 186.66 173 187C172.34 187 171.68 187 171 187C171 189.64 171 192.28 171 195C169.68 195 168.36 195 167 195C166.67 189.72 166.34 184.44 166 179Z" fill="white"/>
<path d="M134 189C135.414 191.639 136.372 194.071 137 197C132.409 196.504 132.409 196.504 130.375 194C129.921 193.34 129.468 192.68 129 192C128.01 191.67 127.02 191.34 126 191C126.33 192.98 126.66 194.96 127 197C125.68 197.33 124.36 197.66 123 198C123 197.34 123 196.68 123 196C123.66 196 124.32 196 125 196C125 194.02 125 192.04 125 190C128.073 189.089 130.801 188.911 134 189Z" fill="white"/>
<path d="M178 226C178.66 226.33 179.32 226.66 180 227C179.67 227.33 179.34 227.66 179 228C180.32 228.66 181.64 229.32 183 230C175.247 231.515 167.9 232.28 160 232C160.33 231.34 160.66 230.68 161 230C163.27 229.393 165.568 228.888 167.875 228.438C172.994 227.434 172.994 227.434 178 226Z" fill="white"/>
<path d="M192 177C193.875 179.5 193.875 179.5 195 182C193.68 182.33 192.36 182.66 191 183C191 182.34 191 181.68 191 181C186.585 182.27 186.585 182.27 183 185C182.67 183.35 182.34 181.7 182 180C185.266 176.985 187.584 176.248 192 177Z" fill="white"/>
<path d="M98 182C99.65 182 101.3 182 103 182C103.904 185.837 104.106 189.375 104.062 193.312C104.053 194.381 104.044 195.45 104.035 196.551C104.024 197.359 104.012 198.167 104 199C102.68 199 101.36 199 100 199C100 195.37 100 191.74 100 188C100.33 188 100.66 188 101 188C101.33 186.35 101.66 184.7 102 183C100.68 182.67 99.36 182.34 98 182Z" fill="white"/>
<path d="M110 187C110.33 187 110.66 187 111 187C111 188.65 111 190.3 111 192C112.65 192.33 114.3 192.66 116 193C116 193.33 116 193.66 116 194C114.02 194 112.04 194 110 194C109.897 194.639 109.794 195.279 109.687 195.938C109.461 196.618 109.234 197.299 109 198C108.01 198.33 107.02 198.66 106 199C104.597 194.792 106.094 192.883 108 189C108.66 188.34 109.32 187.68 110 187Z" fill="white"/>
<path d="M159.25 200.937C161.106 200.968 161.106 200.968 163 201C163 202.32 163 203.64 163 205C161.742 205.041 160.484 205.082 159.188 205.125C158.48 205.148 157.772 205.171 157.043 205.195C155 205 155 205 152 203C152 205.97 152 208.94 152 212C151.67 212 151.34 212 151 212C151 208.7 151 205.4 151 202C154.129 201.218 156.14 200.886 159.25 200.937Z" fill="white"/>
<path d="M43 111C43.66 111.66 44.32 112.32 45 113C44.698 117.983 42.0873 122.544 40 127C39.67 127 39.34 127 39 127C39.343 121.015 39.8231 116.249 43 111Z" fill="white"/>
<path d="M155 207C157.64 207 160.28 207 163 207C163 208.32 163 209.64 163 211C160.69 211 158.38 211 156 211C156 211.99 156 212.98 156 214C158.64 214 161.28 214 164 214C164 214.33 164 214.66 164 215C161.03 215 158.06 215 155 215C155 212.36 155 209.72 155 207Z" fill="white"/>
<path d="M154 213C154.33 213.66 154.66 214.32 155 215C158.3 215 161.6 215 165 215C165 215.66 165 216.32 165 217C162.005 217.872 159.364 218.108 156.25 218.062C155.451 218.053 154.652 218.044 153.828 218.035C153.225 218.024 152.622 218.012 152 218C152.875 214.125 152.875 214.125 154 213Z" fill="white"/>
<path d="M102 208C103.65 208 105.3 208 107 208C106.625 210.938 106.625 210.938 106 214C103.291 215.354 100.991 215.065 98 215C98 214.01 98 213.02 98 212C99.65 211.67 101.3 211.34 103 211C102.67 210.01 102.34 209.02 102 208Z" fill="white"/>
<path d="M155 182C156.32 182.33 157.64 182.66 159 183C158.01 183 157.02 183 156 183C156 183.66 156 184.32 156 185C158.31 185 160.62 185 163 185C163.33 185.99 163.66 186.98 164 188C163 189 163 189 159.438 189.062C158.303 189.042 157.169 189.021 156 189C155.67 189.99 155.34 190.98 155 192C155 190.68 155 189.36 155 188C155.99 187.67 156.98 187.34 158 187C157.01 186.67 156.02 186.34 155 186C155 184.68 155 183.36 155 182Z" fill="white"/>
<path d="M77 183C79.875 183.25 79.875 183.25 83 184C84.375 186.062 84.375 186.062 85 188C82.2118 189.033 81.1323 189.045 78.25 188.062C77.5075 187.712 76.765 187.361 76 187C76.33 185.68 76.66 184.36 77 183Z" fill="white"/>
<path d="M144 183C145.784 186.062 146.229 188.221 146.125 191.75C146.107 192.549 146.089 193.348 146.07 194.172C146.047 194.775 146.024 195.378 146 196C145.01 196.33 144.02 196.66 143 197C142.973 195.229 142.954 193.458 142.938 191.688C142.926 190.701 142.914 189.715 142.902 188.699C143 186 143 186 144 183Z" fill="white"/>
<path d="M93 185C94.6483 187.967 95.4427 190.656 96 194C95.34 194 94.68 194 94 194C93.67 194.99 93.34 195.98 93 197C92.34 197.66 91.68 198.32 91 199C90.9456 197.417 90.907 195.834 90.875 194.25C90.8518 193.368 90.8286 192.487 90.8047 191.578C91.0086 188.886 91.6345 187.301 93 185Z" fill="white"/>
<path d="M75 184C75.66 184.33 76.32 184.66 77 185C77 186.32 77 187.64 77 189C77.66 189.33 78.32 189.66 79 190C79 190.66 79 191.32 79 192C76.625 192.125 76.625 192.125 74 192C73.34 191.34 72.68 190.68 72 190C72.25 187.438 72.25 187.438 73 185C73.66 184.67 74.32 184.34 75 184Z" fill="white"/>
<path d="M50 105C50.66 105.33 51.32 105.66 52 106C51.01 106.897 51.01 106.897 50 107.812C47.6626 109.875 47.6626 109.875 48 113C46.515 113.99 46.515 113.99 45 115C44.67 113.35 44.34 111.7 44 110C45.98 108.35 47.96 106.7 50 105Z" fill="white"/>
<path d="M182 188C184.475 188.495 184.475 188.495 187 189C187.33 189.99 187.66 190.98 188 192C188.66 192.33 189.32 192.66 190 193C187.125 193.125 187.125 193.125 184 193C183.34 192.34 182.68 191.68 182 191C182 190.01 182 189.02 182 188Z" fill="white"/>
<path d="M167 179C169.64 179 172.28 179 175 179C175 179.66 175 180.32 175 181C173.35 181 171.7 181 170 181C169.67 182.32 169.34 183.64 169 185C168.34 184.67 167.68 184.34 167 184C167 182.35 167 180.7 167 179Z" fill="white"/>
<path d="M187 178C188.98 178 190.96 178 193 178C193.66 179.32 194.32 180.64 195 182C193.68 182.33 192.36 182.66 191 183C190.67 182.34 190.34 181.68 190 181C189.01 180.67 188.02 180.34 187 180C187 179.34 187 178.68 187 178Z" fill="white"/>
<path d="M137 202C140 203 140 203 141.188 205.062C141.456 205.702 141.724 206.341 142 207C140.35 207 138.7 207 137 207C136.34 205.68 135.68 204.36 135 203C135.66 202.67 136.32 202.34 137 202Z" fill="white"/>
<path d="M131 182C132.32 182 133.64 182 135 182C135.625 184.375 135.625 184.375 136 187C135.34 187.66 134.68 188.32 134 189C133.67 188.01 133.34 187.02 133 186C132.34 185.67 131.68 185.34 131 185C131 184.01 131 183.02 131 182Z" fill="white"/>
<path d="M98 183C99.32 183 100.64 183 102 183C102 185.64 102 188.28 102 191C100 188 100 188 100 186C99.34 186 98.68 186 98 186C98 185.01 98 184.02 98 183Z" fill="#FDFDFD"/>
</svg>
