<svg width="420" height="393" viewBox="0 0 420 393" fill="none" xmlns="http://www.w3.org/2000/svg">
<path d="M283 63C289.034 60.7112 290.607 54.7042 293.125 49.1875C296.851 41.4743 301.81 35.6608 309.75 32C315.972 30.1085 323.403 29.588 329.508 31.9844C334.213 34.7972 337.245 37.7346 339 43C339.049 45.1531 339.037 47.3078 338.992 49.4609C338.975 50.7371 338.959 52.0133 338.941 53.3281C338.91 55.3515 338.875 57.3744 338.829 59.3975C338.786 61.3559 338.764 63.3147 338.742 65.2734C338.72 66.4431 338.698 67.6128 338.675 68.8179C339.031 72.3078 339.982 74.1713 342 77C347.526 76.5579 350.497 75.1326 355 72C357.872 71.0195 359.521 70.9161 362.5 71.4375C369.162 75.6013 371.404 84.2234 373.5 91.375C373.94 92.8517 373.94 92.8517 374.389 94.3582C376.617 102.102 378.385 109.908 379.938 117.812C380.149 118.878 380.36 119.944 380.578 121.042C384.349 141.413 375.888 155.941 365.38 172.889C361.902 178.5 358.979 183.754 357.438 190.242C357 192 357 192 356 193C356.042 194.746 356.159 196.49 356.305 198.23C356.393 199.333 356.481 200.436 356.572 201.573C356.722 203.362 356.722 203.362 356.875 205.187C357.665 215.041 358.307 224.872 358.57 234.755C358.821 242.035 359.335 249.469 363.688 255.562C364.217 256.31 364.747 257.058 365.293 257.828C366.941 259.926 368.682 261.862 370.5 263.812C379.26 273.708 381.96 286.16 385.336 298.59C388.353 310.641 388.353 310.641 395.625 320.375C397.966 323.142 398.564 326.485 399 330C398.718 333.173 397.979 336.17 397.188 339.25C395.479 346.508 394.298 353.526 394 361C392.68 361 391.36 361 390 361C390 355.39 390 349.78 390 344C389.752 345.712 389.505 347.424 389.25 349.187C388.421 353.787 387.504 356.715 384 360C381.17 361.415 378.716 361.208 375.562 361.25C374.409 361.276 373.255 361.302 372.066 361.328C369 361 369 361 367.09 359.605C366 358 366 358 366 356.062C367 354 367 354 369.312 352.375C375.943 346.515 377.154 336.429 378 328C378.907 309.928 366.147 290.458 355 277C353.489 275.449 351.949 273.925 350.375 272.437C342.204 264.656 337.293 254.299 333 244C332.29 245.779 332.29 245.779 331.566 247.594C328.237 255.799 324.788 263.841 320.438 271.562C320.065 272.228 319.693 272.893 319.309 273.579C317.139 277.345 314.75 280.475 311.875 283.75C305.756 292.465 309.316 305.249 311.014 315.003C311.907 320.027 312.829 325.044 313.827 330.049C317.481 348.528 317.481 348.528 317 356C315.159 358.574 314.064 358.979 311 360C309.003 360.119 307.001 360.175 305 360.187C303.948 360.202 302.896 360.216 301.812 360.23C299 360 299 360 296 358C295.439 353.429 296.431 350.389 298.438 346.312C301.889 339.202 303.44 333.136 301.246 325.312C300.241 322.626 299.152 320.001 298 317.375C297.618 316.466 297.237 315.557 296.844 314.621C295.911 312.407 294.964 310.201 294 308C291.93 307.766 291.93 307.766 290.688 309.293C290.131 309.918 289.574 310.543 289 311.187C261.045 339.804 218.201 354.486 178.884 355.237C132.461 355.494 91.0391 337.148 57.875 305.187C26.6987 273.203 11.0932 230.084 10.9951 185.796C11.5186 147.259 26.6004 108.385 52.9375 80.2188C54.7745 78.2426 56.4781 76.2105 58.1875 74.125C115.455 8.82698 218.897 11.3419 283 63ZM357 111C356.505 112.093 356.01 113.186 355.5 114.312C353.144 119.058 350.084 123.166 346.902 127.387C341.209 135.207 340.185 141.381 341 151C342.029 155.531 343.468 159.867 345 164.25C345.382 165.388 345.763 166.526 346.156 167.699C347.088 170.472 348.036 173.238 349 176C349.66 176 350.32 176 351 176C354.548 167.357 357.917 158.698 360.819 149.813C361.982 146.377 363.114 143.831 365.172 140.781C367.617 137.061 367.368 135.257 366.758 131.004C365.019 124.112 362.175 117.351 359 111C358.34 111 357.68 111 357 111ZM46 231C46 241.23 46 251.46 46 262C56.1102 263.116 56.1102 263.116 59.6875 259.937C61.3177 256.289 61.4952 253.962 61 250C59.63 247.129 59.63 247.129 58 245C58.66 244.34 59.32 243.68 60 243C60.3941 240.898 60.3941 240.898 60.375 238.562C60.4034 237.78 60.4317 236.998 60.4609 236.191C60.1271 233.408 60.1271 233.408 56 231C52.7 231 49.4 231 46 231ZM64 231C63.9129 235.417 63.8596 239.833 63.8125 244.25C63.7874 245.504 63.7622 246.759 63.7363 248.051C63.7267 249.256 63.717 250.461 63.707 251.703C63.6913 252.813 63.6756 253.924 63.6594 255.067C64.0379 258.326 64.7278 259.675 67 262C68.9343 262.627 68.9343 262.627 71 262.5C71.6806 262.51 72.3612 262.521 73.0625 262.531C75.8797 261.759 76.5255 260.491 78 258C78.4122 255.002 78.4122 255.002 78.293 251.703C78.2833 250.498 78.2736 249.293 78.2637 248.051C78.2385 246.797 78.2134 245.542 78.1875 244.25C78.174 242.98 78.1604 241.711 78.1465 240.402C78.1111 237.268 78.0618 234.134 78 231C76.68 231 75.36 231 74 231C73.67 239.58 73.34 248.16 73 257C71.68 257 70.36 257 69 257C68.67 248.42 68.34 239.84 68 231C66.68 231 65.36 231 64 231ZM82 234C81.5374 236.657 81.5374 236.657 81.6016 239.656C81.5977 240.761 81.5938 241.866 81.5898 243.004C81.6014 244.158 81.613 245.311 81.625 246.5C81.6134 247.654 81.6018 248.807 81.5898 249.996C81.5937 251.101 81.5976 252.206 81.6016 253.344C81.6049 254.356 81.6083 255.369 81.6118 256.412C81.7912 259.034 81.7912 259.034 83.4038 260.826C85.9345 262.687 88.0792 262.478 91.125 262.344C93.1657 262.119 93.1657 262.119 95 260.437C96.3276 257.201 96.1997 254.461 96 251C94.68 251 93.36 251 92 251C91.67 252.98 91.34 254.96 91 257C89.68 257 88.36 257 87 257C87 250.07 87 243.14 87 236C88.32 236 89.64 236 91 236C91.33 237.65 91.66 239.3 92 241C93.32 241 94.64 241 96 241C96.2146 237.853 96.2332 235.554 95 232.625C92.3034 230.434 90.3264 230.56 86.9375 230.566C84.3768 231.139 83.5974 231.922 82 234ZM99 231C99 241.23 99 251.46 99 262C100.65 262 102.3 262 104 262C104.33 258.37 104.66 254.74 105 251C106.668 253.502 107.624 255.411 108.625 258.187C108.885 258.903 109.146 259.618 109.414 260.355C109.607 260.898 109.801 261.441 110 262C111.65 262 113.3 262 115 262C113.101 256.083 113.101 256.083 110.812 250.312C109.4 246.293 109.638 242.991 111.094 239.008C111.79 237.581 111.79 237.581 112.5 236.125C112.964 235.158 113.428 234.191 113.906 233.195C114.267 232.471 114.628 231.746 115 231C112.583 231.107 112.583 231.107 110 232C108.317 234.278 108.317 234.278 107.188 237.062C106.466 238.692 105.744 240.321 105 242C104.67 238.37 104.34 234.74 104 231C102.35 231 100.7 231 99 231ZM117.938 233C116.706 236.941 116.519 240.158 118 244C119.681 245.952 121.487 247.613 123.41 249.324C125.643 251.678 125.922 253.822 126 257C124.68 257 123.36 257 122 257C121.67 255.68 121.34 254.36 121 253C119.68 253 118.36 253 117 253C117.33 258.015 117.33 258.015 120 262C125.183 262.491 125.183 262.491 130 261C131.628 257.745 131.504 254.516 131 251C129.554 247.727 128.006 246.005 125.375 243.562C122.659 240.632 122.273 238.92 122 235C123.938 235.312 123.938 235.312 126 236C126.33 236.99 126.66 237.98 127 239C128.32 239 129.64 239 131 239C131.216 236.334 131.309 234.56 130 232.187C125.942 229.778 121.363 229.678 117.938 233ZM142 231C142 241.23 142 251.46 142 262C143.32 262 144.64 262 146 262C146 258.04 146 254.08 146 250C147.98 250 149.96 250 152 250C154.037 248.455 154.861 247.279 156 245C156.198 242.924 156.198 242.924 156.188 240.625C156.209 239.469 156.209 239.469 156.23 238.289C155.974 235.742 155.356 234.16 154 232C150.882 230.255 150.882 230.255 142 231ZM162 231C160.296 236.496 159.245 241.942 158.375 247.625C158.241 248.458 158.107 249.29 157.969 250.148C157.347 254.133 156.818 257.953 157 262C158.32 262 159.64 262 161 262C161.33 260.35 161.66 258.7 162 257C163.98 256.67 165.96 256.34 168 256C168.33 257.98 168.66 259.96 169 262C170.32 262 171.64 262 173 262C172.585 254.697 171.691 247.524 170.5 240.312C170.369 239.51 170.239 238.708 170.104 237.881C169.756 234.129 169.756 234.129 168 231C166 230.959 164 230.957 162 231ZM176 231C176 241.23 176 251.46 176 262C177.65 262 179.3 262 181 262C181 257.71 181 253.42 181 249C182.32 249.66 183.64 250.32 185 251C185.609 253.602 185.609 253.602 185.75 256.625C185.807 257.628 185.863 258.631 185.922 259.664C185.961 260.82 185.961 260.82 186 262C187.65 262 189.3 262 191 262C190.928 261.108 190.856 260.216 190.781 259.297C190.688 258.126 190.596 256.956 190.5 255.75C190.407 254.59 190.314 253.43 190.219 252.234C189.994 248.904 189.966 245.642 190.141 242.309C190.177 241.361 190.213 240.414 190.25 239.437C190.296 238.487 190.343 237.537 190.391 236.559C190.219 233.435 190.219 233.435 186 231C182.7 231 179.4 231 176 231ZM193 231C193 232.32 193 233.64 193 235C194.65 235 196.3 235 198 235C198 243.91 198 252.82 198 262C199.32 262 200.64 262 202 262C202.33 253.42 202.66 244.84 203 236C204.65 235.67 206.3 235.34 208 235C208 233.68 208 232.36 208 231C203.05 231 198.1 231 193 231ZM210 231C210 241.23 210 251.46 210 262C211.65 262 213.3 262 215 262C215 251.77 215 241.54 215 231C213.35 231 211.7 231 210 231ZM219 231C219 241.23 219 251.46 219 262C223.29 262 227.58 262 232 262C232 260.68 232 259.36 232 258C229.03 258 226.06 258 223 258C223.495 253.545 223.495 253.545 224 249C225.98 248.67 227.96 248.34 230 248C230 246.68 230 245.36 230 244C227.69 244 225.38 244 223 244C223 241.03 223 238.06 223 235C225.97 235 228.94 235 232 235C232 233.68 232 232.36 232 231C227.71 231 223.42 231 219 231ZM236 232C234.36 235.28 234.39 238.469 235 242C236.748 245.247 238.473 247.518 241.188 250C243.515 252.569 243.691 254.606 244 258C242.35 258 240.7 258 239 258C239 256.35 239 254.7 239 253C237.35 253.33 235.7 253.66 234 254C234.599 256.352 235.269 258.686 236 261C239.019 262.509 241.673 262.175 245 262C248.311 260.269 248.311 260.269 248.875 256.75C249.073 250.804 246.64 247.638 242.812 243.375C242.283 242.826 241.753 242.277 241.207 241.711C240 240 240 240 240 236C241.32 236 242.64 236 244 236C244.33 236.99 244.66 237.98 245 239C246.32 239 247.64 239 249 239C248.553 234.521 248.553 234.521 246 231C240.817 230.509 240.817 230.509 236 232Z" fill="#040203"/>
<path d="M331.625 33.25C335.356 36.0302 337.518 38.5539 339 43C339.049 45.1531 339.037 47.3078 338.992 49.4609C338.967 51.3752 338.967 51.3752 338.941 53.3281C338.91 55.3515 338.875 57.3744 338.829 59.3975C338.786 61.3559 338.764 63.3147 338.742 65.2734C338.72 66.4431 338.698 67.6128 338.675 68.8179C339.031 72.3078 339.982 74.1713 342 77C347.526 76.5579 350.497 75.1326 355 72C357.872 71.0195 359.521 70.9161 362.5 71.4375C369.162 75.6013 371.404 84.2234 373.5 91.375C373.793 92.3594 374.087 93.3439 374.389 94.3582C376.617 102.102 378.385 109.908 379.938 117.812C380.149 118.878 380.36 119.944 380.578 121.042C384.349 141.413 375.888 155.941 365.38 172.889C361.902 178.5 358.979 183.754 357.438 190.242C357 192 357 192 356 193C356.042 194.746 356.159 196.49 356.305 198.23C356.437 199.885 356.437 199.885 356.572 201.573C356.672 202.766 356.772 203.958 356.875 205.188C357.665 215.041 358.307 224.872 358.57 234.755C358.821 242.035 359.335 249.469 363.688 255.562C364.217 256.31 364.747 257.058 365.293 257.828C366.941 259.926 368.682 261.862 370.5 263.812C379.26 273.708 381.96 286.16 385.336 298.59C388.353 310.641 388.353 310.641 395.625 320.375C397.966 323.142 398.564 326.485 399 330C398.718 333.173 397.979 336.17 397.188 339.25C395.479 346.508 394.298 353.526 394 361C392.68 361 391.36 361 390 361C390 355.39 390 349.78 390 344C389.752 345.712 389.505 347.424 389.25 349.187C388.421 353.787 387.504 356.715 384 360C381.17 361.415 378.716 361.208 375.562 361.25C374.409 361.276 373.255 361.302 372.066 361.328C369 361 369 361 367.09 359.605C366 358 366 358 366 356.062C367 354 367 354 369.312 352.375C375.943 346.515 377.154 336.429 378 328C378.907 309.928 366.147 290.458 355 277C353.489 275.449 351.949 273.925 350.375 272.438C342.176 264.63 337.369 254.294 333 244C332.67 243.34 332.34 242.68 332 242C331.686 240.663 331.398 239.319 331.125 237.973C330.054 233.017 328.577 228.252 327 223.438C319.627 200.824 319.627 200.824 323.32 193.316C329.402 184.139 337.754 178.525 348.562 176.25C349.367 176.167 350.171 176.085 351 176C352.503 171.52 353.994 167.037 355.43 162.535C362.048 141.952 362.048 141.952 366 138C366.406 130.057 363.334 123.246 360.277 116.125C359 113 359 113 359 111C358.34 111 357.68 111 357 111C356.936 111.681 356.871 112.361 356.805 113.062C355.716 117.038 353.584 119.74 351.125 123C344.854 131.458 340.745 137.921 341.648 148.854C342.589 154.592 344.697 160.13 346.598 165.609C346.917 166.535 347.237 167.46 347.566 168.414C347.865 169.249 348.163 170.084 348.471 170.944C349 173 349 173 348 175C346.304 175.73 346.304 175.73 344.09 176.402C343.272 176.652 342.455 176.901 341.613 177.157C340.289 177.544 340.289 177.544 338.938 177.938C338.036 178.203 337.134 178.469 336.205 178.743C320.253 183.332 304.592 185.237 288 185C287.67 183.68 287.34 182.36 287 181C286.182 181.232 286.182 181.232 285.348 181.469C279.277 182.843 273.457 183.189 267.77 180.438C265.091 178.719 262.519 176.944 260 175C261.926 177.439 263.801 179.801 266 182C265.402 182.495 264.804 182.99 264.188 183.5C261.726 186.313 260.879 188.67 259.809 192.195C259 194 259 194 256 196C256.61 192.442 257.578 189.317 259 186C258.34 186 257.68 186 257 186C256.629 187.114 256.629 187.114 256.25 188.25C254.886 191.25 253.541 192.921 251 195C250.01 195 249.02 195 248 195C249.41 191.961 251.089 189.406 253.125 186.75C253.664 186.044 254.203 185.337 254.758 184.609C255.373 183.813 255.373 183.813 256 183C255.42 183.361 254.84 183.722 254.242 184.094C249.688 186.799 246.472 188.702 241 188C241 187.34 241 186.68 241 186C241.519 185.746 242.039 185.492 242.574 185.23C248.416 182.348 248.416 182.348 254 179C254 178.67 254 178.34 254 178C250.04 178 246.08 178 242 178C242 177.34 242 176.68 242 176C251.476 172.097 262.775 167.592 273 171C277.67 171.908 281.412 171.961 285.562 169.449C294.478 161.83 302.525 151.603 304.336 139.812C304.435 135.21 303.44 132.819 300.91 128.855C299.19 125.348 299.154 121.773 300 118C302.375 115.188 302.375 115.188 305 113C307.513 109.355 307.569 105.309 308 101C302.978 104.266 301.712 107.477 300 112.938C298.266 118.436 296.747 122.339 292 126C289.543 126.488 289.543 126.488 287.188 126.312C286.397 126.267 285.607 126.222 284.793 126.176C284.201 126.118 283.61 126.06 283 126C283 125.67 283 125.34 283 125C284.64 124.598 284.64 124.598 286.312 124.188C290.331 122.929 290.331 122.929 293 120C293.995 117.016 294.196 114.8 294.316 111.676C294.379 110.134 294.379 110.134 294.443 108.561C294.483 107.489 294.522 106.417 294.562 105.312C294.627 103.687 294.627 103.687 294.693 102.029C294.799 99.353 294.902 96.6766 295 94C293.888 97.3368 293.786 100.113 293.625 103.625C292.683 117.442 292.683 117.442 287.312 122.562C286.549 123.037 285.786 123.511 285 124C284.01 123.505 284.01 123.505 283 123C283.486 122.623 283.972 122.247 284.472 121.858C286.579 119.296 286.398 117.556 286.441 114.266C286.468 113.134 286.494 112.002 286.521 110.836C286.542 109.061 286.542 109.061 286.562 107.25C286.828 89.4305 286.828 89.4305 291.625 84.0625C292.409 83.3819 293.192 82.7012 294 82C289.431 84.2228 287.924 86.34 286 91C285.583 94.0994 285.583 94.0994 285.664 97.3164C285.651 98.4927 285.638 99.6689 285.625 100.881C285.625 103.339 285.633 105.798 285.648 108.256C285.516 118.285 285.516 118.285 282.605 121.289C280.291 122.809 278.733 123.696 276 124C277.29 122.624 278.627 121.292 280 120C280.66 120 281.32 120 282 120C282 109.77 282 99.54 282 89C280.674 92.9786 280.675 96.8199 280.477 100.992C279.948 104.326 278.976 106.285 277 109C271.613 111.694 263.692 109.971 257.91 109.121C255.777 108.866 255.777 108.866 253 110C252.67 112.31 252.34 114.62 252 117C251.34 116.34 250.68 115.68 250 115C250.137 111.786 250.327 109.747 252.516 107.316C256.193 105.368 259.537 105.717 263.625 105.875C268.969 106.299 268.969 106.299 274 105C274.512 101.535 274.837 98.0977 275.123 94.6094C275.809 87.516 277.389 81.8369 283 77C280.525 77.495 280.525 77.495 278 78C277.56 79.2909 277.123 80.5828 276.688 81.875C276.41 82.6923 276.133 83.5095 275.848 84.3516C275.287 86.1027 274.773 87.8694 274.309 89.6484C272.9 95.0073 271.687 98.6211 267 102C263.688 102.812 263.688 102.812 261 103C262.485 102.01 262.485 102.01 264 101C269.144 96.8519 270.005 93.2829 271 87.0625C272.048 80.5441 273.279 76.7428 278 72C281.022 69.8413 282.272 69 286 69C286 68.34 286 67.68 286 67C279.81 69.1514 275.314 71.012 271 76C270.01 76.495 270.01 76.495 269 77C271.021 71.2471 273.615 68.827 279 66C279.99 66 280.98 66 282 66C282.33 65.01 282.66 64.02 283 63C283.619 62.7112 284.238 62.4225 284.875 62.125C289.467 59.6937 291.061 53.7087 293.125 49.1875C296.851 41.4743 301.81 35.6608 309.75 32C316.809 29.8541 325.16 29.3856 331.625 33.25Z" fill="#9C114D"/>
<path d="M380 130C380.66 130 381.32 130 382 130C383.545 145.518 373.294 160.125 365.38 172.889C361.902 178.5 358.979 183.754 357.437 190.242C357 192 357 192 356 193C356.042 194.746 356.159 196.49 356.305 198.23C356.437 199.885 356.437 199.885 356.572 201.573C356.672 202.766 356.772 203.958 356.875 205.188C357.665 215.041 358.307 224.872 358.57 234.755C358.821 242.035 359.335 249.469 363.687 255.562C364.217 256.31 364.747 257.058 365.293 257.828C366.941 259.926 368.682 261.862 370.5 263.812C379.26 273.708 381.96 286.16 385.336 298.59C388.353 310.641 388.353 310.641 395.625 320.375C397.966 323.142 398.564 326.485 399 330C398.718 333.173 397.979 336.17 397.187 339.25C395.479 346.508 394.298 353.526 394 361C392.68 361 391.36 361 390 361C390 355.39 390 349.78 390 344C389.752 345.712 389.505 347.424 389.25 349.188C388.421 353.787 387.504 356.715 384 360C381.17 361.415 378.716 361.208 375.562 361.25C374.409 361.276 373.255 361.302 372.066 361.328C369 361 369 361 367.09 359.605C366 358 366 358 366 356.062C367 354 367 354 369.312 352.375C375.943 346.515 377.154 336.429 378 328C378.907 309.928 366.147 290.458 355 277C353.489 275.449 351.949 273.925 350.375 272.438C342.176 264.63 337.369 254.294 333 244C332.67 243.34 332.34 242.68 332 242C331.686 240.663 331.398 239.319 331.125 237.973C330.054 233.017 328.577 228.252 327 223.438C319.626 200.824 319.626 200.824 323.32 193.316C329.402 184.139 337.754 178.525 348.562 176.25C349.367 176.167 350.171 176.085 351 176C352.516 171.47 354.024 166.938 355.5 162.395C356 160.867 356.5 159.34 357 157.812C357.247 157.045 357.495 156.277 357.75 155.486C359.187 151.118 360.82 147.069 363 143C363.041 143.619 363.082 144.238 363.125 144.875C363.414 145.576 363.702 146.277 364 147C366.996 148.305 366.996 148.305 370 149C370.495 147.515 370.495 147.515 371 146C372.848 145.27 372.848 145.27 375.062 144.812C375.796 144.654 376.529 144.495 377.285 144.332C377.851 144.222 378.417 144.113 379 144C378.979 142.804 378.959 141.607 378.937 140.375C378.931 136.82 379.301 133.494 380 130Z" fill="#99124C"/>
<path d="M46 142C61.0603 140.792 61.0603 140.792 65.1836 143.359C66.7344 145.486 67.837 147.638 69 150C70.4383 152.18 71.8975 154.346 73.375 156.5C74.5856 158.332 75.7948 160.165 77 162C80.0324 159.27 82.209 156.869 84.0781 153.23C89.5717 142.789 89.5717 142.789 94.1201 141.312C99.1511 140.684 104.014 141.219 109 142C110.134 150.996 109.934 157.111 104.375 164.437C102.635 166.672 100.837 168.845 99 171C97.7585 172.511 96.5267 174.03 95.3125 175.562C94.8343 176.121 94.356 176.679 93.8633 177.254C92.8384 179.006 92.8384 179.006 92.9883 181.211C94.5088 185.403 97.1437 188.573 99.875 192.062C100.418 192.77 100.96 193.477 101.52 194.205C102.534 195.525 103.551 196.843 104.574 198.156C105.044 198.765 105.515 199.373 106 200C106.548 200.662 107.095 201.323 107.66 202.005C109.703 205.047 109.357 208.158 109.25 211.687C109.245 212.376 109.24 213.066 109.234 213.775C109.155 218.845 109.155 218.845 108 220C102.654 221.303 97.2047 222.211 92 220C86.9171 215.204 83.557 208.852 80.28 202.744C79.8576 202.169 79.4352 201.593 79 201C78.01 201 77.02 201 76 201C74.0144 203.446 74.0144 203.446 72.125 206.562C71.4057 207.652 70.6864 208.741 69.9453 209.863C68.0272 212.806 68.0272 212.806 66.9297 215.355C65.8705 217.514 64.9059 218.543 63 220C57.5963 220.64 52.4089 220.543 47 220C45.1202 218.12 45.4023 215.478 45.1875 212.937C45.1875 203.377 50.5321 197.854 56.4546 190.833C56.9646 190.228 57.4746 189.623 58 189C58.5216 188.389 59.0432 187.778 59.5806 187.148C61.2261 185.165 61.2261 185.165 63 182C62.313 177.496 58.9735 174.071 56.1875 170.562C55.7615 170.015 55.3354 169.468 54.8965 168.904C54.2574 168.087 54.2574 168.087 53.6055 167.254C53.1802 166.708 52.7548 166.163 52.3167 165.601C51.0266 163.984 51.0266 163.984 49.572 162.548C46.8874 159.75 45.6843 157.721 45.5117 153.914C45.5445 152.484 45.6036 151.053 45.6875 149.625C45.7101 148.889 45.7326 148.153 45.7559 147.395C45.8143 145.595 45.9039 143.797 46 142Z" fill="#EB1E78"/>
<path d="M186 142C197.471 140.578 197.471 140.578 203 142C207.164 145.366 209.476 149.327 212 154C213.64 156.685 215.314 159.343 217 162C217.66 162 218.32 162 219 162C220.388 160.322 220.388 160.322 221.75 158.133C222.276 157.33 222.802 156.527 223.344 155.699C223.89 154.85 224.437 154 225 153.125C226.081 151.46 227.165 149.796 228.25 148.133C228.969 147.017 228.969 147.017 229.703 145.879C231 144 231 144 233 142C235.745 141.855 238.385 141.813 241.125 141.875C241.879 141.884 242.633 141.893 243.41 141.902C245.274 141.926 247.137 141.962 249 142C250.173 152.467 249.062 158.744 242.473 167.055C241.657 168.027 240.841 168.999 240 170C238.618 171.661 237.242 173.327 235.875 175C235.295 175.66 234.715 176.32 234.117 177C232.805 178.96 232.805 178.96 233.023 181.352C234.319 184.865 236.415 187.505 238.75 190.375C239.202 190.956 239.655 191.537 240.121 192.135C241.936 194.464 243.743 196.728 245.773 198.875C250.19 203.777 249.432 209.628 249.273 215.867C249 219 249 219 248 220C245.561 220.235 243.194 220.371 240.75 220.437C240.081 220.483 239.412 220.529 238.723 220.576C236.734 220.621 236.734 220.621 233 220C230.899 217.96 229.564 216.385 228 214C227.182 212.879 226.363 211.76 225.543 210.641C224.755 209.512 223.97 208.382 223.187 207.25C222.781 206.674 222.374 206.098 221.955 205.504C219 201.243 219 201.243 219 199C215.38 202.425 212.573 205.878 209.875 210.062C208.59 212.046 207.298 214.025 206 216C205.593 216.776 205.185 217.552 204.766 218.352C202.37 220.588 200.278 220.438 197.098 220.4C196.364 220.371 195.631 220.342 194.875 220.312C194.134 220.303 193.393 220.293 192.629 220.283C187.168 220.168 187.168 220.168 186 219C184.496 213.087 184.411 207.796 187.444 202.459C191.115 197.117 195.185 192.105 199.396 187.181C201.134 184.818 202.215 182.83 203 180C201.627 177.457 200.328 175.49 198.562 173.25C198.102 172.627 197.641 172.005 197.166 171.363C195.141 168.649 193.083 166.089 190.77 163.613C186.43 158.916 185.463 155.302 185.562 148.937C185.674 146.623 185.808 144.309 186 142Z" fill="#EB1E78"/>
<path d="M116 142C130.881 140.326 130.881 140.326 135.699 144.133C137.731 146.998 139.387 149.882 141 153C142.104 154.722 143.227 156.432 144.375 158.125C144.836 158.849 145.298 159.574 145.773 160.32C146.91 162.146 146.91 162.146 149 163C149.375 161.933 149.375 161.933 149.758 160.844C151.13 157.702 152.829 155.248 154.875 152.5C155.553 151.582 156.231 150.664 156.93 149.719C157.613 148.822 158.296 147.924 159 147C159.862 145.602 159.862 145.602 160.742 144.176C163 142 163 142 166.891 141.512C168.345 141.545 169.798 141.604 171.25 141.688C171.995 141.71 172.74 141.733 173.508 141.756C175.339 141.815 177.17 141.904 179 142C179.745 150.873 179.996 157.357 174.16 164.523C173.447 165.341 172.734 166.158 172 167C170.737 168.565 169.474 170.13 168.24 171.718C167.056 173.241 165.841 174.74 164.625 176.238C162.792 178.824 162.792 178.824 162.988 181.492C164.285 184.706 166.052 187.083 168.187 189.812C168.59 190.344 168.993 190.875 169.408 191.423C171.16 193.723 172.937 195.934 174.93 198.031C179.9 203.454 179.536 208.896 179.309 215.902C179 219 179 219 178 220C172.711 221.018 167.187 221.825 162 220C157.818 216.499 155.37 211.52 152.927 206.729C151.816 204.657 150.413 202.873 149 201C149 200.34 149 199.68 149 199C145.38 202.425 142.573 205.878 139.875 210.062C138.59 212.046 137.298 214.025 136 216C135.593 216.776 135.185 217.552 134.766 218.352C132.37 220.588 130.278 220.438 127.098 220.4C126.364 220.371 125.631 220.342 124.875 220.312C124.134 220.303 123.393 220.293 122.629 220.283C117.168 220.168 117.168 220.168 116 219C114.632 212.161 114.672 206.568 118.535 200.723C121.06 197.276 123.786 194.01 126.545 190.75C130.429 186.098 130.429 186.098 132.539 180.52C131.762 176.886 129.689 174.484 127.375 171.688C126.921 171.109 126.466 170.531 125.999 169.935C124.077 167.496 122.144 165.151 120 162.902C115.525 158.007 115.484 153.306 115.693 146.926C115.775 145.283 115.885 143.641 116 142Z" fill="#EA1E77"/>
<path d="M286 191C310.463 193.54 310.463 193.54 317 200C318.16 207.412 315 216.448 313.461 223.742C311.168 234.641 310.714 245.238 310.395 256.354C310.357 257.519 310.32 258.685 310.281 259.887C310.236 261.468 310.236 261.468 310.189 263.081C310.012 265.813 309.56 268.326 309 271C308.933 273.353 308.915 275.708 308.937 278.062C308.947 279.27 308.956 280.478 308.965 281.723C308.976 282.804 308.988 283.886 309 285C309 286.32 309 287.64 309 289C309.03 302.991 311.103 316.367 313.829 330.048C317.48 348.55 317.48 348.55 317 356C315.159 358.574 314.064 358.979 311 360C309.003 360.119 307.001 360.175 305 360.188C303.948 360.202 302.896 360.216 301.812 360.23C299 360 299 360 296 358C295.439 353.429 296.431 350.389 298.437 346.312C301.924 339.132 303.474 333.076 301.185 325.191C300.069 322.259 298.874 319.378 297.625 316.5C292.228 303.834 290.708 292.959 290.5 279.25C290.306 266.62 289.821 254.142 286 242C283.806 231.912 283.787 221.71 283.75 211.438C283.745 210.772 283.74 210.106 283.734 209.419C283.722 207.487 283.728 205.554 283.734 203.621C283.737 202.491 283.739 201.361 283.741 200.197C284.012 196.85 284.81 194.129 286 191Z" fill="#AA1053"/>
<path d="M292 51C292.99 51.66 293.98 52.32 295 53C296.675 52.7128 298.341 52.3687 300 52C302.674 51.9056 305.324 51.9546 308 52C309.867 55.8972 310.14 58.5408 309.625 62.8125C309.514 63.7883 309.403 64.7641 309.289 65.7695C309.146 66.8736 309.146 66.8736 309 68C310.32 68 311.64 68 313 68C312.505 70.475 312.505 70.475 312 73C313.98 73 315.96 73 318 73C317.67 74.32 317.34 75.64 317 77C316.34 77 315.68 77 315 77C315.495 79.97 315.495 79.97 316 83C316.66 83 317.32 83 318 83C318.33 82.34 318.66 81.68 319 81C319.66 81 320.32 81 321 81C321.33 80.34 321.66 79.68 322 79C325 80 325 80 326.75 82.5C328.827 88.3146 327.933 93.4405 325.375 99C321.483 106.068 316.211 112.062 310.383 117.59C308.207 119.809 308.004 120.876 307.902 124.039C307.914 125.222 307.926 126.406 307.938 127.625C307.947 128.814 307.956 130.002 307.965 131.227C307.976 132.142 307.988 133.057 308 134C311.194 133.202 311.194 133.202 313.375 130.438C316 128 316 128 318.625 127.438C321 128 321 128 322.875 129.438C324.64 133.458 324.096 136.812 323 141C321.625 144.198 319.87 147.069 318 150C317.459 150.866 316.917 151.733 316.359 152.625C314.011 156.348 311.628 160.046 309.207 163.723C304.949 170.256 301.354 176.961 298 184C295.36 184 292.72 184 290 184C290.279 177.912 292.595 173.402 295.307 168.001C303.467 151.794 303.467 151.794 304 134C302.802 131.573 301.397 129.323 300 127C299.286 123.876 299.298 121.131 300 118C302.375 115.188 302.375 115.188 305 113C307.513 109.355 307.569 105.309 308 101C302.978 104.266 301.712 107.477 300 112.938C298.266 118.436 296.747 122.339 292 126C289.543 126.488 289.543 126.488 287.188 126.312C286.397 126.267 285.607 126.222 284.793 126.176C284.201 126.118 283.61 126.06 283 126C283 125.67 283 125.34 283 125C284.64 124.598 284.64 124.598 286.312 124.188C290.331 122.929 290.331 122.929 293 120C293.995 117.016 294.196 114.8 294.316 111.676C294.379 110.134 294.379 110.134 294.443 108.561C294.483 107.489 294.522 106.417 294.562 105.312C294.627 103.687 294.627 103.687 294.693 102.029C294.799 99.353 294.902 96.6766 295 94C293.888 97.3368 293.786 100.113 293.625 103.625C292.683 117.442 292.683 117.442 287.312 122.562C286.549 123.037 285.786 123.511 285 124C284.01 123.505 284.01 123.505 283 123C283.486 122.623 283.972 122.247 284.472 121.858C286.579 119.296 286.398 117.556 286.441 114.266C286.468 113.134 286.494 112.002 286.521 110.836C286.542 109.061 286.542 109.061 286.562 107.25C286.828 89.4305 286.828 89.4305 291.625 84.0625C292.409 83.3819 293.192 82.7013 294 82C289.431 84.2228 287.924 86.34 286 91C285.583 94.0994 285.583 94.0994 285.664 97.3164C285.651 98.4927 285.638 99.6689 285.625 100.881C285.625 103.339 285.633 105.798 285.648 108.256C285.516 118.285 285.516 118.285 282.605 121.289C280.291 122.809 278.733 123.696 276 124C277.29 122.624 278.627 121.292 280 120C280.66 120 281.32 120 282 120C282 109.77 282 99.54 282 89C280.674 92.9786 280.675 96.8199 280.477 100.992C279.948 104.326 278.976 106.285 277 109C271.613 111.694 263.692 109.971 257.91 109.121C255.777 108.866 255.777 108.866 253 110C252.67 112.31 252.34 114.62 252 117C251.34 116.34 250.68 115.68 250 115C250.137 111.786 250.327 109.747 252.516 107.316C256.193 105.368 259.537 105.717 263.625 105.875C268.969 106.299 268.969 106.299 274 105C274.512 101.535 274.837 98.0977 275.123 94.6094C275.809 87.516 277.389 81.8369 283 77C281.35 77.33 279.7 77.66 278 78C277.56 79.2909 277.123 80.5828 276.688 81.875C276.41 82.6923 276.133 83.5095 275.848 84.3516C275.287 86.1027 274.773 87.8694 274.309 89.6484C272.9 95.0073 271.687 98.6211 267 102C263.688 102.812 263.688 102.812 261 103C261.99 102.34 262.98 101.68 264 101C269.144 96.8519 270.005 93.2829 271 87.0625C272.048 80.5442 273.279 76.7428 278 72C281.022 69.8413 282.272 69 286 69C286 68.34 286 67.68 286 67C279.81 69.1514 275.314 71.012 271 76C270.34 76.33 269.68 76.66 269 77C271.021 71.2471 273.615 68.827 279 66C279.99 66 280.98 66 282 66C282.33 65.01 282.66 64.02 283 63C283.619 62.7113 284.238 62.4225 284.875 62.125C289.063 59.9076 290.419 55.2569 292 51Z" fill="#A91052"/>
<path d="M364 265C368.018 265.271 371.714 265.593 374.535 268.68C375.893 271.064 376.964 273.459 378 276C378.396 276.895 378.791 277.789 379.199 278.711C382.498 286.64 384.668 294.796 386.681 303.134C388.345 309.682 390.568 315.743 395.575 320.494C398.088 323.149 398.643 326.476 399 330C398.708 333.172 397.979 336.17 397.188 339.25C395.479 346.508 394.298 353.526 394 361C392.68 361 391.36 361 390 361C390 355.39 390 349.78 390 344C389.752 345.712 389.505 347.424 389.25 349.188C388.421 353.787 387.504 356.715 384 360C381.17 361.415 378.716 361.208 375.562 361.25C373.832 361.289 373.832 361.289 372.066 361.328C369 361 369 361 367.09 359.605C366 358 366 358 366 356.062C367 354 367 354 369.312 352.375C375.943 346.515 377.154 336.429 378 328C378.661 314.825 371.402 299.108 363.27 288.809C361.296 285.997 361.808 283.325 362 280C361.01 280 360.02 280 359 280C358.856 279.381 358.711 278.762 358.562 278.125C358.068 275.967 358.068 275.967 357 274C357.66 274 358.32 274 359 274C359.33 273.01 359.66 272.02 360 271C361 270 362 269 363 268C363.33 267.01 363.66 266.02 364 265Z" fill="#75153E"/>
<path d="M323 80C323.66 80 324.32 80 325 80C327.882 84.4964 328.381 87.5863 327.566 92.7109C325.096 102.694 317.662 110.686 310.383 117.59C308.207 119.809 308.004 120.876 307.902 124.039C307.914 125.222 307.926 126.406 307.938 127.625C307.947 128.814 307.956 130.002 307.965 131.227C307.976 132.142 307.988 133.057 308 134C311.194 133.202 311.194 133.202 313.375 130.438C316 128 316 128 318.625 127.438C321 128 321 128 322.875 129.438C324.64 133.458 324.096 136.812 323 141C321.625 144.198 319.87 147.069 318 150C317.459 150.866 316.917 151.733 316.359 152.625C314.011 156.348 311.628 160.046 309.207 163.723C304.949 170.256 301.354 176.961 298 184C295.36 184 292.72 184 290 184C290.361 176.673 293.721 170.699 296.875 164.188C304.382 149.781 304.382 149.781 306 134C305.34 133.257 304.68 132.515 304 131.75C301.301 128.039 301.26 125.237 301.406 120.723C302.417 116.089 305.435 113.874 309 111C311.913 107.796 312.512 105.295 313 101C311.68 100.34 310.36 99.68 309 99C309.613 96.0382 310.254 94.6194 312 92C314.602 91.2695 314.602 91.2695 317.625 90.8125C318.628 90.6539 319.631 90.4954 320.664 90.332C321.435 90.2225 322.206 90.1129 323 90C323 86.7 323 83.4 323 80Z" fill="#F8197A"/>
<path d="M286 191C292.875 191.875 292.875 191.875 294 193C293.91 194.374 293.754 195.744 293.574 197.109C292.871 203.483 292.814 209.822 292.815 216.23C292.813 218.233 292.794 220.236 292.775 222.238C292.645 236.688 292.645 236.688 296.044 250.599C297.05 253.125 297.307 255.041 297.414 257.746C297.453 258.655 297.491 259.564 297.531 260.5C297.562 261.47 297.593 262.439 297.625 263.438C297.666 264.448 297.707 265.458 297.749 266.5C297.971 272.615 297.982 278.699 297.861 284.816C297.696 294.308 298.323 302.11 302 311C302.513 312.313 303.023 313.627 303.531 314.941C305.313 319.506 307.106 324.068 309.164 328.516C311.816 336.396 310.346 346.181 308 354C306 356 306 356 303.375 356.125C302.591 356.084 301.808 356.043 301 356C300.793 352.271 301.314 350.273 303 347C305.433 334.533 303.542 325.342 298.774 313.907C297.627 311.081 296.651 308.206 295.688 305.312C295.382 304.401 295.077 303.49 294.762 302.551C293.421 298.061 292.887 293.971 292.895 289.285C292.753 274.62 291.512 260.801 288.938 246.375C285.637 227.834 285.338 209.785 286 191Z" fill="#F51A79"/>
<path d="M303 146C303.33 146 303.66 146 304 146C303.636 153.443 300.907 158.98 297.562 165.562C293.035 174.498 293.035 174.498 290 184C292.31 184 294.62 184 297 184C297 184.33 297 184.66 297 185C294.03 185 291.06 185 288 185C287.505 183.02 287.505 183.02 287 181C286.455 181.155 285.909 181.309 285.348 181.469C279.277 182.843 273.457 183.189 267.77 180.438C265.091 178.719 262.519 176.944 260 175C261.926 177.439 263.801 179.801 266 182C265.402 182.495 264.804 182.99 264.188 183.5C261.726 186.313 260.879 188.67 259.809 192.195C259 194 259 194 256 196C256.61 192.442 257.578 189.317 259 186C258.34 186 257.68 186 257 186C256.752 186.743 256.505 187.485 256.25 188.25C254.886 191.25 253.541 192.921 251 195C250.01 195 249.02 195 248 195C249.41 191.961 251.089 189.406 253.125 186.75C253.664 186.044 254.203 185.337 254.758 184.609C255.168 184.078 255.578 183.547 256 183C255.13 183.541 255.13 183.541 254.242 184.094C249.688 186.799 246.472 188.702 241 188C241 187.34 241 186.68 241 186C241.519 185.746 242.039 185.492 242.574 185.23C248.416 182.348 248.416 182.348 254 179C254 178.67 254 178.34 254 178C250.04 178 246.08 178 242 178C242 177.34 242 176.68 242 176C251.476 172.097 262.775 167.592 273 171C277.67 171.908 281.412 171.961 285.562 169.449C292.526 163.498 300.067 154.8 303 146Z" fill="#B61559"/>
<path d="M364 265C368.018 265.271 371.714 265.593 374.535 268.68C375.894 271.066 376.966 273.455 378 276C378.431 277.011 378.861 278.021 379.305 279.062C387.218 298.542 387.218 298.542 385 305C384.34 304.01 383.68 303.02 383 302C382.01 304.475 382.01 304.475 381 307C380.01 306.01 379.02 305.02 378 304C377.2 307.287 376.903 308.71 378 312C377.34 312.66 376.68 313.32 376 314C375.576 312.973 375.152 311.945 374.715 310.887C371.911 304.225 369.164 297.93 365.062 291.938C362.154 287.64 361.201 285.136 362 280C361.01 280 360.02 280 359 280C358.856 279.381 358.711 278.762 358.562 278.125C358.068 275.967 358.068 275.967 357 274C357.66 274 358.32 274 359 274C359.33 273.01 359.66 272.02 360 271C361 270 362 269 363 268C363.33 267.01 363.66 266.02 364 265Z" fill="#841343"/>
<path d="M285 194C285.33 194 285.66 194 286 194C285.999 194.801 285.998 195.601 285.997 196.426C286.054 214.161 287.358 231.121 290.422 248.592C292.559 260.869 293.692 272.741 293.686 285.212C293.736 297.723 297.166 308.26 302.145 319.609C307.173 331.905 305.376 343.808 301 356C301.928 355.814 302.856 355.629 303.812 355.438C307 355 307 355 310 356C309.959 354.845 309.918 353.69 309.875 352.5C309.859 349.483 310.186 347.006 311.062 344.125C313.101 336.752 310.996 329.186 309 322C308.67 322 308.34 322 308 322C306.993 316.965 307.026 313.761 309 309C309.33 309 309.66 309 310 309C310.846 313.442 311.682 317.885 312.509 322.33C312.79 323.835 313.074 325.34 313.361 326.845C317.495 348.534 317.495 348.534 317 356C315.157 358.569 314.062 358.979 311 360C309.003 360.119 307.001 360.175 305 360.188C303.948 360.202 302.896 360.216 301.812 360.23C299 360 299 360 296 358C295.439 353.429 296.431 350.389 298.438 346.312C301.924 339.132 303.474 333.076 301.185 325.191C300.069 322.259 298.874 319.378 297.625 316.5C292.228 303.834 290.708 292.959 290.5 279.25C290.306 266.62 289.821 254.142 286 242C283.791 231.841 283.812 221.593 283.812 211.25C283.812 210.571 283.811 209.892 283.81 209.193C283.812 197.565 283.812 197.565 285 194Z" fill="#912553"/>
<path d="M380 130C380.66 130 381.32 130 382 130C383.66 146.673 371.639 163.203 362.97 176.814C360.468 180.838 359.104 184.445 358 189C357.34 189 356.68 189 356 189C356 186.36 356 183.72 356 181C355.01 180.67 354.02 180.34 353 180C353 179.34 353 178.68 353 178C351.68 178 350.36 178 349 178C349 177.34 349 176.68 349 176C349.66 176 350.32 176 351 176C352.516 171.47 354.024 166.938 355.5 162.395C356 160.867 356.5 159.34 357 157.812C357.371 156.661 357.371 156.661 357.75 155.486C359.187 151.118 360.82 147.069 363 143C363.062 143.928 363.062 143.928 363.125 144.875C363.414 145.576 363.702 146.277 364 147C366.996 148.305 366.996 148.305 370 149C370.33 148.01 370.66 147.02 371 146C372.848 145.27 372.848 145.27 375.062 144.812C375.796 144.654 376.529 144.495 377.285 144.332C377.851 144.222 378.417 144.113 379 144C378.979 142.804 378.959 141.607 378.938 140.375C378.931 136.82 379.301 133.494 380 130Z" fill="#951A4E"/>
<path d="M281 78C281.66 78.33 282.32 78.66 283 79C282.474 79.8972 282.474 79.8972 281.938 80.8125C280.667 83.1081 280.667 83.1081 282 86C284.015 86.7332 284.015 86.7332 286 87C286.33 85.68 286.66 84.36 287 83C288.32 82.67 289.64 82.34 291 82C290.041 83.3922 290.041 83.3922 289.062 84.8125C286.258 89.1467 285.882 91.9655 285.859 97.0234C285.84 98.2094 285.821 99.3953 285.801 100.617C285.767 103.114 285.749 105.612 285.746 108.109C285.537 118.268 285.537 118.268 282.598 121.301C280.288 122.811 278.725 123.697 276 124C277.29 122.624 278.627 121.292 280 120C280.66 120 281.32 120 282 120C282 109.77 282 99.54 282 89C280.674 92.9786 280.675 96.8199 280.477 100.992C279.948 104.326 278.976 106.285 277 109C271.613 111.694 263.692 109.971 257.91 109.121C255.777 108.866 255.777 108.866 253 110C252.67 112.31 252.34 114.62 252 117C251.34 116.34 250.68 115.68 250 115C250.137 111.786 250.327 109.747 252.516 107.316C256.193 105.368 259.537 105.717 263.625 105.875C268.969 106.299 268.969 106.299 274 105C274.512 101.535 274.837 98.0977 275.123 94.6094C275.744 88.1827 277.375 83.4376 281 78Z" fill="#9F1850"/>
<path d="M260 175C262.541 176.22 264.681 177.482 267 179.125C273.216 182.744 281.257 181.519 288 180C288 181.65 288 183.3 288 185C291.772 184.718 295.542 184.422 299.312 184.125C300.891 184.007 300.891 184.007 302.502 183.887C308.662 183.394 314.608 182.614 320.649 181.3C323.089 180.989 324.681 181.24 327 182C323.664 183.949 320.744 184.439 316.922 184.852C315.762 184.98 314.602 185.109 313.406 185.242C312.2 185.369 310.993 185.495 309.75 185.625C308.528 185.759 307.306 185.893 306.047 186.031C303.032 186.361 300.016 186.684 297 187C295.989 190.049 295.989 190.049 297 193C289.375 192.125 289.375 192.125 286 191C285.67 191.99 285.34 192.98 285 194C285 192.68 285 191.36 285 190C283.824 189.907 283.824 189.907 282.625 189.812C277.637 188.694 273.493 186.38 269 184C267.944 183.503 267.944 183.503 266.867 182.996C264.042 181.489 262.126 179.362 260 177C260 176.34 260 175.68 260 175Z" fill="#260213"/>
<path d="M338 96C339.32 96.33 340.64 96.66 342 97C342.477 103.553 341.459 108.351 338 114C334.776 117.071 332.473 118.908 328 119.188C325 119 325 119 323 117C323 115.68 323 114.36 323 113C324.539 111.613 324.539 111.613 326.625 110.312C331.941 106.62 335.131 101.738 338 96Z" fill="#F41978"/>
<path d="M285 194C285.33 194 285.66 194 286 194C285.999 194.801 285.998 195.601 285.997 196.426C286.054 214.161 287.362 231.118 290.421 248.59C292.564 260.922 293.693 272.865 293.773 285.387C293.82 292.174 294.358 298.404 296 305C295.01 304.67 294.02 304.34 293 304C290.41 295.976 290.626 287.664 290.5 279.312C290.307 266.662 289.827 254.162 286 242C283.791 231.841 283.812 221.593 283.812 211.25C283.812 210.571 283.811 209.892 283.81 209.193C283.812 197.565 283.812 197.565 285 194Z" fill="#A81454"/>
<path d="M282 63C284.64 63 287.28 63 290 63C289.67 63.99 289.34 64.98 289 66C288.34 66 287.68 66 287 66C287.66 67.32 288.32 68.64 289 70C288.01 70 287.02 70 286 70C285.907 71.1447 285.907 71.1447 285.812 72.3125C285 75 285 75 282.562 76.8125C280 78 280 78 278 78C277.56 79.2909 277.123 80.5828 276.688 81.875C276.41 82.6923 276.133 83.5095 275.848 84.3516C275.287 86.1027 274.773 87.8694 274.309 89.6484C272.9 95.0073 271.687 98.6211 267 102C263.688 102.812 263.688 102.812 261 103C261.99 102.34 262.98 101.68 264 101C269.144 96.8519 270.005 93.2829 271 87.0625C272.048 80.5442 273.279 76.7428 278 72C281.022 69.8413 282.272 69 286 69C286 68.34 286 67.68 286 67C279.81 69.1514 275.314 71.012 271 76C270.01 76.495 270.01 76.495 269 77C271.021 71.2471 273.615 68.827 279 66C279.99 66 280.98 66 282 66C282 65.01 282 64.02 282 63Z" fill="#A11852"/>
<path d="M300 54C306.448 53.635 306.448 53.635 308.75 55.1562C310.545 57.8039 310.092 59.5629 309.688 62.6875C309.568 63.6814 309.448 64.6752 309.324 65.6992C309.217 66.4585 309.11 67.2177 309 68C310.32 68 311.64 68 313 68C312.67 69.65 312.34 71.3 312 73C313.98 73 315.96 73 318 73C317.34 73.99 316.68 74.98 316 76C315.34 76 314.68 76 314 76C314 77.65 314 79.3 314 81C310.502 79.834 310.258 79.2021 308.5 76.125C307.248 73.9501 306.221 72.2057 304.379 70.4922C302.646 68.6173 302.585 67.5157 302.438 65C302.231 61.6958 301.965 60.9469 300 58C300 56.68 300 55.36 300 54Z" fill="#F61B79"/>
<path d="M324 100C324.33 100.99 324.66 101.98 325 103C328.503 104.716 328.503 104.716 332 106C329.343 109.739 327.419 111.65 323 113C323.33 114.65 323.66 116.3 324 118C322.907 117.835 321.814 117.67 320.687 117.5C317.125 116.933 317.125 116.933 314 117C309.284 121.491 308.333 124.557 308 131C308.99 130.67 309.98 130.34 311 130C311.33 130.99 311.66 131.98 312 133C310.02 133.495 310.02 133.495 308 134C305.981 129.962 306.278 125.368 307 121C308.891 117.842 311.338 115.517 314 113C315.079 111.807 316.143 110.599 317.187 109.375C317.668 108.814 318.149 108.254 318.645 107.676C320.624 105.228 322.315 102.657 324 100Z" fill="#A90F52"/>
<path d="M281 76C281.99 76.33 282.98 76.66 284 77C283.01 77.33 282.02 77.66 281 78C276.509 85.2108 275.665 94.286 275.406 102.566C275.272 103.369 275.138 104.173 275 105C269.655 108.563 263.083 107.014 257 106C257.66 104.68 258.32 103.36 259 102C259.908 102.041 260.815 102.082 261.75 102.125C264.979 102.001 266.421 101.868 269 100C272.375 95.1622 273.387 90.0396 274.742 84.375C276.168 80.5496 277.95 78.6576 281 76Z" fill="#110004"/>
<path d="M293 305C293.99 305 294.98 305 296 305C296.712 306.655 297.424 308.311 298.131 309.968C298.688 311.269 299.247 312.57 299.81 313.868C306.108 328.582 306.441 340.842 301 356C303.97 355.505 303.97 355.505 307 355C307 355.66 307 356.32 307 357C304.69 357 302.38 357 300 357C299.67 355.35 299.34 353.7 299 352C298.34 352 297.68 352 297 352C298.806 346.442 298.806 346.442 299.801 344.172C303.07 336.548 302.891 329.766 300.031 321.992C299.205 319.946 298.361 317.907 297.5 315.875C297.071 314.823 296.641 313.771 296.199 312.688C295.148 310.118 294.082 307.557 293 305Z" fill="#C32267"/>
<path d="M315 185C311.688 189.107 309.115 189.421 304 190C303.67 190.66 303.34 191.32 303 192C303.99 191.67 304.98 191.34 306 191C307.394 190.933 308.792 190.915 310.188 190.938C312.075 190.968 312.075 190.968 314 191C313.67 191.66 313.34 192.32 313 193C311.35 193 309.7 193 308 193C308 193.66 308 194.32 308 195C309.65 195 311.3 195 313 195C313 195.66 313 196.32 313 197C310.373 196.384 307.748 195.757 305.125 195.125C304.379 194.951 303.632 194.777 302.863 194.598C297.227 193.227 297.227 193.227 295 191C295.562 189.125 295.562 189.125 297 187C302.871 184.502 308.704 184.795 315 185Z" fill="#160009"/>
<path d="M308 309C308.934 312.01 309.045 312.867 308 316C308.394 318.638 308.394 318.638 309 321C309.33 321 309.66 321 310 321C312.012 328.991 313.623 335.871 312 344C311.644 346.187 311.29 348.375 310.938 350.562C310.627 352.375 310.316 354.188 310 356C308.515 356.495 308.515 356.495 307 357C307.217 355.944 307.217 355.944 307.438 354.867C309.772 342.452 310.143 332.577 305.047 320.867C303.649 317.037 303.838 314.844 305 311C305.66 311 306.32 311 307 311C307.33 310.34 307.66 309.68 308 309ZM306 316C307 318 307 318 307 318L306 316Z" fill="#9D0A4C"/>
<path d="M285 169C285.66 169 286.32 169 287 169C286.412 172.024 285.773 175.018 285 178C286.32 178.33 287.64 178.66 289 179C289 180.98 289 182.96 289 185C288.34 183.68 287.68 182.36 287 181C286.465 181.16 285.93 181.32 285.379 181.484C282.527 182.103 279.855 182.207 276.938 182.25C275.373 182.289 275.373 182.289 273.777 182.328C271 182 271 182 268 179C273.28 179 278.56 179 284 179C281.525 177.515 281.525 177.515 279 176C278.34 175.34 277.68 174.68 277 174C274.643 173.384 272.264 172.853 269.875 172.375C267.953 171.984 267.953 171.984 265.992 171.586C265.005 171.393 264.017 171.199 263 171C263 170.67 263 170.34 263 170C269.625 169.875 269.625 169.875 273 171C274.685 171.117 276.374 171.175 278.062 171.188C278.94 171.202 279.818 171.216 280.723 171.23C283.199 171.222 283.199 171.222 285 169Z" fill="#A31453"/>
<path d="M323 138C324.078 139.816 324.078 139.816 325 142C323.75 144.938 323.75 144.938 322 148C321.32 149.661 320.651 151.327 320 153C318.562 155.876 316.264 157.736 314 160C311.723 162.815 311.723 162.815 312 166C311.01 166.33 310.02 166.66 309 167C307.68 168.886 307.68 168.886 306.562 171.188C301.139 181.431 301.139 181.431 298 183C299.521 177.48 302.184 173.059 305.188 168.25C305.681 167.449 306.174 166.649 306.682 165.824C309.284 161.633 311.967 157.55 314.875 153.562C318.38 148.723 320.728 143.507 323 138Z" fill="#B70D58"/>
<path d="M307 335C307.66 335 308.32 335 309 335C309.081 337.563 309.141 340.124 309.187 342.688C309.225 343.769 309.225 343.769 309.264 344.873C309.326 349.431 308.946 352.442 306 356C303.312 356.312 303.312 356.312 301 356C300.75 351.499 300.75 351.499 301.945 349.113C303.394 346.21 303.839 343.29 304.437 340.121C305 338 305 338 307 335Z" fill="#FA197B"/>
<path d="M264 172C275.407 171.607 275.407 171.607 279.625 175.5C280.306 176.242 280.306 176.242 281 177C283.1 178.176 283.1 178.176 285 179C285 179.33 285 179.66 285 180C282.938 180.054 280.875 180.093 278.812 180.125C277.664 180.148 276.515 180.171 275.332 180.195C272.036 180.002 269.906 179.531 267 178C264 173.759 264 173.759 264 172Z" fill="#BF115C"/>
<path d="M295 93C295.33 93 295.66 93 296 93C295.919 96.8967 295.806 100.792 295.688 104.688C295.654 106.342 295.654 106.342 295.619 108.029C295.584 109.096 295.548 110.163 295.512 111.262C295.486 112.241 295.459 113.22 295.432 114.229C294.775 118.441 293.072 121.112 289.812 123.812C289.214 124.204 288.616 124.596 288 125C288.33 125.66 288.66 126.32 289 127C286.69 127 284.38 127 282 127C281.505 125.515 281.505 125.515 281 124C282.64 123.443 282.64 123.443 284.312 122.875C287.394 121.561 287.967 121.052 289.875 118.062C292.054 112.13 292.307 106.615 292.621 100.312C292.965 97.309 293.434 95.5366 295 93Z" fill="#1B0006"/>
<path d="M369 128C370.166 131.497 370 134.322 370 138C370.292 140.006 370.612 142.01 371 144C371.66 143.67 372.32 143.34 373 143C375 142.96 377 142.957 379 143C376.567 145.945 374.676 146.323 371 147C370.67 147.66 370.34 148.32 370 149C367.69 148.67 365.38 148.34 363 148C363.254 146.518 363.529 145.039 363.812 143.562C363.963 142.739 364.114 141.915 364.27 141.066C364.511 140.384 364.752 139.703 365 139C365.99 138.67 366.98 138.34 368 138C367.988 137.362 367.977 136.724 367.965 136.066C367.956 135.24 367.947 134.414 367.938 133.562C367.926 132.739 367.914 131.915 367.902 131.066C368 129 368 129 369 128Z" fill="#92144A"/>
<path d="M308 101C308.448 109.813 308.448 109.813 305 114C304.319 114.278 303.639 114.557 302.938 114.844C300.78 115.83 300.78 115.83 300.391 118.164C300.344 118.976 300.298 119.788 300.25 120.625C300.193 121.442 300.137 122.26 300.078 123.102C300.052 123.728 300.027 124.355 300 125C299.67 125 299.34 125 299 125C297.311 117.682 298.785 111.759 302 105C305.424 101 305.424 101 308 101Z" fill="#1B0009"/>
<path d="M294 248C297.511 253.266 297.361 257.399 297.625 263.625C297.67 264.655 297.715 265.685 297.761 266.746C298.079 275.238 297.798 283.542 297 292C296.67 292 296.34 292 296 292C296.005 291.395 296.01 290.791 296.016 290.167C296.037 287.403 296.05 284.639 296.062 281.875C296.071 280.924 296.079 279.972 296.088 278.992C296.104 274.21 296.005 269.702 295 265C294.01 265 293.02 265 292 265C291.67 261.7 291.34 258.4 291 255C291.66 254.67 292.32 254.34 293 254C293.658 250.971 293.658 250.971 294 248Z" fill="#EA1973"/>
<path d="M284 89C284.66 89 285.32 89 286 89C285.981 93.0393 285.929 97.0769 285.847 101.115C285.824 102.488 285.81 103.86 285.804 105.233C285.795 107.211 285.751 109.19 285.707 111.168C285.691 112.357 285.676 113.545 285.659 114.77C284.82 118.884 283.208 120.38 280 123C277.688 123.812 277.688 123.812 276 124C277.29 122.624 278.627 121.292 280 120C280.66 120 281.32 120 282 120C281.99 119.132 281.979 118.264 281.968 117.37C281.934 114.153 281.909 110.936 281.89 107.72C281.88 106.327 281.866 104.934 281.849 103.541C281.825 101.54 281.815 99.5397 281.805 97.5391C281.794 96.3346 281.784 95.1301 281.773 93.8892C282 91 282 91 284 89Z" fill="#941A4E"/>
<path d="M282 63C284.64 63 287.28 63 290 63C289.67 63.99 289.34 64.98 289 66C288.34 66 287.68 66 287 66C287.66 67.32 288.32 68.64 289 70C288.01 70 287.02 70 286 70C285.67 71.65 285.34 73.3 285 75C284.34 75 283.68 75 283 75C281.375 73 281.375 73 280 71C283 69 283 69 286 69C286 68.34 286 67.68 286 67C279.81 69.1514 275.314 71.012 271 76C270.01 76.495 270.01 76.495 269 77C271.021 71.2471 273.615 68.827 279 66C279.99 66 280.98 66 282 66C282 65.01 282 64.02 282 63Z" fill="#9E134E"/>
<path d="M123 196C123.33 197.32 123.66 198.64 124 200C123.34 200 122.68 200 122 200C122 200.66 122 201.32 122 202C121.34 202 120.68 202 120 202C118.895 205.315 118.679 208.204 118.438 211.688C118.293 213.771 118.149 215.854 118 218C122.62 218 127.24 218 132 218C132.33 217.34 132.66 216.68 133 216C133 217.32 133 218.64 133 220C130.354 220.027 127.708 220.047 125.062 220.062C124.308 220.071 123.553 220.079 122.775 220.088C120.85 220.097 118.925 220.052 117 220C115.092 218.092 115.609 215.052 115.5 212.5C115.5 205.76 116.965 202.391 121.469 197.477C121.974 196.989 122.479 196.502 123 196Z" fill="#D0296E"/>
<path d="M46 142C48.7724 141.865 51.5384 141.766 54.3125 141.687C55.491 141.625 55.491 141.625 56.6934 141.561C58.9034 141.514 60.8415 141.516 63 142C65.043 144.52 65.043 144.52 66 147C63.525 146.505 63.525 146.505 61 146C61 145.34 61 144.68 61 144C54.07 143.505 54.07 143.505 47 143C47.33 147.95 47.66 152.9 48 158C48.99 158.33 49.98 158.66 51 159C53.75 161.812 53.75 161.812 56 165C55.6406 167.199 55.6406 167.199 55 169C50.2088 164.513 45.9268 160.444 45.4023 153.707C45.3397 149.779 45.603 145.906 46 142Z" fill="#B92562"/>
<path d="M241 195C248.88 202.667 248.88 202.667 249.328 207.637C249.318 208.987 249.291 210.338 249.25 211.688C249.245 212.377 249.24 213.066 249.234 213.775C249.155 218.845 249.155 218.845 248 220C245.506 220.153 243.058 220.232 240.562 220.25C239.868 220.271 239.174 220.291 238.459 220.312C236.441 220.328 236.441 220.328 233 220C232.34 219.01 231.68 218.02 231 217C235.95 217.33 240.9 217.66 246 218C246.227 215.938 246.454 213.875 246.688 211.75C246.815 210.59 246.943 209.43 247.074 208.234C246.991 204.618 246.344 203.627 244 201C244 200.34 244 199.68 244 199C243.34 199 242.68 199 242 199C241.67 197.68 241.34 196.36 241 195Z" fill="#D1286D"/>
<path d="M186 142C188.772 141.865 191.538 141.766 194.312 141.687C195.491 141.625 195.491 141.625 196.693 141.561C198.903 141.514 200.841 141.516 203 142C205.043 144.52 205.043 144.52 206 147C205.34 147 204.68 147 204 147C203.67 146.34 203.34 145.68 203 145C200.451 144.688 197.996 144.487 195.438 144.375C194.727 144.336 194.016 144.298 193.283 144.258C191.523 144.163 189.761 144.081 188 144C188.477 153.198 188.477 153.198 191 162C187.489 159.153 186.103 157.798 185.512 153.23C185.545 151.882 185.604 150.534 185.688 149.187C185.71 148.495 185.733 147.802 185.756 147.088C185.814 145.391 185.904 143.695 186 142Z" fill="#C22567"/>
<path d="M308 269C309.473 271.946 309.093 274.599 309.062 277.875C309.053 279.11 309.044 280.345 309.035 281.617C309.024 282.734 309.012 283.85 309 285C309 286.32 309 287.64 309 289C308.845 291.751 308.68 294.5 308.5 297.25C308.428 298.368 308.428 298.368 308.355 299.508C308.238 301.339 308.119 303.169 308 305C307.01 304.67 306.02 304.34 305 304C305.166 303.12 305.333 302.239 305.504 301.332C306.508 294.323 305.999 287.135 305.873 280.076C305.862 278.941 305.851 277.806 305.84 276.637C305.823 275.602 305.806 274.568 305.789 273.503C306 271 306 271 308 269Z" fill="#871A48"/>
<path d="M382 289C383.391 291.629 384.44 294.121 385.187 297C385.367 297.66 385.546 298.32 385.73 299C386.036 301.265 385.681 302.835 385 305C384.34 304.01 383.68 303.02 383 302C382.34 303.65 381.68 305.3 381 307C379 306 379 306 378.125 304.188C378.084 303.466 378.042 302.744 378 302C378.639 301.443 379.279 300.886 379.937 300.312C382.754 297.155 382.325 294.915 382.141 290.828C382.094 290.225 382.048 289.622 382 289ZM373 301C375 302 375 302 375.852 304.285C376.107 305.202 376.362 306.118 376.625 307.062C376.885 307.982 377.146 308.901 377.414 309.848C377.607 310.558 377.801 311.268 378 312C377.34 312.66 376.68 313.32 376 314C375.301 312.401 374.616 310.795 373.937 309.188C373.555 308.294 373.172 307.401 372.777 306.48C372 304 372 304 373 301Z" fill="#84294E"/>
<path d="M203 182C203.33 182 203.66 182 204 182C204.202 185.639 204.084 187.968 202 191C201.051 191.722 200.103 192.444 199.125 193.188C195.161 196.277 193.706 200.393 192 205C190.68 204.67 189.36 204.34 188 204C190.267 199.172 193.44 195.052 196.562 190.75C197.165 189.91 197.768 189.069 198.389 188.203C198.963 187.409 199.537 186.615 200.129 185.797C200.656 185.068 201.182 184.34 201.725 183.589C202.146 183.065 202.566 182.54 203 182Z" fill="#D4246E"/>
<path d="M295 80C295.66 80.33 296.32 80.66 297 81C296.216 81.2475 295.432 81.495 294.625 81.75C291.968 82.7516 291.968 82.7516 290.812 84.6875C288.431 91.466 287.471 97.7895 286.875 104.938C286.789 105.908 286.702 106.878 286.613 107.877C286.403 110.251 286.199 112.625 286 115C285.67 115 285.34 115 285 115C284.912 111.125 284.859 107.251 284.812 103.375C284.787 102.281 284.762 101.186 284.736 100.059C284.643 89.8282 284.643 89.8282 288 85C290.262 82.9591 292.281 81.3593 295 80Z" fill="#2B0108"/>
<path d="M327 182C323.664 183.949 320.744 184.439 316.922 184.852C315.762 184.98 314.602 185.109 313.406 185.242C312.2 185.369 310.993 185.495 309.75 185.625C308.528 185.759 307.306 185.893 306.047 186.031C303.032 186.361 300.016 186.684 297 187C296.67 188.32 296.34 189.64 296 191C294.02 190.34 292.04 189.68 290 189C290.33 188.01 290.66 187.02 291 186C297.721 184.481 304.453 183.502 311.289 182.698C314.323 182.34 317.326 181.943 320.336 181.414C322.965 181.005 324.513 181.139 327 182Z" fill="#29010F"/>
<path d="M303 146C303.33 146 303.66 146 304 146C303.499 151.909 302.907 156.209 298.438 160.5C296.573 162.446 295.885 164.48 295 167C293.68 166.67 292.36 166.34 291 166C290.67 166.99 290.34 167.98 290 169C289.01 168.67 288.02 168.34 287 168C287.664 167.299 288.328 166.598 289.012 165.875C297.489 156.903 297.489 156.903 303 146Z" fill="#9C174F"/>
<path d="M373 101C373.268 101.577 373.536 102.155 373.812 102.75C374.894 105.016 374.894 105.016 376.5 106.688C380.407 112.711 380.22 120.059 380 127C379.01 126.67 378.02 126.34 377 126C377 121.71 377 117.42 377 113C376.34 113 375.68 113 375 113C375 112.34 375 111.68 375 111C374.34 111 373.68 111 373 111C373 109.68 373 108.36 373 107C372.01 107.495 372.01 107.495 371 108C371.875 103.25 371.875 103.25 373 101Z" fill="#8A1849"/>
<path d="M292 51C293.492 52.3438 293.492 52.3438 295 54C295.125 56.5 295.125 56.5 295 59C295.33 59.99 295.66 60.98 296 62C295.67 62.99 295.34 63.98 295 65C293.35 65 291.7 65 290 65C290 64.34 290 63.68 290 63C288.35 63.33 286.7 63.66 285 64C285.598 63.34 286.196 62.68 286.812 62C289.424 58.4182 290.581 55.1862 292 51Z" fill="#AE2F64"/>
<path d="M293 305C293.99 305 294.98 305 296 305C298.14 309.957 300.256 314.92 302.25 319.938C302.531 320.602 302.812 321.267 303.102 321.951C305.108 327.073 305.038 330.6 304 336C303.67 336 303.34 336 303 336C302.903 335.407 302.807 334.814 302.708 334.204C301.491 327.42 299.416 321.268 296.875 314.875C296.316 313.44 296.316 313.44 295.746 311.977C294.838 309.648 293.923 307.323 293 305Z" fill="#A83065"/>
<path d="M187 204C187.33 204 187.66 204 188 204C188 208.62 188 213.24 188 218C191.06 217.967 194.12 217.935 197.18 217.902C200 218 200 218 202 219C202 218.01 202 217.02 202 216C202.99 216.33 203.98 216.66 205 217C204.01 218.485 204.01 218.485 203 220C200.228 220.248 197.701 220.327 194.938 220.25C193.819 220.242 193.819 220.242 192.678 220.234C187.154 220.154 187.154 220.154 186 219C185.901 216.668 185.87 214.334 185.875 212C185.872 210.721 185.87 209.442 185.867 208.125C186 205 186 205 187 204Z" fill="#BB2462"/>
<path d="M116 142C127.687 140.685 127.687 140.685 133 142C136.797 145.125 138.766 148.676 141 153C141.559 153.737 142.119 154.475 142.695 155.234C144 157 144 157 144 159C143.34 159 142.68 159 142 159C140.309 156.699 140.309 156.699 138.438 153.687C137.817 152.701 137.197 151.715 136.559 150.699C135 148 135 148 134 145C128.39 144.34 122.78 143.68 117 143C117 147.62 117 152.24 117 157C116.67 157 116.34 157 116 157C116 152.05 116 147.1 116 142Z" fill="#B42761"/>
<path d="M320 106C320.33 106.66 320.66 107.32 321 108C319.528 111.736 319.528 111.736 317 113C316.67 113.99 316.34 114.98 316 116C314.375 117.708 312.708 119.376 311 121C308.704 123.296 308.677 124.008 308.375 127.125C308.251 128.404 308.127 129.683 308 131C308.99 130.67 309.98 130.34 311 130C311.33 130.99 311.66 131.98 312 133C310.68 133.33 309.36 133.66 308 134C305.981 129.962 306.278 125.368 307 121C308.892 117.84 311.343 115.524 314 113C315.161 111.68 316.308 110.347 317.437 109C318.283 108.01 319.129 107.02 320 106Z" fill="#BC0C59"/>
<path d="M236.598 141.902C238.086 141.909 239.574 141.921 241.062 141.938C241.821 141.942 242.58 141.947 243.361 141.951C245.241 141.963 247.12 141.981 249 142C249 146.95 249 151.9 249 157C248.67 157 248.34 157 248 157C247.505 150.565 247.505 150.565 247 144C242.38 144 237.76 144 233 144C232.67 145.32 232.34 146.64 232 148C230.68 148.33 229.36 148.66 228 149C232.61 142.011 232.61 142.011 236.598 141.902Z" fill="#CA2669"/>
<path d="M309 309C309.33 309 309.66 309 310 309C310.674 312.394 311.338 315.791 312 319.188C312.286 320.627 312.286 320.627 312.578 322.096C312.849 323.493 312.849 323.493 313.125 324.918C313.293 325.772 313.46 326.625 313.633 327.505C314.006 330.04 314.064 332.441 314 335C313.34 335 312.68 335 312 335C311.01 330.71 310.02 326.42 309 322C308.67 322 308.34 322 308 322C306.993 316.965 307.026 313.761 309 309Z" fill="#9B335D"/>
<path d="M374 351C377.625 350.799 379.865 351.142 383 353C383.33 352.34 383.66 351.68 384 351C384.66 351 385.32 351 386 351C387 354 387 354 385.562 357.188C384.789 358.58 384.789 358.58 384 360C383.01 359.67 382.02 359.34 381 359C380.312 356.938 380.312 356.938 380 355C379.01 355.99 378.02 356.98 377 358C374.64 355.64 374.509 354.221 374 351Z" fill="#6D0C36"/>
<path d="M352 269C354.31 269.66 356.62 270.32 359 271C358.794 271.619 358.588 272.238 358.375 272.875C358.251 273.576 358.127 274.277 358 275C358.66 275.66 359.32 276.32 360 277C359.67 277.99 359.34 278.98 359 280C359.99 280 360.98 280 362 280C362 281.65 362 283.3 362 285C357.748 280.877 353.864 276.487 350 272C350.66 271.67 351.32 271.34 352 271C352 270.34 352 269.68 352 269Z" fill="#8F1F4E"/>
<path d="M50 248C51.65 248 53.3 248 55 248C56 249 56 249 56.1328 250.812C56.1302 251.534 56.1277 252.256 56.125 253C56.1276 253.722 56.1302 254.444 56.1328 255.188C56 257 56 257 55 258C53.35 258 51.7 258 50 258C50 254.7 50 251.4 50 248Z" fill="#262626"/>
<path d="M383 301C385.354 303.551 385.983 304.71 386.188 308.25C386.126 309.158 386.064 310.065 386 311C384.886 310.814 383.773 310.629 382.625 310.438C379.174 309.683 379.174 309.683 377 311C376.67 309.02 376.34 307.04 376 305C376.99 304.34 377.98 303.68 379 303C379.33 303.99 379.66 304.98 380 306C380.99 304.35 381.98 302.7 383 301Z" fill="#7A0B3A"/>
<path d="M101 141.25C103.691 141.41 106.321 141.671 109 142C109 146.95 109 151.9 109 157C108.67 157 108.34 157 108 157C108 152.38 108 147.76 108 143C99.2322 142.42 99.2322 142.42 91.8047 146.07C90.2202 148.518 90.2202 148.518 89.0156 151.066C88.6805 151.704 88.3453 152.343 88 153C87.34 153 86.68 153 86 153C86 153.66 86 154.32 86 155C85.34 154.67 84.68 154.34 84 154C87.8969 145.123 91.199 140.86 101 141.25Z" fill="#AE245D"/>
<path d="M308 65C308.33 65.99 308.66 66.98 309 68C310.32 68 311.64 68 313 68C312.67 69.65 312.34 71.3 312 73C313.98 73 315.96 73 318 73C317.01 74.485 317.01 74.485 316 76C315.34 76 314.68 76 314 76C314 77.65 314 79.3 314 81C310.588 79.8628 309.881 78.9566 308 76C308 75.34 308 74.68 308 74C308.99 74 309.98 74 311 74C311 72.35 311 70.7 311 69C310.01 69 309.02 69 308 69C308 67.68 308 66.36 308 65Z" fill="#E71A70"/>
<path d="M295 104C295.33 104 295.66 104 296 104C296.061 104.915 296.121 105.83 296.184 106.773C296.267 107.962 296.351 109.15 296.438 110.375C296.559 112.15 296.559 112.15 296.684 113.961C296.811 116.915 296.811 116.915 298 119C296.315 122.369 295.181 123.879 292 126C289.738 126.195 289.738 126.195 287.312 126.125C286.1 126.098 286.1 126.098 284.863 126.07C284.248 126.047 283.634 126.024 283 126C283 125.67 283 125.34 283 125C284.093 124.732 285.186 124.464 286.312 124.188C290.331 122.929 290.331 122.929 293 120C294.105 116.685 294.321 113.796 294.562 110.312C294.646 109.133 294.73 107.954 294.816 106.738C294.877 105.835 294.938 104.931 295 104Z" fill="#881443"/>
<path d="M301 38C301.33 38.66 301.66 39.32 302 40C304.017 41.1335 304.017 41.1335 306 42C305.67 43.32 305.34 44.64 305 46C302.69 46.33 300.38 46.66 298 47C297.34 46.01 296.68 45.02 296 44C297.65 42.02 299.3 40.04 301 38Z" fill="#A11C54"/>
<path d="M358 242C358.33 242 358.66 242 359 242C359.227 243.299 359.454 244.599 359.688 245.938C360.833 251.207 363.18 255.447 366 260C365.01 260.33 364.02 260.66 363 261C362.34 260.67 361.68 260.34 361 260C360.375 257.438 360.375 257.438 360 255C358.68 254.67 357.36 254.34 356 254C356.66 250.04 357.32 246.08 358 242Z" fill="#932755"/>
<path d="M146 235C148.475 235.495 148.475 235.495 151 236C151 238.97 151 241.94 151 245C149.35 245.33 147.7 245.66 146 246C146 242.37 146 238.74 146 235Z" fill="#161616"/>
<path d="M308 52C308.33 52.99 308.66 53.98 309 55C306.03 54.67 303.06 54.34 300 54C300.516 55.0725 301.031 56.145 301.562 57.25C302.632 59.7148 303.036 60.7213 302.688 63.4375C302.461 63.9531 302.234 64.4687 302 65C301.67 64.01 301.34 63.02 301 62C300.175 61.1956 299.35 60.3912 298.5 59.5625C296.159 57.163 295.359 56.2287 295 53C299.409 51.8977 303.484 51.9235 308 52Z" fill="#B50E57"/>
<path d="M49 201C49.33 201.99 49.66 202.98 50 204C49.67 204.33 49.34 204.66 49 205C48.7647 207.35 48.5861 209.706 48.4375 212.062C48.2931 214.352 48.1488 216.641 48 219C52.95 219 57.9 219 63 219C63 219.33 63 219.66 63 220C60.3541 220.027 57.7085 220.047 55.0625 220.062C54.3078 220.071 53.553 220.079 52.7754 220.088C50.8501 220.097 48.9247 220.052 47 220C45.0762 218.076 45.7816 214.743 45.75 212.188C45.7242 210.944 45.6984 209.7 45.6719 208.418C46.0131 204.863 46.5734 203.535 49 201Z" fill="#B42760"/>
<path d="M287 94C287.33 94 287.66 94 288 94C288.481 98.2463 288.902 102.496 289.312 106.75C289.45 107.957 289.587 109.163 289.729 110.406C289.835 111.566 289.941 112.727 290.051 113.922C290.161 114.99 290.271 116.058 290.384 117.159C290 120 290 120 287.497 122.38C286.673 122.915 285.849 123.449 285 124C284.34 123.67 283.68 123.34 283 123C283.484 122.628 283.969 122.257 284.468 121.874C286.608 119.256 286.43 117.373 286.512 114.02C286.565 112.274 286.565 112.274 286.619 110.494C286.642 109.279 286.664 108.064 286.688 106.812C286.722 105.586 286.756 104.359 286.791 103.096C286.874 100.064 286.943 97.0324 287 94Z" fill="#8A1949"/>
<path d="M309 55C309.99 55.495 309.99 55.495 311 56C311 58.97 311 61.94 311 65C311.66 65 312.32 65 313 65C313.474 65.8044 313.949 66.6087 314.438 67.4375C315.8 70.2918 315.8 70.2918 319 71C319 72.32 319 73.64 319 75C316.69 74.34 314.38 73.68 312 73C312.33 71.35 312.66 69.7 313 68C311.68 68 310.36 68 309 68C309 63.71 309 59.42 309 55Z" fill="#AC0C53"/>
<path d="M164 237C166.858 239.858 166.408 242.147 166.625 246.125C166.7 247.406 166.775 248.688 166.852 250.008C166.925 251.489 166.925 251.489 167 253C165.35 252.67 163.7 252.34 162 252C162.66 247.05 163.32 242.1 164 237Z" fill="#434343"/>
<path d="M272 82C272.33 82 272.66 82 273 82C274.171 88.2196 274.244 92.2956 271 98C268.65 101.079 267.559 101.871 263.75 102.75C262.389 102.874 262.389 102.874 261 103C261.99 102.34 262.98 101.68 264 101C268.487 97.2214 269.792 94.4326 270.812 88.6875C271.046 87.4332 271.279 86.179 271.52 84.8867C271.757 83.4578 271.757 83.4578 272 82Z" fill="#8D1C47"/>
<path d="M50 235C51.65 235 53.3 235 55 235C55.625 238.375 55.625 238.375 56 242C55.34 242.66 54.68 243.32 54 244C52.68 244 51.36 244 50 244C50 241.03 50 238.06 50 235Z" fill="#353535"/>
<path d="M260 175C262.566 176.232 264.938 177.573 267.375 179.062C270.535 180.898 273.333 181.642 277 182C277 182.99 277 183.98 277 185C265.005 183.89 265.005 183.89 261.75 180C260 177 260 177 260 175Z" fill="#41041F"/>
<path d="M271 107C270.67 107.66 270.34 108.32 270 109C268.536 108.983 268.536 108.983 267.043 108.965C265.771 108.956 264.498 108.947 263.188 108.938C261.923 108.926 260.658 108.914 259.355 108.902C256.004 108.838 256.004 108.838 253 110C252.67 112.31 252.34 114.62 252 117C251.34 116.34 250.68 115.68 250 115C250.139 111.734 250.437 109.704 252.5 107.125C258.212 104.555 265 105.979 271 107Z" fill="#851A43"/>
<path d="M181 235C183.475 235.495 183.475 235.495 186 236C186 238.64 186 241.28 186 244C184.35 244.33 182.7 244.66 181 245C181 241.7 181 238.4 181 235Z" fill="#1B1B1B"/>
<path d="M286 227C286.33 227 286.66 227 287 227C287.7 231.248 288.383 235.499 289.063 239.75C289.262 240.957 289.461 242.163 289.666 243.406C289.85 244.566 290.033 245.727 290.223 246.922C290.395 247.99 290.568 249.058 290.746 250.159C290.982 252.8 290.842 254.514 290 257C286.71 246.646 285.446 237.852 286 227Z" fill="#B51458"/>
<path d="M97 189C109.389 201.138 109.389 201.138 109.554 210.13C109.476 213.099 109.287 216.044 109 219C108.67 219 108.34 219 108 219C108.021 218.105 108.041 217.211 108.062 216.289C107.917 207.749 106.606 203.144 100.715 196.891C99 195 99 195 99 193C98.01 192.67 97.02 192.34 96 192C96.33 191.01 96.66 190.02 97 189Z" fill="#CA286B"/>
<path d="M284 178C286.475 178.495 286.475 178.495 289 179C289 180.98 289 182.96 289 185C288.34 183.68 287.68 182.36 287 181C286.465 181.16 285.93 181.32 285.379 181.484C282.527 182.103 279.855 182.207 276.938 182.25C275.373 182.289 275.373 182.289 273.777 182.328C271 182 271 182 268 179C273.28 179 278.56 179 284 179C284 178.67 284 178.34 284 178Z" fill="#9A184F"/>
<path d="M391 341C391.33 341 391.66 341 392 341C392.061 341.626 392.121 342.253 392.184 342.898C392.267 343.716 392.351 344.533 392.438 345.375C392.559 346.593 392.559 346.593 392.684 347.836C392.891 350.043 392.891 350.043 394 352C394.07 353.54 394.085 355.083 394.062 356.625C394.053 357.442 394.044 358.26 394.035 359.102C394.024 359.728 394.012 360.355 394 361C392.68 361 391.36 361 390 361C390.33 354.4 390.66 347.8 391 341Z" fill="#91576C"/>
<path d="M254 179C254.66 179.99 255.32 180.98 256 182C248.123 187.882 248.123 187.882 243.438 188.375C242.633 188.251 241.829 188.127 241 188C241 187.34 241 186.68 241 186C241.779 185.619 241.779 185.619 242.574 185.23C246.487 183.3 250.296 181.315 254 179Z" fill="#A11D50"/>
<path d="M172.188 162.313C173.085 162.653 173.085 162.653 174 163C172.509 166.283 170.614 168.931 168.375 171.75C167.428 172.949 167.428 172.949 166.461 174.172C165.979 174.775 165.497 175.378 165 176C164.67 174.68 164.34 173.36 164 172C165.32 171.34 166.64 170.68 168 170C167.773 169.237 167.546 168.474 167.312 167.688C167 165 167 165 168.188 163.125C170 162 170 162 172.188 162.313Z" fill="#DA2371"/>
<path d="M380 354C381 357 381 357 382 361C377.71 361 373.42 361 369 361C368.67 360.34 368.34 359.68 368 359C372.455 358.505 372.455 358.505 377 358C377 357.01 377 356.02 377 355C377.99 354.67 378.98 354.34 380 354Z" fill="#6F1E3F"/>
<path d="M314 335C314.33 335 314.66 335 315 335C315.66 341.93 316.32 348.86 317 356C315.515 356.99 315.515 356.99 314 358C313.007 355.021 312.945 353.408 313.121 350.332C313.169 349.439 313.218 348.547 313.268 347.627C313.324 346.698 313.38 345.769 313.438 344.812C313.49 343.872 313.542 342.932 313.596 341.963C313.725 339.642 313.86 337.321 314 335Z" fill="#994565"/>
<path d="M321 128C322.875 129.438 322.875 129.438 324 132C324.038 135.078 323.766 138.017 323 141C322.34 141.66 321.68 142.32 321 143C321.33 139.04 321.66 135.08 322 131C318.623 131.537 315.303 132.111 312 133C312 132.34 312 131.68 312 131C314.887 128.22 317.01 127.284 321 128Z" fill="#E71B73"/>
<path d="M361.938 71.375C366.168 73.6198 368.198 76.5954 370 81C369.812 84 369.812 84 369 86C368.67 86 368.34 86 368 86C367.34 83.03 366.68 80.06 366 77C364.68 76.67 363.36 76.34 362 76C362 75.01 362 74.02 362 73C359.69 73 357.38 73 355 73C357.581 71.213 358.779 70.9718 361.938 71.375Z" fill="#8E355A"/>
<path d="M286 67C286 67.66 286 68.32 286 69C285.203 69.3809 285.203 69.3809 284.391 69.7695C280.668 71.5835 277.202 73.3314 274 76C273.01 75.34 272.02 74.68 271 74C275.649 69.7939 279.456 67 286 67Z" fill="#170004"/>
<path d="M295 45C295.33 46.32 295.66 47.64 296 49C297.65 49 299.3 49 301 49C301 49.66 301 50.32 301 51C301.99 51.33 302.98 51.66 304 52C300.7 52.66 297.4 53.32 294 54C292.875 48.375 292.875 48.375 295 45Z" fill="#A32059"/>
<path d="M308 164C308.33 164.66 308.66 165.32 309 166C303.359 180.32 303.359 180.32 298 183C299.376 178.234 301.468 174.275 304.125 170.125C304.498 169.532 304.87 168.939 305.254 168.328C306.164 166.882 307.081 165.44 308 164Z" fill="#C20C5D"/>
<path d="M278 87C278.33 87 278.66 87 279 87C279.027 89.0833 279.046 91.1666 279.062 93.25C279.074 94.4102 279.086 95.5703 279.098 96.7656C279.018 99.4098 278.786 101.498 278 104C277.34 104 276.68 104 276 104C275.946 102.104 275.907 100.209 275.875 98.3125C275.852 97.2568 275.829 96.201 275.805 95.1133C276.001 91.9775 276.669 89.8235 278 87Z" fill="#B9105D"/>
<path d="M281 76C281.99 76.33 282.98 76.66 284 77C283.01 77.33 282.02 77.66 281 78C279.075 81.0186 278.276 84.3096 277.375 87.75C277.115 88.7348 276.854 89.7197 276.586 90.7344C276.393 91.482 276.199 92.2297 276 93C274 90 274 90 274.066 87.9141C275.259 82.4134 276.618 79.5746 281 76Z" fill="#3D0114"/>
<path d="M380 130C380.66 130 381.32 130 382 130C382.376 136.802 381.775 141.757 379 148C378.34 146.68 377.68 145.36 377 144C377.66 144 378.32 144 379 144C378.969 142.206 378.969 142.206 378.938 140.375C378.931 136.82 379.301 133.494 380 130Z" fill="#953C5F"/>
<path d="M314 198C315.485 198.99 315.485 198.99 317 200C316.542 206.551 315.79 212.675 314 219C313.67 219 313.34 219 313 219C312.973 217.521 312.954 216.042 312.938 214.562C312.926 213.739 312.914 212.915 312.902 212.066C313 210 313 210 314 209C314.072 207.147 314.084 205.292 314.062 203.438C314.053 202.426 314.044 201.414 314.035 200.371C314.024 199.589 314.012 198.806 314 198Z" fill="#911849"/>
<path d="M123 196C123.33 197.32 123.66 198.64 124 200C123.34 200 122.68 200 122 200C122 200.66 122 201.32 122 202C121.34 202 120.68 202 120 202C117.849 205.532 117.62 208.663 117.375 212.75C117.3 213.92 117.225 215.091 117.148 216.297C117.075 217.635 117.075 217.635 117 219C116.67 219 116.34 219 116 219C114.794 205.543 114.794 205.543 119.5 199.625C120.635 198.387 121.791 197.166 123 196Z" fill="#AE205C"/>
<path d="M286 106C286.33 106 286.66 106 287 106C287.135 108.248 287.232 110.499 287.312 112.75C287.4 114.629 287.4 114.629 287.488 116.547C287 120 287 120 284.625 122.469C282 124 282 124 279.688 123.75C279.131 123.502 278.574 123.255 278 123C278.784 122.608 279.567 122.216 280.375 121.812C283.519 119.641 284.044 118.663 285 115C285.433 112.006 285.75 109.014 286 106Z" fill="#1C0003"/>
<path d="M309 93C309.66 93 310.32 93 311 93C310.67 94.98 310.34 96.96 310 99C310.99 99.66 311.98 100.32 313 101C313.375 104 313.375 104 313 107C311.515 107.99 311.515 107.99 310 109C310 106.69 310 104.38 310 102C309.34 101.67 308.68 101.34 308 101C307.958 98.6671 307.959 96.333 308 94C308.33 93.67 308.66 93.34 309 93Z" fill="#B80A56"/>
<path d="M285 65C285 65.66 285 66.32 285 67C284.408 67.2307 283.817 67.4615 283.207 67.6992C278.13 69.7944 274.718 71.8309 271 76C270.01 76.495 270.01 76.495 269 77C270.852 71.7295 273.012 69.2784 278 66.8125C278.681 66.4683 279.361 66.1241 280.062 65.7695C282 65 282 65 285 65Z" fill="#801D41"/>
<path d="M310 333C310.33 333 310.66 333 311 333C311.185 348.745 311.185 348.745 310 356C309.01 356.33 308.02 356.66 307 357C307.133 356.273 307.266 355.546 307.402 354.797C308.677 347.542 309.505 340.348 310 333Z" fill="#AD0952"/>
<path d="M147 199C147.66 199 148.32 199 149 199C150.32 201.31 151.64 203.62 153 206C152.34 206 151.68 206 151 206C150.67 205.34 150.34 204.68 150 204C146.129 204.574 143.918 206.487 141 209C142.367 205.013 144.152 202.115 147 199Z" fill="#2B000E"/>
<path d="M119 160C122.27 160.564 123.826 161.5 126 164C126.33 163.34 126.66 162.68 127 162C127.33 164.97 127.66 167.94 128 171C124.364 167.566 121.639 164.203 119 160Z" fill="#DB2571"/>
<path d="M47 142C49.6059 141.865 52.2048 141.766 54.8125 141.687C55.5505 141.646 56.2885 141.604 57.0488 141.561C59.207 141.512 59.207 141.512 63 142C65.0117 144.52 65.0117 144.52 66 147C63.525 146.505 63.525 146.505 61 146C61 145.34 61 144.68 61 144C54.07 143.505 54.07 143.505 47 143C47 142.67 47 142.34 47 142Z" fill="#CD296D"/>
<path d="M377 113C379 114 379 114 379.621 115.766C380.024 118.142 380.098 120.342 380.062 122.75C380.053 123.549 380.044 124.348 380.035 125.172C380.018 126.077 380.018 126.077 380 127C379.01 126.67 378.02 126.34 377 126C377 121.71 377 117.42 377 113Z" fill="#8F2450"/>
<path d="M355 109C357 111 357 111 357 113.125C355.524 117.369 352.81 120.537 350 124C349.34 123.01 348.68 122.02 348 121C348.99 121 349.98 121 351 121C351 119.68 351 118.36 351 117C351.66 117 352.32 117 353 117C353.144 116.237 353.289 115.474 353.438 114.688C354 112 354 112 355 109Z" fill="#98315B"/>
<path d="M330 33C333.536 34.9114 335.79 36.6264 338 40C336.935 42.1309 335.708 43.3659 334 45C332.667 41 331.333 37 330 33Z" fill="#9A2C58"/>
<path d="M395 336C395.66 336 396.32 336 397 336C396.885 337.418 396.757 338.834 396.625 340.25C396.555 341.039 396.486 341.828 396.414 342.641C395.985 345.086 395.214 346.848 394 349C392.692 345.077 392.803 342.14 393 338C393.66 337.34 394.32 336.68 395 336Z" fill="#7F2C4C"/>
<path d="M355 73C357.31 73 359.62 73 362 73C362.33 73.99 362.66 74.98 363 76C363.99 76.33 364.98 76.66 366 77C366.688 79.0625 366.688 79.0625 367 81C364.723 79.9429 362.89 78.9102 360.938 77.3125C360.298 76.8794 359.659 76.4462 359 76C358.01 76.33 357.02 76.66 356 77C355.67 75.68 355.34 74.36 355 73Z" fill="#8E0C42"/>
<path d="M349 175C349 175.66 349 176.32 349 177C348.06 177.307 348.06 177.307 347.102 177.621C346.284 177.891 345.467 178.16 344.625 178.437C343.813 178.704 343.001 178.971 342.164 179.246C339.99 179.952 339.99 179.952 338 181C338 180.34 338 179.68 338 179C336.68 178.67 335.36 178.34 334 178C336.122 177.304 338.248 176.618 340.375 175.937C342.15 175.363 342.15 175.363 343.961 174.777C347 174 347 174 349 175Z" fill="#27010E"/>
<path d="M314 31C318.29 31 322.58 31 327 31C327 31.66 327 32.32 327 33C326.34 33.66 325.68 34.32 325 35C322.75 34.6875 322.75 34.6875 320 34C318.001 33.6606 316.001 33.3258 314 33C314 32.34 314 31.68 314 31Z" fill="#952A56"/>
<path d="M357 255C357.99 255 358.98 255 360 255C360.33 256.65 360.66 258.3 361 260C361.99 260.33 362.98 260.66 364 261C360.947 261.981 359.053 261.981 356 261C356.33 259.02 356.66 257.04 357 255Z" fill="#8B0D44"/>
<path d="M206 148C206.66 148 207.32 148 208 148C209.65 150.97 211.3 153.94 213 157C211.35 156.67 209.7 156.34 208 156C206.403 153.111 206 151.309 206 148Z" fill="#D22470"/>
<path d="M295 80C295.66 80.33 296.32 80.66 297 81C296.216 81.2475 295.433 81.495 294.625 81.75C291.968 82.7516 291.968 82.7516 290.812 84.6875C289.734 87.7566 288.846 90.8595 288 94C286.875 92.3125 286.875 92.3125 286 90C287.01 85.5116 289.312 83.5815 293 81C293.66 80.67 294.32 80.34 295 80Z" fill="#4B0119"/>
<path d="M64 178C64.66 179.32 65.32 180.64 66 182C65.5256 182.392 65.0513 182.784 64.5625 183.188C62.6482 185.408 62.3873 187.134 62 190C61.01 190.33 60.02 190.66 59 191C58.67 191.66 58.34 192.32 58 193C57.34 192.67 56.68 192.34 56 192C56.4937 191.325 56.9874 190.649 57.4961 189.953C58.1368 189.061 58.7774 188.169 59.4375 187.25C60.0756 186.368 60.7137 185.487 61.3711 184.578C62.8275 182.273 63.5593 180.657 64 178Z" fill="#D02670"/>
<path d="M253 174C252.67 174.99 252.34 175.98 252 177C248.527 178.158 245.639 178.069 242 178C242 177.34 242 176.68 242 176C243.455 175.47 244.914 174.951 246.375 174.437C247.187 174.147 247.999 173.857 248.836 173.559C251 173 251 173 253 174Z" fill="#A61F55"/>
<path d="M380 298C380.99 298.33 381.98 298.66 383 299C380.36 300.98 377.72 302.96 375 305C373 302 373 302 373 299C374.454 299.031 374.454 299.031 375.938 299.062C378.875 299.356 378.875 299.356 380 298Z" fill="#7C0C3C"/>
<path d="M286 191C288.31 191.33 290.62 191.66 293 192C293 192.33 293 192.66 293 193C291.35 193 289.7 193 288 193C288 193.66 288 194.32 288 195C288.99 195 289.98 195 291 195C291 195.66 291 196.32 291 197C289.68 197 288.36 197 287 197C286.67 198.32 286.34 199.64 286 201C286 197.7 286 194.4 286 191Z" fill="#D81F6C"/>
<path d="M315 177C317.64 177 320.28 177 323 177C323 177.99 323 178.98 323 180C320.03 180.66 317.06 181.32 314 182C314.33 180.35 314.66 178.7 315 177Z" fill="#AD0E50"/>
<path d="M152 157C152.33 157.66 152.66 158.32 153 159C152.066 161.031 151.068 163.035 150 165C148.02 165 146.04 165 144 165C144 161 144 161 145 159C146.32 160.32 147.64 161.64 149 163C149.309 162.196 149.619 161.391 149.938 160.562C151 158 151 158 152 157Z" fill="#CE226A"/>
<path d="M345 263C347.886 263.398 348.822 263.79 350.75 266.062C351.162 266.702 351.575 267.341 352 268C351.01 268.99 350.02 269.98 349 271C345 266.375 345 266.375 345 263Z" fill="#922553"/>
<path d="M308 101C308.99 101.33 309.98 101.66 311 102C310.94 103.459 310.851 104.918 310.75 106.375C310.704 107.187 310.657 107.999 310.609 108.836C310.408 109.55 310.207 110.264 310 111C308.02 111.99 308.02 111.99 306 113C306.66 109.04 307.32 105.08 308 101Z" fill="#9B1450"/>
<path d="M302 342C303.392 346.176 301.823 348.135 300 352C299.01 352 298.02 352 297 352C298.156 348.088 299.355 345.125 302 342Z" fill="#9C2659"/>
<path d="M256 178C259.465 179.485 259.465 179.485 263 181C263 181.66 263 182.32 263 183C261.35 183.66 259.7 184.32 258 185C256.438 183.188 256.438 183.188 255 181C255.33 180.01 255.66 179.02 256 178Z" fill="#C4135F"/>
<path d="M391 335C391.66 335.33 392.32 335.66 393 336C393.312 338.714 393.513 341.339 393.625 344.062C393.664 344.821 393.702 345.58 393.742 346.361C393.837 348.24 393.919 350.12 394 352C390.842 348.842 391.551 345.063 391.344 340.75C391.268 337.859 391.268 337.859 389 336C389.66 335.67 390.32 335.34 391 335Z" fill="#590C2D"/>
<path d="M81 158C82.0445 161.133 81.9342 161.99 81 165C79.35 165 77.7 165 76 165C75.34 163.02 74.68 161.04 74 159C75.32 159.99 76.64 160.98 78 162C78.99 160.68 79.98 159.36 81 158Z" fill="#C9226A"/>
<path d="M303 146C303.33 146 303.66 146 304 146C303.56 151.196 303.117 154.663 300 159C299.34 158.67 298.68 158.34 298 158C299.65 154.04 301.3 150.08 303 146Z" fill="#A91151"/>
<path d="M369 128C369.976 130.927 370.165 132.947 370.187 136C370.202 136.866 370.216 137.733 370.23 138.625C370 141 370 141 368 144C366.812 138.854 367.023 134.154 368 129C368.33 128.67 368.66 128.34 369 128Z" fill="#860C40"/>
<path d="M349.562 76.9375C350.769 76.9684 350.769 76.9684 352 77C351.67 78.32 351.34 79.64 351 81C349.68 81.33 348.36 81.66 347 82C347 81.34 347 80.68 347 80C345.35 80 343.7 80 342 80C342.639 79.6906 343.279 79.3812 343.938 79.0625C347.988 76.9759 347.988 76.9759 349.562 76.9375Z" fill="#921649"/>
<path d="M373 348C373.976 350.928 374.082 352.956 374 356C371.69 355.67 369.38 355.34 367 355C368.98 352.69 370.96 350.38 373 348Z" fill="#7C2B4D"/>
<path d="M358 242C358.33 242 358.66 242 359 242C359.66 245.63 360.32 249.26 361 253C359.02 253.99 359.02 253.99 357 255C356.67 254.34 356.34 253.68 356 253C356.33 252.34 356.66 251.68 357 251C357.225 249.463 357.408 247.92 357.562 246.375C357.646 245.558 357.73 244.74 357.816 243.898C357.877 243.272 357.938 242.645 358 242Z" fill="#A44168"/>
<path d="M255 182C255.66 182.33 256.32 182.66 257 183C255.02 185.97 255.02 185.97 253 189C250.525 188.01 250.525 188.01 248 187C252.75 183.125 252.75 183.125 255 182Z" fill="#360113"/>
<path d="M92 143C92.66 143.33 93.32 143.66 94 144C93.0502 145.505 92.0899 147.004 91.125 148.5C90.5913 149.335 90.0577 150.171 89.5078 151.031C89.0102 151.681 88.5127 152.331 88 153C87.34 153 86.68 153 86 153C86 153.66 86 154.32 86 155C85.34 154.67 84.68 154.34 84 154C86.64 150.37 89.28 146.74 92 143Z" fill="#C92569"/>
<path d="M292 121C292.99 121.33 293.98 121.66 295 122C295 122.66 295 123.32 295 124C291.796 126.136 290.981 126.231 287.312 126.125C286.1 126.098 286.1 126.098 284.863 126.07C283.941 126.036 283.941 126.036 283 126C283 125.67 283 125.34 283 125C284.114 124.711 285.227 124.423 286.375 124.125C290.003 123.308 290.003 123.308 292 121Z" fill="#8C1D47"/>
<path d="M283 112C284.125 113.688 284.125 113.688 285 116C284.235 119.484 283.369 120.723 280.5 122.875C279.675 123.246 278.85 123.618 278 124C277.34 123.67 276.68 123.34 276 123C279.75 120 279.75 120 282 120C282.33 117.36 282.66 114.72 283 112Z" fill="#7E1C44"/>
<path d="M296 82C296.33 82.99 296.66 83.98 297 85C296.031 85.4331 295.061 85.8663 294.062 86.3125C290.723 87.7015 290.723 87.7015 290 91C289.34 91 288.68 91 288 91C289.31 87.0698 291.25 82 296 82Z" fill="#9A1650"/>
<path d="M291 65C291.66 65.66 292.32 66.32 293 67C293.66 67 294.32 67 295 67C295 67.99 295 68.98 295 70C294.01 70.33 293.02 70.66 292 71C289.312 69.5625 289.312 69.5625 287 68C288.32 67.01 289.64 66.02 291 65Z" fill="#B0215E"/>
<path d="M351 263C352.32 263.66 353.64 264.32 355 265C354.67 266.32 354.34 267.64 354 269C353.34 269 352.68 269 352 269C352 269.66 352 270.32 352 271C351.34 270.67 350.68 270.34 350 270C349.375 267.438 349.375 267.438 349 265C349.66 265 350.32 265 351 265C351 264.34 351 263.68 351 263Z" fill="#8E0C43"/>
<path d="M285 189C286.439 189.087 287.876 189.196 289.312 189.312C290.113 189.371 290.914 189.429 291.738 189.488C294.363 190.082 295.308 190.958 297 193C289.375 192.125 289.375 192.125 286 191C285.67 191.99 285.34 192.98 285 194C285 192.35 285 190.7 285 189Z" fill="#3D0017"/>
<path d="M301 322C303.025 323.673 303.931 324.789 304.75 327.312C305.036 330.387 304.63 332.988 304 336C303.67 336 303.34 336 303 336C302.662 334.418 302.33 332.834 302 331.25C301.814 330.368 301.629 329.487 301.438 328.578C301 326 301 326 301 322Z" fill="#B84D7D"/>
<path d="M294 193C298.75 193.75 298.75 193.75 301 196C297.535 197.485 297.535 197.485 294 199C294 197.02 294 195.04 294 193Z" fill="#B21259"/>
<path d="M231 180C233.649 183.197 235.94 186.395 238 190C235.625 189.312 235.625 189.312 233 188C231.431 185.085 231 183.321 231 180Z" fill="#CF236A"/>
<path d="M277 182C279.64 182.99 282.28 183.98 285 185C285 185.99 285 186.98 285 188C283.35 188 281.7 188 280 188C279.67 187.01 279.34 186.02 279 185C278.34 185 277.68 185 277 185C277 184.01 277 183.02 277 182Z" fill="#2F0214"/>
<path d="M287 169C286.67 170.65 286.34 172.3 286 174C283.03 174 280.06 174 277 174C278.32 173.34 279.64 172.68 281 172C281.701 171.464 282.402 170.928 283.125 170.375C285 169 285 169 287 169Z" fill="#A61855"/>
<path d="M287 122C287.99 122.66 288.98 123.32 290 124C289.01 124.495 289.01 124.495 288 125C288.33 125.66 288.66 126.32 289 127C286.69 127 284.38 127 282 127C281.67 126.01 281.34 125.02 281 124C283.812 122.875 283.812 122.875 287 122Z" fill="#36010F"/>
<path d="M368 119C368.99 119.66 369.98 120.32 371 121C369.688 123.5 369.688 123.5 368 126C367.01 126 366.02 126 365 126C365.75 121.25 365.75 121.25 368 119Z" fill="#8A0F44"/>
<path d="M330 33C330 33.66 330 34.32 330 35C329.01 35 328.02 35 327 35C327 35.66 327 36.32 327 37C327.66 37.33 328.32 37.66 329 38C327.68 37.67 326.36 37.34 325 37C325 36.01 325 35.02 325 34C324.01 33.67 323.02 33.34 322 33C325.287 32.2005 326.71 31.9034 330 33Z" fill="#8F174A"/>
<path d="M308 309C308.75 310.75 308.75 310.75 309 313C307.062 315.25 307.062 315.25 305 317C304.375 315.125 304.375 315.125 304 313C305.333 311.667 306.667 310.333 308 309Z" fill="#940C47"/>
<path d="M257 186C257.66 186 258.32 186 259 186C258.01 189.3 257.02 192.6 256 196C255.67 195.01 255.34 194.02 255 193C254.34 192.67 253.68 192.34 253 192C254.274 189.962 255.611 187.961 257 186Z" fill="#490219"/>
<path d="M287 181C287 181.99 287 182.98 287 184C284.36 184 281.72 184 279 184C278.67 183.34 278.34 182.68 278 182C281.153 181.299 283.727 181 287 181Z" fill="#110004"/>
<path d="M374 97C376.566 100.849 376.551 103.435 377 108C374.552 106.084 374.007 105.028 373.25 101.938C373 99 373 99 374 97Z" fill="#9A3F64"/>
<path d="M291 103C291.33 103 291.66 103 292 103C292.054 104.937 292.093 106.875 292.125 108.812C292.148 109.891 292.171 110.97 292.195 112.082C292 115 292 115 290 118C289.438 116.062 289.438 116.062 289 114C289.33 113.67 289.66 113.34 290 113C290.046 111.501 290.038 110 290 108.5C289.962 107 289.954 105.499 290 104C290.33 103.67 290.66 103.34 291 103Z" fill="#A61852"/>
<path d="M278 72C279.65 72.33 281.3 72.66 283 73C283 73.66 283 74.32 283 75C281.02 75.66 279.04 76.32 277 77C277.33 75.35 277.66 73.7 278 72Z" fill="#AD1352"/>
<path d="M282 63C284.64 63 287.28 63 290 63C289.67 63.99 289.34 64.98 289 66C288.34 66 287.68 66 287 66C287.33 66.99 287.66 67.98 288 69C287.34 69 286.68 69 286 69C285.67 67.68 285.34 66.36 285 65C284.01 65 283.02 65 282 65C282 64.34 282 63.68 282 63Z" fill="#8E2551"/>
<path d="M358 276C358.66 276.33 359.32 276.66 360 277C359.67 277.99 359.34 278.98 359 280C359.99 280 360.98 280 362 280C362 281.65 362 283.3 362 285C359.438 282.75 359.438 282.75 357 280C357.188 277.688 357.188 277.688 358 276Z" fill="#93345B"/>
<path d="M72 199C73.32 199.66 74.64 200.32 76 201C74.35 203.31 72.7 205.62 71 208C70.67 207.01 70.34 206.02 70 205C70.66 205 71.32 205 72 205C71.7216 203.793 71.7216 203.793 71.4375 202.562C71.2931 201.717 71.1488 200.871 71 200C71.33 199.67 71.66 199.34 72 199Z" fill="#D72570"/>
<path d="M56 169C57.65 169 59.3 169 61 169C61.33 170.98 61.66 172.96 62 175C61.01 175.495 61.01 175.495 60 176C58.02 172.535 58.02 172.535 56 169Z" fill="#D4236F"/>
<path d="M121 153C121.66 153 122.32 153 123 153C123 155.64 123 158.28 123 161C122.01 160.67 121.02 160.34 120 160C120.33 157.69 120.66 155.38 121 153Z" fill="#F4197C"/>
<path d="M159 147C159.33 148.32 159.66 149.64 160 151C158.062 153.25 158.062 153.25 156 155C155.34 154.67 154.68 154.34 154 154C155.65 151.69 157.3 149.38 159 147Z" fill="#C32368"/>
<path d="M323 113C324.32 113.33 325.64 113.66 327 114C326.67 115.32 326.34 116.64 326 118C327.65 118 329.3 118 331 118C331 118.33 331 118.66 331 119C328.125 119.125 328.125 119.125 325 119C324.34 118.34 323.68 117.68 323 117C323 115.68 323 114.36 323 113Z" fill="#EF1E77"/>
<path d="M286 67C286 67.66 286 68.32 286 69C280.25 72 280.25 72 278 72C277.67 71.01 277.34 70.02 277 69C282.625 67 282.625 67 286 67Z" fill="#2C010D"/>
<path d="M297 352C297.66 352 298.32 352 299 352C299.33 353.32 299.66 354.64 300 356C302.31 356.33 304.62 356.66 307 357C307 357.33 307 357.66 307 358C304.03 358 301.06 358 298 358C297 354 297 354 297 352Z" fill="#970A48"/>
<path d="M297 314C297.66 314 298.32 314 299 314C300.562 316.812 300.562 316.812 302 320C301.67 320.99 301.34 321.98 301 323C298.314 320.314 297.94 317.624 297 314Z" fill="#AA3A6A"/>
<path d="M324 194C326.178 198.355 326.03 199.466 325 204C324.34 204 323.68 204 323 204C323.33 200.7 323.66 197.4 324 194Z" fill="#A31251"/>
<path d="M349 177C349 177.66 349 178.32 349 179C348.34 179 347.68 179 347 179C346.67 179.66 346.34 180.32 346 181C343.03 180.505 343.03 180.505 340 180C342.982 177.018 344.788 177 349 177Z" fill="#831442"/>
<path d="M243 161C243.99 161.33 244.98 161.66 246 162C245.192 163.169 244.378 164.336 243.562 165.5C243.11 166.15 242.658 166.799 242.191 167.469C241.798 167.974 241.405 168.479 241 169C240.67 169 240.34 169 240 169C240 167.35 240 165.7 240 164C240.99 163.67 241.98 163.34 243 163C243 162.34 243 161.68 243 161Z" fill="#D2256E"/>
<path d="M306 124C306.33 124 306.66 124 307 124C307.33 128.62 307.66 133.24 308 138C307.34 136.68 306.68 135.36 306 134C305.34 133.01 304.68 132.02 304 131C304.66 131 305.32 131 306 131C306 128.69 306 126.38 306 124Z" fill="#E91B74"/>
<path d="M295 93C295.33 93 295.66 93 296 93C295.886 94.4801 295.759 95.9591 295.625 97.4375C295.521 98.6731 295.521 98.6731 295.414 99.9336C295.277 100.616 295.141 101.297 295 102C294.01 102.495 294.01 102.495 293 103C293.14 101.52 293.288 100.041 293.438 98.5625C293.519 97.7388 293.6 96.9151 293.684 96.0664C294 94 294 94 295 93Z" fill="#3F0218"/>
<path d="M361 269C362.32 269.33 363.64 269.66 365 270C364.67 271.32 364.34 272.64 364 274C363.01 274 362.02 274 361 274C361 272.35 361 270.7 361 269Z" fill="#910943"/>
<path d="M252 189C252.66 189.99 253.32 190.98 254 192C252.688 193.5 252.688 193.5 251 195C250.01 195 249.02 195 248 195C249.152 192.532 250.048 190.952 252 189Z" fill="#921D47"/>
<path d="M260 175C262.954 176.372 265.44 177.989 268 180C266.25 180.75 266.25 180.75 264 181C261.75 179.188 261.75 179.188 260 177C260 176.34 260 175.68 260 175Z" fill="#730334"/>
<path d="M61 172C61.99 172.495 61.99 172.495 63 173C63 173.66 63 174.32 63 175C63.99 175.33 64.98 175.66 66 176C65.01 177.485 65.01 177.485 64 179C63.34 179 62.68 179 62 179C61.67 176.69 61.34 174.38 61 172Z" fill="#E22071"/>
<path d="M374 150C375.188 151.625 375.188 151.625 376 154C374.625 157.25 374.625 157.25 373 160C372.67 160 372.34 160 372 160C372 158.02 372 156.04 372 154C372.66 154 373.32 154 374 154C374 152.68 374 151.36 374 150Z" fill="#94365C"/>
<path d="M366 260C368.041 261.616 370.041 263.286 372 265C372 265.66 372 266.32 372 267C371.01 267 370.02 267 369 267C366 262.778 366 262.778 366 260Z" fill="#913D60"/>
<path d="M341 131C341.99 131 342.98 131 344 131C343.34 133.64 342.68 136.28 342 139C341.34 139 340.68 139 340 139C340.33 136.36 340.66 133.72 341 131Z" fill="#9A335D"/>
<path d="M316 75C316.33 75.66 316.66 76.32 317 77C316.34 77 315.68 77 315 77C315.33 78.98 315.66 80.96 316 83C314.68 82.67 313.36 82.34 312 82C312.66 81.67 313.32 81.34 314 81C314 79.35 314 77.7 314 76C314.66 75.67 315.32 75.34 316 75Z" fill="#B90A55"/>
</svg>
