<svg xmlns="http://www.w3.org/2000/svg" version="1.1" xmlns:xlink="http://www.w3.org/1999/xlink" xmlns:svgjs="http://svgjs.dev/svgjs" width="201" height="200"><svg width="201" height="200" viewBox="0 0 201 200" fill="none" xmlns="http://www.w3.org/2000/svg">
<path d="M44 0C47.3 0 50.6 0 54 0C54.5453 1.04156 55.0905 2.08313 55.6523 3.15625C60.3797 12.1533 65.2321 21.0641 70.25 29.9023C71.1997 31.5833 72.1366 33.2731 73 35C74.98 35 76.96 35 79 35C81.9114 27.8335 83.793 20.491 85.6875 13C86.0078 11.7483 86.3281 10.4966 86.6582 9.20703C87.4428 6.13901 88.2232 3.07001 89 0C91.31 0 93.62 0 96 0C95.34 0.33 94.68 0.66 94 1C93.2524 3.58861 93.2524 3.58861 92.6875 6.8125C91.4027 13.2166 89.9135 19.5426 88.3125 25.875C88.0859 26.7732 87.8592 27.6715 87.6257 28.5969C87.0857 30.7318 86.5439 32.8662 86 35C86.5838 34.9144 87.1676 34.8287 87.769 34.7405C90.4707 34.3455 93.1728 33.954 95.875 33.5625C96.7928 33.4278 97.7106 33.2931 98.6562 33.1543C109.305 31.617 119.733 30.7773 130.5 30.6875C131.659 30.6585 132.818 30.6295 134.012 30.5996C144.048 30.5259 153.588 32.8059 161 40C164.923 44.9734 169 50.4684 169 57C166.03 57.99 163.06 58.98 160 60C159.648 59.1918 159.296 58.3835 158.934 57.5508C155.312 49.7111 152.669 45.3208 144.672 42.0469C130.968 37.5337 114.729 40.1726 100.562 41.25C99.2326 41.3494 99.2326 41.3494 97.8759 41.4507C75.5135 43.137 53.2988 45.5652 31.1875 49.375C30.1267 49.5476 29.066 49.7201 27.9731 49.8979C19.2438 51.5065 9.15596 54.2911 3.81248 61.875C3.21436 62.9062 2.61623 63.9375 1.99998 65C1.66998 65 1.33998 65 0.999984 65C0.588154 60.8817 0.675026 58.5687 2.74998 54.9375C17.2151 40.0782 46.7412 38.8744 66 36C61.4449 26.5462 56.6128 17.3762 51.1509 8.4104C48 3.19829 48 3.19829 48 1C46.68 0.67 45.36 0.34 44 0Z" fill="#4B0082"></path>
<path d="M61.875 67.6875C62.5755 67.6578 63.276 67.6282 63.9978 67.5977C69.5584 67.5343 72.5404 68.9337 77 72C80.824 77.0576 80.8163 82.9046 80 89C77.7865 93.591 75.5102 95.7573 71 98C68.3119 98.5198 65.7717 98.9133 63.0625 99.1875C62.3722 99.2694 61.6819 99.3512 60.9707 99.4355C56.9635 99.8875 53.0305 100.082 49 100C49.33 100.99 49.66 101.98 50 103C50.2546 105.879 50.4632 108.74 50.625 111.625C50.6766 112.414 50.7281 113.203 50.7812 114.016C50.8977 116.008 50.9538 118.004 51 120C50 121 50 121 46.4375 121.062C45.3031 121.042 44.1687 121.021 43 121C42.5661 115.684 42.1392 110.368 41.7183 105.052C41.5746 103.249 41.4291 101.446 41.2817 99.6433C40.4458 89.4048 39.7454 79.2803 40 69C47.2851 68.318 54.5596 67.8418 61.875 67.6875ZM48 76C47.9728 77.8957 47.9535 79.7916 47.9375 81.6875C47.9259 82.7432 47.9143 83.799 47.9023 84.8867C47.9913 87.7241 48.3506 90.2439 49 93C59.8533 93.4746 59.8533 93.4746 70 90.375C72.6722 87.2017 73 85.1221 73 81C71.6544 78.0524 70.9145 76.4572 68 75C65.364 74.9015 62.7604 74.861 60.125 74.875C59.4044 74.8711 58.6838 74.8673 57.9414 74.8633C54.4918 74.8696 51.2956 74.913 48 76Z" fill="#4B0082"></path>
<path d="M174 60C173.44 66.2544 171.96 71.656 169.875 77.5625C166.778 86.5455 163.958 95.5857 161.31 104.711C161.036 105.635 160.763 106.56 160.48 107.512C160.242 108.331 160.004 109.151 159.759 109.995C159 112 159 112 157 114C153.375 114.125 153.375 114.125 150 114C143.814 101.227 137.674 88.4308 131.688 75.5625C130.959 74.0185 130.959 74.0185 130.216 72.4434C129.777 71.494 129.339 70.5446 128.887 69.5664C128.497 68.7305 128.107 67.8947 127.706 67.0334C127.473 66.3624 127.24 65.6914 127 65C127.33 64.34 127.66 63.68 128 63C130.31 63 132.62 63 135 63C141.503 76.4501 147.237 90.2207 153 104C155.064 98.6681 156.842 93.3571 158.375 87.8516C158.807 86.3371 159.239 84.8228 159.672 83.3086C160.342 80.953 161.008 78.5967 161.666 76.2378C162.309 73.9394 162.966 71.6454 163.625 69.3516C163.819 68.6433 164.013 67.935 164.212 67.2052C165.923 61.3206 167.879 59.6691 174 60Z" fill="#4B0082"></path>
<path d="M170 117C170.27 124.67 169.479 131.936 168.25 139.5C168.014 141.095 168.014 141.095 167.773 142.723C166.087 153.298 163.337 162.813 155 170C145.259 176.581 130.427 177.654 119 177C119.33 176.34 119.66 175.68 120 175C122.089 174.511 124.198 174.111 126.312 173.75C135.332 171.911 145.132 168.864 150.836 161.125C156.878 150.096 157.953 136.227 160 124C160.202 122.792 160.405 121.584 160.613 120.34C160.805 119.182 160.805 119.182 161 118C164.196 116.935 166.657 116.926 170 117Z" fill="#4B0082"></path>
<path d="M125 64C126 65 126 65 126.125 67.5C126 70 126 70 125 71C122.308 71.2368 119.635 71.422 116.937 71.5625C115.8 71.6273 115.8 71.6273 114.639 71.6934C112.759 71.7997 110.88 71.9004 109 72C109.055 72.5512 109.111 73.1025 109.168 73.6704C110.244 84.5401 111.167 95.4006 111.687 106.312C111.736 107.267 111.784 108.221 111.834 109.204C111.891 110.52 111.891 110.52 111.949 111.863C111.984 112.64 112.018 113.416 112.053 114.216C112 116 112 116 111 117C108 117.125 108 117.125 105 117C102.894 114.894 103.458 110.463 103.246 107.547C103.148 106.268 103.148 106.268 103.049 104.964C102.911 103.155 102.776 101.346 102.643 99.5366C102.439 96.7753 102.229 94.0146 102.018 91.2539C101.885 89.4974 101.753 87.7409 101.621 85.9844C101.559 85.1602 101.496 84.3361 101.432 83.487C101.151 79.6484 100.923 75.8522 101 72C100.479 72.1637 99.9584 72.3274 99.4219 72.4961C96.3243 73.1406 93.4116 73.0941 90.25 73.0625C89.0795 73.0535 87.9091 73.0445 86.7031 73.0352C85.8111 73.0236 84.9191 73.012 84 73C83.9575 71.0005 83.9592 68.9996 84 67C85.7747 65.2253 88.3884 65.6385 90.8008 65.4648C92.0067 65.3778 93.2126 65.2908 94.4551 65.2012C95.728 65.1142 97.001 65.0271 98.3125 64.9375C99.5429 64.8466 100.773 64.7557 102.041 64.6621C117.654 63.5651 117.654 63.5651 125 64Z" fill="#4B0082"></path>
<path d="M24 69.875C27 70 27 70 28 71C28.2167 72.589 28.3716 74.1866 28.5 75.7852C28.582 76.7833 28.664 77.7814 28.7485 78.8098C28.8315 79.8832 28.9145 80.9566 29 82.0625C29.0869 83.152 29.1737 84.2415 29.2632 85.364C29.5159 88.5755 29.7603 91.7875 30 95C30.0622 95.8334 30.1244 96.6668 30.1885 97.5254C30.7827 105.688 31.1561 113.813 31 122C27.535 122.495 27.535 122.495 24 123C23.2706 120.317 22.82 117.772 22.6111 115.001C22.5211 113.839 22.5211 113.839 22.4293 112.653C22.3689 111.824 22.3084 110.995 22.2461 110.141C22.1483 108.846 22.1483 108.846 22.0486 107.525C21.9117 105.699 21.7764 103.874 21.6428 102.048C21.4392 99.2737 21.2288 96.5001 21.0176 93.7266C20.885 91.9479 20.7528 90.1693 20.6211 88.3906C20.5586 87.5695 20.4961 86.7484 20.4318 85.9024C20.0722 80.9212 19.8544 75.9945 20 71C21 70 21 70 24 69.875Z" fill="#4B0082"></path>
<path d="M86 148C87.32 148 88.64 148 90 148C91.1715 150.289 92.3374 152.581 93.5 154.875C93.8339 155.526 94.1677 156.177 94.5117 156.848C97 161.773 97 161.773 97 164C94.525 163.505 94.525 163.505 92 163C92 162.34 92 161.68 92 161C89.0656 161.267 89.0656 161.267 86 162C85.01 163.485 85.01 163.485 84 165C81.4072 165.412 79.0424 165.648 76.4375 165.75C75.7395 165.793 75.0414 165.835 74.3223 165.879C72.5501 165.972 70.7745 165.992 69 166C68 165 68 165 67.9023 161.402C67.909 159.914 67.921 158.426 67.9375 156.938C67.942 156.179 67.9465 155.42 67.9512 154.639C67.963 152.759 67.9809 150.88 68 149C69.32 149 70.64 149 72 149C72 153.29 72 157.58 72 162C74.64 162 77.28 162 80 162C80.2655 161.325 80.5311 160.649 80.8047 159.953C81.1579 159.061 81.5111 158.169 81.875 157.25C82.3971 155.927 82.3971 155.927 82.9297 154.578C83.8647 152.326 84.8778 150.164 86 148ZM88 154C87.67 154.99 87.34 155.98 87 157C87.99 156.67 88.98 156.34 90 156C89.34 155.34 88.68 154.68 88 154Z" fill="#4B0082"></path>
<path d="M57 127C58.65 127 60.3 127 62 127C62.9041 130.837 63.1058 134.375 63.0625 138.312C63.0535 139.381 63.0445 140.45 63.0352 141.551C63.0236 142.359 63.012 143.167 63 144C61.68 144 60.36 144 59 144C58.67 143.01 58.34 142.02 58 141C57.67 141.99 57.34 142.98 57 144C55.68 144 54.36 144 53 144C52.67 143.34 52.34 142.68 52 142C51.01 142.99 50.02 143.98 49 145C48.34 144.67 47.68 144.34 47 144C46.6876 141.286 46.4866 138.661 46.375 135.938C46.3363 135.179 46.2977 134.42 46.2578 133.639C46.1633 131.76 46.0805 129.88 46 128C47.98 128 49.96 128 52 128C52.66 129.98 53.32 131.96 54 134C54.33 134 54.66 134 55 134C55.66 131.69 56.32 129.38 57 127Z" fill="#4B0082"></path>
<path d="M130.875 122.75C131.759 122.724 132.644 122.698 133.555 122.672C136 123 136 123 137.84 124.359C139 126 139 126 138.688 128.5C138.461 129.325 138.234 130.15 138 131C138 134.576 139.088 136.053 141 139C139.68 139.33 138.36 139.66 137 140C136.381 139.196 135.762 138.391 135.125 137.562C133.258 134.961 133.258 134.961 131 134C130.67 135.98 130.34 137.96 130 140C128.68 140 127.36 140 126 140C125.806 137.354 125.62 134.709 125.438 132.062C125.381 131.308 125.325 130.553 125.268 129.775C125.138 127.853 125.065 125.926 125 124C126.658 122.342 128.603 122.79 130.875 122.75ZM130 127C130 127.99 130 128.98 130 130C131.65 129.67 133.3 129.34 135 129C135 128.34 135 127.68 135 127C133.35 127 131.7 127 130 127Z" fill="#4B0082"></path>
<path d="M81.1481 125.293C83.1058 125.212 85.0644 125.154 87.0231 125.105C88.659 125.053 88.659 125.053 90.3278 125C91.2585 125.097 92.1892 125.193 93.1481 125.293C95.1481 128.293 95.1481 128.293 94.7731 130.793C94.5669 131.618 94.3606 132.443 94.1481 133.293C94.1481 136.497 94.8915 138.387 96.1481 141.293C91.5574 140.797 91.5574 140.797 89.5231 138.293C89.0694 137.633 88.6156 136.973 88.1481 136.293C87.1581 135.963 86.1681 135.633 85.1481 135.293C85.4781 137.273 85.8081 139.253 86.1481 141.293C84.8281 141.623 83.5081 141.953 82.1481 142.293C80.6155 139.228 81.0454 136.025 81.0856 132.668C81.0901 131.962 81.0947 131.255 81.0993 130.527C81.1111 128.783 81.129 127.038 81.1481 125.293ZM85.1481 128.293C85.4781 129.613 85.8081 130.933 86.1481 132.293C87.7981 131.633 89.4481 130.973 91.1481 130.293C90.8181 129.633 90.4881 128.973 90.1481 128.293C88.4981 128.293 86.8481 128.293 85.1481 128.293Z" fill="#4B0082"></path>
<path d="M125 146C126.958 145.919 128.916 145.861 130.875 145.812C132.511 145.76 132.511 145.76 134.18 145.707C135.11 145.804 136.041 145.9 137 146C139 149 139 149 138.687 151.062C138 153 138 153 137 155C137.516 155.598 138.031 156.196 138.562 156.812C139.274 157.895 139.274 157.895 140 159C139.67 159.99 139.34 160.98 139 162C134.752 161.528 132.8 159.033 130 156C130 157.98 130 159.96 130 162C128.68 162 127.36 162 126 162C124.933 158.538 124.898 155.36 124.937 151.75C124.951 150.134 124.951 150.134 124.965 148.484C124.976 147.665 124.988 146.845 125 146ZM129 149C129 149.99 129 150.98 129 152C130.65 152 132.3 152 134 152C134 151.01 134 150.02 134 149C132.35 149 130.7 149 129 149Z" fill="#4B0082"></path>
<path d="M113.723 123.902C115.376 123.92 115.376 123.92 117.062 123.938C118.72 123.951 118.72 123.951 120.41 123.965C121.265 123.976 122.119 123.988 123 124C123 124.99 123 125.98 123 127C120.36 127.33 117.72 127.66 115 128C115 128.66 115 129.32 115 130C117.31 130 119.62 130 122 130C122.33 130.99 122.66 131.98 123 133C122 134 122 134 118.438 134.062C117.303 134.042 116.169 134.021 115 134C115 134.99 115 135.98 115 137C117.97 137 120.94 137 124 137C124 137.99 124 138.98 124 140C121.355 141.322 119.322 141.097 116.375 141.062C115.372 141.053 114.369 141.044 113.336 141.035C112.565 141.024 111.794 141.012 111 141C110.806 138.354 110.62 135.709 110.438 133.062C110.381 132.308 110.325 131.553 110.268 130.775C110.138 128.853 110.065 126.926 110 125C111 124 111 124 113.723 123.902Z" fill="#4B0082"></path>
<path d="M151 122C152.875 124.5 152.875 124.5 154 127C152.68 127.33 151.36 127.66 150 128C150 127.34 150 126.68 150 126C148.68 126.33 147.36 126.66 146 127C147.671 127.588 147.671 127.588 149.375 128.188C152.135 129.377 152.896 129.844 154.625 132.438C155 135 155 135 154.125 137.313C151.32 139.54 149.379 139.509 145.875 139.328C144 139 144 139 142 137.688C141 136 141 136 141 133C143.763 133.523 146.326 134.109 149 135C149 134.34 149 133.68 149 133C147.298 132.412 147.298 132.412 145.562 131.813C142 130 142 130 141.062 127.313C141.042 126.549 141.021 125.786 141 125C144.266 121.985 146.584 121.248 151 122Z" fill="#4B0082"></path>
<path d="M42 129C43.375 131.062 43.375 131.062 44 133C41.2118 134.033 40.1323 134.045 37.25 133.062C36.5075 132.712 35.765 132.361 35 132C35 132.66 35 133.32 35 134C36.0931 134.103 37.1862 134.206 38.3125 134.312C42 135 42 135 44 136.25C45 138 45 138 44.8125 140.562C44 143 44 143 42 145C34.8279 145.569 34.8279 145.569 32 143.625C31 142 31 142 31 140C32.32 139.67 33.64 139.34 35 139C35.33 139.66 35.66 140.32 36 141C37.32 141 38.64 141 40 141C40.33 140.34 40.66 139.68 41 139C39.9069 138.897 38.8138 138.794 37.6875 138.687C34 138 34 138 32 136.75C31 135 31 135 31.0625 132.437C32 130 32 130 33.6875 128.625C36.8331 127.775 38.8937 128.055 42 129Z" fill="#4B0082"></path>
<path d="M69 127C70.65 127 72.3 127 74 127C75.007 129.101 76.0054 131.206 77 133.312C77.5569 134.484 78.1138 135.656 78.6875 136.863C80 140 80 140 80 143C78.68 143 77.36 143 76 143C75.67 142.34 75.34 141.68 75 141C71.9707 140.342 71.9707 140.342 69 140C68.67 140.99 68.34 141.98 68 143C67.01 143.33 66.02 143.66 65 144C63.6725 140.018 65.0009 137.552 66.4375 133.812C66.802 132.831 66.802 132.831 67.1738 131.83C67.7743 130.217 68.3861 128.608 69 127ZM71 132C70.67 133.32 70.34 134.64 70 136C70.99 136 71.98 136 73 136C72.34 134.68 71.68 133.36 71 132Z" fill="#4B0082"></path>
<path d="M53 150C54.7909 149.919 56.5829 149.861 58.375 149.812C59.8716 149.76 59.8716 149.76 61.3984 149.707C62.257 149.804 63.1155 149.9 64 150C66 153 66 153 65.75 156.125C65.5025 157.074 65.255 158.023 65 159C62.2912 160.354 59.9907 160.065 57 160C57 161.98 57 163.96 57 166C56.01 166.33 55.02 166.66 54 167C53 166 53 166 52.9023 162.402C52.909 160.914 52.921 159.426 52.9375 157.938C52.942 157.179 52.9465 156.42 52.9512 155.639C52.963 153.759 52.9809 151.88 53 150ZM57 153C57 154.32 57 155.64 57 157C58.65 156.67 60.3 156.34 62 156C61.67 155.01 61.34 154.02 61 153C59.68 153 58.36 153 57 153Z" fill="#4B0082"></path>
<path d="M96 147C98.9933 147.998 99.9477 148.752 102 151C102.99 149.68 103.98 148.36 105 147C106.32 147.33 107.64 147.66 109 148C108.361 148.99 107.721 149.98 107.062 151C104.746 155.003 104.321 158.419 104 163C102.68 163 101.36 163 100 163C99.6287 161.175 99.6287 161.175 99.25 159.312C98.2928 155.393 96.6842 153.042 94 150C94 149.34 94 148.68 94 148C94.66 147.67 95.32 147.34 96 147Z" fill="#4B0082"></path>
<path d="M68 149C69.32 149 70.64 149 72 149C72 153.29 72 157.58 72 162C73.2787 162.021 74.5575 162.041 75.875 162.062C76.5943 162.074 77.3136 162.086 78.0547 162.098C80.0819 162.126 80.0819 162.126 82 161C82 161.99 82 162.98 82 164C82.66 164.33 83.32 164.66 84 165C81.5212 165.194 79.0422 165.38 76.5625 165.562C75.8554 165.619 75.1484 165.675 74.4199 165.732C72.6157 165.862 70.8077 165.935 69 166C68 165 68 165 67.9023 161.402C67.909 159.914 67.921 158.426 67.9375 156.938C67.942 156.179 67.9465 155.42 67.9512 154.639C67.963 152.759 67.9809 150.88 68 149Z" fill="#4B0082"></path>
<path d="M96 125C100.29 125 104.58 125 109 125C109 125.99 109 126.98 109 128C107.35 128 105.7 128 104 128C104.164 128.562 104.327 129.124 104.496 129.703C105.029 132.131 105.099 134.269 105.062 136.75C105.053 137.549 105.044 138.348 105.035 139.172C105.024 139.775 105.012 140.378 105 141C103.68 141 102.36 141 101 141C100.67 137.37 100.34 133.74 100 130C98.68 129.67 97.36 129.34 96 129C96 127.68 96 126.36 96 125Z" fill="#4B0082"></path>
<path d="M113 128C113.33 128.99 113.66 129.98 114 131C116.015 131.733 116.015 131.733 118 132C116.68 132.33 115.36 132.66 114 133C114 134.32 114 135.64 114 137C117.3 137 120.6 137 124 137C124 137.99 124 138.98 124 140C121.355 141.322 119.322 141.097 116.375 141.062C115.372 141.053 114.369 141.044 113.336 141.035C112.565 141.024 111.794 141.012 111 141C110.807 136.176 111.243 132.504 113 128Z" fill="#4B0082"></path>
<path d="M38 136C40.375 135.875 40.375 135.875 43 136C43.66 136.66 44.32 137.32 45 138C44.6703 141.297 44.3773 142.623 42 145C34.8279 145.569 34.8279 145.569 32 143.625C31 142 31 142 31 140C32.32 139.67 33.64 139.34 35 139C35.33 139.66 35.66 140.32 36 141C37.32 141 38.64 141 40 141C40.33 140.34 40.66 139.68 41 139C40.01 139 39.02 139 38 139C38 138.01 38 137.02 38 136Z" fill="#4B0082"></path>
<path d="M125 146C127.31 146 129.62 146 132 146C131.67 146.66 131.34 147.32 131 148C130.34 148 129.68 148 129 148C129.66 150.31 130.32 152.62 131 155C130.34 155 129.68 155 129 155C129 157.31 129 159.62 129 162C128.01 162 127.02 162 126 162C124.933 158.538 124.898 155.36 124.937 151.75C124.951 150.134 124.951 150.134 124.965 148.484C124.976 147.665 124.988 146.845 125 146Z" fill="#4B0082"></path>
<path d="M54 151C56.64 151 59.28 151 62 151C62 151.33 62 151.66 62 152C60.02 152 58.04 152 56 152C56 153.65 56 155.3 56 157C57.65 157 59.3 157 61 157C60.01 158.485 60.01 158.485 59 160C58.34 160 57.68 160 57 160C57 161.98 57 163.96 57 166C56.01 166.33 55.02 166.66 54 167C54 161.72 54 156.44 54 151Z" fill="#4B0082"></path>
<path d="M134.562 145.625C135.367 145.749 136.171 145.873 137 146C139 149 139 149 138.688 151C138.461 151.66 138.234 152.32 138 153C137.67 153.99 137.34 154.98 137 156C136.34 156 135.68 156 135 156C135 155.01 135 154.02 135 153C133.02 153 131.04 153 129 153C129 152.67 129 152.34 129 152C130.65 151.67 132.3 151.34 134 151C134 150.67 134 150.34 134 150C132.35 149.67 130.7 149.34 129 149C130.801 146.725 131.637 146.053 134.562 145.625Z" fill="#4B0082"></path>
<path d="M69 132C69.33 132 69.66 132 70 132C70 133.65 70 135.3 70 137C71.65 137.33 73.3 137.66 75 138C75 138.33 75 138.66 75 139C73.02 139 71.04 139 69 139C68.8969 139.639 68.7938 140.279 68.6875 140.938C68.4606 141.618 68.2338 142.299 68 143C67.01 143.33 66.02 143.66 65 144C63.5975 139.792 65.094 137.883 67 134C67.66 133.34 68.32 132.68 69 132Z" fill="#4B0082"></path>
<path d="M131.062 123.938C132.517 123.968 132.517 123.968 134 124C134 124.66 134 125.32 134 126C132.35 126 130.7 126 129 126C129 127.65 129 129.3 129 131C129.99 131.33 130.98 131.66 132 132C131.01 132.495 131.01 132.495 130 133C129.342 136.029 129.342 136.029 129 139C128.34 139 127.68 139 127 139C126.973 136.688 126.954 134.375 126.938 132.062C126.926 130.775 126.914 129.487 126.902 128.16C127.03 124.02 127.03 124.02 131.062 123.938Z" fill="#4B0082"></path>
<path d="M36 128C38.875 128.25 38.875 128.25 42 129C43.375 131.062 43.375 131.062 44 133C41.2118 134.033 40.1323 134.045 37.25 133.062C36.5075 132.712 35.765 132.361 35 132C35.33 130.68 35.66 129.36 36 128Z" fill="#4B0082"></path>
<path d="M103 128C104.784 131.062 105.229 133.221 105.125 136.75C105.107 137.549 105.089 138.348 105.07 139.172C105.047 139.775 105.024 140.378 105 141C104.01 141.33 103.02 141.66 102 142C101.973 140.417 101.954 138.833 101.938 137.25C101.926 136.368 101.914 135.487 101.902 134.578C101.992 132.218 102.331 130.255 103 128Z" fill="#4B0082"></path>
<path d="M85 155C85.33 155.99 85.66 156.98 86 158C86.99 158.33 87.98 158.66 89 159C87.68 159.33 86.36 159.66 85 160C85 161.32 85 162.64 85 164C84.01 164 83.02 164 82 164C81.6308 158.462 81.6308 158.462 83.5 156.125C83.995 155.754 84.49 155.382 85 155Z" fill="#4B0082"></path>
<path d="M35 139C35.33 139.66 35.66 140.32 36 141C36.99 141.66 37.98 142.32 39 143C38.34 143 37.68 143 37 143C37 143.66 37 144.32 37 145C35.125 144.75 35.125 144.75 33 144C31.75 141.938 31.75 141.938 31 140C33 139 33 139 35 139Z" fill="#4B0082"></path>
<path d="M146 123C147.98 123 149.96 123 152 123C152.66 124.32 153.32 125.64 154 127C152.68 127.33 151.36 127.66 150 128C149.67 127.34 149.34 126.68 149 126C148.01 125.67 147.02 125.34 146 125C146 124.34 146 123.68 146 123Z" fill="#4B0082"></path>
<path d="M117.293 147.005C119.15 147.036 119.15 147.036 121.043 147.068C121.043 148.388 121.043 149.708 121.043 151.068C118.403 151.068 115.763 151.068 113.043 151.068C113.043 151.728 113.043 152.388 113.043 153.068C115.683 153.068 118.323 153.068 121.043 153.068C121.043 154.388 121.043 155.708 121.043 157.068C118.733 157.068 116.423 157.068 114.043 157.068C114.043 158.058 114.043 159.048 114.043 160.068C116.683 160.068 119.323 160.068 122.043 160.068C122.373 161.058 122.703 162.048 123.043 163.068C120.049 163.94 117.408 164.176 114.293 164.13C113.494 164.121 112.695 164.112 111.871 164.103C111.268 164.091 110.665 164.08 110.043 164.068C108.915 158.707 108.946 153.515 109.043 148.068C111.873 147.258 114.354 146.956 117.293 147.005Z" fill="#4B0082"></path>
</svg><style>@media (prefers-color-scheme: light) { :root { filter: none; } }
@media (prefers-color-scheme: dark) { :root { filter: invert(100%); } }
</style></svg>