<svg width="213" height="67" viewBox="0 0 213 67" fill="none" xmlns="http://www.w3.org/2000/svg">
<path d="M9 10C20.88 10 32.76 10 45 10C45 21.88 45 33.76 45 46C33.12 46 21.24 46 9 46C9 34.12 9 22.24 9 10ZM17 22C17 22.99 17 23.98 17 25C17.99 25 18.98 25 20 25C20 28.3 20 31.6 20 35C20.99 35 21.98 35 23 35C23 31.7 23 28.4 23 25C24.32 25 25.64 25 27 25C27.99 28.3 28.98 31.6 30 35C31.65 35 33.3 35 35 35C36.32 30.71 37.64 26.42 39 22C37.68 22 36.36 22 35 22C34.01 24.31 33.02 26.62 32 29C31.34 26.69 30.68 24.38 30 22C25.71 22 21.42 22 17 22Z" fill="#EBEBEB"/>
<path d="M48 10C51.1762 9.93816 54.3525 9.87628 57.625 9.81253C59.1093 9.77156 59.1093 9.77156 60.6235 9.72977C65.8493 9.68065 69.4864 10.0535 74 13C75.7257 15.0259 76.0158 16.2907 75.957 18.9297C75.586 22.7522 75.1891 24.7163 73 28C73.6394 28.2888 74.2788 28.5775 74.9375 28.875C77 30 77 30 78 32C78.7015 39.1323 78.7015 39.1323 75.625 42.9375C71.9827 45.7993 70.3318 46.1227 65.7734 46.0977C64.38 46.0939 64.38 46.0939 62.9585 46.0901C61.7759 46.081 60.5934 46.0719 59.375 46.0625C53.7444 46.0316 53.7444 46.0316 48 46C48 34.12 48 22.24 48 10ZM58 18C58 19.98 58 21.96 58 24C61.465 23.505 61.465 23.505 65 23C64.67 21.35 64.34 19.7 64 18C62.02 18 60.04 18 58 18ZM58 32C58 33.98 58 35.96 58 38C62.0101 38.1787 62.0101 38.1787 66 38C66.66 37.34 67.32 36.68 68 36C67.67 34.68 67.34 33.36 67 32C64.03 32 61.06 32 58 32Z" fill="#F3F3F3"/>
<path d="M164 9C167.3 9 170.6 9 174 9C174 12.3 174 15.6 174 19C174.66 18.67 175.32 18.34 176 18C180.632 17.4449 183.982 17.3636 188 19.875C190.987 23.049 191.122 24.7517 191.098 29.0078C191.094 29.9939 191.091 30.9801 191.088 31.9961C191.08 33.0286 191.071 34.0612 191.062 35.125C191.058 36.1653 191.053 37.2055 191.049 38.2773C191.037 40.8516 191.019 43.4258 191 46C187.7 46 184.4 46 181 46C180.67 40.39 180.34 34.78 180 29C178.35 29 176.7 29 175 29C174.67 34.61 174.34 40.22 174 46C170.7 46 167.4 46 164 46C164 33.79 164 21.58 164 9Z" fill="#F0F0F0"/>
<path d="M119 18C121.583 20.1899 123.484 21.9683 125 25C125.137 28.3374 125.043 31.6585 125 35C120.05 35.33 115.1 35.66 110 36C111.215 37.4349 111.215 37.4349 114.813 37.25C118.283 37.6301 118.85 37.8535 121.5 40.4375C123 43 123 43 123 45C117.295 47.2264 112.649 47.9869 106.813 45.8125C103.068 43.3996 100.642 41.3385 99.4297 36.9219C98.5625 31.4969 99.2309 27.8699 102 23C106.5 17.2585 112.088 16.1148 119 18ZM110 26C110.33 26.99 110.66 27.98 111 29C112.98 29 114.96 29 117 29C116.34 27.68 115.68 26.36 115 25C112.075 24.7764 112.075 24.7764 110 26Z" fill="#EBEBEB"/>
<path d="M142.041 17.8865C142.916 17.8917 143.79 17.8969 144.691 17.9023C145.636 17.9056 146.58 17.9088 147.553 17.9121C148.546 17.9205 149.539 17.9289 150.562 17.9375C151.56 17.942 152.557 17.9465 153.584 17.9512C156.056 17.963 158.528 17.9795 161 18C162.037 22.7925 161.958 25.0146 159.258 29.2539C157.304 31.9664 155.206 34.4876 153 37C155.97 37.33 158.94 37.66 162 38C162.042 40.3329 162.041 42.667 162 45C161 46 161 46 158.867 46.1135C157.95 46.1083 157.034 46.1031 156.09 46.0977C155.1 46.0944 154.111 46.0912 153.092 46.0879C152.051 46.0795 151.01 46.0711 149.937 46.0625C148.893 46.058 147.848 46.0535 146.771 46.0488C144.181 46.037 141.59 46.0205 139 46C138.539 40.236 139.432 37.5785 143 33.0625C143.742 32.1047 144.485 31.147 145.25 30.1602C145.827 29.4473 146.405 28.7345 147 28C145.866 27.8556 144.731 27.7113 143.562 27.5625C140 27 140 27 139 26C138.875 22.5 138.875 22.5 139 19C140 18 140 18 142.041 17.8865Z" fill="#E8E8E8"/>
<path d="M93.5 17.875C94.2735 17.8724 95.0469 17.8698 95.8438 17.8672C98 18 98 18 101 19C100.34 21.97 99.68 24.94 99 28C96.9492 28.2279 94.8985 28.4557 92.8477 28.6836C90.9886 28.8189 90.9886 28.8189 90 30C89.7632 32.6924 89.578 35.365 89.4375 38.0625C89.3943 38.8211 89.3512 39.5797 89.3067 40.3613C89.2003 42.2407 89.0996 44.1203 89 46C85.7 46 82.4 46 79 46C78.9186 43.2911 78.8593 40.5846 78.8125 37.875C78.7874 37.1145 78.7623 36.3539 78.7364 35.5703C78.6575 29.4694 79.9181 25.4073 84 20.6875C87.0521 18.1123 89.6481 17.8622 93.5 17.875Z" fill="#EEEEEE"/>
<path d="M127 18C130.3 18 133.6 18 137 18C137 27.24 137 36.48 137 46C133.7 46 130.4 46 127 46C127 36.76 127 27.52 127 18Z" fill="#EEEEEE"/>
</svg>
