<svg width="223" height="77" viewBox="0 0 223 77" fill="none" xmlns="http://www.w3.org/2000/svg">
<g clip-path="url(#clip0_10_40)">
<path d="M0 0C73.59 0 147.18 0 223 0C223 25.41 223 50.82 223 77C149.41 77 75.82 77 0 77C0 51.59 0 26.18 0 0Z" fill="#090909"/>
<path d="M154 6C170.5 6 187 6 204 6C206 19 206 19 206 25C196.91 26.6587 187.819 27.7338 178.625 28.625C177.285 28.7601 175.945 28.8955 174.605 29.0312C169.044 29.5801 163.594 30.0794 158 30C157.325 27.1267 156.66 24.2517 156 21.375C155.809 20.5668 155.618 19.7585 155.422 18.9258C155.241 18.133 155.061 17.3402 154.875 16.5234C154.707 15.8008 154.54 15.0781 154.367 14.3335C154 12 154 12 154 6Z" fill="#1996D8"/>
<path d="M177 6C184.59 6 192.18 6 200 6C199.67 7.32 199.34 8.64 199 10C199.495 10.6187 199.99 11.2375 200.5 11.875C202 14 202 14 202.187 17C200.656 20.8698 198.999 21.7513 195.277 23.3867C191.575 24.3836 188.722 23.7975 185 23C184.67 21.35 184.34 19.7 184 18C182.35 18 180.7 18 179 18C179 19.65 179 21.3 179 23C177.68 23 176.36 23 175 23C174.67 20.03 174.34 17.06 174 14C173.34 14 172.68 14 172 14C172.062 15.2581 172.124 16.5163 172.187 17.8125C172.169 20.3947 172.132 21.7445 170.937 24.0625C167.858 25.5524 165.251 24.6748 162 24C158.556 14.59 158.556 14.59 159 10C159.99 10 160.98 10 162 10C162.336 11.4577 162.669 12.9162 163 14.375C163.278 15.5932 163.278 15.5932 163.562 16.8359C164 19 164 19 164 21C165.32 21 166.64 21 168 21C167.67 17.37 167.34 13.74 167 10C168.32 10 169.64 10 171 10C171.33 10.66 171.66 11.32 172 12C172.33 11.01 172.66 10.02 173 9C174.32 9 175.64 9 177 9C177 8.01 177 7.02 177 6Z" fill="#289EDC"/>
<path d="M64 25C66.97 25 69.94 25 73 25C75.31 29.29 77.62 33.58 80 38C80.33 38 80.66 38 81 38C81.66 33.71 82.32 29.42 83 25C85.31 25 87.62 25 90 25C89.4814 34.1021 88.5377 43.0128 87 52C84.36 52 81.72 52 79 52C76.36 47.05 73.72 42.1 71 37C70.01 41.62 69.02 46.24 68 51C65.69 51 63.38 51 61 51C61.99 42.42 62.98 33.84 64 25Z" fill="#F3F3F3"/>
<path d="M43 25C46.3 25 49.6 25 53 25C53.84 28.561 54.6722 32.1236 55.5 35.6875C55.7385 36.6949 55.977 37.7023 56.2227 38.7402C56.4482 39.7167 56.6738 40.6932 56.9062 41.6992C57.1157 42.5947 57.3252 43.4902 57.541 44.4128C57.9999 46.9997 58.0826 49.3789 58 52C55.69 52 53.38 52 51 52C50.505 49.525 50.505 49.525 50 47C48.5405 47.0601 47.0822 47.1489 45.625 47.25C44.8129 47.2964 44.0008 47.3428 43.1641 47.3906C40.8116 47.7922 40.8116 47.7922 39.7109 50.0469C39.4763 50.6914 39.2417 51.3359 39 52C36.36 52 33.72 52 31 52C31.6068 48.169 32.7481 45.1503 34.5039 41.6992C34.997 40.7228 35.49 39.7463 35.998 38.7402C36.5143 37.7328 37.0306 36.7254 37.5625 35.6875C38.0826 34.6608 38.6028 33.634 39.1387 32.5762C40.4204 30.048 41.7077 27.5228 43 25Z" fill="#EEEEEE"/>
<path d="M105.066 24.9023C106.302 24.9197 106.302 24.9197 107.562 24.9375C108.389 24.9465 109.215 24.9555 110.066 24.9648C110.704 24.9764 111.343 24.988 112 25C114.241 33.9854 116.411 42.7261 117 52C114.69 52 112.38 52 110 52C109.505 49.525 109.505 49.525 109 47C107.541 47.0601 106.082 47.1489 104.625 47.25C103.813 47.2964 103.001 47.3428 102.164 47.3906C99.8116 47.7922 99.8116 47.7922 98.7109 50.0469C98.4763 50.6914 98.2417 51.3359 98 52C95.36 52 92.72 52 90 52C91.6775 46.2197 94.3528 41.0342 97.0625 35.6875C97.5221 34.769 97.9816 33.8506 98.4551 32.9043C102.42 25.0274 102.42 25.0274 105.066 24.9023Z" fill="#F1F1F1"/>
<path d="M147 24C149.64 24 152.28 24 155 24C155 26.97 155 29.94 155 33C157.97 33 160.94 33 164 33C164 35.64 164 38.28 164 41C160.7 41 157.4 41 154 41C154 44.3 154 47.6 154 51C151.69 51 149.38 51 147 51C147 47.7 147 44.4 147 41C143.7 41 140.4 41 137 41C137 38.36 137 35.72 137 33C140.3 33 143.6 33 147 33C147 30.03 147 27.06 147 24Z" fill="#F4F4F4"/>
<path d="M31.0625 25C31.7019 25.33 32.3412 25.66 33 26C32.67 28.31 32.34 30.62 32 33C31.4844 32.835 30.9687 32.67 30.4375 32.5C27.1916 31.8342 24.3046 31.7597 21 32C19.2049 33.1542 19.2049 33.1542 18 35C17.6385 37.2833 17.6385 37.2833 17.8125 39.6875C17.8396 40.4957 17.8666 41.304 17.8945 42.1367C17.9293 42.7516 17.9641 43.3665 18 44C24.0605 45.0812 24.0605 45.0812 30 44C29.7444 46.3431 29.4073 48.6784 29 51C25.2406 52.8797 21.083 52.6582 17 52C13.0187 49.7454 10.4528 47.3583 8.99999 43C8.46142 38.3648 8.54821 34.9209 10.625 30.6875C16.6208 23.9028 22.5117 22.2079 31.0625 25Z" fill="#F2F2F2"/>
<path d="M127.562 24.9375C128.697 24.9581 129.831 24.9787 131 25C130.036 38.6333 130.036 38.6333 129 45C131.64 45 134.28 45 137 45C136.67 47.31 136.34 49.62 136 52C130.72 52 125.44 52 120 52C120.526 45.6036 121.177 39.2391 122 32.875C122.165 31.5937 122.33 30.3123 122.5 28.9922C123.165 25.0147 123.165 25.0147 127.562 24.9375Z" fill="#EBEBEB"/>
<path d="M200 6C201.32 6 202.64 6 204 6C204.339 8.04072 204.671 10.0826 205 12.125C205.186 13.262 205.371 14.3989 205.562 15.5703C205.97 18.7614 206.078 21.7882 206 25C204.126 25.3396 202.251 25.6714 200.375 26C199.331 26.1856 198.287 26.3713 197.211 26.5625C194.094 26.9872 191.141 27.0755 188 27C188 26.01 188 25.02 188 24C188.681 23.8969 189.361 23.7938 190.062 23.6875C193.716 22.8324 196.712 21.8335 200 20C201.329 17.1093 201.329 17.1093 201 14C199.689 11.6371 199.689 11.6371 198 10C198.66 8.68 199.32 7.36 200 6Z" fill="#1594D5"/>
<path d="M174 10C174.99 10 175.98 10 177 10C177.33 11.65 177.66 13.3 178 15C179.65 15 181.3 15 183 15C183 13.35 183 11.7 183 10C184.32 10 185.64 10 187 10C187.33 14.29 187.66 18.58 188 23C187.01 23 186.02 23 185 23C184.67 21.35 184.34 19.7 184 18C182.35 18 180.7 18 179 18C179 19.65 179 21.3 179 23C177.68 23 176.36 23 175 23C173.898 18.5909 173.923 14.5162 174 10Z" fill="#E9F4F6"/>
<path d="M159 10C159.99 10 160.98 10 162 10C162.336 11.4577 162.669 12.9162 163 14.375C163.278 15.5932 163.278 15.5932 163.562 16.8359C164 19 164 19 164 21C165.32 21 166.64 21 168 21C167.67 17.37 167.34 13.74 167 10C168.32 10 169.64 10 171 10C172.113 14.5923 173.24 19.6655 170.937 24C167.867 25.585 165.278 24.6804 162 24C158.556 14.59 158.556 14.59 159 10Z" fill="#E5F2F6"/>
<path d="M190 10C190.99 10 191.98 10 193 10C193.33 12.97 193.66 15.94 194 19C194.99 18.67 195.98 18.34 197 18C197.33 15.36 197.66 12.72 198 10C200.062 11.625 200.062 11.625 202 14C201.938 17.125 201.938 17.125 201 20C197.356 22.4295 195.288 22.1618 191 22C190.67 18.04 190.34 14.08 190 10Z" fill="#FAFCFA"/>
<path d="M189 9C195.152 8.90234 195.152 8.90234 197 9C198 10 198 10 198.098 11.8477C198.049 14.9238 198.049 14.9238 198 18C196.68 18.33 195.36 18.66 194 19C193.67 16.03 193.34 13.06 193 10C192.01 10 191.02 10 190 10C189.67 10.66 189.34 11.32 189 12C189 11.01 189 10.02 189 9Z" fill="#CEE7EF"/>
<path d="M195 22C195.99 22.33 196.98 22.66 198 23C197.67 23.66 197.34 24.32 197 25C198.65 25 200.3 25 202 25C202 25.33 202 25.66 202 26C197.38 26.33 192.76 26.66 188 27C188 26.01 188 25.02 188 24C188.784 23.8556 189.567 23.7113 190.375 23.5625C192.964 23.122 192.964 23.122 195 22Z" fill="#138ED0"/>
<path d="M179 7C181.339 7.2873 183.674 7.61937 186 8C184.68 8.33 183.36 8.66 182 9C182.33 10.98 182.66 12.96 183 15C181.35 15 179.7 15 178 15C177.958 12.6671 177.959 10.333 178 8C178.33 7.67 178.66 7.34 179 7Z" fill="#1D99DB"/>
<path d="M201 19C201.99 19.33 202.98 19.66 204 20C204.33 21.65 204.66 23.3 205 25C202.36 25 199.72 25 197 25C197.312 23.125 197.312 23.125 198 21C198.99 20.34 199.98 19.68 201 19Z" fill="#1798DD"/>
<path d="M168 6C170.97 6 173.94 6 177 6C177 6.99 177 7.98 177 9C175.68 9 174.36 9 173 9C172.67 10.32 172.34 11.64 172 13C168 8.25 168 8.25 168 6Z" fill="#1697DB"/>
<path d="M198 10C200.063 11.625 200.063 11.625 202 14C201.75 17.25 201.75 17.25 201 20C200.01 20 199.02 20 198 20C196.358 16.717 197.481 13.5745 198 10Z" fill="#DFEFF2"/>
<path d="M194 12C195.32 12.33 196.64 12.66 198 13C198 14.65 198 16.3 198 18C196.68 18.33 195.36 18.66 194 19C194 16.69 194 14.38 194 12Z" fill="#1F9BDC"/>
<path d="M164 15C166.062 15.4375 166.062 15.4375 168 16C168 17.65 168 19.3 168 21C166.68 21 165.36 21 164 21C163.618 19.3439 163.286 17.6754 163 16C163.33 15.67 163.66 15.34 164 15Z" fill="#269DDB"/>
<path d="M106 33C106.33 33 106.66 33 107 33C107.33 35.64 107.66 38.28 108 41C106.35 41 104.7 41 103 41C104.875 34.125 104.875 34.125 106 33Z" fill="#202020"/>
<path d="M202 14C202.99 14.33 203.98 14.66 205 15C205.33 18.3 205.66 21.6 206 25C204 23 204 23 203 20C202.34 19.34 201.68 18.68 201 18C201.375 15.875 201.375 15.875 202 14Z" fill="#1A85C0"/>
<path d="M46 34C48.3595 36.3595 48.4914 37.779 49 41C47.35 41 45.7 41 44 41C44.875 36.25 44.875 36.25 46 34Z" fill="#1F1F1F"/>
<path d="M190 16C190.33 16 190.66 16 191 16C191 17.98 191 19.96 191 22C192.32 22.33 193.64 22.66 195 23C192.333 24.3333 190.833 23.671 188 23C188.875 17.125 188.875 17.125 190 16Z" fill="#30A2DE"/>
<path d="M179 18C180.65 18 182.3 18 184 18C183.375 20.4375 183.375 20.4375 182 23C178.875 23.8125 178.875 23.8125 176 24C176.99 23.67 177.98 23.34 179 23C179 21.35 179 19.7 179 18Z" fill="#30A3DF"/>
<path d="M193 19C194.65 19 196.3 19 198 19C198 19.99 198 20.98 198 22C195.69 22 193.38 22 191 22C191.66 21.67 192.32 21.34 193 21C193 20.34 193 19.68 193 19Z" fill="#EDF6F5"/>
<path d="M156.75 14C157.493 14.33 158.235 14.66 159 15C159 16.65 159 18.3 159 20C158.01 19.67 157.02 19.34 156 19C156.248 17.35 156.495 15.7 156.75 14Z" fill="#138ED0"/>
<path d="M157 10C157.66 10.66 158.32 11.32 159 12C158.812 14 158.812 14 158 16C156.515 16.99 156.515 16.99 155 18C155.875 11.125 155.875 11.125 157 10Z" fill="#138ED0"/>
<path d="M159 10C159.99 10 160.98 10 162 10C162 11.98 162 13.96 162 16C161.01 16.495 161.01 16.495 160 17C159.67 14.69 159.34 12.38 159 10Z" fill="#F3F9F7"/>
</g>
<defs>
<clipPath id="clip0_10_40">
<rect width="223" height="77" fill="white"/>
</clipPath>
</defs>
</svg>
