<svg width="220" height="102" viewBox="0 0 220 102" fill="none" xmlns="http://www.w3.org/2000/svg">
<g clip-path="url(#clip0_10_12869)">
<path d="M0 0C72.6 0 145.2 0 220 0C220 33.66 220 67.32 220 102C147.4 102 74.8 102 0 102C0 68.34 0 34.68 0 0ZM22 13C19.9976 17.6163 19.664 21.9698 19.6875 26.9375C19.6714 27.6149 19.6553 28.2923 19.6387 28.9902C19.6337 34.133 20.6766 37.5199 23 42C26.6747 45.6747 29.9039 46.3419 34.9375 46.625C40.1346 46.444 43.1474 45.4547 46.7969 41.7344C48.5292 39.2372 48.9285 37.0035 49 34C46.1685 33.5819 46.1685 33.5819 43 34C42.3813 34.825 41.7625 35.65 41.125 36.5C39 39 39 39 37.082 39.4023C33.2466 39.4652 31.222 39.148 28 37C27.6118 34.9688 27.6118 34.9688 27.6016 32.5C27.5977 31.6131 27.5938 30.7262 27.5898 29.8125C27.6014 28.8844 27.613 27.9563 27.625 27C27.6134 26.0719 27.6018 25.1438 27.5898 24.1875C27.5937 23.3006 27.5976 22.4137 27.6016 21.5C27.6049 20.6853 27.6083 19.8706 27.6118 19.0312C27.7399 18.3609 27.868 17.6906 28 17C31.7505 14.4997 33.5586 14.464 38 15C39.6871 16.646 41.3546 18.3124 43 20C46.2106 20.4189 46.2106 20.4189 49 20C48.723 16.0299 48.2332 14.2761 45.625 11.1875C41.2801 7.56677 37.2575 7.59843 31.8008 7.65625C27.6406 8.16685 24.6259 9.70807 22 13ZM52 8C52 20.54 52 33.08 52 46C53.98 46 55.96 46 58 46C58.0146 45.3493 58.0292 44.6985 58.0442 44.0281C58.1186 41.0806 58.2153 38.1343 58.3125 35.1875C58.3351 34.1633 58.3576 33.1392 58.3809 32.084C58.4163 31.1011 58.4518 30.1182 58.4883 29.1055C58.5145 28.1995 58.5406 27.2935 58.5676 26.3601C59.0745 23.5934 59.7811 22.6783 62 21C64.7988 20.4846 67.1176 20.7712 70 21C72.5614 23.5614 72.2967 24.6656 72.4141 28.2266C72.4527 29.2578 72.4914 30.2891 72.5312 31.3516C72.5622 32.4318 72.5931 33.512 72.625 34.625C72.6637 35.713 72.7023 36.8009 72.7422 37.9219C72.8367 40.6144 72.9222 43.3069 73 46C74.98 46 76.96 46 79 46C79.1458 41.9587 79.2342 37.9181 79.3125 33.875C79.3544 32.7329 79.3963 31.5908 79.4395 30.4141C79.6968 23.3648 79.6968 23.3648 76.6211 17.2852C73.2963 14.3865 71.2525 12.9217 66.7539 13.0781C62.2266 13.4792 62.2266 13.4792 58 15C58 12.69 58 10.38 58 8C56.02 8 54.04 8 52 8ZM83 18C83 19.32 83 20.64 83 22C87.1081 22.2707 87.1081 22.2707 90.9062 20.9688C93.4829 19.7766 94.9664 19.9657 97.75 20.375C98.5492 20.4859 99.3484 20.5967 100.172 20.7109C100.775 20.8063 101.378 20.9017 102 21C102 22.32 102 23.64 102 25C101.276 24.9652 100.551 24.9304 99.8047 24.8945C93.0213 24.7046 88.791 25.2548 83.1875 29.3125C81.3751 31.8881 81.1229 33.8668 81 37C82.2355 40.7066 83.2359 42.4922 86.5039 44.6641C91.0878 46.4157 95.0207 46.3301 99.875 46.1875C100.754 46.174 101.633 46.1604 102.539 46.1465C104.693 46.1114 106.847 46.0576 109 46C109.087 42.1043 109.141 38.2089 109.188 34.3125C109.213 33.2097 109.238 32.1069 109.264 30.9707C109.273 29.904 109.283 28.8373 109.293 27.7383C109.309 26.759 109.324 25.7797 109.341 24.7708C108.79 20.2944 106.438 16.8647 103 14C95.7036 11.5679 88.5926 12.4074 83 18ZM112 19C110.939 23.5865 110.939 23.5865 111.734 28.1211C114.09 31.6174 118.061 32.0996 122 33C125.328 33.4801 128.644 33.7968 132 34C131.625 35.9375 131.625 35.9375 131 38C127.826 39.5868 124.448 39.5508 121 39C119.974 37.6866 118.973 36.3534 118 35C114.374 34.6662 114.374 34.6662 111 35C111.816 39.2434 112.402 41.4716 115.688 44.375C121.004 46.9832 125.018 47.5016 130.688 45.875C134.667 44.3742 136.939 42.8535 139 39C139.75 36 139.75 36 139 33C135.316 28.3674 131.868 27.0409 126.188 26.1875C125.495 26.067 124.802 25.9464 124.088 25.8223C122.395 25.5304 120.698 25.2627 119 25C119.33 23.68 119.66 22.36 120 21C125.288 19.9423 125.288 19.9423 128 20C129.374 21.291 130.709 22.6257 132 24C135.668 24.3342 135.668 24.3342 139 24C138.586 19.1659 136.622 17.1046 133 14C124.611 11.2035 118.24 12.7604 112 19ZM143.188 17.25C141.252 20.1024 141.117 22.6002 141 26C141.83 28.9108 141.83 28.9108 144 31C149.735 33.3897 155.849 33.5773 162 34C161.625 35.9375 161.625 35.9375 161 38C157.816 39.5922 154.458 39.5326 151 39C149.627 37.7077 148.29 36.3756 147 35C143.832 34.6655 143.832 34.6655 141 35C141.296 38.4581 141.963 39.9551 144.188 42.6875C148.304 46.072 151.714 47.2777 157 46.875C161.787 46.0955 165.397 44.0214 168.438 40.1875C169.3 36.8344 168.847 34.3291 168 31C164.711 27.6293 160.718 27.0853 156.25 26.3125C155.553 26.1829 154.855 26.0534 154.137 25.9199C152.426 25.6036 150.713 25.3005 149 25C149.33 23.68 149.66 22.36 150 21C156.352 19.7784 156.352 19.7784 159.375 20.8125C161 22 161 22 162 24C164.31 24 166.62 24 169 24C167.759 19.0357 166.239 16.8613 162 14C155.529 10.7644 148.709 13.4421 143.188 17.25ZM172.824 18.0859C170.387 21.9792 170.371 24.9354 170.438 29.4375C170.414 30.1755 170.39 30.9135 170.365 31.6738C170.376 35.6108 170.777 38.2516 173.223 41.4102C177.955 45.8229 181.443 46.2537 187.812 46.125C188.974 46.107 190.135 46.0889 191.332 46.0703C192.212 46.0471 193.093 46.0239 194 46C194 44.02 194 42.04 194 40C193.264 39.9626 192.528 39.9252 191.77 39.8867C181.863 39.2193 181.863 39.2193 178 36C177.67 35.34 177.34 34.68 177 34C183.93 34 190.86 34 198 34C198.94 25.1837 198.94 25.1837 195.812 17.3125C192.179 14.3249 189.777 13.1931 185.125 12.6875C180.185 13.1815 176.43 14.6287 172.824 18.0859ZM92 54C92.33 54.99 92.66 55.98 93 57C93.5917 56.9162 94.1834 56.8324 94.793 56.7461C99.0994 56.1911 102.756 55.7677 107 57C107 55.68 107 54.36 107 53C101.157 48.4556 97.6227 49.9108 92 54ZM22 59C21.6564 63.5524 22.0052 66.8858 24 71C23.01 71.6806 23.01 71.6806 22 72.375C19.36 75.84 19.3681 78.2521 19.5508 82.5234C20.3039 86.6752 21.8141 88.2297 25 91C30.0029 93.6151 34.6291 93.0762 40 92C42.9151 91.0552 42.9151 91.0552 45 90C45.66 90.66 46.32 91.32 47 92C48.32 92 49.64 92 51 92C49.7799 89.3094 49.7799 89.3094 48 87C47.9282 85.4807 47.9161 83.9583 47.9375 82.4375C47.9465 81.6112 47.9555 80.7849 47.9648 79.9336C47.9764 79.2955 47.988 78.6574 48 78C46.68 78.33 45.36 78.66 44 79C44 80.32 44 81.64 44 83C39.2605 78.9498 34.7293 74.8182 30.4453 70.2852C29.0732 68.7785 29.0732 68.7785 27 69C26.67 65.7 26.34 62.4 26 59C31.4976 57.6256 36.7222 56.8116 41.875 59.5C42.5763 59.995 43.2775 60.49 44 61C44.99 61 45.98 61 47 61C46.8782 59.0853 46.8782 59.0853 46 57C42.2906 54.2496 39.5816 53.5899 35 53.625C33.9894 53.6173 32.9787 53.6095 31.9375 53.6016C27.6453 54.1837 25.0241 55.9759 22 59ZM56 54C56 66.54 56 79.08 56 92C57.98 92 59.96 92 62 92C62 88.04 62 84.08 62 80C62.8804 80.0348 63.7609 80.0696 64.668 80.1055C66.4101 80.1461 66.4101 80.1461 68.1875 80.1875C69.9103 80.2397 69.9103 80.2397 71.668 80.293C76.3991 79.877 78.8833 78.0262 82.3125 74.875C84.677 70.8465 84.7724 67.5622 84 63C82.1684 58.879 80.6497 57.3748 76.75 55.125C70.2187 53.3854 70.2187 53.3854 56 54ZM146 54C146 66.54 146 79.08 146 92C148.31 92 150.62 92 153 92C153.015 91.3137 153.029 90.6275 153.044 89.9204C153.119 86.8214 153.215 83.7234 153.312 80.625C153.335 79.5448 153.358 78.4645 153.381 77.3516C153.416 76.3203 153.452 75.2891 153.488 74.2266C153.514 73.2735 153.541 72.3204 153.568 71.3384C153.71 70.5667 153.853 69.795 154 69C157.673 66.551 159.664 66.6846 164 67C166.561 69.5614 166.297 70.6656 166.414 74.2266C166.453 75.2578 166.491 76.2891 166.531 77.3516C166.562 78.4318 166.593 79.512 166.625 80.625C166.664 81.713 166.702 82.8009 166.742 83.9219C166.837 86.6144 166.922 89.3069 167 92C169.31 92 171.62 92 174 92C174.088 88.2918 174.141 84.5839 174.188 80.875C174.213 79.8283 174.238 78.7816 174.264 77.7031C174.317 72.0527 174.288 67.8402 171 63C167 59.2503 162.615 59.7126 157.426 59.7969C154.992 59.8497 154.992 59.8497 153 61C153.021 60.0306 153.041 59.0612 153.062 58.0625C153.356 55.1253 153.356 55.1253 152 54C150.02 54 148.04 54 146 54ZM118.625 64.4375C116.108 68.4066 115.845 71.7818 115.812 76.4375C115.798 77.3643 115.784 78.2912 115.77 79.2461C116.078 82.936 116.886 85.7715 119.402 88.5469C124.411 92.4723 127.645 93.4309 134 93C138.652 91.2671 141.292 89.1662 144 85C144 84.01 144 83.02 144 82C140.584 81.7498 140.584 81.7498 137 82C136.34 82.99 135.68 83.98 135 85C131.562 86.0695 129.701 86.2756 126.328 84.9492C124 83 124 83 123.441 79.7148C123.501 77.8451 123.501 77.8451 123.562 75.9375C123.584 74.6884 123.606 73.4393 123.629 72.1523C124 69 124 69 126 67C129.033 66.505 131.965 66.5167 135 67C136.688 69 136.688 69 138 71C141.126 71.334 141.126 71.334 144 71C143.811 66.9346 143.242 65.2719 140.5 62.1875C133.414 56.9367 124.668 58.2356 118.625 64.4375ZM89.125 63.4375C85.7662 67.4878 85.815 70.7547 85.75 75.875C85.7113 77.6964 85.7113 77.6964 85.6719 79.5547C86.1365 84.4331 87.9066 86.9066 91.3125 90.3125C96.3602 93.527 103.288 92.2817 109 92C109 90.02 109 88.04 109 86C108.169 85.951 107.337 85.902 106.48 85.8516C105.394 85.7768 104.307 85.702 103.188 85.625C102.109 85.5554 101.03 85.4858 99.918 85.4141C97 85 97 85 94 83C93.67 82.01 93.34 81.02 93 80C99.93 80 106.86 80 114 80C114.693 71.3789 114.693 71.3789 111 64C104.506 57.5062 96.0794 57.5414 89.125 63.4375ZM178 64C175.497 67.6682 175.598 71.5819 175.562 75.875C175.53 76.5698 175.497 77.2646 175.463 77.9805C175.423 81.8403 175.911 84.3946 178.277 87.3828C183.01 91.9322 185.672 92.2468 192.25 92.125C194.145 92.0979 194.145 92.0979 196.078 92.0703C197.042 92.0471 198.007 92.0239 199 92C199 90.02 199 88.04 199 86C198.18 85.9394 197.36 85.8788 196.516 85.8164C195.438 85.7326 194.36 85.6488 193.25 85.5625C192.183 85.4813 191.115 85.4001 190.016 85.3164C187.563 85.0591 185.361 84.6819 183 84C182.67 82.68 182.34 81.36 182 80C188.93 80 195.86 80 203 80C203.083 77.9581 203.165 75.9162 203.25 73.8125C203.296 72.6639 203.343 71.5154 203.391 70.332C202.92 66.314 201.857 64.8116 199 62C192.566 57.6669 183.501 58.9218 178 64Z" fill="#A8653B"/>
<path d="M25.1711 73C29.6106 73.4526 32.3099 76.4722 35.4211 79.375C35.9754 79.87 36.5297 80.365 37.1008 80.875C38.5216 82.1838 39.8537 83.5873 41.1711 85C41.1711 85.99 41.1711 86.98 41.1711 88C37.5035 90.3473 34.4541 90.4431 30.1711 90C24.6327 86.9231 24.6327 86.9231 23.1711 84C22.8156 76.5333 22.8156 76.5333 25.1711 73Z" fill="#A86337"/>
<path d="M103 30.0238C103.312 32.8363 103.312 32.8363 103 36.0238C100.307 38.3998 98.5012 38.9727 94.9375 39.3363C92.1045 39.0349 90.4034 38.5028 88 37.0238C88.875 32.1488 88.875 32.1488 90 31.0238C94.3749 30.3676 98.5693 29.8854 103 30.0238Z" fill="#955938"/>
<path d="M190 20.6742C192 22.6742 192 22.6742 192 26.6742C187.05 26.6742 182.1 26.6742 177 26.6742C178 21.6742 178 21.6742 180.688 19.7367C184.68 18.4561 186.268 18.8931 190 20.6742Z" fill="#A9663D"/>
<path d="M103 65.3667C105 66.5542 105 66.5542 106 68.3667C106 70.0167 106 71.6667 106 73.3667C101.38 73.3667 96.76 73.3667 92 73.3667C92 68.3667 92 68.3667 93 66.5542C96.1961 64.6565 99.3833 64.8167 103 65.3667Z" fill="#B46B40"/>
<path d="M192 65.2731C194.438 66.4606 194.438 66.4606 196 68.2731C196 69.9231 196 71.5731 196 73.2731C191.38 73.2731 186.76 73.2731 182 73.2731C181.67 71.9531 181.34 70.6331 181 69.2731C183.976 64.8089 186.875 64.6325 192 65.2731Z" fill="#985E3A"/>
<path d="M61 60.2625C72.3531 59.7689 72.3531 59.7689 75.3906 62.0867C77 64.2625 77 64.2625 77 67.325C75.8356 70.7456 75.0791 71.4821 72 73.2625C68.2891 73.6512 64.7435 73.3962 61 73.2625C61 68.9725 61 64.6825 61 60.2625Z" fill="#965C3B"/>
</g>
<defs>
<clipPath id="clip0_10_12869">
<rect width="220" height="102" fill="white"/>
</clipPath>
</defs>
</svg>
